<svg width="26" height="28" viewBox="0 0 26 28" fill="none" xmlns="http://www.w3.org/2000/svg">
<g filter="url(#filter0_d_2_10003)">
<path d="M3.5798 19.0112L3.5598 19.0312C3.2898 18.4413 3.1198 17.7713 3.0498 17.0312C3.1198 17.7613 3.3098 18.4212 3.5798 19.0112Z" fill="url(#paint0_linear_2_10003)"/>
</g>
<g filter="url(#filter1_d_2_10003)">
<path d="M12.3801 7.99719C12.3801 9.31163 11.3146 10.3772 10.0001 10.3772C8.68568 10.3772 7.62012 9.31163 7.62012 7.99719C7.62012 6.68275 8.68568 5.61719 10.0001 5.61719C11.3146 5.61719 12.3801 6.68275 12.3801 7.99719Z" fill="url(#paint1_linear_2_10003)"/>
</g>
<g filter="url(#filter2_d_2_10003)">
<path d="M17.19 2H8.81C5.17 2 3 4.17 3 7.81V16.19C3 17.28 3.19 18.23 3.56 19.03C4.42 20.93 6.26 22 8.81 22H17.19C20.83 22 23 19.83 23 16.19V13.9V7.81C23 4.17 20.83 2 17.19 2ZM21.37 12.5C20.59 11.83 19.33 11.83 18.55 12.5L14.39 16.07C13.61 16.74 12.35 16.74 11.57 16.07L11.23 15.79C10.52 15.17 9.39 15.11 8.59 15.65L4.85 18.16C4.63 17.6 4.5 16.95 4.5 16.19V7.81C4.5 4.99 5.99 3.5 8.81 3.5H17.19C20.01 3.5 21.5 4.99 21.5 7.81V12.61L21.37 12.5Z" fill="url(#paint2_linear_2_10003)"/>
</g>
<defs>
<filter id="filter0_d_2_10003" x="0.0498047" y="17.0312" width="6.53027" height="8" filterUnits="userSpaceOnUse" color-interpolation-filters="sRGB">
<feFlood flood-opacity="0" result="BackgroundImageFix"/>
<feColorMatrix in="SourceAlpha" type="matrix" values="0 0 0 0 0 0 0 0 0 0 0 0 0 0 0 0 0 0 127 0" result="hardAlpha"/>
<feOffset dy="3"/>
<feGaussianBlur stdDeviation="1.5"/>
<feComposite in2="hardAlpha" operator="out"/>
<feColorMatrix type="matrix" values="0 0 0 0 0 0 0 0 0 0 0 0 0 0 0 0 0 0 0.160784 0"/>
<feBlend mode="normal" in2="BackgroundImageFix" result="effect1_dropShadow_2_10003"/>
<feBlend mode="normal" in="SourceGraphic" in2="effect1_dropShadow_2_10003" result="shape"/>
</filter>
<filter id="filter1_d_2_10003" x="4.62012" y="5.61719" width="10.7598" height="10.7578" filterUnits="userSpaceOnUse" color-interpolation-filters="sRGB">
<feFlood flood-opacity="0" result="BackgroundImageFix"/>
<feColorMatrix in="SourceAlpha" type="matrix" values="0 0 0 0 0 0 0 0 0 0 0 0 0 0 0 0 0 0 127 0" result="hardAlpha"/>
<feOffset dy="3"/>
<feGaussianBlur stdDeviation="1.5"/>
<feComposite in2="hardAlpha" operator="out"/>
<feColorMatrix type="matrix" values="0 0 0 0 0 0 0 0 0 0 0 0 0 0 0 0 0 0 0.160784 0"/>
<feBlend mode="normal" in2="BackgroundImageFix" result="effect1_dropShadow_2_10003"/>
<feBlend mode="normal" in="SourceGraphic" in2="effect1_dropShadow_2_10003" result="shape"/>
</filter>
<filter id="filter2_d_2_10003" x="0" y="2" width="26" height="26" filterUnits="userSpaceOnUse" color-interpolation-filters="sRGB">
<feFlood flood-opacity="0" result="BackgroundImageFix"/>
<feColorMatrix in="SourceAlpha" type="matrix" values="0 0 0 0 0 0 0 0 0 0 0 0 0 0 0 0 0 0 127 0" result="hardAlpha"/>
<feOffset dy="3"/>
<feGaussianBlur stdDeviation="1.5"/>
<feComposite in2="hardAlpha" operator="out"/>
<feColorMatrix type="matrix" values="0 0 0 0 0 0 0 0 0 0 0 0 0 0 0 0 0 0 0.160784 0"/>
<feBlend mode="normal" in2="BackgroundImageFix" result="effect1_dropShadow_2_10003"/>
<feBlend mode="normal" in="SourceGraphic" in2="effect1_dropShadow_2_10003" result="shape"/>
</filter>
<linearGradient id="paint0_linear_2_10003" x1="3.1823" y1="17.5312" x2="3.1823" y2="17.5312" gradientUnits="userSpaceOnUse">
<stop stop-color="#19F97E"/>
<stop offset="1" stop-color="#0A9F62"/>
</linearGradient>
<linearGradient id="paint1_linear_2_10003" x1="8.81012" y1="6.80719" x2="8.81012" y2="6.80719" gradientUnits="userSpaceOnUse">
<stop stop-color="#19F97E"/>
<stop offset="1" stop-color="#0A9F62"/>
</linearGradient>
<linearGradient id="paint2_linear_2_10003" x1="8" y1="7" x2="8" y2="7" gradientUnits="userSpaceOnUse">
<stop stop-color="#19F97E"/>
<stop offset="1" stop-color="#0A9F62"/>
</linearGradient>
</defs>
</svg>
