<svg width="27" height="24" viewBox="0 0 27 24" fill="none" xmlns="http://www.w3.org/2000/svg">
<path fill-rule="evenodd" clip-rule="evenodd" d="M22.6523 0.0078125C23.2262 0.285492 23.3126 0.594025 23.0163 1.18024C22.9548 1.30368 22.9795 1.48264 22.9979 1.63065C23.0287 1.92062 23.109 2.2045 23.1213 2.49454C23.1522 3.17941 22.7572 3.57437 22.0785 3.53735C21.7701 3.5188 21.4676 3.44485 21.1653 3.40155C20.7765 3.33987 20.7086 3.40775 20.7765 3.79645C20.8259 4.06183 20.8815 4.32715 20.9123 4.59247C21.0048 5.31451 20.5915 5.78342 19.8695 5.75256C19.5486 5.74014 19.2339 5.65381 18.913 5.6106C18.5552 5.56125 18.5119 5.6106 18.5675 5.95615C18.6106 6.20917 18.66 6.45596 18.7033 6.70892C18.8328 7.56668 18.3207 8.08499 17.4568 7.94922C17.173 7.90607 16.8952 7.8443 16.6177 7.80115C16.3894 7.77029 16.3277 7.81961 16.3523 8.04797C16.3769 8.28241 16.4325 8.51688 16.4634 8.75137C16.4819 8.88098 16.5004 9.01056 16.5004 9.14011C16.5127 9.83124 16.0747 10.2385 15.3835 10.1645C15.1183 10.1397 14.8529 10.0842 14.5876 10.0287C14.3838 9.98544 14.205 9.99161 14.0198 10.1212C13.7298 10.3187 13.335 10.2385 13.1252 9.97314C12.9029 9.6954 12.9215 9.30054 13.1744 9.04758C13.5138 8.70822 13.9397 8.6095 14.4024 8.62799C14.5998 8.63416 14.7973 8.67114 15.0257 8.6958C14.9393 8.04178 14.8467 7.3754 15.3774 6.8447C15.9018 6.31403 16.5621 6.39423 17.2408 6.48682C17.1483 5.81427 17.0619 5.14789 17.5987 4.62338C18.1233 4.10501 18.7772 4.18518 19.4498 4.2778C19.345 3.60526 19.2709 2.94495 19.8015 2.42044C20.3261 1.89597 20.9739 1.96393 21.6589 2.07489C21.6404 1.93301 21.6219 1.80341 21.6096 1.67999C21.5601 1.29126 21.5787 0.908722 21.7577 0.550781C21.881 0.303986 22.0722 0.118927 22.3252 0.0078125C22.4365 0.0078125 22.5412 0.0078125 22.6523 0.0078125Z" fill="url(#paint0_linear_2_12080)"/>
<path fill-rule="evenodd" clip-rule="evenodd" d="M0.531595 23.6985C0.000924528 23.4332 -0.110129 23.1556 0.0996794 22.6002C0.624154 21.1934 1.15479 19.7927 1.6793 18.3857C1.70396 18.3179 1.73484 18.2501 1.78416 18.1328C2.45677 19.7124 3.38233 21.076 4.59791 22.267C4.50535 22.3102 4.43748 22.341 4.36961 22.3658C3.2404 22.7914 2.10505 23.2172 0.975839 23.643C0.932626 23.6616 0.895608 23.6861 0.858621 23.7046C0.747568 23.6985 0.636514 23.6985 0.531595 23.6985Z" fill="url(#paint1_linear_2_12080)"/>
<path fill-rule="evenodd" clip-rule="evenodd" d="M7.11522 6.84375C7.96675 7.69522 8.79362 8.52209 9.61427 9.3613C9.66981 9.41678 9.68217 9.54019 9.68217 9.63281C9.52794 12.6193 10.3239 15.3282 12.0763 17.7531C12.3972 18.2036 12.7736 18.6169 13.1315 19.0613C13.0945 19.0797 13.0451 19.1106 12.9895 19.1291C12.1935 19.4315 11.3914 19.7276 10.5954 20.0362C10.4535 20.0917 10.3609 20.067 10.2437 19.9745C7.99147 18.1048 6.64632 15.723 6.23906 12.8291C5.95521 10.8051 6.24525 8.85529 7.04741 6.9733C7.05971 6.94247 7.07823 6.91165 7.11522 6.84375Z" fill="url(#paint2_linear_2_12080)"/>
<path fill-rule="evenodd" clip-rule="evenodd" d="M4.78245 10.1328C4.51103 14.3102 5.86854 17.7904 8.87352 20.6473C8.81797 20.6781 8.7686 20.709 8.71925 20.7274C7.89247 21.036 7.05937 21.3445 6.23872 21.6593C6.10301 21.7086 6.01664 21.6901 5.91169 21.5975C4.2827 20.1351 3.16587 18.3519 2.59816 16.2292C2.5735 16.1305 2.56733 16.0133 2.60435 15.9207C3.30165 14.0387 4.00502 12.1568 4.71464 10.2809C4.72081 10.2501 4.74549 10.2191 4.78245 10.1328Z" fill="url(#paint3_linear_2_12080)"/>
<path fill-rule="evenodd" clip-rule="evenodd" d="M11.0527 10.8047C11.1453 10.8911 11.2069 10.9405 11.2563 10.996C13.1013 12.841 14.9401 14.6797 16.7851 16.5247C16.9702 16.7036 17.1059 16.9011 17.0813 17.1726C17.0504 17.4565 16.9023 17.6663 16.6308 17.765C16.0014 18.0056 15.3658 18.2463 14.7241 18.4745C14.6624 18.4993 14.5452 18.4622 14.4897 18.4129C13.1383 17.1294 12.1696 15.6053 11.5895 13.8344C11.2748 12.8656 11.0959 11.8783 11.0527 10.8047Z" fill="url(#paint4_linear_2_12080)"/>
<g filter="url(#filter0_d_2_12080)">
<path fill-rule="evenodd" clip-rule="evenodd" d="M22.5229 11.2037C22.1836 11.1483 21.8934 11.0804 21.6036 11.068C19.9005 10.9631 18.506 11.6604 17.2904 12.7834C17.204 12.8636 17.1238 12.95 17.0373 13.0179C16.7535 13.24 16.3525 13.2092 16.1117 12.9623C15.8588 12.7032 15.8342 12.2774 16.0933 12.0183C17.8271 10.3029 19.8449 9.35879 22.3439 9.76599C22.4735 9.78458 22.603 9.82159 22.7266 9.86474C23.0474 9.97589 23.2324 10.3091 23.177 10.636C23.1153 10.9754 22.8191 11.2099 22.5229 11.2037Z" fill="url(#paint5_linear_2_12080)"/>
</g>
<path fill-rule="evenodd" clip-rule="evenodd" d="M14.0754 2.44807C13.9952 4.35475 13.2177 5.93443 11.9527 7.31044C11.8725 7.3968 11.7923 7.47703 11.7121 7.55717C11.422 7.83488 11.0148 7.84724 10.7371 7.58192C10.4595 7.31657 10.4471 6.87846 10.731 6.58845C11.2122 6.09489 11.6442 5.56416 11.965 4.95329C12.5698 3.81175 12.8166 2.62086 12.5019 1.34358C12.4155 0.991801 12.6376 0.627818 12.9771 0.529124C13.3411 0.424205 13.736 0.609263 13.8224 0.979533C13.9334 1.46083 13.9952 1.95448 14.0754 2.44807Z" fill="url(#paint6_linear_2_12080)"/>
<path fill-rule="evenodd" clip-rule="evenodd" d="M21.2208 14.4289C21.227 14.8175 20.931 15.1262 20.5483 15.1324C20.1657 15.1447 19.8389 14.8238 19.8389 14.4412C19.8389 14.0648 20.1472 13.7501 20.5298 13.7501C20.9123 13.7439 21.2147 14.0462 21.2208 14.4289Z" fill="url(#paint7_linear_2_12080)"/>
<path fill-rule="evenodd" clip-rule="evenodd" d="M10.4291 3.65048C10.423 4.03299 10.1021 4.34152 9.72574 4.33539C9.34326 4.32919 9.04077 4.01453 9.04697 3.6319C9.05313 3.2493 9.3617 2.95312 9.7504 2.95312C10.1331 2.95935 10.4354 3.26785 10.4291 3.65048Z" fill="url(#paint8_linear_2_12080)"/>
<path fill-rule="evenodd" clip-rule="evenodd" d="M16.6114 3.35107C16.2289 3.35107 15.9203 3.05493 15.9142 2.6661C15.908 2.28354 16.2166 1.97503 16.5991 1.96884C16.9818 1.96274 17.2903 2.27127 17.2903 2.65375C17.2964 3.04251 17.0001 3.34488 16.6114 3.35107Z" fill="url(#paint9_linear_2_12080)"/>
<path fill-rule="evenodd" clip-rule="evenodd" d="M22.2026 7.55991C22.2087 7.94247 21.9003 8.25101 21.5176 8.25717C21.135 8.2634 20.8204 7.9548 20.8204 7.57227C20.8142 7.1897 21.1288 6.8812 21.5052 6.875C21.8878 6.875 22.2026 7.18353 22.2026 7.55991Z" fill="url(#paint10_linear_2_12080)"/>
<defs>
<filter id="filter0_d_2_12080" x="12.9102" y="9.67188" width="13.2764" height="9.49219" filterUnits="userSpaceOnUse" color-interpolation-filters="sRGB">
<feFlood flood-opacity="0" result="BackgroundImageFix"/>
<feColorMatrix in="SourceAlpha" type="matrix" values="0 0 0 0 0 0 0 0 0 0 0 0 0 0 0 0 0 0 127 0" result="hardAlpha"/>
<feOffset dy="3"/>
<feGaussianBlur stdDeviation="1.5"/>
<feComposite in2="hardAlpha" operator="out"/>
<feColorMatrix type="matrix" values="0 0 0 0 0 0 0 0 0 0 0 0 0 0 0 0 0 0 0.160784 0"/>
<feBlend mode="normal" in2="BackgroundImageFix" result="effect1_dropShadow_2_12080"/>
<feBlend mode="normal" in="SourceGraphic" in2="effect1_dropShadow_2_12080" result="shape"/>
</filter>
<linearGradient id="paint0_linear_2_12080" x1="15.5237" y1="2.56364" x2="15.5237" y2="2.56364" gradientUnits="userSpaceOnUse">
<stop stop-color="#19F97E"/>
<stop offset="1" stop-color="#0A9F62"/>
</linearGradient>
<linearGradient id="paint1_linear_2_12080" x1="1.14948" y1="19.5258" x2="1.14948" y2="19.5258" gradientUnits="userSpaceOnUse">
<stop stop-color="#19F97E"/>
<stop offset="1" stop-color="#0A9F62"/>
</linearGradient>
<linearGradient id="paint2_linear_2_12080" x1="7.88248" y1="10.1492" x2="7.88248" y2="10.1492" gradientUnits="userSpaceOnUse">
<stop stop-color="#19F97E"/>
<stop offset="1" stop-color="#0A9F62"/>
</linearGradient>
<linearGradient id="paint3_linear_2_12080" x1="4.15197" y1="13.0211" x2="4.15197" y2="13.0211" gradientUnits="userSpaceOnUse">
<stop stop-color="#19F97E"/>
<stop offset="1" stop-color="#0A9F62"/>
</linearGradient>
<linearGradient id="paint4_linear_2_12080" x1="12.5606" y1="12.7241" x2="12.5606" y2="12.7241" gradientUnits="userSpaceOnUse">
<stop stop-color="#19F97E"/>
<stop offset="1" stop-color="#0A9F62"/>
</linearGradient>
<linearGradient id="paint5_linear_2_12080" x1="17.7293" y1="10.5458" x2="17.7293" y2="10.5458" gradientUnits="userSpaceOnUse">
<stop stop-color="#19F97E"/>
<stop offset="1" stop-color="#0A9F62"/>
</linearGradient>
<linearGradient id="paint6_linear_2_12080" x1="11.4114" y1="2.31835" x2="11.4114" y2="2.31835" gradientUnits="userSpaceOnUse">
<stop stop-color="#19F97E"/>
<stop offset="1" stop-color="#0A9F62"/>
</linearGradient>
<linearGradient id="paint7_linear_2_12080" x1="20.1844" y1="14.0957" x2="20.1844" y2="14.0957" gradientUnits="userSpaceOnUse">
<stop stop-color="#19F97E"/>
<stop offset="1" stop-color="#0A9F62"/>
</linearGradient>
<linearGradient id="paint8_linear_2_12080" x1="9.39246" y1="3.29871" x2="9.39246" y2="3.29871" gradientUnits="userSpaceOnUse">
<stop stop-color="#19F97E"/>
<stop offset="1" stop-color="#0A9F62"/>
</linearGradient>
<linearGradient id="paint9_linear_2_12080" x1="16.2581" y1="2.31433" x2="16.2581" y2="2.31433" gradientUnits="userSpaceOnUse">
<stop stop-color="#19F97E"/>
<stop offset="1" stop-color="#0A9F62"/>
</linearGradient>
<linearGradient id="paint10_linear_2_12080" x1="21.1659" y1="7.22057" x2="21.1659" y2="7.22057" gradientUnits="userSpaceOnUse">
<stop stop-color="#19F97E"/>
<stop offset="1" stop-color="#0A9F62"/>
</linearGradient>
</defs>
</svg>
