<svg width="27" height="24" viewBox="0 0 27 24" fill="none" xmlns="http://www.w3.org/2000/svg">
<path fill-rule="evenodd" clip-rule="evenodd" d="M0.531112 23.6898C-0.0013622 23.4258 -0.110588 23.1482 0.0987612 22.5884C2.01931 17.464 3.93986 12.344 5.86041 7.21951C5.95598 6.96465 6.0652 6.73255 6.34737 6.64152C6.58858 6.56416 6.82068 6.59601 7.02093 6.7644C7.09374 6.82357 7.15746 6.89183 7.22117 6.95555C10.3978 10.1322 13.579 13.3134 16.7556 16.49C17.2881 17.0225 17.1789 17.555 16.4735 17.8189C11.3171 19.7531 6.15623 21.6873 0.999873 23.6215C0.949811 23.6397 0.9043 23.667 0.858789 23.6898C0.749564 23.6898 0.640338 23.6898 0.531112 23.6898ZM6.86619 8.4938C6.62498 9.14006 6.41564 9.69528 6.21084 10.2505C6.18808 10.3142 6.18353 10.387 6.17443 10.4553C6.09251 11.32 6.13347 12.1802 6.27 13.0358C6.62953 15.2794 7.57616 17.2409 9.10986 18.9157C9.20088 19.0159 9.27825 19.0341 9.41023 18.984C10.061 18.7291 10.7209 18.4879 11.3763 18.2422C11.6448 18.1421 11.9179 18.0419 12.1955 17.9327C12.0089 17.6642 11.8359 17.4184 11.6721 17.1681C10.5935 15.4888 9.93361 13.6593 9.72881 11.6705C9.7106 11.4748 9.63779 11.3291 9.4967 11.1926C8.70937 10.4189 7.93569 9.63613 7.15746 8.85789C7.06644 8.76232 6.98452 8.64399 6.86619 8.4938ZM4.95929 13.6274C4.91834 13.7048 4.90013 13.7366 4.88648 13.773C4.36766 15.1566 3.84884 16.5355 3.33457 17.9236C3.30271 18.0055 3.31636 18.1239 3.35277 18.2012C3.75326 19.0386 4.26298 19.8032 4.86372 20.5177C4.95929 20.6315 5.03666 20.6315 5.15954 20.5814C5.71022 20.3675 6.26545 20.1627 6.82068 19.9534C7.14836 19.8305 7.48058 19.7076 7.84012 19.5711C6.34737 17.8462 5.3962 15.8893 4.95929 13.6274ZM11.4127 13.1859C11.4173 13.1996 11.4218 13.236 11.4309 13.2724C11.8041 14.6559 12.423 15.9166 13.2832 17.0635C13.5563 17.4275 13.5563 17.4275 13.9749 17.2728C14.1615 17.2 14.3481 17.1363 14.5347 17.0635C14.7213 16.9906 14.9125 16.9178 15.0672 16.8541C13.843 15.6208 12.6233 14.3965 11.4127 13.1859ZM1.87367 21.8102C2.47442 21.5827 3.02509 21.3779 3.58032 21.1685C3.2572 20.7089 2.94773 20.2674 2.6246 19.8123C2.37429 20.4677 2.13309 21.1139 1.87367 21.8102Z" fill="#92A299"/>
<path fill-rule="evenodd" clip-rule="evenodd" d="M22.6448 0.00454998C23.2182 0.282165 23.3047 0.591638 23.0134 1.17417C22.9543 1.29705 22.977 1.47454 22.9907 1.62018C23.0225 1.91144 23.1045 2.19816 23.1181 2.48488C23.15 3.16754 22.754 3.56348 22.0714 3.52707C21.7665 3.50887 21.4615 3.43605 21.1612 3.39054C20.7698 3.32683 20.7061 3.39509 20.7743 3.78193C20.8244 4.0641 20.8881 4.34171 20.9154 4.62388C20.9882 5.31109 20.5786 5.76164 19.8914 5.73434C19.5637 5.72069 19.2361 5.63877 18.9084 5.59326C18.5489 5.54774 18.5079 5.59326 18.5625 5.93914C18.6035 6.18944 18.6581 6.43975 18.6945 6.69006C18.8265 7.55021 18.3122 8.06448 17.452 7.9325C17.1699 7.88699 16.8923 7.82783 16.6101 7.78687C16.3825 7.75501 16.3234 7.80962 16.3461 8.03263C16.3734 8.27838 16.4326 8.51504 16.4645 8.7608C16.4872 8.94284 16.5054 9.12943 16.4918 9.31147C16.4645 9.75292 16.1687 10.1034 15.7272 10.1261C15.3631 10.1443 14.9945 10.0806 14.6304 10.026C14.4028 9.99413 14.2071 9.97593 13.9978 10.1216C13.7065 10.3173 13.3151 10.2171 13.1103 9.94407C12.9055 9.66646 12.9283 9.28417 13.174 9.03386C13.5154 8.69253 13.9432 8.59696 14.4028 8.61516C14.6031 8.62426 14.7988 8.65612 15.0218 8.68342C14.9399 8.02807 14.8443 7.36362 15.3722 6.8357C15.9001 6.30777 16.5555 6.38059 17.2336 6.48526C17.1426 5.80715 17.0561 5.14725 17.5886 4.61933C18.1165 4.10051 18.7673 4.18242 19.4409 4.27345C19.3407 3.59989 19.2634 2.93999 19.7913 2.41661C20.3147 1.89779 20.9655 1.96151 21.6481 2.07073C21.6299 1.9251 21.6117 1.80222 21.5981 1.67479C21.5526 1.28795 21.5662 0.905662 21.7483 0.546127C21.8757 0.295818 22.0623 0.113777 22.3171 0C22.4309 0.00454998 22.5401 0.00454998 22.6448 0.00454998Z" fill="#92A299"/>
<path fill-rule="evenodd" clip-rule="evenodd" d="M22.4716 11.2106C22.3078 11.1742 22.1439 11.1332 21.9801 11.1105C20.4919 10.892 19.1812 11.3335 17.9933 12.2027C17.6702 12.4394 17.3835 12.7215 17.0831 12.9809C16.8328 13.1948 16.5143 13.2267 16.2503 13.0629C15.9909 12.9081 15.8589 12.6032 15.9454 12.3074C15.9818 12.1891 16.05 12.0616 16.1365 11.9752C17.2879 10.8283 18.6214 10.0137 20.2461 9.74514C21.0653 9.60861 21.8891 9.61771 22.6946 9.85436C23.0041 9.94539 23.1952 10.223 23.1861 10.5325C23.177 10.8328 22.9768 11.0923 22.6809 11.1787C22.6172 11.1969 22.5444 11.2015 22.4716 11.2106Z" fill="#92A299"/>
<path fill-rule="evenodd" clip-rule="evenodd" d="M14.0701 2.43623C13.9927 4.34313 13.2191 5.9269 11.9584 7.30132C11.8765 7.39234 11.79 7.48336 11.7035 7.56528C11.4123 7.83834 10.9981 7.84289 10.7251 7.57438C10.4566 7.31042 10.4657 6.89627 10.7114 6.59135C11.1165 6.09073 11.5579 5.60832 11.8856 5.05765C12.5728 3.90623 12.8231 2.65924 12.4954 1.33033C12.409 0.979894 12.6411 0.611258 12.9824 0.524788C13.3465 0.429216 13.7333 0.61581 13.8198 0.984446C13.9336 1.46231 13.9882 1.95382 14.0701 2.43623Z" fill="#92A299"/>
<path fill-rule="evenodd" clip-rule="evenodd" d="M21.2156 14.4373C21.2156 14.8241 20.9198 15.129 20.5375 15.1336C20.1552 15.1381 19.8275 14.815 19.8321 14.4327C19.8366 14.055 20.1507 13.7455 20.5284 13.75C20.9152 13.7501 21.2156 14.0504 21.2156 14.4373Z" fill="#92A299"/>
<path fill-rule="evenodd" clip-rule="evenodd" d="M9.73771 2.96094C10.1245 2.96094 10.4295 3.26586 10.4295 3.64815C10.4295 4.02589 10.1109 4.33991 9.73316 4.33991C9.35087 4.33991 9.0414 4.02589 9.04595 3.6436C9.04595 3.26131 9.35087 2.96094 9.73771 2.96094Z" fill="#92A299"/>
<path fill-rule="evenodd" clip-rule="evenodd" d="M17.2931 2.66966C17.2885 3.0565 16.9882 3.35232 16.5968 3.34777C16.2099 3.34322 15.9096 3.03375 15.9141 2.65146C15.9187 2.26917 16.2327 1.96425 16.615 1.9688C16.9973 1.97335 17.2976 2.28282 17.2931 2.66966Z" fill="#92A299"/>
<path fill-rule="evenodd" clip-rule="evenodd" d="M22.2038 7.56221C22.2084 7.9445 21.8989 8.25397 21.5166 8.25852C21.1343 8.26307 20.8249 7.9536 20.8203 7.57131C20.8203 7.19357 21.1252 6.87955 21.5075 6.875C21.8898 6.875 22.1993 7.17992 22.2038 7.56221Z" fill="#92A299"/>
</svg>
