<svg width="24" height="23" viewBox="0 0 24 23" fill="none" xmlns="http://www.w3.org/2000/svg">
<path d="M8.24673 10.462C8.21972 10.462 8.20171 10.462 8.1747 10.462C8.12968 10.453 8.06665 10.453 8.01263 10.462C5.40152 10.3809 3.42969 8.32805 3.42969 5.79798C3.42969 3.22289 5.52758 1.125 8.10267 1.125C10.6778 1.125 12.7756 3.22289 12.7756 5.79798C12.7666 8.32805 10.7858 10.3809 8.27374 10.462C8.26474 10.462 8.25573 10.462 8.24673 10.462ZM8.10267 2.47557C6.27489 2.47557 4.78026 3.97021 4.78026 5.79798C4.78026 7.59874 6.18485 9.04836 7.97661 9.11138C8.03064 9.10238 8.14769 9.10238 8.26474 9.11138C10.0295 9.03035 11.4161 7.58073 11.4251 5.79798C11.4251 3.97021 9.93044 2.47557 8.10267 2.47557Z" fill="#ffffff"/>
<path d="M14.8916 10.5829C14.8646 10.5829 14.8375 10.5829 14.8105 10.5739C14.4414 10.6099 14.0632 10.3488 14.0272 9.97967C13.9912 9.61052 14.2163 9.27738 14.5854 9.23236C14.6935 9.22335 14.8105 9.22335 14.9096 9.22335C16.2241 9.15132 17.2506 8.07087 17.2506 6.7473C17.2506 5.37872 16.1431 4.27126 14.7745 4.27126C14.4054 4.28026 14.0992 3.97413 14.0992 3.60497C14.0992 3.23582 14.4054 2.92969 14.7745 2.92969C16.8814 2.92969 18.6011 4.64942 18.6011 6.75631C18.6011 8.82719 16.9805 10.5019 14.9186 10.5829C14.9096 10.5829 14.9006 10.5829 14.8916 10.5829Z" fill="#ffffff"/>
<path d="M8.25632 20.3004C6.49157 20.3004 4.71782 19.8502 3.37625 18.9498C2.12472 18.1215 1.44043 16.987 1.44043 15.7535C1.44043 14.52 2.12472 13.3765 3.37625 12.5391C6.07739 10.7474 10.4532 10.7474 13.1364 12.5391C14.3789 13.3675 15.0722 14.502 15.0722 15.7355C15.0722 16.969 14.3879 18.1125 13.1364 18.9498C11.7858 19.8502 10.0211 20.3004 8.25632 20.3004ZM4.12357 13.6736C3.2592 14.2499 2.791 14.9882 2.791 15.7625C2.791 16.5278 3.2682 17.2661 4.12357 17.8334C6.36552 19.337 10.1471 19.337 12.3891 17.8334C13.2534 17.2571 13.7216 16.5188 13.7216 15.7445C13.7216 14.9792 13.2444 14.2409 12.3891 13.6736C10.1471 12.179 6.36552 12.179 4.12357 13.6736Z" fill="#ffffff"/>
<path d="M16.5131 18.6818C16.1979 18.6818 15.9188 18.4657 15.8558 18.1416C15.7838 17.7724 16.0179 17.4213 16.378 17.3402C16.9453 17.2232 17.4675 16.9981 17.8726 16.6829C18.3859 16.2958 18.665 15.8096 18.665 15.2964C18.665 14.7831 18.3859 14.2969 17.8817 13.9188C17.4855 13.6126 16.9903 13.3965 16.405 13.2615C16.0449 13.1805 15.8108 12.8203 15.8918 12.4511C15.9728 12.091 16.333 11.8569 16.7022 11.9379C17.4765 12.109 18.1518 12.4151 18.701 12.8383C19.5384 13.4686 20.0156 14.36 20.0156 15.2964C20.0156 16.2327 19.5293 17.1241 18.692 17.7634C18.1338 18.1956 17.4315 18.5107 16.6571 18.6638C16.6031 18.6818 16.5581 18.6818 16.5131 18.6818Z" fill="#ffffff"/>
<path d="M23.1643 17.8908C23.1643 18.2195 23.1232 18.538 23.0411 18.8462C22.9486 19.2572 22.7842 19.6578 22.5685 20.0072C21.8596 21.1989 20.5548 22.0003 19.0548 22.0003C17.9966 22.0003 17.0412 21.5996 16.322 20.942C16.0138 20.6749 15.7467 20.3565 15.5412 20.0072C15.161 19.3907 14.9453 18.6613 14.9453 17.8908C14.9453 16.7812 15.3871 15.7641 16.1063 15.0244C16.8562 14.2539 17.9042 13.7812 19.0548 13.7812C20.2671 13.7812 21.3664 14.3052 22.1061 15.1477C22.7637 15.8771 23.1643 16.8428 23.1643 17.8908Z" fill="none" stroke="#ffffff" stroke-linecap="round" stroke-linejoin="round"/>
<path d="M20.586 17.8672H17.5244H20.586Z" fill="none"/>
<path d="M20.586 17.8672H17.5244" stroke="#ffffff" stroke-linecap="round" stroke-linejoin="round"/>
<path d="M19.0547 16.3672V19.439V16.3672Z" fill="none"/>
<path d="M19.0547 16.3672V19.439" stroke="#ffffff" stroke-linecap="round" stroke-linejoin="round"/>
</svg>
