<svg width="24" height="25" viewBox="0 0 24 25" fill="none" xmlns="http://www.w3.org/2000/svg">
<path d="M0 11.9999C0 5.37254 5.37254 0 11.9999 0C18.6273 0 23.9998 5.37254 23.9998 11.9999C23.9998 18.6273 18.6273 23.9998 11.9999 23.9998C5.37254 23.9998 0 18.6273 0 11.9999Z" fill="#18ADD9"/>
<rect x="10.0498" y="16.8281" width="3.8776" height="2.04205" fill="#ECB79E"/>
<path d="M11.1282 18.3883C11.7477 18.3654 12.3672 18.1818 12.8261 17.9065C13.2161 17.6771 13.5374 17.4247 13.7668 17.1035C13.8127 17.0346 13.8586 16.9658 13.9045 16.8969V16.8281H10.0498V18.3424C10.4169 18.3654 10.784 18.3883 11.1282 18.3883Z" fill="#D1D3D4"/>
<path d="M11.9766 5.38281C9.49863 5.45164 7.61719 6.4612 7.61719 9.97169C7.61719 12.0596 7.80074 12.6562 8.42024 15.0424C8.83324 16.6944 11.0588 17.5434 11.9307 17.6122C11.9537 17.6122 11.9766 17.6122 11.9766 17.6122C11.9996 17.6122 12.0225 17.6122 12.0225 17.6122C12.8714 17.5663 15.097 16.6944 15.533 15.0424C16.1295 12.6791 16.336 12.0596 16.336 9.97169C16.359 6.4612 14.4546 5.45164 11.9766 5.38281Z" fill="#ECB79E"/>
<path d="M9.98047 16.874C10.7147 17.3329 11.4948 17.5623 11.9307 17.5853C11.9537 17.5853 11.9766 17.5853 11.9766 17.5853C11.9996 17.5853 12.0225 17.5853 12.0225 17.5853C12.4585 17.5623 13.2845 17.31 14.0416 16.8281C14.0416 16.8511 12.3437 17.6771 9.98047 16.874Z" fill="#7F4C20"/>
<path d="M15.8774 11.4182L15.6021 13.4832C16.6575 13.9421 16.841 11.51 16.841 11.51C16.5887 10.9134 15.8774 11.4182 15.8774 11.4182Z" fill="#ECB79E"/>
<path d="M7.021 11.51C7.021 11.51 7.18161 13.9421 8.25999 13.4832L7.98466 11.4182C7.96172 11.4182 7.25044 10.9134 7.021 11.51Z" fill="#ECB79E"/>
<path d="M13.9501 18.8516L19.1814 20.2053C19.1814 20.2053 20.971 20.4806 21.4299 22.0867L22.21 25.0007H12.0457H11.9539H1.7666L2.54671 22.0867C3.0056 20.4806 4.79527 20.2053 4.79527 20.2053L10.0036 18.8516H13.9501Z" fill="#ECB79E"/>
<path d="M1.7666 25.0007L2.54671 22.0867C3.0056 20.4806 4.79527 20.2053 4.79527 20.2053L10.0036 18.8516H13.9501L19.1814 20.2053C19.1814 20.2053 20.971 20.4806 21.4299 22.0867L22.21 25.0007" fill="white"/>
<path d="M12.3209 18.8516H11.9997H11.9768H11.6556L10.6919 20.3659L11.5638 21.3296H11.9768H11.9997H12.4357L13.2846 20.3659L12.3209 18.8516Z" fill="#842A32"/>
<path d="M12.4586 21.146C11.908 20.5495 11.6556 19.6546 11.8162 18.8516H11.6556L10.6919 20.3659L11.5408 21.3296H12.4127L12.5275 21.2148C12.5045 21.1919 12.4816 21.169 12.4586 21.146Z" fill="#BCBEC0"/>
<path d="M13.9268 17.9062L11.9766 18.9158L13.2614 20.8661L15.6018 19.4435L13.9268 17.9062Z" fill="#BCBEC0"/>
<path d="M13.9268 17.9062L11.9766 18.9158L13.2844 20.5908L15.4641 19.3288L13.9268 17.9062Z" fill="white"/>
<path d="M10.0494 17.8359L11.9768 18.8455L10.7148 20.7958L8.37451 19.3962L10.0494 17.8359Z" fill="#BCBEC0"/>
<path d="M10.0495 17.8359L11.9997 18.8455L10.669 20.5434L8.48926 19.2585L10.0495 17.8359Z" fill="white"/>
<path d="M8.51225 19.2387L4.79526 20.2024C4.79526 20.2024 3.0056 20.4778 2.54671 22.0838L1.7666 24.9978H22.21L21.4299 22.0838C20.971 20.4778 19.1814 20.2024 19.1814 20.2024L15.2808 19.0781L11.9768 24.8372L8.51225 19.2387Z" fill="#040A14"/>
<path d="M11.5409 21.3281L11.082 23.3931L11.9769 24.8616L12.8258 23.3931L12.4128 21.3281H11.5409Z" fill="#842A32"/>
<path d="M8.51233 19.2422L6.76855 19.7011L7.75517 20.0911L7.13567 20.8024L10.692 25.0012H12.0916L8.51233 19.2422Z" fill="black"/>
<path d="M15.281 19.1016L17.2313 19.6522L16.2447 20.0882L16.8412 20.7994L13.2849 24.9983H11.9082L15.281 19.1016Z" fill="black"/>
<path d="M15.8775 13.7551L15.5562 13.9616L15.8775 10.7035L15.3497 9.57919C15.3497 9.57919 15.8316 7.0553 12.2293 6.98648C12.2293 6.98648 9.1777 6.82586 8.78764 8.20253C8.78764 8.20253 7.13565 5.49508 11.5869 4.85264C11.5869 4.85264 16.0381 4.48555 16.5199 7.19298C16.5199 7.19298 16.8641 10.1757 16.2905 11.4377L15.8775 13.7551Z" fill="#7F4C20"/>
<path d="M7.43359 8.68555C7.43359 8.68555 7.47948 9.78688 7.68599 11.4389L8.07603 13.7563L8.39725 13.9628L8.07603 10.7047L8.6267 9.39682L8.74142 8.3414L8.78731 8.20372V6.41406C7.47948 6.57466 7.43359 8.68555 7.43359 8.68555Z" fill="#7F4C20"/>
<path d="M8.99411 6.5945C9.08589 6.70921 9.2465 6.86983 9.29239 6.96162C9.31533 6.80099 9.22356 6.66333 9.22356 6.50272C9.47595 6.61745 9.77422 6.66333 10.0266 6.75513C10.0266 6.61745 9.98072 6.45683 9.95777 6.31917C10.3708 6.27328 10.6232 6.6404 11.0132 6.6404C11.0362 6.43388 10.9214 6.27328 10.9214 6.06677C11.3344 6.04384 11.6786 6.41095 12.0687 6.388C12.0457 6.25034 11.9998 6.06677 11.9769 5.92911C12.344 5.90616 12.9405 6.388 13.2159 6.5945C13.2159 6.41095 13.2159 6.22739 13.2388 6.04384C13.7665 6.25034 14.1795 6.6404 14.6384 6.93866C14.6614 6.77806 14.5925 6.6404 14.5925 6.4798C15.1432 6.75513 15.4415 7.42049 15.8315 7.87939C15.8315 7.74171 15.7398 7.64995 15.7398 7.5352C15.8315 7.6729 15.9233 7.81056 16.038 7.94823C15.8086 7.64995 15.648 7.23695 15.5103 6.89279C15.5562 7.00749 15.625 7.14516 15.6939 7.25987C15.4644 6.93866 15.0973 6.61745 14.9826 6.22739C14.9596 6.31917 15.0055 6.41095 15.0744 6.50272C14.8908 6.27328 14.5008 5.90616 14.2254 5.81439C14.2484 5.95206 14.386 6.04384 14.409 6.18149C14.2025 6.06677 13.973 5.79144 13.7436 5.74556C13.7665 5.79144 13.7436 5.86028 13.7665 5.88322C13.4912 5.92912 13.17 5.67673 12.9405 5.53906C12.9405 5.63083 12.9864 5.69968 12.9864 5.79144C12.7799 5.74556 12.5734 5.56201 12.3669 5.53906C12.344 5.60789 12.344 5.67673 12.3669 5.74556C12.0687 5.76851 11.7933 5.63083 11.495 5.67673C11.495 5.69968 11.495 5.79144 11.518 5.81441C11.3803 5.74556 11.0132 5.63083 10.8526 5.69968C10.7149 5.74556 10.7379 5.76851 10.7608 5.92912C10.5084 5.95206 10.279 5.92912 10.0266 5.92912C10.0266 5.99796 10.0037 6.06679 10.0037 6.13562C9.82011 6.15855 9.6595 6.11267 9.47595 6.11267C9.47595 6.15855 9.453 6.18149 9.453 6.22739C9.26944 6.22739 8.99411 6.15855 9.04 6.43388C9.01706 6.43388 8.99411 6.43388 8.97116 6.41095C8.94823 6.50272 8.97116 6.57155 9.06294 6.5945" fill="#915728"/>
<path d="M8.42024 6.6875C8.44318 6.98578 8.62674 7.21523 8.6038 7.53644C8.58085 7.78882 8.51202 8.24773 8.28257 8.40833C8.28257 9.09665 8.32846 10.175 7.84663 10.7486C7.7778 10.5421 7.75485 10.2439 7.61719 10.0603C7.68602 10.1062 7.75485 10.1521 7.84663 10.1521C7.80074 9.85381 7.61719 9.46378 7.66307 9.14253C7.7778 9.23431 7.86957 9.32611 7.98429 9.41786C8.00724 9.21138 7.82368 9.05078 7.7778 8.8672C7.73191 8.68365 7.61719 8.22476 7.64013 8.01828C7.7778 8.08711 7.89252 8.24773 8.00724 8.36244C7.98429 8.15594 7.98429 7.92648 7.98429 7.72C8.07608 7.74295 8.14491 7.78882 8.23669 7.81178C8.25963 7.65115 8.14491 7.53644 8.12196 7.39877C8.09901 7.28406 8.09901 7.16933 8.09901 7.05461C8.1908 7.10049 8.28257 7.16933 8.37435 7.23816C8.32846 7.12344 8.21374 6.82515 8.32846 6.71045" fill="#915728"/>
</svg>
