<svg width="23" height="23" viewBox="0 0 23 23" fill="none" xmlns="http://www.w3.org/2000/svg">
<path d="M11.3118 10.8108C11.2839 10.8108 11.2653 10.8108 11.2374 10.8108C11.1909 10.8015 11.1258 10.8015 11.0699 10.8108C8.37221 10.727 6.33496 8.60607 6.33496 5.99207C6.33496 3.33155 8.50245 1.16406 11.163 1.16406C13.8235 1.16406 15.991 3.33155 15.991 5.99207C15.9817 8.60607 13.9351 10.727 11.3397 10.8108C11.3304 10.8108 11.3211 10.8108 11.3118 10.8108ZM11.163 2.55944C9.27456 2.55944 7.73034 4.10366 7.73034 5.99207C7.73034 7.85257 9.18153 9.35028 11.0327 9.41539C11.0792 9.40609 11.2095 9.40609 11.3304 9.41539C13.1537 9.33167 14.5863 7.83397 14.5956 5.99207C14.5956 4.10366 13.0514 2.55944 11.163 2.55944Z" fill="#ffffff"/>
<path d="M11.3213 20.9775C9.49801 20.9775 7.66541 20.5124 6.27934 19.5821C4.98629 18.7263 4.2793 17.5542 4.2793 16.2797C4.2793 15.0053 4.98629 13.8238 6.27934 12.9587C9.07009 11.1075 13.5911 11.1075 16.3633 12.9587C17.647 13.8145 18.3633 14.9867 18.3633 16.2611C18.3633 17.5355 17.6563 18.717 16.3633 19.5821C14.9679 20.5124 13.1446 20.9775 11.3213 20.9775ZM7.05145 14.1308C6.1584 14.7262 5.67467 15.489 5.67467 16.289C5.67467 17.0797 6.16771 17.8425 7.05145 18.4286C9.36777 19.9821 13.2748 19.9821 15.5912 18.4286C16.4842 17.8332 16.9679 17.0704 16.9679 16.2704C16.9679 15.4797 16.4749 14.7169 15.5912 14.1308C13.2748 12.5866 9.36777 12.5866 7.05145 14.1308Z" fill="#ffffff"/>
</svg>
