<svg width="32" height="22" viewBox="0 0 32 22" fill="none" xmlns="http://www.w3.org/2000/svg">
<path fill-rule="evenodd" clip-rule="evenodd" d="M32 10.6386C32 10.882 32 11.1253 32 11.3686C31.8413 11.9752 31.4621 12.444 31.0488 12.8913C30.6295 13.3453 30.2201 13.809 29.7876 14.2502C27.6955 16.3832 25.3881 18.2306 22.6853 19.5442C20.6532 20.5319 18.5203 21.0955 16.2449 21.0632C13.6793 21.0265 11.3322 20.2393 9.12022 18.996C6.42439 17.4807 4.12847 15.4754 2.06973 13.1856C1.57855 12.6392 1.0439 12.1183 0.854004 11.3687C0.854004 11.1253 0.854004 10.882 0.854004 10.6387C0.999283 10.1816 1.21352 9.76627 1.55163 9.41663C2.49529 8.44087 3.39004 7.41291 4.38293 6.49033C6.61404 4.41724 9.10676 2.73826 12.0057 1.72117C13.7981 1.09232 15.6407 0.814828 17.5363 0.988259C19.7195 1.18806 21.7377 1.91789 23.6456 2.97163C26.4288 4.50877 28.7879 6.56327 30.8852 8.93415C31.3396 9.44764 31.8252 9.94181 32 10.6386ZM16.4259 17.7142C20.1329 17.7153 23.1319 14.7164 23.1338 11.0066C23.1358 7.29807 20.1384 4.30045 16.4277 4.30006C12.7174 4.29966 9.7193 7.29661 9.72027 11.005C9.72132 14.7146 12.7182 17.7131 16.4259 17.7142Z" fill="url(#paint0_linear_2_8303)"/>
<path fill-rule="evenodd" clip-rule="evenodd" d="M21.2253 10.9954C21.2277 13.6359 19.0723 15.797 16.4333 15.8001C13.7939 15.8031 11.6319 13.6466 11.6289 11.008C11.626 8.36777 13.7812 6.2067 16.4207 6.20313C19.06 6.19947 21.2231 8.35703 21.2253 10.9954Z" fill="url(#paint1_linear_2_8303)"/>
<defs>
<linearGradient id="paint0_linear_2_8303" x1="24.0376" y1="19.2268" x2="10.1237" y2="19.2268" gradientUnits="userSpaceOnUse">
<stop stop-color="#18F27C"/>
<stop offset="1" stop-color="#0BA364"/>
</linearGradient>
<linearGradient id="paint1_linear_2_8303" x1="18.772" y1="14.9238" x2="14.485" y2="14.9238" gradientUnits="userSpaceOnUse">
<stop stop-color="#18F27C"/>
<stop offset="1" stop-color="#0BA364"/>
</linearGradient>
</defs>
</svg>
