<svg width="390" height="572" viewBox="0 0 390 572" fill="none" xmlns="http://www.w3.org/2000/svg">
<path d="M0.274212 45.2812C0.274212 45.2812 1.57053 45.6834 3.99919 46.4367C5.21863 46.7851 6.70959 47.2862 8.44035 47.9572C10.1862 48.5842 12.1841 49.3299 14.3574 50.302C23.1714 53.9334 35.0701 60.6775 48.3339 70.127C55.0053 74.7988 62.0509 80.1002 69.752 85.3323C77.4493 90.523 85.8482 95.7959 95.4289 99.1338C100.206 100.781 105.246 102.023 110.45 102.332C115.646 102.662 120.934 102.193 126.122 101.055C131.32 99.8827 136.329 97.9025 141.209 95.6341C146.02 93.2017 150.683 90.4471 155.147 87.3744C164.141 81.3261 172.501 74.3643 181.514 68.585C186.02 65.71 190.709 63.1728 195.608 61.2818C200.515 59.3871 205.639 58.3429 210.705 57.86C220.908 57.0309 230.728 58.8515 239.756 61.078C248.814 63.3314 257.179 66.1541 264.857 68.8419C280.176 74.3224 292.974 78.8459 302.2 81.1197C306.79 82.317 310.443 83.0892 312.948 83.5198C315.452 83.964 316.787 84.2021 316.787 84.2021C316.787 84.2021 315.452 83.9677 312.948 83.5294C310.439 83.1063 306.783 82.3434 302.189 81.1578C292.955 78.9088 280.141 74.4176 264.807 68.9796C257.126 66.3127 248.757 63.512 239.706 61.2877C230.691 59.088 220.869 57.2982 210.732 58.1536C205.692 58.6477 200.598 59.6994 195.73 61.5968C190.862 63.4894 186.203 66.0267 181.715 68.9027C172.752 74.6864 164.407 81.6724 155.41 87.7594C150.946 90.851 146.26 93.6345 141.434 96.0916C136.527 98.3864 131.487 100.396 126.248 101.595C121.014 102.755 115.665 103.245 110.408 102.925C105.147 102.626 100.045 101.383 95.2193 99.7343C85.539 96.3889 77.0836 91.1064 69.3514 85.9254C61.6165 80.6987 54.5558 75.4144 47.8838 70.7695C34.6163 61.3716 22.7714 54.7034 14.0101 51.1214C11.8449 50.1612 9.87001 49.4294 8.14302 48.8153C6.43484 48.1578 4.95194 47.6637 3.72821 47.3147C1.29579 46.5674 0 46.1695 0 46.1695L0.274212 45.2812Z" fill="#4C4C4C"/>
<path d="M0.266481 60.5234C0.266481 60.5234 1.54721 60.8977 3.95329 61.5982C6.34699 62.3058 9.8854 63.4801 14.2239 65.2415C18.5623 67.0217 23.7589 69.3703 29.5114 72.4565C35.272 75.5233 41.6122 79.2618 48.4557 83.4422C55.3142 87.5919 62.6685 92.2126 70.7588 96.5323C78.833 100.832 87.7121 104.883 97.4687 107.052C107.182 109.281 117.785 109.296 127.919 106.58C138.14 104.088 147.636 98.8959 156.561 93.0971C165.475 87.2301 173.854 80.5468 182.749 74.8889C191.617 69.2692 201.411 65.0162 211.461 64.0732C216.451 63.3984 221.411 63.6785 226.218 64.0371C230.988 64.8221 235.688 65.2759 240.168 66.3163C249.17 68.2245 257.526 70.6209 265.178 73.0135C272.844 75.3503 279.814 77.6848 286.062 79.5247C292.28 81.4673 297.778 82.8873 302.318 84.0045C306.833 85.2418 310.5 85.6568 312.944 86.2042C315.407 86.6714 316.718 86.9187 316.718 86.9187C316.718 86.9187 315.403 86.6752 312.94 86.2155C310.496 85.674 306.825 85.2681 302.311 84.0428C297.763 82.9384 292.261 81.5318 286.036 79.6064C279.783 77.7843 272.806 75.4685 265.132 73.1523C257.477 70.7811 249.116 68.41 240.134 66.5297C235.665 65.5023 230.938 65.0603 226.192 64.2882C221.399 63.9474 216.458 63.6785 211.495 64.3645C201.498 65.3329 191.777 69.5821 182.951 75.2072C174.095 80.8727 165.741 87.5747 156.813 93.488C147.892 99.3185 138.349 104.576 128.056 107.113C117.853 109.881 107.137 109.894 97.331 107.674C87.4836 105.512 78.5394 101.456 70.4228 97.163C62.291 92.8493 54.9142 88.2419 48.0482 84.1127C41.1972 79.9516 34.8645 76.2423 29.1152 73.2017C23.3772 70.144 18.2037 67.8223 13.8884 66.0668C9.55742 64.3248 6.10719 63.1887 3.69789 62.4811C1.29182 61.7875 0.00732422 61.416 0.00732422 61.416L0.266481 60.5234Z" fill="#4C4C4C"/>
<path d="M0.25513 75.766C0.25513 75.766 1.52833 76.1053 3.91881 76.7402C6.29747 77.4381 9.86222 78.1279 14.2044 79.7996C16.3815 80.6023 18.8483 81.3475 21.4221 82.4207C23.9917 83.5068 26.7709 84.6795 29.7404 85.9338C32.6492 87.3141 35.7451 88.7835 39.0083 90.3314C42.23 91.9611 45.6151 93.6731 49.1455 95.4614C56.2024 99.0428 63.7895 103.052 72.0889 106.671C80.4115 110.145 89.3783 113.688 99.1725 115.063C108.921 116.487 119.242 116.02 129.276 113.38C131.742 112.611 134.171 111.666 136.634 110.814C137.854 110.364 139.1 109.963 140.309 109.474L143.816 107.701L150.846 104.144C153.096 102.798 155.398 101.475 157.583 100.015C166.466 94.3441 174.769 87.7813 183.58 82.2454C192.307 76.6413 201.887 72.3577 211.727 70.9162C216.619 70.0511 221.514 70.0188 226.283 70.1731C231.015 70.7124 235.688 70.8479 240.153 71.6926C249.127 73.0798 257.496 75.0052 265.159 76.9784C272.822 78.9721 279.84 80.7986 286.066 82.417C292.284 84.0617 297.759 85.2763 302.273 86.2334C306.771 87.2952 310.394 87.6474 312.822 88.1184C315.265 88.5168 316.565 88.7281 316.565 88.7281C316.565 88.7281 315.262 88.5185 312.822 88.1275C310.394 87.6646 306.767 87.3216 302.265 86.2715C297.748 85.3279 292.269 84.1283 286.044 82.5008C279.817 80.8997 272.791 79.0904 265.124 77.1193C257.458 75.1676 249.086 73.2669 240.126 71.906C235.673 71.0769 230.988 70.9527 226.261 70.4269C221.525 70.2877 216.637 70.3312 211.773 71.2065C201.983 72.6706 192.474 76.9537 183.782 82.5637C175.006 88.1103 166.729 94.6931 157.831 100.41C155.631 101.885 153.355 103.202 151.09 104.565L144.034 108.158L140.518 109.95C139.303 110.446 138.052 110.854 136.82 111.309C134.346 112.175 131.906 113.132 129.424 113.912C119.321 116.599 108.91 117.1 99.0773 115.69C89.1955 114.331 80.1717 110.791 71.8029 107.325C63.4615 103.715 55.8556 99.7234 48.7912 96.1609C45.257 94.3844 41.8681 92.6816 38.6464 91.0632C35.3908 89.5287 32.2987 88.0727 29.3936 86.7038C26.4348 85.4628 23.6637 84.302 21.1054 83.2294C18.5397 82.167 16.0997 81.4405 13.9415 80.6496C9.65253 79.0086 6.05767 78.3204 3.68654 77.6306C1.29606 77.001 0.0185547 76.6655 0.0185547 76.6655L0.25513 75.766Z" fill="#4C4C4C"/>
<path d="M0.235998 91.0064C0.235998 91.0064 1.5092 91.2849 3.89968 91.8069C6.28264 92.371 9.82427 92.949 14.2084 94.3405C18.6501 95.5223 23.9037 97.3347 29.8971 99.4967C35.848 101.771 42.5049 104.472 49.7135 107.524C56.9269 110.564 64.75 113.834 73.1909 116.835C81.6662 119.697 90.7969 122.249 100.511 123.304C110.236 124.182 120.385 123.304 130.275 120.637C135.128 118.994 140.084 117.501 144.67 115.034C149.439 112.974 153.862 110.214 158.369 107.562C167.232 102.08 175.677 95.9303 184.422 90.5031C193.233 85.2361 202.44 80.7207 212.063 78.6217C214.388 77.8001 216.866 77.8114 219.234 77.4017C221.624 77.1307 223.969 76.6791 226.332 76.5667C228.689 76.5538 231.018 76.5403 233.321 76.5285C234.468 76.5253 235.612 76.5194 236.748 76.5156C237.884 76.6167 239.009 76.7172 240.126 76.8167C244.606 77.192 248.96 77.5485 253.115 78.3168C257.297 78.9228 261.312 79.6207 265.143 80.446C272.837 81.9085 279.814 83.6042 286.043 84.899C292.25 86.2926 297.693 87.3351 302.189 88.1508C306.664 89.0815 310.256 89.3326 312.669 89.7315C315.094 90.059 316.386 90.2348 316.386 90.2348C316.386 90.2348 315.094 90.0628 312.665 89.7429C310.252 89.3498 306.657 89.1078 302.181 88.1895C297.686 87.3868 292.234 86.3593 286.024 84.9828C279.791 83.7059 272.81 82.0279 265.117 80.589C261.285 79.775 257.267 79.0889 253.088 78.4943C248.933 77.7393 244.587 77.3964 240.122 77.0318C239.005 76.9366 237.881 76.8394 236.752 76.7404C235.616 76.7479 234.472 76.7554 233.321 76.7635C231.018 76.7823 228.693 76.8017 226.337 76.8205C224.004 76.9388 221.647 77.3964 219.272 77.6727C216.912 78.0878 214.445 78.0824 212.128 78.9077C202.551 81.0256 193.397 85.5468 184.621 90.8252C175.917 96.2599 167.48 102.44 158.601 107.962C154.118 110.621 149.68 113.406 144.888 115.494C140.286 117.983 135.303 119.501 130.427 121.169C120.476 123.881 110.248 124.796 100.45 123.937C90.6592 122.901 81.4715 120.358 72.9548 117.51C64.4795 114.522 56.6333 111.268 49.4129 108.248C42.192 105.215 35.5432 102.539 29.5992 100.288C23.6214 98.1488 18.3829 96.3589 13.9837 95.2018C9.65275 93.8351 6.08424 93.2635 3.70558 92.707C1.3151 92.192 0.0375977 91.9177 0.0375977 91.9177L0.235998 91.0064Z" fill="#4C4C4C"/>
<path d="M0.212708 106.246C0.212708 106.246 1.48591 106.458 3.88069 106.852C6.27494 107.267 9.80098 107.723 14.2233 108.808C23.1368 110.655 35.5543 114.387 50.3048 119.239C57.6816 121.66 65.7069 124.147 74.2849 126.463C82.8935 128.634 92.1156 130.403 101.78 131.004C111.452 131.519 121.494 130.388 131.277 127.697C133.698 126.925 136.126 126.151 138.562 125.373C140.922 124.395 143.252 123.305 145.604 122.272C146.771 121.738 147.975 121.252 149.111 120.676L152.493 118.787C154.743 117.514 157.034 116.301 159.252 114.974C168.048 109.553 176.546 103.627 185.155 98.1599C193.869 92.8681 202.928 88.3694 212.31 85.7257C214.609 84.9192 217.045 84.7342 219.371 84.2138C221.727 83.846 224.015 83.1787 226.363 83.0701C231.025 82.8696 235.577 82.2427 240.034 82.569C242.261 82.6336 244.456 82.6965 246.618 82.7594C248.78 82.8454 250.892 83.133 252.977 83.3067C255.063 83.5067 257.11 83.703 259.123 83.8954C261.121 84.174 263.085 84.4466 265.01 84.7154C272.71 85.7085 279.71 87.0156 285.944 87.9807C292.166 89.0405 297.606 89.8351 302.089 90.4642C306.565 91.1793 310.126 91.3599 312.531 91.6653C314.945 91.9126 316.234 92.0444 316.234 92.0444C316.234 92.0444 314.945 91.917 312.531 91.675C310.126 91.3772 306.561 91.2056 302.086 90.5045C297.598 89.8867 292.154 89.1071 285.932 88.0662C279.695 87.1166 272.692 85.83 264.991 84.8579C263.065 84.5971 261.102 84.3282 259.104 84.0557C257.095 83.8691 255.044 83.6782 252.962 83.4841C250.877 83.318 248.765 83.0379 246.607 82.9556C244.449 82.8986 242.261 82.8411 240.038 82.7841C235.597 82.4717 231.041 83.1121 226.378 83.3234C224.056 83.4363 221.765 84.111 219.42 84.4826C217.102 85.009 214.678 85.1993 212.39 86.0096C203.05 88.6705 194.037 93.1773 185.352 98.4803C176.774 103.964 168.3 109.91 159.481 115.381C157.262 116.715 154.979 117.933 152.733 119.214L149.352 121.11C148.189 121.708 146.996 122.189 145.821 122.733C143.458 123.778 141.12 124.882 138.749 125.869C136.301 126.657 133.861 127.445 131.43 128.229C121.593 130.964 111.482 132.13 101.75 131.641C92.0237 131.063 82.7521 129.309 74.1058 127.155C65.4972 124.858 57.445 122.386 50.0644 119.986C35.3027 115.177 22.8927 111.488 14.048 109.681C9.66764 108.618 6.12224 108.169 3.73552 107.759C1.34128 107.371 0.0605469 107.165 0.0605469 107.165L0.212708 106.246Z" fill="#4C4C4C"/>
<path d="M0.182713 121.486C0.182713 121.486 1.46022 121.612 3.85769 121.848C6.26 122.085 9.77851 122.373 14.2433 123.089C23.1907 124.305 35.7985 126.9 50.8619 130.22C65.9129 133.444 83.5915 137.382 102.871 137.706C112.49 137.834 122.444 136.671 132.185 134.065C141.964 131.536 151.327 127.023 160.084 121.709C168.898 116.431 177.195 110.323 185.78 104.94C194.316 99.4995 203.29 94.9132 212.581 92.2028C217.233 90.9199 221.899 89.9359 226.535 89.5628C231.163 89.2193 235.677 88.659 240.107 88.766C242.319 88.745 244.503 88.7235 246.649 88.7031C248.796 88.7923 250.908 88.88 252.986 88.966C257.145 89.101 261.152 89.3967 264.995 89.757C272.688 90.35 279.707 91.2285 285.936 91.8882C292.17 92.5555 297.603 93.1346 302.074 93.6131C306.55 94.1013 310.085 94.2631 312.483 94.4771C314.888 94.66 316.169 94.7573 316.169 94.7573C316.169 94.7573 314.888 94.6637 312.483 94.4885C310.081 94.2804 306.547 94.1281 302.071 93.6534C297.595 93.1883 292.162 92.6221 285.929 91.9743C279.695 91.3317 272.673 90.4736 264.983 89.9021C261.14 89.5526 257.134 89.2693 252.978 89.1451C250.904 89.0649 248.792 88.9832 246.646 88.9015C244.503 88.9279 242.326 88.9542 240.119 88.981C231.32 89.2214 221.903 89.7494 212.661 92.4845C203.416 95.2126 194.488 99.8043 185.982 105.26C177.427 110.659 169.146 116.789 160.324 122.107C151.548 127.47 142.173 132.018 132.333 134.597C122.539 137.247 112.532 138.442 102.863 138.342C83.4926 138.07 65.7607 134.169 50.6979 130.987C35.627 127.708 23.0229 125.154 14.1288 123.972C9.70216 123.273 6.17236 122.994 3.77059 122.763C1.37204 122.534 0.0913086 122.412 0.0913086 122.412L0.182713 121.486Z" fill="#4C4C4C"/>
<path d="M70.5377 142.563C71.1479 143.947 70.1527 145.729 68.3074 146.547C66.4546 147.365 64.4647 146.908 63.8507 145.525C63.2409 144.14 64.2362 142.357 66.0809 141.536C67.93 140.722 69.9242 141.179 70.5377 142.563Z" fill="#4C4C4C"/>
<rect x="69.2944" y="124.68" width="1.38772" height="19.1346" fill="#4C4C4C"/>
<path d="M85.6806 139.04C86.2984 140.426 85.2994 142.21 83.4541 143.028C81.6093 143.846 79.6151 143.392 79.0011 142.002C78.3914 140.617 79.3861 138.834 81.2356 138.013C83.0766 137.197 85.0709 137.658 85.6806 139.04Z" fill="#4C4C4C"/>
<rect x="84.4678" y="120.633" width="1.38772" height="19.1346" fill="#4C4C4C"/>
<path d="M69.2832 127.207L85.8676 123.248V119.102L69.2832 122.891V127.207Z" fill="#4C4C4C"/>
<rect x="70.0566" y="125.805" width="15.7744" height="1.39008" transform="rotate(-13.1708 70.0566 125.805)" fill="#4C4C4C"/>
<path d="M270.888 78.4305C271.121 78.9493 270.748 79.6145 270.057 79.9215C269.367 80.2263 268.624 80.0564 268.395 79.5381C268.167 79.0214 268.54 78.3547 269.226 78.0498C269.913 77.7445 270.66 77.9159 270.888 78.4305Z" fill="#4C4C4C"/>
<rect x="270.446" y="71.5781" width="1" height="7.14833" fill="#4C4C4C"/>
<path d="M276.535 76.9091C276.768 77.4259 276.394 78.0925 275.704 78.398C275.014 78.7028 274.271 78.5334 274.042 78.0167C273.814 77.4984 274.187 76.8327 274.873 76.5263C275.559 76.2209 276.307 76.3924 276.535 76.9091Z" fill="#4C4C4C"/>
<rect x="276.111" y="70.0625" width="1" height="7.14671" fill="#4C4C4C"/>
<path d="M281.667 75.2364C281.896 75.7569 281.525 76.4199 280.832 76.7268C280.146 77.0317 279.402 76.8607 279.169 76.3462C278.944 75.8257 279.314 75.1616 280.004 74.8552C280.694 74.5482 281.438 74.7214 281.667 75.2364Z" fill="#4C4C4C"/>
<rect x="281.231" y="68.4219" width="1" height="7.14833" fill="#4C4C4C"/>
<path d="M270.439 72.7036L281.743 69.8099L281.747 68.0625L270.439 71.1939V72.7036Z" fill="#4C4C4C"/>
<path d="M17.579 72.8527C18.1775 75.8663 15.4095 78.9564 11.3878 79.7516C7.36545 80.5484 3.61789 78.7564 3.02322 75.741C2.43233 72.729 5.20401 69.6353 9.22203 68.8363C13.2443 68.0416 16.9844 69.8412 17.579 72.8527Z" fill="#4C4C4C"/>
<rect x="45.9277" y="38.6016" width="38.8388" height="2.00059" transform="rotate(-77.3463 45.9277 38.6016)" fill="#4C4C4C"/>
<path d="M113.878 138.029C114.835 139.358 114.179 141.468 112.41 142.747C110.633 144.025 108.422 143.988 107.465 142.664C106.508 141.335 107.164 139.22 108.933 137.942C110.702 136.663 112.917 136.703 113.878 138.029Z" fill="#4C4C4C"/>
<path d="M113.766 140.018C113.518 140.018 113.297 139.845 113.244 139.595L108.959 119.34C108.898 119.052 109.083 118.768 109.371 118.707C109.676 118.646 109.942 118.833 110.003 119.119L114.288 139.374C114.35 139.662 114.165 139.946 113.877 140.007C113.839 140.015 113.802 140.018 113.766 140.018Z" fill="#4C4C4C"/>
<path d="M117.789 126.775C117.762 126.775 117.735 126.773 117.708 126.767C117.417 126.723 117.216 126.453 117.262 126.161C117.605 123.908 115.391 122.907 113.095 122.076L112.647 121.914C110.19 120.984 109.483 120.304 108.974 119.297C108.843 119.034 108.948 118.714 109.211 118.58C109.468 118.449 109.79 118.553 109.927 118.816C110.255 119.466 110.692 120.035 113.025 120.915L113.458 121.075C115.331 121.752 118.82 123.014 118.314 126.321C118.275 126.586 118.048 126.775 117.789 126.775Z" fill="#4C4C4C"/>
<path d="M118.807 131.598C118.78 131.598 118.753 131.596 118.726 131.591C118.435 131.546 118.234 131.274 118.281 130.984C118.625 128.731 116.414 127.73 114.117 126.899L113.669 126.735C111.212 125.809 110.505 125.127 109.996 124.118C109.865 123.855 109.969 123.535 110.232 123.401C110.5 123.268 110.816 123.374 110.949 123.638C111.277 124.289 111.714 124.859 114.047 125.736L114.482 125.897C116.355 126.575 119.842 127.839 119.333 131.144C119.293 131.409 119.066 131.598 118.807 131.598Z" fill="#4C4C4C"/>
<path d="M65.0014 93.1772C65.3826 95.1827 63.526 97.2145 60.8533 97.7237C58.181 98.2291 55.7067 97.0161 55.3222 95.0106C54.9486 93.0078 56.8046 90.97 59.4774 90.4668C62.1501 89.9597 64.6245 91.1738 65.0014 93.1772Z" fill="#4C4C4C"/>
<path d="M64.376 94.7981C64.3265 94.7981 64.2749 94.7921 64.2233 94.7809C63.8668 94.697 63.6458 94.3389 63.7297 93.9824L70.9657 63.269C71.0517 62.9147 71.406 62.6916 71.7646 62.7755C72.1211 62.8593 72.3421 63.2174 72.2582 63.5739L65.0223 94.2872C64.9497 94.5921 64.6771 94.7981 64.376 94.7981Z" fill="#4C4C4C"/>
<path d="M77.1937 76.6087C77.0658 76.6087 76.9383 76.5722 76.8238 76.4964C76.5206 76.2921 76.4388 75.8807 76.6426 75.5753C78.2191 73.2177 76.2523 70.9186 74.1 68.7663L73.6844 68.3475C71.4063 66.0064 70.9697 64.8628 70.9261 63.4579C70.9148 63.0896 71.2025 62.7847 71.5686 62.7734H71.5896C71.9477 62.7734 72.2412 63.0573 72.2525 63.416C72.2816 64.3252 72.4741 65.1983 74.6355 67.4211L75.0377 67.8286C76.7932 69.5841 80.0606 72.8537 77.7443 76.3152C77.6169 76.5061 77.4072 76.6087 77.1937 76.6087Z" fill="#4C4C4C"/>
<path d="M74.8568 86.9631C74.7294 86.9631 74.6014 86.9271 74.4869 86.8508C74.1842 86.6464 74.1019 86.2351 74.3062 85.9297C75.8821 83.5737 73.9154 81.2767 71.7652 79.125L71.3458 78.7019C69.0715 76.3646 68.6333 75.221 68.5892 73.8139C68.5779 73.4461 68.8656 73.1413 69.2317 73.1294C69.6317 73.0455 69.9043 73.4079 69.9162 73.7719C69.9447 74.6833 70.1372 75.5565 72.297 77.7754L72.7045 78.1867C74.4584 79.9406 77.7221 83.2096 75.4079 86.6696C75.28 86.8604 75.0703 86.9631 74.8568 86.9631Z" fill="#4C4C4C"/>
<path d="M73.6439 92.0171C73.516 92.0171 73.3885 91.981 73.274 91.9047C72.9692 91.7004 72.889 91.2891 73.0928 90.9837C74.6752 88.6223 72.6987 86.3215 70.5389 84.1671L70.1308 83.7596C67.8564 81.4126 67.4204 80.2711 67.3763 78.8679C67.365 78.5001 67.6527 78.1953 68.0188 78.1834C68.4188 78.1415 68.6914 78.4603 68.7033 78.8259C68.7318 79.7351 68.9242 80.6067 71.0819 82.8332L71.475 83.2273C73.238 84.9849 76.5205 88.254 74.195 91.7235C74.0671 91.9144 73.8574 92.0171 73.6439 92.0171Z" fill="#4C4C4C"/>
<path d="M76.0765 81.6272C75.9486 81.6272 75.8211 81.5912 75.7066 81.5148C75.4034 81.3105 75.3216 80.8992 75.5254 80.5938C77.104 78.2377 75.1329 75.937 72.9806 73.7831L72.5672 73.3659C70.2912 71.0265 69.853 69.885 69.8089 68.4779C69.7976 68.1102 70.0853 67.8053 70.4514 67.794C70.8461 67.708 71.1241 68.072 71.1359 68.436C71.1644 69.3458 71.3569 70.2184 73.5183 72.4395L73.9205 72.8454C75.676 74.6031 78.9455 77.8721 76.6277 81.3336C76.4997 81.5245 76.29 81.6272 76.0765 81.6272Z" fill="#4C4C4C"/>
<path d="M25.1233 96.7457C24.5056 94.0602 26.9041 91.2159 30.4801 90.3889C34.0669 89.5668 37.472 91.069 38.0893 93.7552C38.707 96.4404 36.309 99.2862 32.7292 100.112C29.1494 100.935 25.7449 99.4277 25.1233 96.7457Z" fill="#4C4C4C"/>
<path d="M19.4332 130.3C19.3762 130.3 19.3187 130.296 19.2617 130.284C18.7756 130.191 18.4573 129.72 18.5503 129.234L25.1422 95.038C25.2336 94.552 25.7196 94.2396 26.1928 94.3272C26.6788 94.4208 26.9971 94.8912 26.9036 95.3773L20.3117 129.573C20.23 130.002 19.8526 130.3 19.4332 130.3Z" fill="#4C4C4C"/>
<path d="M19.4889 130.081C19.3571 130.081 19.2238 130.053 19.098 129.991C18.6523 129.776 18.4651 129.239 18.6824 128.794C19.512 127.082 20.6841 125.916 24.7769 124.284L25.5199 123.996C29.361 122.528 33.0554 120.779 32.4091 116.997C32.3274 116.509 32.6553 116.046 33.143 115.962C33.6274 115.897 34.0925 116.204 34.178 116.696C35.1254 122.243 29.2944 124.473 26.1608 125.672L25.4398 125.95C21.5535 127.498 20.8325 128.469 20.2954 129.576C20.1405 129.896 19.8206 130.081 19.4889 130.081Z" fill="#4C4C4C"/>
<path d="M243.066 55.3707C242.783 56.8326 241.369 57.7875 239.909 57.5058C238.449 57.2235 237.492 55.8111 237.774 54.3491C238.056 52.885 239.467 51.9301 240.927 52.214C242.395 52.4941 243.347 53.9066 243.066 55.3707Z" fill="#4C4C4C"/>
<path d="M244.739 72.548L243.824 72.3727L246.966 56.0802C245.34 57.5078 243.756 58.2304 242.246 58.2304H242.197C240.771 58.2148 239.409 57.5384 238.26 56.2706L238.95 55.6458C239.934 56.7303 241.03 57.2868 242.206 57.3002H242.246C243.82 57.3002 245.541 56.3259 247.364 54.4005C247.507 54.25 247.732 54.2178 247.913 54.3075C248.098 54.4005 248.197 54.6064 248.159 54.8086L244.739 72.548Z" fill="#4C4C4C"/>
<path d="M241.758 62.1592C241.472 63.6233 240.061 64.5782 238.601 64.2943C237.137 64.012 236.18 62.6018 236.466 61.1377C236.748 59.6757 238.159 58.7203 239.623 59.0026C241.083 59.2849 242.036 60.6973 241.758 62.1592Z" fill="#4C4C4C"/>
<path d="M240.937 65.0151H240.89C239.464 65.0017 238.102 64.3254 236.95 63.0576L237.636 62.4322C238.626 63.5167 239.724 64.0737 240.898 64.085C242.459 64.0565 244.216 63.1279 246.053 61.1875L246.728 61.8279C244.723 63.9447 242.776 65.0151 240.937 65.0151Z" fill="#4C4C4C"/>
<rect x="288.449" y="81.4609" width="1" height="10.4001" fill="#4C4C4C"/>
<rect x="290.679" y="80.5781" width="1" height="10.4001" fill="#4C4C4C"/>
<path d="M292.968 86.0095L287.147 84.29L287.28 83.8438L293.102 85.5632L292.968 86.0095Z" fill="#4C4C4C"/>
<path d="M292.488 88.562L286.67 86.8447L286.804 86.3984L292.621 88.1157L292.488 88.562Z" fill="#4C4C4C"/>
<path d="M98.5325 114.709C98.5325 114.709 100.569 113.565 102.818 110.961C103.931 109.665 105.052 107.991 105.818 106.024C106.203 105.046 106.516 103.996 106.657 102.906C106.844 101.787 106.905 100.761 106.806 99.5851C106.595 97.4763 105.414 95.5472 103.748 94.6626C102.097 93.7422 100.179 93.7078 98.8567 94.1939C97.4953 94.6686 96.8286 95.5703 96.5883 96.2203C96.3404 96.8913 96.3517 97.3333 96.3517 97.3333C96.3748 98.1037 95.7683 98.7442 94.9984 98.7667C94.2284 98.7882 93.5875 98.1817 93.5649 97.4113V97.3355L93.5762 97.0704C93.5724 97.0704 93.5988 96.3154 94.1596 95.1111C94.701 93.9121 96.1501 92.4443 98.1819 91.9464C100.172 91.4071 102.661 91.6797 104.747 93.054C106.871 94.4186 108.143 97.0021 108.174 99.5426C108.174 100.679 108.086 101.998 107.82 103.117C107.61 104.284 107.221 105.397 106.759 106.419C105.849 108.477 104.587 110.168 103.37 111.458C100.915 114.04 98.7653 115.115 98.761 115.113C98.6507 115.18 98.5099 115.141 98.4448 115.029C98.3803 114.92 98.426 114.775 98.5325 114.709Z" fill="#4C4C4C"/>
<path d="M251.827 94.0819C245.258 89.0573 253.92 84.4516 253.92 84.4516C252.113 83.5634 250.359 82.1794 251.949 79.3126C253.692 76.1747 259.707 75.279 257.141 71.625C257.141 71.625 262.262 72.475 258.807 77.555C256.631 80.7595 252.898 80.8584 256.364 84.7016C256.364 84.7016 249.6 89.0971 251.827 94.0819Z" fill="#4C4C4C"/>
<path d="M312.811 95.0863C312.822 95.0863 312.799 95.2406 312.964 95.4562C313.108 95.6675 313.538 95.9138 314.008 95.7041C314.442 95.4847 314.694 94.8497 314.522 94.1481C314.408 93.4222 314.232 92.6001 314.068 91.6989C313.904 90.7989 313.725 89.823 313.561 88.7864C313.417 87.7471 313.23 86.6529 313.199 85.4937C313.184 85.1985 313.169 84.905 313.15 84.6076C313.135 84.3022 313.119 83.9785 313.207 83.635L313.226 83.5705C313.23 83.5554 313.226 83.557 313.234 83.5307L313.245 83.5054C313.256 83.4699 313.268 83.4409 313.287 83.3898C313.329 83.2978 313.367 83.2199 313.42 83.1322C313.538 82.9758 313.703 82.7532 314.068 82.6973C314.248 82.6806 314.427 82.772 314.514 82.8844C314.602 82.9968 314.679 83.1398 314.713 83.2161C314.816 83.4199 314.88 83.5248 314.931 83.6812C315.144 84.2872 315.101 84.9738 315.033 85.6427C314.96 86.319 314.656 86.9578 314.236 87.4783C314.034 87.7471 313.798 87.9874 313.554 88.2105C313.496 88.2713 313.432 88.3208 313.367 88.3724L313.203 88.5117C313.077 88.609 312.975 88.7063 312.88 88.7934C312.479 89.173 312.113 89.6042 311.895 90.0747C311.682 90.5478 311.644 91.0661 311.831 91.5253C312.021 91.9882 312.426 92.3619 312.887 92.606C313.821 93.1033 315.033 93.0732 315.883 92.5737C316.314 92.3259 316.604 91.9027 316.669 91.4549C316.729 91.007 316.604 90.572 316.386 90.2349C315.948 89.5504 315.228 89.3026 314.629 89.4246C314.019 89.5488 313.581 89.987 313.389 90.4183C313.188 90.8543 313.192 91.2737 313.215 91.55C313.248 91.8307 313.287 91.9807 313.287 91.9807C313.287 91.9807 313.265 91.9501 313.23 91.8877C313.184 91.8226 313.13 91.7237 313.077 91.5844C312.967 91.3156 312.841 90.8618 312.986 90.2768C313.123 89.7106 313.611 89.0187 314.473 88.7901C314.896 88.6757 315.399 88.6907 315.845 88.8988C316.306 89.1063 316.676 89.5047 316.883 89.979C317.084 90.4505 317.145 91.007 316.993 91.5253C316.859 92.0511 316.497 92.5092 316.028 92.8082C315.071 93.3685 313.844 93.4964 312.681 93.0539C312.113 92.8291 311.564 92.4135 311.244 91.8033C310.919 91.1957 310.904 90.4296 311.129 89.7865C311.342 89.1348 311.709 88.5687 312.152 88.0804C312.265 87.9492 312.376 87.8294 312.482 87.7304L312.803 87.4116C313.005 87.2212 313.184 87.0094 313.355 86.7938C313.68 86.3556 313.958 85.898 314.225 85.4098C314.458 84.991 314.575 84.5125 314.584 84.0377C314.584 83.8355 314.553 83.521 314.324 83.4468C313.958 83.3285 313.786 83.9785 313.703 84.2151C313.558 84.6227 313.481 85.0593 313.481 85.4921C313.485 86.6228 313.603 87.7223 313.772 88.7536C313.939 89.7865 314.134 90.757 314.32 91.6495C314.507 92.5452 314.675 93.3668 314.79 94.1082C314.816 94.297 314.843 94.4685 314.847 94.6685C314.85 94.8556 314.808 95.0368 314.743 95.2008C314.621 95.532 314.355 95.782 314.072 95.8675C313.791 95.9573 313.527 95.9251 313.321 95.8509C313.119 95.7723 312.967 95.6487 312.871 95.532C312.674 95.2922 312.666 95.1051 312.661 95.1169L312.811 95.0863Z" fill="#4C4C4C"/>
<path d="M310.029 359.568C310.449 360.497 309.778 361.692 308.542 362.241C307.303 362.786 305.969 362.48 305.557 361.554C305.149 360.626 305.817 359.431 307.052 358.88C308.287 358.333 309.625 358.642 310.029 359.568Z" fill="#4C4C4C"/>
<rect x="309.205" y="347.594" width="1" height="12.8191" fill="#4C4C4C"/>
<path d="M320.182 357.209C320.597 358.135 319.922 359.33 318.687 359.879C317.448 360.425 316.117 360.121 315.702 359.193C315.298 358.265 315.965 357.069 317.2 356.52C318.435 355.974 319.774 356.282 320.182 357.209Z" fill="#4C4C4C"/>
<rect x="319.365" y="344.875" width="1" height="12.8175" fill="#4C4C4C"/>
<path d="M309.194 349.286L320.299 346.633V343.852L309.194 346.392V349.286Z" fill="#4C4C4C"/>
<path d="M222.083 363.082C221.309 361.404 222.491 359.21 224.721 358.179C226.955 357.148 229.395 357.664 230.173 359.34C230.943 361.013 229.765 363.209 227.531 364.241C225.301 365.274 222.857 364.753 222.083 363.082Z" fill="#4C4C4C"/>
<path d="M305.096 332.03C305.938 333.014 305.561 334.724 304.245 335.848C302.929 336.969 301.18 337.084 300.337 336.1C299.492 335.115 299.877 333.401 301.188 332.28C302.5 331.157 304.253 331.047 305.096 332.03Z" fill="#4C4C4C"/>
<path d="M305.049 333.177C304.868 333.177 304.699 333.059 304.645 332.876L298.926 313.648C298.86 313.425 298.988 313.19 299.211 313.123C299.433 313.066 299.67 313.186 299.735 313.407L305.454 332.635C305.52 332.859 305.392 333.093 305.169 333.16C305.129 333.171 305.09 333.177 305.049 333.177Z" fill="#4C4C4C"/>
<path d="M306.373 319.097H306.342C306.11 319.08 305.934 318.878 305.952 318.646C306.081 316.848 304.268 316.202 302.4 315.695L302.036 315.596C300.042 315.022 299.44 314.53 298.973 313.77C298.849 313.571 298.912 313.312 299.11 313.19C299.304 313.064 299.567 313.127 299.689 313.327C299.994 313.819 300.375 314.238 302.269 314.784L302.621 314.881C304.146 315.294 306.982 316.064 306.794 318.706C306.777 318.927 306.592 319.097 306.373 319.097Z" fill="#4C4C4C"/>
<path d="M308.355 325.548H308.325C308.094 325.531 307.919 325.329 307.934 325.097C308.062 323.297 306.247 322.653 304.377 322.144L304.019 322.046C302.027 321.476 301.424 320.984 300.957 320.222C300.835 320.022 300.898 319.763 301.096 319.641C301.293 319.519 301.552 319.58 301.678 319.78C301.979 320.274 302.36 320.695 304.251 321.234L304.598 321.33C306.123 321.744 308.962 322.514 308.777 325.157C308.761 325.378 308.575 325.548 308.355 325.548Z" fill="#4C4C4C"/>
<path d="M307.341 322.217H307.31C307.08 322.2 306.904 321.998 306.92 321.767C307.047 319.962 305.231 319.318 303.361 318.811L303.004 318.714C301.012 318.14 300.41 317.648 299.941 316.887C299.817 316.689 299.88 316.43 300.078 316.308C300.271 316.18 300.536 316.245 300.658 316.446C300.963 316.937 301.344 317.358 303.237 317.901L303.58 317.997C305.107 318.411 307.947 319.179 307.762 321.826C307.747 322.047 307.56 322.217 307.341 322.217Z" fill="#4C4C4C"/>
<path d="M250.318 375.78C250.654 377.381 249.628 378.948 248.023 379.281C246.426 379.615 244.859 378.588 244.527 376.987C244.195 375.385 245.221 373.818 246.819 373.485C248.424 373.151 249.99 374.179 250.318 375.78Z" fill="#4C4C4C"/>
<path d="M258.286 392.69L254.571 374.847C253.517 377.007 252.203 378.416 250.652 379.047C249.197 379.635 247.533 379.527 245.833 378.732L246.263 377.806C247.72 378.486 249.069 378.583 250.267 378.099C251.881 377.443 253.225 375.72 254.262 372.977C254.342 372.764 254.55 372.6 254.78 372.649C255.007 372.667 255.194 372.832 255.24 373.053L259.285 392.48L258.286 392.69Z" fill="#4C4C4C"/>
<path d="M251.87 383.211C252.198 384.81 251.177 386.375 249.575 386.709C247.971 387.042 246.407 386.017 246.075 384.414C245.74 382.813 246.766 381.247 248.367 380.914C249.972 380.582 251.535 381.608 251.87 383.211Z" fill="#4C4C4C"/>
<path d="M250.254 386.849C249.331 386.849 248.363 386.618 247.381 386.161L247.812 385.235C249.272 385.917 250.618 386.013 251.815 385.528C253.426 384.873 254.77 383.149 255.807 380.406L256.763 380.768C255.622 383.788 254.085 385.707 252.2 386.474C251.586 386.723 250.932 386.849 250.254 386.849Z" fill="#4C4C4C"/>
<rect x="279.892" y="337.422" width="1" height="20.1315" fill="#4C4C4C"/>
<rect x="279.892" y="337.422" width="1" height="20.1315" fill="#4C4C4C"/>
<rect x="284.204" y="335.719" width="1" height="20.1336" fill="#4C4C4C"/>
<path d="M288.498 346.037L277.232 342.71L277.381 342.203L288.647 345.53L288.498 346.037Z" fill="#4C4C4C"/>
<path d="M287.579 351.005L276.313 347.679L276.462 347.172L287.728 350.499L287.579 351.005Z" fill="#4C4C4C"/>
<path d="M287.579 351.005L276.313 347.679L276.462 347.172L287.728 350.499L287.579 351.005Z" fill="#4C4C4C"/>
<path d="M203.876 362.678C203.876 363.509 203.205 364.178 202.374 364.178C201.542 364.178 200.868 363.509 200.868 362.678C200.868 361.844 201.542 361.172 202.374 361.172C203.205 361.172 203.876 361.844 203.876 362.678Z" fill="#4C4C4C"/>
<path d="M203.876 369.057C203.876 369.886 203.205 370.559 202.374 370.559C201.542 370.559 200.868 369.886 200.868 369.057C200.868 368.226 201.542 367.555 202.374 367.555C203.205 367.555 203.876 368.226 203.876 369.057Z" fill="#4C4C4C"/>
<path d="M255.26 361.443C255.461 362.001 255.168 362.617 254.612 362.815C254.055 363.019 253.441 362.723 253.243 362.167C253.036 361.612 253.33 360.996 253.887 360.798C254.444 360.598 255.061 360.886 255.26 361.443Z" fill="#4C4C4C"/>
<path d="M253.532 362.151C253.547 362.143 253.612 362.423 254.032 362.674C254.413 362.936 255.305 363.071 255.949 362.406C256.548 361.75 256.548 360.517 255.797 359.442C255.129 358.286 254.291 357.015 253.429 355.607C252.556 354.192 251.61 352.665 250.658 351.018C249.719 349.365 248.687 347.637 247.875 345.702C247.649 345.216 247.432 344.728 247.203 344.234C246.978 343.727 246.742 343.195 246.666 342.558L246.65 342.438C246.65 342.412 246.647 342.415 246.643 342.364L246.639 342.312C246.639 342.248 246.639 342.187 246.643 342.09C246.647 341.91 246.666 341.75 246.696 341.567C246.788 341.226 246.921 340.742 247.501 340.408C247.795 340.259 248.156 340.298 248.374 340.431C248.607 340.56 248.824 340.755 248.931 340.854C249.239 341.134 249.418 341.266 249.605 341.502C250.364 342.381 250.745 343.571 251.069 344.746C251.394 345.934 251.298 347.214 250.928 348.368C250.768 348.956 250.524 349.518 250.261 350.054C250.2 350.191 250.124 350.32 250.051 350.448L249.864 350.793C249.719 351.041 249.609 351.268 249.507 351.483C249.083 352.385 248.744 353.351 248.69 354.293C248.641 355.231 248.911 356.129 249.533 356.782C250.154 357.44 251.081 357.81 252.027 357.915C253.921 358.142 255.957 357.286 257.062 355.887C257.626 355.189 257.84 354.277 257.653 353.483C257.462 352.688 256.964 352.034 256.376 351.607C255.186 350.74 253.806 350.797 252.869 351.398C251.923 352.007 251.47 353.039 251.435 353.889C251.378 354.758 251.664 355.464 251.885 355.915C252.122 356.367 252.289 356.598 252.289 356.598C252.289 356.598 252.232 356.557 252.125 356.473C252.011 356.39 251.862 356.26 251.675 356.066C251.313 355.681 250.799 354.998 250.658 353.916C250.524 352.867 250.894 351.382 252.194 350.427C252.827 349.952 253.692 349.655 254.581 349.708C255.499 349.758 256.384 350.183 257.036 350.85C257.695 351.518 258.164 352.41 258.252 353.389C258.366 354.363 258.058 355.376 257.462 356.188C256.216 357.764 254.222 358.792 251.977 358.803C250.863 358.796 249.666 358.46 248.725 357.641C247.775 356.83 247.246 355.544 247.199 354.312C247.135 353.071 247.378 351.872 247.806 350.755C247.916 350.462 248.023 350.187 248.134 349.945L248.473 349.2C248.675 348.744 248.847 348.27 248.991 347.796C249.251 346.838 249.422 345.883 249.555 344.88C249.666 344.024 249.548 343.14 249.247 342.328C249.125 341.986 248.862 341.477 248.427 341.504C247.729 341.548 247.867 342.758 247.882 343.212C247.905 343.996 248.061 344.783 248.347 345.513C249.098 347.417 250.017 349.198 250.981 350.826C251.946 352.461 252.911 353.97 253.814 355.359C254.721 356.744 255.541 358.021 256.227 359.195C256.395 359.5 256.548 359.77 256.693 360.109C256.818 360.418 256.872 360.759 256.868 361.071C256.875 361.712 256.59 362.309 256.174 362.64C255.755 362.978 255.293 363.096 254.893 363.108C254.497 363.108 254.161 362.993 253.925 362.865C253.433 362.589 253.296 362.278 253.296 362.303L253.532 362.151Z" fill="#4C4C4C"/>
<path d="M345.828 198.651C339.387 192.013 332.946 185.374 326.505 178.736C326.857 178.32 327.23 178.057 327.595 177.893C330.031 176.795 334.023 179.221 337.688 183.693C337.236 182.294 336.625 180.497 335.845 178.425C332.742 170.19 330.332 166.589 331.939 163.302C332.295 162.575 332.758 162.046 333.135 161.686L339.95 176.666C338.391 172.788 337.207 169.396 336.324 166.674C335.031 162.681 334.316 159.904 335.74 158.118C336.082 157.689 336.467 157.418 336.741 157.255L343.734 173.09C343.8 173.063 343.231 171.533 342.649 169.967C342.649 169.967 340.417 163.966 339.308 158.935C339.174 158.326 338.918 157.087 339.583 156.391C339.982 155.974 340.592 155.877 340.912 155.892C342.922 155.989 344.07 161.05 346.485 167.977C347.602 171.182 348.637 173.774 349.354 175.498C349.354 175.498 347.854 163.507 348.187 161.859C348.578 161.34 348.963 161.085 349.342 161.094C350.987 161.132 350.726 166.799 353.732 174.044C355.064 177.255 355.74 177.663 356.698 180.751C357.668 183.876 357.951 186.601 358.034 188.46L371.042 226.793L349.703 222.698L345.828 198.651Z" fill="#F08566"/>
<path d="M345.828 198.651C339.387 192.013 332.946 185.374 326.505 178.736C326.857 178.32 327.23 178.057 327.595 177.893C330.031 176.795 334.023 179.221 337.688 183.693C337.236 182.294 336.625 180.497 335.845 178.425C332.742 170.19 330.332 166.589 331.939 163.302C332.295 162.575 332.758 162.046 333.135 161.686L339.95 176.666C338.391 172.788 337.207 169.396 336.324 166.674C335.031 162.681 334.316 159.904 335.74 158.118C336.082 157.689 336.467 157.418 336.741 157.255L343.734 173.09C343.8 173.063 343.231 171.533 342.649 169.967C342.649 169.967 340.417 163.966 339.308 158.935C339.174 158.326 338.918 157.087 339.583 156.391C339.982 155.974 340.592 155.877 340.912 155.892C342.922 155.989 344.07 161.05 346.485 167.977C347.602 171.182 348.637 173.774 349.354 175.498C349.354 175.498 347.854 163.507 348.187 161.859C348.578 161.34 348.963 161.085 349.342 161.094C350.987 161.132 350.726 166.799 353.732 174.044C355.064 177.255 355.74 177.663 356.698 180.751C357.668 183.876 357.951 186.601 358.034 188.46L371.042 226.793L349.703 222.698L345.828 198.651Z" stroke="#303030" stroke-width="1.5" stroke-linecap="round" stroke-linejoin="round"/>
<path d="M348.388 190.175C348.365 189.871 348.003 185.988 344.492 184.022C341.264 182.215 338.059 183.529 337.688 183.689" fill="#F08566"/>
<path d="M348.388 190.175C348.365 189.871 348.003 185.988 344.492 184.022C341.264 182.215 338.059 183.529 337.688 183.689" stroke="#303030" stroke-width="1.5" stroke-linecap="round" stroke-linejoin="round"/>
<path fill-rule="evenodd" clip-rule="evenodd" d="M276.145 289.152L260.812 291.032L259.922 281.073C259.922 281.073 256.837 281.572 253.262 278.494C250.988 276.54 255.677 254.453 255.677 254.453L273.224 264.531L276.145 289.152Z" fill="#F08566"/>
<path d="M276.145 289.152L260.812 291.032L259.922 281.073C259.922 281.073 256.837 281.572 253.262 278.494C250.988 276.54 255.677 254.453 255.677 254.453L273.224 264.531L276.145 289.152Z" stroke="#303030" stroke-width="1.5" stroke-linecap="round" stroke-linejoin="round"/>
<path fill-rule="evenodd" clip-rule="evenodd" d="M259.921 281.075L265.497 279.82L262.767 285.352L260.036 284.49L259.921 281.075Z" fill="#444444"/>
<path fill-rule="evenodd" clip-rule="evenodd" d="M241.84 343.82C233.048 359.642 202.103 384.658 194.24 377.366C175.572 360.051 231.636 302.961 231.636 302.961C231.636 302.961 248.781 331.327 241.84 343.82Z" fill="white"/>
<path d="M241.84 343.82C233.048 359.642 202.103 384.658 194.24 377.366C175.572 360.051 231.636 302.961 231.636 302.961C231.636 302.961 248.781 331.327 241.84 343.82Z" stroke="black" stroke-width="1.5" stroke-linecap="round" stroke-linejoin="round"/>
<path fill-rule="evenodd" clip-rule="evenodd" d="M346.099 216.77L342.138 205.943L363.741 201.93L366.484 211.204L346.099 216.77Z" fill="white"/>
<path d="M346.099 216.77L342.138 205.943L363.741 201.93L366.484 211.204L346.099 216.77Z" stroke="black" stroke-width="1.5" stroke-linecap="round" stroke-linejoin="round"/>
<path fill-rule="evenodd" clip-rule="evenodd" d="M322.109 351.414L278.382 357.226C278.382 357.226 283.012 386.945 292.494 385.206C301.977 383.459 327.416 360.228 327.839 356.803C328.27 353.377 324.703 351.778 324.703 351.778" fill="white"/>
<path d="M322.109 351.414L278.382 357.226C278.382 357.226 283.012 386.945 292.494 385.206C301.977 383.459 327.416 360.228 327.839 356.803C328.27 353.377 324.703 351.778 324.703 351.778" stroke="black" stroke-width="1.5" stroke-linecap="round" stroke-linejoin="round"/>
<path fill-rule="evenodd" clip-rule="evenodd" d="M248.439 360.357L246.061 399.143L301.041 381.069L297.139 347.5L248.439 360.357Z" fill="#F08566"/>
<path d="M248.439 360.357L246.061 399.143L301.041 381.069L297.139 347.5L248.439 360.357Z" stroke="#303030" stroke-width="1.5" stroke-linecap="round" stroke-linejoin="round"/>
<path fill-rule="evenodd" clip-rule="evenodd" d="M340.934 459.739L356.153 473.443L364.872 463.819C364.872 463.819 373.732 459.928 382.308 465.732C390.877 471.543 395.972 472.611 395.972 472.611L360.3 436.656L340.934 459.739Z" fill="#F08566"/>
<path d="M340.934 459.739L356.153 473.443L364.872 463.819C364.872 463.819 373.732 459.928 382.308 465.732C390.877 471.543 395.972 472.611 395.972 472.611L360.3 436.656L340.934 459.739Z" stroke="#303030" stroke-width="1.5" stroke-linecap="round" stroke-linejoin="round"/>
<path fill-rule="evenodd" clip-rule="evenodd" d="M199.413 512.062L203.864 532.054L191.201 534.915C191.201 534.915 180.327 536.176 177.184 549.3C174.04 562.424 163.832 556.291 163.832 556.291L171.411 519.621L199.413 512.062Z" fill="#F08566"/>
<path d="M199.413 512.062L203.864 532.054L191.201 534.915C191.201 534.915 180.327 536.176 177.184 549.3C174.04 562.424 163.832 556.291 163.832 556.291L171.411 519.621L199.413 512.062Z" stroke="#303030" stroke-width="1.5" stroke-linecap="round" stroke-linejoin="round"/>
<path fill-rule="evenodd" clip-rule="evenodd" d="M241.818 388.642C241.818 388.642 239.766 397.53 235.323 413.248C230.878 428.966 224.049 491.963 224.049 491.963C224.049 491.963 206.436 497.418 196.945 503.556C187.455 509.695 186.08 516.51 186.08 516.51L193.98 533.989C193.98 533.989 252.066 529.21 260.605 516.904C269.151 504.604 274.621 430.8 274.621 430.8C274.621 430.8 290.354 493.003 293.066 501.185C297.295 513.923 311.549 529.21 331.228 522.247C347.949 516.324 363.511 466.004 363.511 466.004L349.651 447.454L324.844 470.775C324.844 470.775 320.021 435.96 313.771 412.847C307.521 389.734 302.319 381.604 302.319 381.604L300.929 373.266L241.818 388.642Z" fill="#65EAC9"/>
<path fill-rule="evenodd" clip-rule="evenodd" d="M342.026 213.257L343.936 218.979C343.936 221.402 341.03 257.364 341.03 257.364L284.133 284.155C284.133 284.155 283.353 284.214 278.954 285.373C277.021 285.886 276.858 279.138 274.591 279.718C273.268 280.052 267.635 287.083 267.635 287.083C267.635 287.083 258.502 283.739 257.744 283.879C256.406 284.118 256.384 291.17 254.473 291.549C252.393 291.966 250.698 292.24 249.635 292.3C243.401 292.649 233.516 305.647 233.516 305.647L241.49 381.911C241.49 381.911 252.237 380.87 268.185 374.286C284.133 367.701 307.878 352.273 307.878 352.273L313.25 316.393C313.25 316.393 368.029 294.552 370.972 290.219C380.957 281.109 373.984 277.166 376.215 266.236C377.496 259.963 378.739 257.478 378.802 249.64C378.836 245.483 372.467 240.028 372.982 236.276C375.137 220.541 366.811 209.273 366.811 209.273L342.026 213.257Z" fill="white"/>
<path d="M342.026 213.257L343.936 218.979C343.936 221.402 341.03 257.364 341.03 257.364L284.133 284.155C284.133 284.155 283.353 284.214 278.954 285.373C277.021 285.886 276.858 279.138 274.591 279.718C273.268 280.052 267.635 287.083 267.635 287.083C267.635 287.083 258.502 283.739 257.744 283.879C256.406 284.118 256.384 291.17 254.473 291.549C252.393 291.966 250.698 292.24 249.635 292.3C243.401 292.649 233.516 305.647 233.516 305.647L241.49 381.911C241.49 381.911 252.237 380.87 268.185 374.286C284.133 367.701 307.878 352.273 307.878 352.273L313.25 316.393C313.25 316.393 368.029 294.552 370.972 290.219C380.957 281.109 373.984 277.166 376.215 266.236C377.496 259.963 378.739 257.478 378.802 249.64C378.836 245.483 372.467 240.028 372.982 236.276C375.137 220.541 366.811 209.273 366.811 209.273L342.026 213.257Z" stroke="black" stroke-width="1.5" stroke-linecap="round" stroke-linejoin="round"/>
<path fill-rule="evenodd" clip-rule="evenodd" d="M341.335 257.352C341.327 261.952 348.551 263.349 348.551 264.077L341.335 257.352Z" fill="white"/>
<path d="M341.335 257.352C341.327 261.952 348.551 263.349 348.551 264.077" stroke="black" stroke-width="1.5" stroke-linecap="round" stroke-linejoin="round"/>
<path fill-rule="evenodd" clip-rule="evenodd" d="M282.699 276.983C276.768 279.421 276.798 283.791 276.798 283.791C276.798 283.791 277.608 303.046 279.228 310.143C280.848 317.233 294.433 338.109 299.903 345.815C305.373 353.515 309.832 365.881 309.832 365.881L327.668 355.944C327.668 355.944 324.836 338.926 324.227 334.467C323.618 330.008 321.79 330.818 318.348 325.14C314.9 319.463 300.512 274.062 300.512 274.062C300.512 274.062 288.622 274.553 282.699 276.983Z" fill="#444444"/>
<path fill-rule="evenodd" clip-rule="evenodd" d="M242.584 290.417C234.684 294.073 226.13 303.653 226.13 303.653C226.13 303.653 228.151 305.072 231.399 310.951C234.639 316.829 231.198 329.798 231.399 348.852C231.6 367.907 232.209 393.034 232.209 393.034L259.572 394.661C259.572 394.661 259.773 391.822 260.383 380.875C260.992 369.928 261.594 297.975 261.594 297.975L256.213 288.544C256.213 288.544 250.491 286.761 242.584 290.417Z" fill="#444444"/>
<path d="M273.017 419.766C273.313 423.622 275.61 433.092 276.174 437.18" stroke="#232323" stroke-width="1.5" stroke-linecap="round" stroke-linejoin="round"/>
<path d="M274.023 425.354C283.201 423.124 276.464 418.609 277.758 403.055" stroke="#232323" stroke-width="1.5" stroke-linecap="round" stroke-linejoin="round"/>
<path d="M294.375 389.164C296.463 397.732 301.152 410.693 313.444 411.927L294.375 389.164Z" fill="#65EAC9"/>
<path d="M294.375 389.164C296.463 397.732 301.152 410.693 313.444 411.927" stroke="black" stroke-width="2" stroke-linecap="round" stroke-linejoin="round"/>
<path fill-rule="evenodd" clip-rule="evenodd" d="M234.104 422.373C235.352 422.677 238.214 419.742 238.801 418.872C242.16 413.938 244.568 408.297 245.973 402.508" fill="#65EAC9"/>
<path d="M234.104 422.373C235.352 422.677 238.214 419.742 238.801 418.872C242.16 413.938 244.568 408.297 245.973 402.508" stroke="black" stroke-width="2" stroke-linecap="round" stroke-linejoin="round"/>
<path fill-rule="evenodd" clip-rule="evenodd" d="M264.507 389.986C269.746 389.86 280.366 387.407 289.314 383.952C292.42 382.755 298.44 381.447 301.673 380.719" fill="#65EAC9"/>
<path d="M264.507 389.986C269.746 389.86 280.366 387.407 289.314 383.952C292.42 382.755 298.44 381.447 301.673 380.719" stroke="black" stroke-width="2" stroke-linecap="round" stroke-linejoin="round"/>
<path fill-rule="evenodd" clip-rule="evenodd" d="M286.081 352.954C291.959 351.275 294.5 348.703 299.777 345.516L286.081 352.954Z" fill="white"/>
<path d="M286.081 352.954C291.959 351.275 294.5 348.703 299.777 345.516" stroke="black" stroke-width="1.5" stroke-linecap="round" stroke-linejoin="round"/>
<path fill-rule="evenodd" clip-rule="evenodd" d="M269.308 354.655C275.929 353.206 281.458 348.754 287.21 345.18L269.308 354.655Z" fill="white"/>
<path d="M269.308 354.655C275.929 353.206 281.458 348.754 287.21 345.18" stroke="black" stroke-width="1.5" stroke-linecap="round" stroke-linejoin="round"/>
<path fill-rule="evenodd" clip-rule="evenodd" d="M331.711 464.344L322.645 485.234C322.927 477.713 324.651 470.586 324.651 470.586L331.711 464.344Z" fill="#444444"/>
<path fill-rule="evenodd" clip-rule="evenodd" d="M212.191 495.795C207.338 497.749 205.201 499.021 205.201 499.021L213.213 501.7C219.582 496.72 224.02 492.031 224.02 492.031C224.02 492.031 219.718 492.569 212.191 495.795Z" fill="#444444"/>
<path fill-rule="evenodd" clip-rule="evenodd" d="M250.229 320.663L254.972 317.969C254.972 317.969 265.533 326.051 266.287 328.207C267.042 330.363 267.361 332.09 267.361 332.09L251.199 325.082L250.229 320.663Z" fill="#444444"/>
<path d="M304.259 320.672C309.877 324.596 315.889 331.909 324.874 332.823" stroke="black" stroke-width="1.5" stroke-linecap="round" stroke-linejoin="round"/>
<path d="M238.629 373.316C242.323 373.316 252.415 361.5 252.415 361.5" stroke="black" stroke-width="1.5" stroke-linecap="round" stroke-linejoin="round"/>
<path fill-rule="evenodd" clip-rule="evenodd" d="M289.135 376.344C289.35 376.451 289.759 379.101 290.108 380.008C290.473 380.952 290.859 382.066 290.904 383.085" fill="white"/>
<path d="M289.135 376.344C289.35 376.451 289.759 379.101 290.108 380.008C290.473 380.952 290.859 382.066 290.904 383.085" stroke="black" stroke-width="1.5" stroke-linecap="round" stroke-linejoin="round"/>
<path fill-rule="evenodd" clip-rule="evenodd" d="M277.341 379.727C277.178 381.451 277.973 383.442 278.241 385.137C278.285 385.39 278.634 387.255 278.255 387.218" fill="white"/>
<path d="M277.341 379.727C277.178 381.451 277.973 383.442 278.241 385.137C278.285 385.39 278.634 387.255 278.255 387.218" stroke="black" stroke-width="1.5" stroke-linecap="round" stroke-linejoin="round"/>
<path fill-rule="evenodd" clip-rule="evenodd" d="M268.616 261.792C268.616 261.792 264.44 264.215 260.449 261.918C256.458 259.622 253.3 260.744 253.3 260.744C253.3 260.744 250.245 253.758 252.787 250.05C252.988 249.752 252.69 248.021 253.605 247.278C254.526 246.534 256.465 247.07 256.465 247.07C256.465 247.07 258.249 244.721 259.705 244.588C264.313 244.157 265.681 246.736 265.681 246.736C265.681 246.736 268.096 244.892 271.597 245.717C273.149 246.089 275.401 248.251 275.401 248.251C275.401 248.251 279.838 247.88 281.615 250.34C284 253.654 281.436 256.374 281.436 256.374C281.436 256.374 284.156 257.771 283.754 261.272C283.353 264.765 280.76 266.221 280.76 266.221C280.76 266.221 280.366 268.86 278.805 270.658C277.237 272.464 274.502 273.445 274.502 273.445L268.616 261.792Z" fill="#444444"/>
<path fill-rule="evenodd" clip-rule="evenodd" d="M271.715 271.298C278.5 272.569 273.313 258.842 268.75 264.595L271.715 271.298Z" fill="#F08566"/>
<path d="M271.715 271.298C278.5 272.569 273.313 258.842 268.75 264.595" stroke="#303030" stroke-width="1.5" stroke-linecap="round" stroke-linejoin="round"/>
<path fill-rule="evenodd" clip-rule="evenodd" d="M266.083 245.927C266.083 245.927 270.556 250.475 270.772 254.503C270.987 258.531 269.122 267.159 269.122 267.159H273.209C273.209 267.159 276.747 260.931 274.101 253.225C272.972 249.94 268.988 245.14 268.141 245.236C267.532 245.311 266.083 245.927 266.083 245.927Z" fill="#D2F6A4"/>
<path fill-rule="evenodd" clip-rule="evenodd" d="M273.748 263.044C274.408 263.822 274.807 264.836 274.807 265.945C274.807 268.383 272.868 270.367 270.474 270.367C268.089 270.367 266.149 268.383 266.149 265.945C266.149 263.5 268.089 261.516 270.474 261.516" fill="#D2F6A4"/>
<path fill-rule="evenodd" clip-rule="evenodd" d="M260.32 264.685C260.219 265.044 259.907 265.135 260.327 265.466C261.116 266.089 263.481 267.021 263.931 267.288C264.283 267.496 264.962 266.99 264.642 266.489C264.377 266.063 260.563 263.808 260.32 264.685Z" fill="#191919"/>
<path fill-rule="evenodd" clip-rule="evenodd" d="M256.319 263.824C256.201 264.171 256.405 264.426 255.872 264.462C254.871 264.532 252.39 263.98 251.872 263.943C251.461 263.92 251.185 263.126 251.732 262.89C252.192 262.69 256.61 262.966 256.319 263.824Z" fill="#191919"/>
<path d="M258.068 265.469C257.446 267.851 255.677 270.412 255.677 270.412C255.677 270.412 256.322 270.823 257.538 271.158" stroke="#161616" stroke-width="1.5" stroke-linecap="round" stroke-linejoin="round"/>
<path d="M257.595 273.487C258.48 273.478 260.091 272.648 260.899 271.516" stroke="#161616" stroke-width="1.5" stroke-linecap="round" stroke-linejoin="round"/>
<line x1="254.127" y1="265.486" x2="254.864" y2="265.63" stroke="#161616" stroke-width="1.5" stroke-linecap="round" stroke-linejoin="round"/>
<line x1="260.777" y1="267.316" x2="261.436" y2="267.655" stroke="#161616" stroke-width="1.5" stroke-linecap="round" stroke-linejoin="round"/>
<path d="M170.721 515.988C170.721 515.988 177.017 514.551 179.371 515.258C181.717 515.973 183.014 516.726 183.014 516.726C183.014 516.726 181.793 516.318 179.809 519.755C177.825 523.183 177.017 525.262 178.154 526.608C179.291 527.963 181.547 529.815 181.977 530.127C182.409 530.439 186.381 530.627 187.592 531.79C189.8 533.903 188.987 535.262 188.987 535.262L188.987 536.094L178.266 555.245C178.266 555.245 174.966 561.768 174.733 563.93C174.508 566.093 172.897 572.971 168.694 569.564C166.122 567.493 165.779 528.28 166.522 524.747C167.265 521.213 170.721 515.988 170.721 515.988Z" fill="#636363"/>
<path d="M170.721 515.988C170.721 515.988 177.017 514.551 179.371 515.258C181.717 515.973 183.014 516.726 183.014 516.726C183.014 516.726 181.793 516.318 179.809 519.755C177.825 523.183 177.017 525.262 178.154 526.608C179.291 527.963 181.547 529.815 181.977 530.127C182.409 530.439 186.381 530.627 187.592 531.79C189.8 533.903 188.987 535.262 188.987 535.262L188.987 536.094L178.266 555.245C178.266 555.245 174.966 561.768 174.733 563.93C174.508 566.093 172.897 572.971 168.694 569.564C166.122 567.493 165.779 528.28 166.522 524.747C167.265 521.213 170.721 515.988 170.721 515.988Z" stroke="black" stroke-width="2" stroke-linecap="round" stroke-linejoin="round"/>
<path d="M173.211 518.773L171.194 520.14C171.194 520.14 170.644 523.323 171.94 526.615C172.992 529.315 174.741 532.685 174.458 534.121C173.901 537.009 170.459 541.593 170.544 545.378C170.648 549.7 173.245 551.268 173.245 551.268L174.129 548.677C174.129 548.677 172.361 546.997 173.253 543.504C173.855 541.16 177.562 535.904 176.899 532.312C176.229 528.721 173.882 527.053 173.242 523.244C172.995 521.776 173.211 518.773 173.211 518.773Z" fill="black"/>
<path d="M178.238 555.177C177.53 553.614 175.786 553.494 174.306 553.142C173.496 552.959 172.702 552.663 171.884 552.498C170.822 552.285 169.675 552.135 168.638 551.836" stroke="black" stroke-width="1.5" stroke-linecap="round" stroke-linejoin="round"/>
<path d="M178.367 515.289C177.753 515.786 172.081 519.402 170.479 520.717L178.367 515.289Z" fill="white"/>
<path d="M178.367 515.289C177.753 515.786 172.081 519.402 170.479 520.717" stroke="black" stroke-width="1.5" stroke-linecap="round" stroke-linejoin="round"/>
<path d="M181.307 530.414C181.151 530.876 180.771 531.361 180.529 531.79C180.06 532.614 179.671 533.48 179.254 534.329C178.231 536.421 177.399 538.595 176.411 540.713C176.196 541.185 176.154 541.706 175.999 542.194C175.853 542.691 175.611 543.155 175.457 543.661C175.06 545.02 174.829 546.472 174.354 547.799C174.133 548.453 173.991 549.158 173.762 549.813C173.434 550.747 173.098 551.663 173.083 552.669" stroke="black" stroke-width="1.5" stroke-linecap="round" stroke-linejoin="round"/>
<path d="M180.977 536.393C180.896 536.239 180.908 535.97 180.983 535.821C181.225 535.366 182.596 535.884 182.861 536.155C183.525 536.853 183.874 537.808 184.419 538.611C184.678 538.996 184.937 539.38 185.076 539.828C185.159 540.086 185.043 541.588 184.741 541.681C184.293 541.82 183.865 540.78 183.625 540.482C183.092 539.825 182.746 539.026 182.247 538.343C181.971 537.95 181.66 537.575 181.383 537.182C181.232 536.977 181.068 536.573 180.977 536.393Z" fill="white"/>
<path d="M180.977 536.393C180.896 536.239 180.908 535.97 180.983 535.821C181.225 535.366 182.596 535.884 182.861 536.155C183.525 536.853 183.874 537.808 184.419 538.611C184.678 538.996 184.937 539.38 185.076 539.828C185.159 540.086 185.043 541.588 184.741 541.681C184.293 541.82 183.865 540.78 183.625 540.482C183.092 539.825 182.746 539.026 182.247 538.343C181.971 537.95 181.66 537.575 181.383 537.182C181.232 536.977 181.068 536.573 180.977 536.393Z" stroke="black" stroke-width="1.5" stroke-linecap="round" stroke-linejoin="round"/>
<path d="M185.19 539.447C185.396 539.383 185.631 539.43 185.849 539.443C186.022 539.457 186.749 539.407 186.883 539.578C187.033 539.757 186.822 540.047 186.765 540.213C186.472 541.12 186.121 541.344 185.19 541.189" fill="white"/>
<path d="M185.19 539.447C185.396 539.383 185.631 539.43 185.849 539.443C186.022 539.457 186.749 539.407 186.883 539.578C187.033 539.757 186.822 540.047 186.765 540.213C186.472 541.12 186.121 541.344 185.19 541.189" stroke="black" stroke-width="1.5" stroke-linecap="round" stroke-linejoin="round"/>
<path d="M182.61 539.141C182.497 539.117 182.131 539.003 182.056 539.196C181.917 539.588 182.831 540.627 183.155 540.794C183.287 540.869 183.518 540.769 183.647 540.732" fill="white"/>
<path d="M182.61 539.141C182.497 539.117 182.131 539.003 182.056 539.196C181.917 539.588 182.831 540.627 183.155 540.794C183.287 540.869 183.518 540.769 183.647 540.732" stroke="black" stroke-width="1.5" stroke-linecap="round" stroke-linejoin="round"/>
<path d="M182.233 539.753C181.804 539.121 181.233 538.725 180.492 538.541C180.022 538.429 179.685 538.886 179.754 539.309C179.881 539.991 180.545 540.68 180.962 541.191C181.815 542.214 182.351 543.477 183.196 544.517C183.694 545.139 184.278 543.594 184.199 543.153C184.131 542.799 183.882 542.449 183.711 542.132C183.531 541.798 183.428 541.436 183.248 541.11C182.987 540.613 182.554 540.214 182.233 539.753Z" fill="white"/>
<path d="M182.233 539.753C181.804 539.121 181.233 538.725 180.492 538.541C180.022 538.429 179.685 538.886 179.754 539.309C179.881 539.991 180.545 540.68 180.962 541.191C181.815 542.214 182.351 543.477 183.196 544.517C183.694 545.139 184.278 543.594 184.199 543.153C184.131 542.799 183.882 542.449 183.711 542.132C183.531 541.798 183.428 541.436 183.248 541.11C182.987 540.613 182.554 540.214 182.233 539.753Z" stroke="black" stroke-width="1.5" stroke-linecap="round" stroke-linejoin="round"/>
<path d="M183.772 541.777C183.841 541.749 185.469 541.69 185.592 541.758C185.995 541.966 185.203 543.074 184.961 543.148C184.772 543.204 184.623 543.129 184.407 543.194" fill="white"/>
<path d="M183.772 541.777C183.841 541.749 185.469 541.69 185.592 541.758C185.995 541.966 185.203 543.074 184.961 543.148C184.772 543.204 184.623 543.129 184.407 543.194" stroke="black" stroke-width="1.5" stroke-linecap="round" stroke-linejoin="round"/>
<path d="M181.128 541.676C181.013 541.575 180.863 541.89 180.847 541.959C180.742 542.308 180.578 542.762 180.801 543.096C180.927 543.301 181.996 543.487 182.254 543.387" fill="white"/>
<path d="M181.128 541.676C181.013 541.575 180.863 541.89 180.847 541.959C180.742 542.308 180.578 542.762 180.801 543.096C180.927 543.301 181.996 543.487 182.254 543.387" stroke="black" stroke-width="1.5" stroke-linecap="round" stroke-linejoin="round"/>
<path d="M182.007 544.867C182.599 544.994 183.196 544.947 183.787 545.022C183.969 545.044 184.184 545.005 184.351 545.097C184.448 545.155 184.178 545.568 184.146 545.647C183.996 545.945 183.727 546.401 183.383 546.494C183.245 546.532 183.07 546.475 182.933 546.53" fill="white"/>
<path d="M182.007 544.867C182.599 544.994 183.196 544.947 183.787 545.022C183.969 545.044 184.184 545.005 184.351 545.097C184.448 545.155 184.178 545.568 184.146 545.647C183.996 545.945 183.727 546.401 183.383 546.494C183.245 546.532 183.07 546.475 182.933 546.53" stroke="black" stroke-width="1.5" stroke-linecap="round" stroke-linejoin="round"/>
<path d="M179.908 544.766C179.755 544.916 179.699 545.117 179.642 545.317C179.439 545.997 180.354 546.247 180.893 546.331" fill="white"/>
<path d="M179.908 544.766C179.755 544.916 179.699 545.117 179.642 545.317C179.439 545.997 180.354 546.247 180.893 546.331" stroke="black" stroke-width="1.5" stroke-linecap="round" stroke-linejoin="round"/>
<path d="M178.904 541.453C179.104 541.484 179.316 541.661 179.474 541.771C179.615 541.872 179.798 541.929 179.921 542.039C180.531 542.633 180.865 543.294 181.279 544.022C181.719 544.793 182.427 545.541 182.636 546.421C182.711 546.723 182.15 547.254 181.946 547.405C181.808 547.512 181.64 547.281 181.577 547.196C181.319 546.855 181.058 546.384 180.894 545.988C180.502 545.043 179.784 544.208 179.28 543.317C179.128 543.06 178.915 542.822 178.805 542.53C178.796 542.512 178.787 542.487 178.778 542.469C178.777 542.426 178.767 542.391 178.749 542.349C178.731 542.289 178.529 541.296 178.942 541.582C179.109 541.701 179.159 542.046 179.258 542.209C179.473 542.568 179.714 542.91 179.895 543.287" fill="white"/>
<path d="M178.904 541.453C179.104 541.484 179.316 541.661 179.474 541.771C179.615 541.872 179.798 541.929 179.921 542.039C180.531 542.633 180.865 543.294 181.279 544.022C181.719 544.793 182.427 545.541 182.636 546.421C182.711 546.723 182.15 547.254 181.946 547.405C181.808 547.512 181.64 547.281 181.577 547.196C181.319 546.855 181.058 546.384 180.894 545.988C180.502 545.043 179.784 544.208 179.28 543.317C179.128 543.06 178.915 542.822 178.805 542.53C178.796 542.512 178.787 542.487 178.778 542.469C178.777 542.426 178.767 542.391 178.749 542.349C178.731 542.289 178.529 541.296 178.942 541.582C179.109 541.701 179.159 542.046 179.258 542.209C179.473 542.568 179.714 542.91 179.895 543.287" stroke="black" stroke-width="1.5" stroke-linecap="round" stroke-linejoin="round"/>
<path d="M180.052 538.625C180.364 539.052 180.686 539.548 180.852 540.056L180.052 538.625Z" fill="white"/>
<path d="M180.052 538.625C180.364 539.052 180.686 539.548 180.852 540.056" stroke="black" stroke-width="1.5" stroke-linecap="round" stroke-linejoin="round"/>
<path d="M181.146 535.75C181.546 535.803 181.856 536.117 182.198 536.326C182.268 536.368 182.33 536.428 182.392 536.479C182.444 536.521 182.892 536.789 182.79 536.861" fill="white"/>
<path d="M181.146 535.75C181.546 535.803 181.856 536.117 182.198 536.326C182.268 536.368 182.33 536.428 182.392 536.479C182.444 536.521 182.892 536.789 182.79 536.861" stroke="black" stroke-width="1.5" stroke-linecap="round" stroke-linejoin="round"/>
<path d="M180.937 536.109C181.233 536.19 181.674 536.563 181.861 536.819L180.937 536.109Z" fill="white"/>
<path d="M180.937 536.109C181.233 536.19 181.674 536.563 181.861 536.819" stroke="black" stroke-width="1.5" stroke-linecap="round" stroke-linejoin="round"/>
<path d="M177.805 544.485C179.574 544.961 180.159 546.881 180.623 548.397C180.809 549.009 181.019 549.55 180.578 550.079C180.536 550.132 180.513 550.253 180.435 550.264C180.297 550.284 180.104 550.166 179.956 550.152C179.896 550.145 179.679 550.166 179.626 550.116C179.235 549.638 179.203 548.469 178.948 547.885C178.612 547.112 178.037 546.508 177.684 545.753C177.566 545.521 177.289 545.102 177.405 544.822C177.471 544.665 177.727 544.47 177.805 544.485Z" fill="white"/>
<path d="M177.805 544.485C179.574 544.961 180.159 546.881 180.623 548.397C180.809 549.009 181.019 549.55 180.578 550.079C180.536 550.132 180.513 550.253 180.435 550.264C180.297 550.284 180.104 550.166 179.956 550.152C179.896 550.145 179.679 550.166 179.626 550.116C179.235 549.638 179.203 548.469 178.948 547.885C178.612 547.112 178.037 546.508 177.684 545.753C177.566 545.521 177.289 545.102 177.405 544.822C177.471 544.665 177.727 544.47 177.805 544.485Z" stroke="black" stroke-width="1.5" stroke-linecap="round" stroke-linejoin="round"/>
<path d="M177.446 544.737C177.547 544.622 177.768 544.826 177.839 544.912C178.079 545.219 178.492 545.47 178.525 545.859" fill="white"/>
<path d="M177.446 544.737C177.547 544.622 177.768 544.826 177.839 544.912C178.079 545.219 178.492 545.47 178.525 545.859" stroke="black" stroke-width="1.5" stroke-linecap="round" stroke-linejoin="round"/>
<path d="M180.373 547.203C181.035 547.354 181.702 547.358 182.346 547.51C182.494 547.541 182.798 547.596 182.888 547.733C183.076 548.049 182.385 549.433 182.058 549.509C181.712 549.585 181.206 549.422 180.876 549.351" fill="white"/>
<path d="M180.373 547.203C181.035 547.354 181.702 547.358 182.346 547.51C182.494 547.541 182.798 547.596 182.888 547.733C183.076 548.049 182.385 549.433 182.058 549.509C181.712 549.585 181.206 549.422 180.876 549.351" stroke="black" stroke-width="1.5" stroke-linecap="round" stroke-linejoin="round"/>
<path d="M179.07 550.063C179.226 550.059 179.366 550.126 179.522 550.149C179.766 550.196 181.066 550.204 181.262 550.443C181.395 550.596 181.099 550.984 181.024 551.115C180.848 551.43 180.726 551.779 180.383 551.986C180.101 552.165 179.569 552.028 179.249 552.052" fill="white"/>
<path d="M179.07 550.063C179.226 550.059 179.366 550.126 179.522 550.149C179.766 550.196 181.066 550.204 181.262 550.443C181.395 550.596 181.099 550.984 181.024 551.115C180.848 551.43 180.726 551.779 180.383 551.986C180.101 552.165 179.569 552.028 179.249 552.052" stroke="black" stroke-width="1.5" stroke-linecap="round" stroke-linejoin="round"/>
<path d="M179.291 552.373C179.448 552.439 179.232 552.037 179.177 551.873C179.149 551.796 179.13 551.718 179.111 551.64C179.027 551.313 179.045 550.965 178.952 550.638C178.691 549.725 178.861 548.249 178.007 547.624C177.594 547.312 176.654 547.106 176.37 547.649C176.262 547.859 176.909 548.158 177.015 548.234C177.023 548.242 177.235 548.394 177.217 548.403C177.028 548.442 176.714 547.91 176.491 548.053C176.166 548.251 177.05 549.143 177.184 549.297C177.37 549.527 177.601 549.79 177.685 550.083C177.796 550.471 177.787 550.844 178.01 551.203C178.172 551.469 178.496 551.627 178.734 551.812C178.954 551.973 179.046 552.266 179.291 552.373Z" fill="white"/>
<path d="M179.291 552.373C179.448 552.439 179.232 552.037 179.177 551.873C179.149 551.796 179.13 551.718 179.111 551.64C179.027 551.313 179.045 550.965 178.952 550.638C178.691 549.725 178.861 548.249 178.007 547.624C177.594 547.312 176.654 547.106 176.37 547.649C176.262 547.859 176.909 548.158 177.015 548.234C177.023 548.242 177.235 548.394 177.217 548.403C177.028 548.442 176.714 547.91 176.491 548.053C176.166 548.251 177.05 549.143 177.184 549.297C177.37 549.527 177.601 549.79 177.685 550.083C177.796 550.471 177.787 550.844 178.01 551.203C178.172 551.469 178.496 551.627 178.734 551.812C178.954 551.973 179.046 552.266 179.291 552.373Z" stroke="black" stroke-width="1.5" stroke-linecap="round" stroke-linejoin="round"/>
<path d="M179.883 552.973C179.695 552.674 179.397 552.481 179.149 552.243C178.601 551.734 178.003 551.261 177.388 550.849C177.186 550.714 177 550.519 176.747 550.463C176.321 550.359 175.42 549.953 175.394 550.794C175.389 550.984 176.57 551.559 176.781 551.684C176.86 551.735 177.016 551.749 177.035 551.844" fill="white"/>
<path d="M179.883 552.973C179.695 552.674 179.397 552.481 179.149 552.243C178.601 551.734 178.003 551.261 177.388 550.849C177.186 550.714 177 550.519 176.747 550.463C176.321 550.359 175.42 549.953 175.394 550.794C175.389 550.984 176.57 551.559 176.781 551.684C176.86 551.735 177.016 551.749 177.035 551.844" stroke="black" stroke-width="1.5" stroke-linecap="round" stroke-linejoin="round"/>
<path d="M175.459 551.023C175.715 551.278 175.954 551.516 176.261 551.7L175.459 551.023Z" fill="white"/>
<path d="M175.459 551.023C175.715 551.278 175.954 551.516 176.261 551.7" stroke="black" stroke-width="1.5" stroke-linecap="round" stroke-linejoin="round"/>
<path d="M175.319 550.953C175.084 551.331 175.571 551.849 175.853 552.104C176.542 552.722 177.452 553.18 178.242 553.667C178.47 553.81 178.806 554.132 179.1 554.126C179.464 554.119 180.011 553.302 179.892 552.992" fill="white"/>
<path d="M175.319 550.953C175.084 551.331 175.571 551.849 175.853 552.104C176.542 552.722 177.452 553.18 178.242 553.667C178.47 553.81 178.806 554.132 179.1 554.126C179.464 554.119 180.011 553.302 179.892 552.992" stroke="black" stroke-width="1.5" stroke-linecap="round" stroke-linejoin="round"/>
<path d="M170.727 515.453L163.487 516.969C163.487 516.969 161.596 519.009 161.408 522.591C161.213 526.183 161.096 535.821 160.98 543.362C160.864 550.895 160.77 566.815 162.706 570.424C163.228 571.384 172.435 570.305 172.435 570.305C172.435 570.305 169.294 569.667 168.797 566.974C168.068 563.019 167.893 550.129 167.881 537.529C167.87 526.733 170.727 515.453 170.727 515.453Z" fill="white"/>
<path d="M170.727 515.453L163.487 516.969C163.487 516.969 161.596 519.009 161.408 522.591C161.213 526.183 161.096 535.821 160.98 543.362C160.864 550.895 160.77 566.815 162.706 570.424C163.228 571.384 172.435 570.305 172.435 570.305C172.435 570.305 169.294 569.667 168.797 566.974C168.068 563.019 167.893 550.129 167.881 537.529C167.87 526.733 170.727 515.453 170.727 515.453Z" stroke="black" stroke-width="1.5" stroke-linecap="round" stroke-linejoin="round"/>
<path d="M360.789 436.375C360.789 436.375 355.396 439.928 354.278 442.117C353.171 444.305 352.817 445.764 352.817 445.764C352.817 445.764 353.367 444.599 357.222 445.544C361.071 446.483 363.13 447.338 363.316 449.09C363.508 450.848 363.285 453.758 363.212 454.285C363.139 454.812 360.526 457.811 360.529 459.489C360.526 462.546 362.07 462.9 362.07 462.9L362.671 463.475L383.917 468.981C383.917 468.981 390.91 471.111 392.633 472.438C394.35 473.772 400.431 477.366 400.878 471.975C401.162 468.685 373.084 441.31 370.018 439.403C366.953 437.495 360.789 436.375 360.789 436.375Z" fill="#636363"/>
<path d="M360.789 436.375C360.789 436.375 355.396 439.928 354.278 442.117C353.171 444.305 352.817 445.764 352.817 445.764C352.817 445.764 353.367 444.599 357.222 445.544C361.071 446.483 363.13 447.338 363.316 449.09C363.508 450.848 363.285 453.758 363.212 454.285C363.139 454.812 360.526 457.811 360.529 459.489C360.526 462.546 362.07 462.9 362.07 462.9L362.671 463.475L383.917 468.981C383.917 468.981 390.91 471.111 392.633 472.438C394.35 473.772 400.431 477.366 400.878 471.975C401.162 468.685 373.084 441.31 370.018 439.403C366.953 437.495 360.789 436.375 360.789 436.375Z" stroke="black" stroke-width="2" stroke-linecap="round" stroke-linejoin="round"/>
<path d="M361.075 440.097L363.458 439.586C363.458 439.586 366.137 441.39 367.617 444.605C368.839 447.231 370.063 450.825 371.295 451.615C373.766 453.211 379.458 453.896 382.132 456.576C385.181 459.642 384.516 462.601 384.516 462.601L382.034 461.447C382.034 461.447 382.043 459.008 378.904 457.236C376.796 456.049 370.435 455.089 368.3 452.127C366.171 449.158 366.59 446.309 364.283 443.212C363.393 442.018 361.075 440.097 361.075 440.097Z" fill="black"/>
<path d="M383.887 468.915C383.248 467.323 384.367 465.98 385.138 464.668C385.566 463.957 385.902 463.178 386.348 462.474C386.929 461.56 387.614 460.628 388.115 459.672" stroke="black" stroke-width="1.5" stroke-linecap="round" stroke-linejoin="round"/>
<path d="M354.994 441.41C355.778 441.311 362.313 439.716 364.371 439.469L354.994 441.41Z" fill="white"/>
<path d="M354.994 441.41C355.778 441.311 362.313 439.716 364.371 439.469" stroke="black" stroke-width="1.5" stroke-linecap="round" stroke-linejoin="round"/>
<path d="M363.879 454C364.32 454.208 364.933 454.268 365.411 454.39C366.33 454.622 367.225 454.939 368.126 455.226C370.344 455.935 372.49 456.838 374.702 457.589C375.192 457.76 375.597 458.091 376.057 458.317C376.516 458.555 377.019 458.701 377.491 458.94C378.748 459.594 379.956 460.432 381.243 461.006C381.868 461.299 382.475 461.684 383.106 461.971C384.007 462.381 384.902 462.772 385.638 463.457" stroke="black" stroke-width="1.5" stroke-linecap="round" stroke-linejoin="round"/>
<path d="M368.424 457.894C368.368 457.728 368.166 457.551 368.007 457.502C367.51 457.362 366.936 458.711 366.949 459.09C366.993 460.052 367.441 460.964 367.645 461.913C367.743 462.367 367.841 462.82 368.069 463.23C368.197 463.469 369.362 464.423 369.638 464.27C370.048 464.043 369.594 463.014 369.544 462.634C369.439 461.795 369.101 460.993 368.953 460.16C368.861 459.689 368.805 459.204 368.712 458.733C368.669 458.482 368.491 458.084 368.424 457.894Z" fill="white"/>
<path d="M368.424 457.894C368.368 457.728 368.166 457.551 368.007 457.502C367.51 457.362 366.936 458.711 366.949 459.09C366.993 460.052 367.441 460.964 367.645 461.913C367.743 462.367 367.841 462.82 368.069 463.23C368.197 463.469 369.362 464.423 369.638 464.27C370.048 464.043 369.594 463.014 369.544 462.634C369.439 461.795 369.101 460.993 368.953 460.16C368.861 459.689 368.805 459.204 368.712 458.733C368.669 458.482 368.491 458.084 368.424 457.894Z" stroke="black" stroke-width="1.5" stroke-linecap="round" stroke-linejoin="round"/>
<path d="M367.719 463.047C367.529 463.151 367.401 463.353 367.26 463.519C367.15 463.654 366.611 464.145 366.642 464.359C366.667 464.592 367.023 464.641 367.182 464.714C368.04 465.129 368.444 465.031 368.976 464.252" fill="white"/>
<path d="M367.719 463.047C367.529 463.151 367.401 463.353 367.26 463.519C367.15 463.654 366.611 464.145 366.642 464.359C366.667 464.592 367.023 464.641 367.182 464.714C368.04 465.129 368.444 465.031 368.976 464.252" stroke="black" stroke-width="1.5" stroke-linecap="round" stroke-linejoin="round"/>
<path d="M369.278 460.975C369.34 460.877 369.511 460.534 369.701 460.613C370.081 460.784 370.199 462.162 370.095 462.512C370.059 462.659 369.826 462.757 369.71 462.825" fill="white"/>
<path d="M369.278 460.975C369.34 460.877 369.511 460.534 369.701 460.613C370.081 460.784 370.199 462.162 370.095 462.512C370.059 462.659 369.826 462.757 369.71 462.825" stroke="black" stroke-width="1.5" stroke-linecap="round" stroke-linejoin="round"/>
<path d="M369.983 461.124C369.823 460.377 369.933 459.69 370.312 459.028C370.557 458.611 371.12 458.684 371.378 459.027C371.783 459.59 371.821 460.546 371.901 461.201C372.05 462.525 372.591 463.785 372.757 465.115C372.863 465.905 371.343 465.257 371.079 464.896C370.87 464.603 370.79 464.18 370.679 463.837C370.562 463.476 370.372 463.151 370.261 462.796C370.083 462.263 370.095 461.675 369.983 461.124Z" fill="white"/>
<path d="M369.983 461.124C369.823 460.377 369.933 459.69 370.312 459.028C370.557 458.611 371.12 458.684 371.378 459.027C371.783 459.59 371.821 460.546 371.901 461.201C372.05 462.525 372.591 463.785 372.757 465.115C372.863 465.905 371.343 465.257 371.079 464.896C370.87 464.603 370.79 464.18 370.679 463.837C370.562 463.476 370.372 463.151 370.261 462.796C370.083 462.263 370.095 461.675 369.983 461.124Z" stroke="black" stroke-width="1.5" stroke-linecap="round" stroke-linejoin="round"/>
<path d="M370.379 463.633C370.312 463.663 369.143 464.798 369.106 464.933C368.978 465.368 370.326 465.562 370.547 465.439C370.718 465.342 370.766 465.182 370.963 465.072" fill="white"/>
<path d="M370.379 463.633C370.312 463.663 369.143 464.798 369.106 464.933C368.978 465.368 370.326 465.562 370.547 465.439C370.718 465.342 370.766 465.182 370.963 465.072" stroke="black" stroke-width="1.5" stroke-linecap="round" stroke-linejoin="round"/>
<path d="M372.141 461.665C372.147 461.512 372.478 461.622 372.539 461.659C372.864 461.824 373.305 462.019 373.391 462.411C373.453 462.644 372.848 463.545 372.597 463.661" fill="white"/>
<path d="M372.141 461.665C372.147 461.512 372.478 461.622 372.539 461.659C372.864 461.824 373.305 462.019 373.391 462.411C373.453 462.644 372.848 463.545 372.597 463.661" stroke="black" stroke-width="1.5" stroke-linecap="round" stroke-linejoin="round"/>
<path d="M373.835 464.5C373.517 465.015 373.07 465.414 372.715 465.892C372.605 466.039 372.428 466.168 372.379 466.352C372.355 466.462 372.839 466.553 372.919 466.584C373.237 466.682 373.751 466.803 374.058 466.619C374.18 466.546 374.26 466.38 374.395 466.319" fill="white"/>
<path d="M373.835 464.5C373.517 465.015 373.07 465.414 372.715 465.892C372.605 466.039 372.428 466.168 372.379 466.352C372.355 466.462 372.839 466.553 372.919 466.584C373.237 466.682 373.751 466.803 374.058 466.619C374.18 466.546 374.26 466.38 374.395 466.319" stroke="black" stroke-width="1.5" stroke-linecap="round" stroke-linejoin="round"/>
<path d="M375.211 462.914C375.426 462.908 375.61 463.006 375.794 463.104C376.425 463.427 375.973 464.261 375.661 464.709" fill="white"/>
<path d="M375.211 462.914C375.426 462.908 375.61 463.006 375.794 463.104C376.425 463.427 375.973 464.261 375.661 464.709" stroke="black" stroke-width="1.5" stroke-linecap="round" stroke-linejoin="round"/>
<path d="M373.511 459.893C373.395 460.058 373.376 460.334 373.346 460.524C373.321 460.695 373.236 460.867 373.23 461.032C373.238 461.884 373.483 462.582 373.723 463.384C373.975 464.235 374.026 465.264 374.517 466.024C374.682 466.287 375.454 466.249 375.705 466.206C375.877 466.181 375.827 465.899 375.809 465.795C375.741 465.373 375.581 464.859 375.409 464.467C374.997 463.53 374.892 462.433 374.597 461.454C374.517 461.165 374.492 460.847 374.357 460.566C374.351 460.547 374.338 460.523 374.332 460.504C374.302 460.474 374.283 460.443 374.265 460.4C374.234 460.345 373.657 459.512 373.578 460.009C373.548 460.211 373.762 460.487 373.812 460.67C373.922 461.074 374.003 461.485 374.15 461.877" fill="white"/>
<path d="M373.511 459.893C373.395 460.058 373.376 460.334 373.346 460.524C373.321 460.695 373.236 460.867 373.23 461.032C373.238 461.884 373.483 462.582 373.723 463.384C373.975 464.235 374.026 465.264 374.517 466.024C374.682 466.287 375.454 466.249 375.705 466.206C375.877 466.181 375.827 465.899 375.809 465.795C375.741 465.373 375.581 464.859 375.409 464.467C374.997 463.53 374.892 462.433 374.597 461.454C374.517 461.165 374.492 460.847 374.357 460.566C374.351 460.547 374.338 460.523 374.332 460.504C374.302 460.474 374.283 460.443 374.265 460.4C374.234 460.345 373.657 459.512 373.578 460.009C373.548 460.211 373.762 460.487 373.812 460.67C373.922 461.074 374.003 461.485 374.15 461.877" stroke="black" stroke-width="1.5" stroke-linecap="round" stroke-linejoin="round"/>
<path d="M370.679 458.773C370.772 459.294 370.907 459.87 371.158 460.341L370.679 458.773Z" fill="white"/>
<path d="M370.679 458.773C370.772 459.294 370.907 459.87 371.158 460.341" stroke="black" stroke-width="1.5" stroke-linecap="round" stroke-linejoin="round"/>
<path d="M367.847 457.578C367.608 457.903 367.621 458.344 367.536 458.736C367.517 458.816 367.518 458.902 367.512 458.981C367.506 459.049 367.39 459.557 367.513 459.533" fill="white"/>
<path d="M367.847 457.578C367.608 457.903 367.621 458.344 367.536 458.736C367.517 458.816 367.518 458.902 367.512 458.981C367.506 459.049 367.39 459.557 367.513 459.533" stroke="black" stroke-width="1.5" stroke-linecap="round" stroke-linejoin="round"/>
<path d="M368.252 457.672C368.105 457.942 368.069 458.518 368.124 458.83L368.252 457.672Z" fill="white"/>
<path d="M368.252 457.672C368.105 457.942 368.069 458.518 368.124 458.83" stroke="black" stroke-width="1.5" stroke-linecap="round" stroke-linejoin="round"/>
<path d="M376.465 461.201C375.585 462.807 376.567 464.558 377.34 465.941C377.654 466.498 377.899 467.025 378.586 467.073C378.653 467.079 378.757 467.146 378.818 467.097C378.929 467.011 378.977 466.791 379.069 466.674C379.106 466.625 379.271 466.484 379.271 466.411C379.197 465.798 378.375 464.966 378.129 464.378C377.803 463.601 377.766 462.767 377.464 461.99C377.378 461.745 377.268 461.255 376.985 461.145C376.826 461.084 376.508 461.133 376.465 461.201Z" fill="white"/>
<path d="M376.465 461.201C375.585 462.807 376.567 464.558 377.34 465.941C377.654 466.498 377.899 467.025 378.586 467.073C378.653 467.079 378.757 467.146 378.818 467.097C378.929 467.011 378.977 466.791 379.069 466.674C379.106 466.625 379.271 466.484 379.271 466.411C379.197 465.798 378.375 464.966 378.129 464.378C377.803 463.601 377.766 462.767 377.464 461.99C377.378 461.745 377.268 461.255 376.985 461.145C376.826 461.084 376.508 461.133 376.465 461.201Z" stroke="black" stroke-width="1.5" stroke-linecap="round" stroke-linejoin="round"/>
<path d="M376.894 461.117C376.74 461.111 376.735 461.411 376.747 461.522C376.803 461.908 376.699 462.379 376.957 462.673" fill="white"/>
<path d="M376.894 461.117C376.74 461.111 376.735 461.411 376.747 461.522C376.803 461.908 376.699 462.379 376.957 462.673" stroke="black" stroke-width="1.5" stroke-linecap="round" stroke-linejoin="round"/>
<path d="M376.647 464.938C376.298 465.52 375.839 466.004 375.503 466.575C375.424 466.703 375.253 466.961 375.289 467.12C375.388 467.475 376.865 467.933 377.146 467.749C377.44 467.552 377.673 467.074 377.85 466.786" fill="white"/>
<path d="M376.647 464.938C376.298 465.52 375.839 466.004 375.503 466.575C375.424 466.703 375.253 466.961 375.289 467.12C375.388 467.475 376.865 467.933 377.146 467.749C377.44 467.552 377.673 467.074 377.85 466.786" stroke="black" stroke-width="1.5" stroke-linecap="round" stroke-linejoin="round"/>
<path d="M379.613 465.969C379.503 466.079 379.454 466.226 379.363 466.355C379.228 466.563 378.335 467.508 378.372 467.814C378.391 468.016 378.874 468.071 379.022 468.108C379.371 468.199 379.708 468.352 380.094 468.247C380.418 468.167 380.687 467.689 380.926 467.474" fill="white"/>
<path d="M379.613 465.969C379.503 466.079 379.454 466.226 379.363 466.355C379.228 466.563 378.335 467.508 378.372 467.814C378.391 468.016 378.874 468.071 379.022 468.108C379.371 468.199 379.708 468.352 380.094 468.247C380.418 468.167 380.687 467.689 380.926 467.474" stroke="black" stroke-width="1.5" stroke-linecap="round" stroke-linejoin="round"/>
<path d="M381.135 467.736C381.074 467.896 380.932 467.461 380.853 467.308C380.816 467.235 380.772 467.167 380.73 467.1C380.552 466.812 380.288 466.586 380.116 466.291C379.638 465.471 378.454 464.572 378.593 463.525C378.654 463.01 379.156 462.188 379.744 462.359C379.971 462.426 379.739 463.1 379.721 463.229C379.721 463.241 379.684 463.499 379.703 463.493C379.862 463.382 379.696 462.788 379.953 462.727C380.32 462.628 380.352 463.884 380.371 464.086C380.408 464.38 380.439 464.729 380.592 464.992C380.795 465.341 381.071 465.592 381.176 466.003C381.256 466.303 381.146 466.646 381.116 466.946C381.079 467.216 381.226 467.485 381.135 467.736Z" fill="white"/>
<path d="M381.135 467.736C381.074 467.896 380.932 467.461 380.853 467.308C380.816 467.235 380.772 467.167 380.73 467.1C380.552 466.812 380.288 466.586 380.116 466.291C379.638 465.471 378.454 464.572 378.593 463.525C378.654 463.01 379.156 462.188 379.744 462.359C379.971 462.426 379.739 463.1 379.721 463.229C379.721 463.241 379.684 463.499 379.703 463.493C379.862 463.382 379.696 462.788 379.953 462.727C380.32 462.628 380.352 463.884 380.371 464.086C380.408 464.38 380.439 464.729 380.592 464.992C380.795 465.341 381.071 465.592 381.176 466.003C381.256 466.303 381.146 466.646 381.116 466.946C381.079 467.216 381.226 467.485 381.135 467.736Z" stroke="black" stroke-width="1.5" stroke-linecap="round" stroke-linejoin="round"/>
<path d="M381.154 468.574C381.068 468.231 381.135 467.882 381.135 467.539C381.146 466.791 381.219 466.032 381.347 465.303C381.389 465.064 381.376 464.794 381.511 464.574C381.731 464.193 382.061 463.262 382.687 463.825C382.827 463.953 382.425 465.204 382.37 465.442C382.352 465.534 382.253 465.657 382.309 465.736" fill="white"/>
<path d="M381.154 468.574C381.068 468.231 381.135 467.882 381.135 467.539C381.146 466.791 381.219 466.032 381.347 465.303C381.389 465.064 381.376 464.794 381.511 464.574C381.731 464.193 382.061 463.262 382.687 463.825C382.827 463.953 382.425 465.204 382.37 465.442C382.352 465.534 382.253 465.657 382.309 465.736" stroke="black" stroke-width="1.5" stroke-linecap="round" stroke-linejoin="round"/>
<path d="M382.809 464.031C382.816 464.393 382.822 464.73 382.743 465.079L382.809 464.031Z" fill="white"/>
<path d="M382.809 464.031C382.816 464.393 382.822 464.73 382.743 465.079" stroke="black" stroke-width="1.5" stroke-linecap="round" stroke-linejoin="round"/>
<path d="M382.852 463.875C383.287 463.966 383.324 464.677 383.312 465.057C383.283 465.982 382.984 466.956 382.789 467.863C382.734 468.127 382.735 468.592 382.527 468.801C382.27 469.058 381.302 468.888 381.16 468.588" fill="white"/>
<path d="M382.852 463.875C383.287 463.966 383.324 464.677 383.312 465.057C383.283 465.982 382.984 466.956 382.789 467.863C382.734 468.127 382.735 468.592 382.527 468.801C382.27 469.058 381.302 468.888 381.16 468.588" stroke="black" stroke-width="1.5" stroke-linecap="round" stroke-linejoin="round"/>
<path d="M360.397 436.007L366.5 431.828C366.5 431.828 369.281 431.874 371.998 434.217C374.726 436.56 381.767 443.143 387.293 448.276C392.813 453.404 404.374 464.349 405.64 468.244C405.973 469.285 398.824 475.187 398.824 475.187C398.824 475.187 400.536 472.477 398.934 470.255C396.584 466.993 387.397 457.95 378.307 449.224C370.518 441.748 360.397 436.007 360.397 436.007Z" fill="white"/>
<path d="M360.397 436.007L366.5 431.828C366.5 431.828 369.281 431.874 371.998 434.217C374.726 436.56 381.767 443.143 387.293 448.276C392.813 453.404 404.374 464.349 405.64 468.244C405.973 469.285 398.824 475.187 398.824 475.187C398.824 475.187 400.536 472.477 398.934 470.255C396.584 466.993 387.397 457.95 378.307 449.224C370.518 441.748 360.397 436.007 360.397 436.007Z" stroke="black" stroke-width="1.5" stroke-linecap="round" stroke-linejoin="round"/>
<path d="M224.188 492.188C224.31 495.693 224.876 499.182 225.868 502.546" stroke="#232323" stroke-width="1.5" stroke-linecap="round" stroke-linejoin="round"/>
<path d="M323.1 482.57C322.589 484.974 322.318 487.43 322.292 489.887" stroke="#232323" stroke-width="1.5" stroke-linecap="round" stroke-linejoin="round"/>
<path fill-rule="evenodd" clip-rule="evenodd" d="M259.104 332.712L268.371 320.68C268.371 320.68 268.305 323.184 273.351 322.434C278.389 321.683 275.565 315.923 276.836 311.145C278.107 306.366 266.312 300.258 266.312 300.258L260.3 302.138L247.979 323.333L259.104 332.712Z" fill="#F08566"/>
<path d="M259.104 332.712L268.371 320.68C268.371 320.68 268.305 323.184 273.351 322.434C278.389 321.683 275.565 315.923 276.836 311.145C278.107 306.366 266.312 300.258 266.312 300.258L260.3 302.138L247.979 323.333L259.104 332.712Z" stroke="#303030" stroke-width="1.5" stroke-linecap="round" stroke-linejoin="round"/>
<path fill-rule="evenodd" clip-rule="evenodd" d="M206.213 351.34L210.939 355.457C210.939 355.457 233.019 328.666 247.354 315.453C254.742 323.182 267.36 332.092 267.36 332.092C267.36 332.092 258.737 347.799 250.481 356.267C244.877 362.014 247.427 366.792 240.961 372.396C238.514 374.564 230.728 376.69 226.34 378.971C222.193 381.126 220.592 388.596 213.12 387.592C203.717 386.329 195.655 385.958 191.379 374.899" fill="white"/>
<path d="M206.213 351.34L210.939 355.457C210.939 355.457 233.019 328.666 247.354 315.453C254.742 323.182 267.36 332.092 267.36 332.092C267.36 332.092 258.737 347.799 250.481 356.267C244.877 362.014 247.427 366.792 240.961 372.396C238.514 374.564 230.728 376.69 226.34 378.971C222.193 381.126 220.592 388.596 213.12 387.592C203.717 386.329 195.655 385.958 191.379 374.899" stroke="black" stroke-width="1.5" stroke-linecap="round" stroke-linejoin="round"/>
<path fill-rule="evenodd" clip-rule="evenodd" d="M268.371 320.684C268.676 320.015 271.366 315.675 271.567 315.727C272.027 315.846 272.414 317.206 272.555 317.563C272.645 317.815 272.927 318.194 272.912 318.469C272.89 318.878 271.522 319.532 271.232 319.279" fill="#F08566"/>
<path d="M268.371 320.684C268.676 320.015 271.366 315.675 271.567 315.727C272.027 315.846 272.414 317.206 272.555 317.563C272.645 317.815 272.927 318.194 272.912 318.469C272.89 318.878 271.522 319.532 271.232 319.279" stroke="#303030" stroke-width="1.5" stroke-linecap="round" stroke-linejoin="round"/>
<path d="M268.109 261.901C270.26 260.288 272.948 261.901 273.486 262.976" stroke="#161616" stroke-width="1.5" stroke-linecap="round" stroke-linejoin="round"/>
<path d="M268.256 264.331C266.284 267.177 269.639 269.794 272.387 268.575C274.198 266.902 273.971 263.667 270.192 264.093" stroke="#161616" stroke-width="1.5" stroke-linecap="round" stroke-linejoin="round"/>
</svg>
