<svg width="18" height="18" viewBox="0 0 18 18" fill="none" xmlns="http://www.w3.org/2000/svg">
<path d="M15.6655 4.625H11.3931" stroke="#92A299" stroke-width="1.3" stroke-linecap="round" stroke-linejoin="round"/>
<path d="M4.27262 4.625H1.42432" stroke="#92A299" stroke-width="1.3" stroke-linecap="round" stroke-linejoin="round"/>
<path d="M9.61296 4.62508C9.61296 6.00152 8.49713 7.11735 7.12069 7.11735C5.74424 7.11735 4.62842 6.00152 4.62842 4.62508C4.62842 3.24864 5.74424 2.13281 7.12069 2.13281C8.49713 2.13281 9.61296 3.24864 9.61296 4.62508Z" stroke="#92A299" stroke-width="1.3" stroke-linecap="round" stroke-linejoin="round"/>
<path d="M15.6657 12.4609H12.8174" stroke="#92A299" stroke-width="1.3" stroke-linecap="round" stroke-linejoin="round"/>
<path d="M5.69678 12.4609H1.42432" stroke="#92A299" stroke-width="1.3" stroke-linecap="round" stroke-linejoin="round"/>
<path d="M12.4611 12.461C12.4611 13.8375 11.3453 14.9533 9.96883 14.9533C8.59239 14.9533 7.47656 13.8375 7.47656 12.461C7.47656 11.0846 8.59239 9.96875 9.96883 9.96875C11.3453 9.96875 12.4611 11.0846 12.4611 12.461Z" stroke="#92A299" stroke-width="1.3" stroke-linecap="round" stroke-linejoin="round"/>
</svg>
