<svg width="316" height="309" viewBox="0 0 316 309" fill="none" xmlns="http://www.w3.org/2000/svg">
<path fill-rule="evenodd" clip-rule="evenodd" d="M11.8361 119.208C12.1983 119.716 6.03093 114.022 10.5246 110.873C14.3993 108.151 22.992 107.96 28.9815 106.26C34.4508 104.705 44.0385 99.8159 51.0229 97.892C52.9605 97.3581 55.168 97.1666 57.3883 98.162C59.3654 99.0515 60.4656 100.37 60.6237 102.596C60.7817 104.83 59.5037 105.252 58.0342 107.084C56.4856 109.014 54.1858 110.412 51.8334 111.143C41.1916 114.431 30.3786 117.383 19.3742 119.044C15.7107 119.597 10.1031 116.744 11.8361 119.208Z" fill="white"/>
<path d="M11.8361 119.208C12.1983 119.716 6.03093 114.022 10.5246 110.873C14.3993 108.151 22.992 107.96 28.9815 106.26C34.4508 104.705 44.0385 99.8159 51.0229 97.892C52.9605 97.3581 55.168 97.1666 57.3883 98.162C59.3654 99.0515 60.4656 100.37 60.6237 102.596C60.7817 104.83 59.5037 105.252 58.0342 107.084C56.4856 109.014 54.1858 110.412 51.8334 111.143C41.1916 114.431 30.3786 117.383 19.3742 119.044C15.7107 119.597 10.1031 116.744 11.8361 119.208Z" stroke="black" stroke-width="1.5" stroke-linecap="round" stroke-linejoin="round"/>
<path fill-rule="evenodd" clip-rule="evenodd" d="M1.49095 123.438C1.83998 126.588 5.43804 130.021 9.85271 129.869C21.4767 129.46 37.4433 126.673 48.23 122.305C58.4296 118.173 59.6164 114.048 65.955 109.257C71.5757 105.007 72.7484 102.352 71.6943 98.5827C70.6467 94.8073 65.6779 94.4249 62.9698 95.3605C54.8785 98.1547 48.651 105.133 40.5794 107.973C28.8765 112.091 15.6781 113.363 6.13046 116.058C3.38194 116.836 1.14238 120.288 1.49095 123.438Z" fill="#F08566"/>
<path d="M1.49095 123.438C1.83998 126.588 5.43804 130.021 9.85271 129.869C21.4767 129.46 37.4433 126.673 48.23 122.305C58.4296 118.173 59.6164 114.048 65.955 109.257C71.5757 105.007 72.7484 102.352 71.6943 98.5827C70.6467 94.8073 65.6779 94.4249 62.9698 95.3605C54.8785 98.1547 48.651 105.133 40.5794 107.973C28.8765 112.091 15.6781 113.363 6.13046 116.058C3.38194 116.836 1.14238 120.288 1.49095 123.438Z" stroke="#303030" stroke-width="1.5" stroke-linecap="round" stroke-linejoin="round"/>
<path fill-rule="evenodd" clip-rule="evenodd" d="M53.9359 106.229C53.2571 106.512 54.1532 109.299 53.7515 111.111C53.5468 112.014 51.6361 113.115 50.6544 112.897C45.3431 111.724 46.2063 107.955 44.447 108.858C42.6812 109.761 45.7585 114.999 41.976 116.679C40.4341 117.371 38.3916 116.791 37.1987 115.335C35.9009 113.74 34.2996 112.673 33.6077 112.983C31.3079 114.011 35.0838 119.658 31.2355 120.791C27.7169 121.833 25.944 114.268 23.4467 115.137C21.352 115.869 21.5162 120.738 17.9976 122.05C15.9947 122.795 14.7951 122.241 14.1493 122.057C12.7851 121.654 11.5598 120.87 10.222 120.403C9.05537 119.994 7.90243 120.943 8.66682 122.129C10.611 125.121 11.039 126.241 9.37853 126.583C8.71292 126.715 7.92219 126.076 6.74243 124.257C5.43803 122.234 5.33924 119.678 7.56045 118.096C10.1956 116.212 14.3403 119.678 17.3715 118.894C19.5325 118.34 19.8627 111.994 23.4862 111.994C27.7894 111.988 28.1779 117.562 30.2274 117.78C31.6043 117.925 30.5765 114.334 30.583 112.904C30.5896 110.406 31.8813 110.057 32.9092 109.827C35.914 109.161 37.6667 113.761 40.4077 113.819C43.7156 113.886 39.4194 107.619 43.2282 106.163C47.0963 104.687 47.768 110.716 51.1817 109.833C52.5322 109.484 51.6427 107.692 51.6888 105.853C51.7349 104.008 52.3017 102.829 53.7317 102.868C55.8795 102.934 57.27 104.16 57.8171 107.283C57.9949 108.278 56.9803 109.833 55.9783 108.91C55.2934 108.278 55.4054 105.616 53.9359 106.229Z" fill="white"/>
<path d="M53.9359 106.229C53.2571 106.512 54.1532 109.299 53.7515 111.111C53.5468 112.014 51.6361 113.115 50.6544 112.897C45.3431 111.724 46.2063 107.955 44.447 108.858C42.6812 109.761 45.7585 114.999 41.976 116.679C40.4341 117.371 38.3916 116.791 37.1987 115.335C35.9009 113.74 34.2996 112.673 33.6077 112.983C31.3079 114.011 35.0838 119.658 31.2355 120.791C27.7169 121.833 25.944 114.268 23.4467 115.137C21.352 115.869 21.5162 120.738 17.9976 122.05C15.9947 122.795 14.7951 122.241 14.1493 122.057C12.7851 121.654 11.5598 120.87 10.222 120.403C9.05537 119.994 7.90243 120.943 8.66682 122.129C10.611 125.121 11.039 126.241 9.37853 126.583C8.71292 126.715 7.92219 126.076 6.74243 124.257C5.43803 122.234 5.33924 119.678 7.56045 118.096C10.1956 116.212 14.3403 119.678 17.3715 118.894C19.5325 118.34 19.8627 111.994 23.4862 111.994C27.7894 111.988 28.1779 117.562 30.2274 117.78C31.6043 117.925 30.5765 114.334 30.583 112.904C30.5896 110.406 31.8813 110.057 32.9092 109.827C35.914 109.161 37.6667 113.761 40.4077 113.819C43.7156 113.886 39.4194 107.619 43.2282 106.163C47.0963 104.687 47.768 110.716 51.1817 109.833C52.5322 109.484 51.6427 107.692 51.6888 105.853C51.7349 104.008 52.3017 102.829 53.7317 102.868C55.8795 102.934 57.27 104.16 57.8171 107.283C57.9949 108.278 56.9803 109.833 55.9783 108.91C55.2934 108.278 55.4054 105.616 53.9359 106.229Z" stroke="black" stroke-width="1.5" stroke-linecap="round" stroke-linejoin="round"/>
<path fill-rule="evenodd" clip-rule="evenodd" d="M68.5508 97.7578C68.6035 97.8566 68.7155 97.9225 68.8011 97.9949C69.1045 98.2719 69.3745 98.509 69.5325 98.9042C70.0467 100.209 69.6774 101.837 68.8472 102.93C68.373 103.55 67.7206 104.071 67.0879 104.505" fill="#F08566"/>
<path d="M68.5508 97.7578C68.6035 97.8566 68.7155 97.9225 68.8011 97.9949C69.1045 98.2719 69.3745 98.509 69.5325 98.9042C70.0467 100.209 69.6774 101.837 68.8472 102.93C68.373 103.55 67.7206 104.071 67.0879 104.505" stroke="#303030" stroke-width="1.5" stroke-linecap="round" stroke-linejoin="round"/>
<path fill-rule="evenodd" clip-rule="evenodd" d="M11.4741 114.291C11.6256 112.703 12.9502 112.011 14.3539 111.609L11.4741 114.291Z" fill="white"/>
<path d="M11.4741 114.291C11.6256 112.703 12.9502 112.011 14.3539 111.609" stroke="black" stroke-width="1.5" stroke-linecap="round" stroke-linejoin="round"/>
<path fill-rule="evenodd" clip-rule="evenodd" d="M34.7412 106.599C35.8744 106.158 37.0541 105.841 38.2005 105.439C39.7227 104.899 41.1527 104.148 42.6156 103.489C43.0503 103.291 43.492 103.12 43.9069 102.883" fill="white"/>
<path d="M34.7412 106.599C35.8744 106.158 37.0541 105.841 38.2005 105.439C39.7227 104.899 41.1527 104.148 42.6156 103.489C43.0503 103.291 43.492 103.12 43.9069 102.883" stroke="black" stroke-width="1.5" stroke-linecap="round" stroke-linejoin="round"/>
<path fill-rule="evenodd" clip-rule="evenodd" d="M11.8626 133.61C9.45749 129.73 11.7968 125.69 14.8412 124.227C22.1549 120.702 32.5003 122.396 40.1377 119.642C49.198 116.366 55.1814 109.87 64.1754 106.41C66.0871 105.672 69.6974 106.937 70.363 111.029C71.0356 115.121 69.941 119.022 66.851 122.765C61.8695 128.794 54.6277 132.893 47.386 135.798C40.1904 138.685 32.211 140.213 24.4749 139.772C19.658 139.495 14.2744 137.499 11.8626 133.61Z" fill="white"/>
<path d="M11.8626 133.61C9.45749 129.73 11.7968 125.69 14.8412 124.227C22.1549 120.702 32.5003 122.396 40.1377 119.642C49.198 116.366 55.1814 109.87 64.1754 106.41C66.0871 105.672 69.6974 106.937 70.363 111.029C71.0356 115.121 69.941 119.022 66.851 122.765C61.8695 128.794 54.6277 132.893 47.386 135.798C40.1904 138.685 32.211 140.213 24.4749 139.772C19.658 139.495 14.2744 137.499 11.8626 133.61Z" stroke="black" stroke-width="1.5" stroke-linecap="round" stroke-linejoin="round"/>
<path fill-rule="evenodd" clip-rule="evenodd" d="M72.8008 17.5001C73.6324 16.8623 74.7628 15.8034 75.5413 15.0051C77.3387 13.2482 76.7112 13.4613 79.0942 14.3579C84.2276 15.5724 87.717 23.7352 88.2063 28.4801C80.1343 40.4907 72.8403 26.2768 72.8008 17.5001Z" fill="#F08566"/>
<path d="M72.8008 17.5001C73.6324 16.8623 74.7628 15.8034 75.5413 15.0051C77.3387 13.2482 76.7112 13.4613 79.0942 14.3579C84.2276 15.5724 87.717 23.7352 88.2063 28.4801C80.1343 40.4907 72.8403 26.2768 72.8008 17.5001Z" stroke="#303030" stroke-width="1.5" stroke-linecap="round" stroke-linejoin="round"/>
<path fill-rule="evenodd" clip-rule="evenodd" d="M58.2398 29.125C46.3646 40.5415 28.6895 50.7468 25.0176 67.9703C29.3805 80.1042 65.3752 50.2392 70.964 44.8729C71.027 38.5193 64.9203 29.5121 58.2398 29.125Z" fill="#F08566"/>
<path d="M58.2398 29.125C46.3646 40.5415 28.6895 50.7468 25.0176 67.9703C29.3805 80.1042 65.3752 50.2392 70.964 44.8729C71.027 38.5193 64.9203 29.5121 58.2398 29.125Z" stroke="#303030" stroke-width="1.5" stroke-linecap="round" stroke-linejoin="round"/>
<path fill-rule="evenodd" clip-rule="evenodd" d="M51.1203 41.9155C51.6462 40.1703 53.2008 41.145 54.1877 42.0072C56.2805 43.8399 58.7332 46.0898 60.0743 48.5481C60.5216 49.3826 60.8589 50.5275 59.8889 51.1611C59.0154 51.7355 57.6734 50.7152 56.9993 50.2787C54.6407 48.7344 53.2893 46.0997 51.6547 43.8959C50.9999 43.0096 50.7764 43.0294 51.1203 41.9155Z" fill="#F08566"/>
<path d="M51.1203 41.9155C51.6462 40.1703 53.2008 41.145 54.1877 42.0072C56.2805 43.8399 58.7332 46.0898 60.0743 48.5481C60.5216 49.3826 60.8589 50.5275 59.8889 51.1611C59.0154 51.7355 57.6734 50.7152 56.9993 50.2787C54.6407 48.7344 53.2893 46.0997 51.6547 43.8959C50.9999 43.0096 50.7764 43.0294 51.1203 41.9155Z" stroke="#303030" stroke-width="1.5" stroke-linecap="round" stroke-linejoin="round"/>
<path fill-rule="evenodd" clip-rule="evenodd" d="M43.0136 48.9223C46.0001 46.7246 50.022 52.2104 50.8551 54.7684C51.0583 55.3696 51.618 57.0531 50.6824 57.4864C48.1197 58.6685 44.4059 53.2495 43.5818 51.2607C43.3447 50.6732 42.4232 49.3518 43.0136 48.9223Z" fill="#F08566"/>
<path d="M43.0136 48.9223C46.0001 46.7246 50.022 52.2104 50.8551 54.7684C51.0583 55.3696 51.618 57.0531 50.6824 57.4864C48.1197 58.6685 44.4059 53.2495 43.5818 51.2607C43.3447 50.6732 42.4232 49.3518 43.0136 48.9223Z" stroke="#303030" stroke-width="1.5" stroke-linecap="round" stroke-linejoin="round"/>
<path fill-rule="evenodd" clip-rule="evenodd" d="M41.975 62.3543C41.7027 60.9723 40.4133 60.0461 39.5718 58.9082C38.655 57.6612 37.5025 56.2274 35.8298 55.9682C34.8993 55.8173 33.8918 56.4203 34.1208 57.5342C34.5706 59.7648 37.0114 61.9239 38.7815 63.1333C40.1913 64.0962 42.3147 64.1023 41.975 62.3543Z" fill="#F08566"/>
<path d="M41.975 62.3543C41.7027 60.9723 40.4133 60.0461 39.5718 58.9082C38.655 57.6612 37.5025 56.2274 35.8298 55.9682C34.8993 55.8173 33.8918 56.4203 34.1208 57.5342C34.5706 59.7648 37.0114 61.9239 38.7815 63.1333C40.1913 64.0962 42.3147 64.1023 41.975 62.3543Z" stroke="#303030" stroke-width="1.5" stroke-linecap="round" stroke-linejoin="round"/>
<path fill-rule="evenodd" clip-rule="evenodd" d="M35.416 56.4766C36.9796 58.3925 38.498 60.3465 40.0579 62.254L35.416 56.4766Z" fill="white"/>
<path d="M35.416 56.4766C36.9796 58.3925 38.498 60.3465 40.0579 62.254" stroke="black" stroke-width="1.5" stroke-linecap="round" stroke-linejoin="round"/>
<path fill-rule="evenodd" clip-rule="evenodd" d="M44.0276 49.1796C43.9537 48.998 43.6113 48.5234 43.7044 48.6918C44.8734 50.6265 46.666 52.1887 48.033 53.9781C48.1163 54.0849 48.9954 55.7247 49.4141 55.7666" fill="white"/>
<path d="M44.0276 49.1796C43.9537 48.998 43.6113 48.5234 43.7044 48.6918C44.8734 50.6265 46.666 52.1887 48.033 53.9781C48.1163 54.0849 48.9954 55.7247 49.4141 55.7666" stroke="black" stroke-width="1.5" stroke-linecap="round" stroke-linejoin="round"/>
<path fill-rule="evenodd" clip-rule="evenodd" d="M51.5762 41.5142C52.6449 41.2729 53.1261 43.0736 53.8063 43.9344C55.1248 45.618 56.3366 47.3843 57.9961 48.7541" fill="white"/>
<path d="M51.5762 41.5142C52.6449 41.2729 53.1261 43.0736 53.8063 43.9344C55.1248 45.618 56.3366 47.3843 57.9961 48.7541" stroke="black" stroke-width="1.5" stroke-linecap="round" stroke-linejoin="round"/>
<path fill-rule="evenodd" clip-rule="evenodd" d="M69.1587 19.7041C67.8332 21.676 63.1852 22.4931 63.1885 25.3239C63.2252 30.5538 68.9061 39.0797 74.5452 38.7608C75.9776 37.5015 78.2402 36.2028 79.6359 34.8278C82.0151 28.3363 76.4457 19.2469 69.1587 19.7041Z" fill="#F08566"/>
<path d="M69.1587 19.7041C67.8332 21.676 63.1852 22.4931 63.1885 25.3239C63.2252 30.5538 68.9061 39.0797 74.5452 38.7608C75.9776 37.5015 78.2402 36.2028 79.6359 34.8278C82.0151 28.3363 76.4457 19.2469 69.1587 19.7041Z" stroke="#303030" stroke-width="1.5" stroke-linecap="round" stroke-linejoin="round"/>
<path fill-rule="evenodd" clip-rule="evenodd" d="M64.127 23.3274C65.6967 22.0395 68.8634 23.4328 70.2868 24.28C75.4419 27.347 76.775 31.9493 76.219 37.5113" fill="#F08566"/>
<path d="M64.127 23.3274C65.6967 22.0395 68.8634 23.4328 70.2868 24.28C75.4419 27.347 76.775 31.9493 76.219 37.5113" stroke="#303030" stroke-width="1.5" stroke-linecap="round" stroke-linejoin="round"/>
<path fill-rule="evenodd" clip-rule="evenodd" d="M68.1211 26.4219C69.1419 27.0696 70.0008 28.5866 70.5559 29.6239L68.1211 26.4219Z" fill="white"/>
<path d="M68.1211 26.4219C69.1419 27.0696 70.0008 28.5866 70.5559 29.6239" stroke="black" stroke-width="1.5" stroke-linecap="round" stroke-linejoin="round"/>
<path fill-rule="evenodd" clip-rule="evenodd" d="M72.2334 31C72.7348 31.3199 73.9659 33.4456 74.2095 34.0858L72.2334 31Z" fill="white"/>
<path d="M72.2334 31C72.7348 31.3199 73.9659 33.4456 74.2095 34.0858" stroke="black" stroke-width="1.5" stroke-linecap="round" stroke-linejoin="round"/>
<path fill-rule="evenodd" clip-rule="evenodd" d="M66.3398 27.5C66.8737 28.9074 67.6748 30.2923 68.7835 31.3064L66.3398 27.5Z" fill="white"/>
<path d="M66.3398 27.5C66.8737 28.9074 67.6748 30.2923 68.7835 31.3064" stroke="black" stroke-width="1.5" stroke-linecap="round" stroke-linejoin="round"/>
<path d="M73.3486 17.2893C74.9856 17.2606 78.3423 19.9945 79.0461 20.5294C83.6776 24.0042 83.4494 27.5792 83.6743 32.9215" stroke="black" stroke-width="1.5" stroke-linecap="round" stroke-linejoin="round"/>
<path fill-rule="evenodd" clip-rule="evenodd" d="M77.1426 21.0625C77.9056 21.2718 78.025 21.7662 78.4145 22.468L77.1426 21.0625Z" fill="white"/>
<path d="M77.1426 21.0625C77.9056 21.2718 78.025 21.7662 78.4145 22.468" stroke="black" stroke-width="1.5" stroke-linecap="round" stroke-linejoin="round"/>
<path fill-rule="evenodd" clip-rule="evenodd" d="M80.8877 27.875C81.2955 28.2127 81.4023 28.7377 81.5561 29.218L80.8877 27.875Z" fill="white"/>
<path d="M80.8877 27.875C81.2955 28.2127 81.4023 28.7377 81.5561 29.218" stroke="black" stroke-width="1.5" stroke-linecap="round" stroke-linejoin="round"/>
<path fill-rule="evenodd" clip-rule="evenodd" d="M83.6342 11.2628C102.933 -3.56977 104.727 13.0126 92.8225 23.8219C88.8283 25.5929 82.1134 12.0304 83.6342 11.2628Z" fill="#F08566"/>
<path d="M83.6342 11.2628C102.933 -3.56977 104.727 13.0126 92.8225 23.8219C88.8283 25.5929 82.1134 12.0304 83.6342 11.2628Z" stroke="#303030" stroke-width="1.5" stroke-linecap="round" stroke-linejoin="round"/>
<path fill-rule="evenodd" clip-rule="evenodd" d="M84.0029 11.6422C84.8256 11.3397 86.3295 12.5359 86.9584 12.9602C89.7719 14.8484 91.6257 18.24 92.1431 21.5591" fill="#F08566"/>
<path d="M84.0029 11.6422C84.8256 11.3397 86.3295 12.5359 86.9584 12.9602C89.7719 14.8484 91.6257 18.24 92.1431 21.5591" stroke="#303030" stroke-width="1.5" stroke-linecap="round" stroke-linejoin="round"/>
<path fill-rule="evenodd" clip-rule="evenodd" d="M87.6338 16.3438C88.3963 17.2968 89.0953 18.2813 89.7783 19.2861L87.6338 16.3438Z" fill="white"/>
<path d="M87.6338 16.3438C88.3963 17.2968 89.0953 18.2813 89.7783 19.2861" stroke="black" stroke-width="1.5" stroke-linecap="round" stroke-linejoin="round"/>
<path fill-rule="evenodd" clip-rule="evenodd" d="M85.3926 15.0625C85.6649 15.3998 85.9726 16.0743 86.1485 16.3853L85.3926 15.0625Z" fill="white"/>
<path d="M85.3926 15.0625C85.6649 15.3998 85.9726 16.0743 86.1485 16.3853" stroke="black" stroke-width="1.5" stroke-linecap="round" stroke-linejoin="round"/>
<path fill-rule="evenodd" clip-rule="evenodd" d="M164.67 162.077C148.648 142.606 118.615 153.056 117.118 169.426C116.16 179.902 119.355 192.136 119.068 202.323C118.911 207.984 112.163 218.894 112.163 218.894C112.163 218.894 124.685 216.813 127.854 214.775C154.476 222.27 138.506 192.306 141.519 183.259C149.121 160.436 172.734 189.584 162.894 157.375" fill="#444444"/>
<path fill-rule="evenodd" clip-rule="evenodd" d="M178.559 190.98C178.559 190.98 174.284 189.718 166.151 187.55C160.935 186.157 156.685 185.555 152.784 179.547C144.704 167.069 153.168 148.617 161.483 145.796C164.313 144.838 173.526 142.191 179.413 143.584C187.249 145.44 195.461 154.896 189.104 161.653C182.756 168.41 188.886 167.391 184.611 172.189C164.993 194.194 182.094 192.313 182.094 192.313" fill="#444444"/>
<path fill-rule="evenodd" clip-rule="evenodd" d="M150.268 204.715L162.145 203.165L167.439 183.869L188.808 174.43L190.062 200.735L209.663 212.456L189.983 261.306L180.77 261.68L150.268 204.715Z" fill="#F08566"/>
<path d="M150.268 204.715L162.145 203.165L167.439 183.869L188.808 174.43L190.062 200.735L209.663 212.456L189.983 261.306L180.77 261.68L150.268 204.715Z" stroke="#303030" stroke-width="1.5" stroke-linecap="round" stroke-linejoin="round"/>
<path fill-rule="evenodd" clip-rule="evenodd" d="M161.518 169.456C161.518 169.456 164.989 173.722 163.336 178.259C163.208 178.61 158.194 175.1 158.49 179.244C159.054 187.131 165.267 184.525 165.267 184.525C166.325 187.316 167.596 189.702 169.068 190.811C173.945 194.486 190.219 192.884 191.351 182.6C191.639 179.979 186.832 156.599 186.832 156.599L173.457 154.727L161.518 169.456Z" fill="#F08566"/>
<path d="M161.518 169.456C161.518 169.456 164.989 173.722 163.336 178.259C163.208 178.61 158.194 175.1 158.49 179.244C159.054 187.131 165.267 184.525 165.267 184.525C166.325 187.316 167.596 189.702 169.068 190.811C173.945 194.486 190.219 192.884 191.351 182.6C191.639 179.979 186.832 156.599 186.832 156.599L173.457 154.727L161.518 169.456Z" stroke="#303030" stroke-width="1.5" stroke-linecap="round" stroke-linejoin="round"/>
<path fill-rule="evenodd" clip-rule="evenodd" d="M166.165 193.113L167.292 180.367L177.009 194.803L166.165 193.113Z" fill="#F08566"/>
<path d="M181.255 167.438C181.656 170.018 182.917 172.457 184.791 174.275C184.925 174.405 185.073 174.558 185.063 174.744C185.055 174.9 184.938 175.025 184.827 175.135L183.429 176.533" stroke="#111111" stroke-width="1.5" stroke-linecap="round" stroke-linejoin="round"/>
<path d="M176.1 177.711C177.559 179.084 181.433 180.02 182.621 179.894" stroke="#111111" stroke-width="1.5" stroke-linecap="round" stroke-linejoin="round"/>
<path d="M189.22 164.068C187.02 164.111 183.312 163.059 182.184 165.241" stroke="#111111" stroke-width="1.5" stroke-linecap="round" stroke-linejoin="round"/>
<path d="M176.415 168.298C173.192 166.604 169.504 170.364 169.504 170.364" stroke="#111111" stroke-width="1.5" stroke-linecap="round" stroke-linejoin="round"/>
<path d="M175.545 173.377C175.043 173.379 174.588 173.032 174.473 172.52L174.339 171.906C174.208 171.312 174.579 170.725 175.171 170.596C175.748 170.443 176.348 170.831 176.48 171.424L176.615 172.039C176.746 172.632 176.375 173.219 175.783 173.348C175.703 173.369 175.625 173.377 175.545 173.377Z" fill="black"/>
<path d="M172.471 172.51C173.655 171.84 174.839 171.17 176.023 170.5" stroke="#111111" stroke-width="1.5" stroke-linecap="round" stroke-linejoin="round"/>
<path d="M186.701 169.268C186.199 169.269 185.743 168.922 185.629 168.411L185.494 167.796C185.363 167.202 185.734 166.615 186.326 166.487C186.904 166.334 187.503 166.721 187.636 167.315L187.771 167.929C187.901 168.523 187.53 169.11 186.938 169.239C186.858 169.26 186.781 169.268 186.701 169.268Z" fill="black"/>
<path d="M183.626 168.393C184.81 167.723 185.994 167.053 187.178 166.383" stroke="#111111" stroke-width="1.5" stroke-linecap="round" stroke-linejoin="round"/>
<path fill-rule="evenodd" clip-rule="evenodd" d="M230.858 300.143L220.147 269.91C220.147 269.91 231.276 273.898 230.231 264.241C229.177 254.584 218.893 203.775 218.893 203.775L195.331 201.572L185.508 255.211L156.329 201.25C156.329 201.25 125.043 201.677 122.526 217.42C120.001 233.164 122.317 277.468 122.317 277.468C122.317 277.468 124.52 280.673 131.138 281.883C137.747 283.085 148.771 282.292 148.771 282.292L146.167 305.681" fill="white"/>
<path d="M230.858 300.143L220.147 269.91C220.147 269.91 231.276 273.898 230.231 264.241C229.177 254.584 218.893 203.775 218.893 203.775L195.331 201.572L185.508 255.211L156.329 201.25C156.329 201.25 125.043 201.677 122.526 217.42C120.001 233.164 122.317 277.468 122.317 277.468C122.317 277.468 124.52 280.673 131.138 281.883C137.747 283.085 148.771 282.292 148.771 282.292L146.167 305.681" stroke="black" stroke-width="1.5" stroke-linecap="round" stroke-linejoin="round"/>
<path fill-rule="evenodd" clip-rule="evenodd" d="M230.858 300.143L220.147 269.91C220.147 269.91 231.276 273.898 230.231 264.241C229.177 254.584 218.893 203.775 218.893 203.775L195.331 201.572L185.508 255.211L156.329 201.25C156.329 201.25 125.043 201.677 122.526 217.42C120.001 233.164 122.317 277.468 122.317 277.468C122.317 277.468 124.52 280.673 131.138 281.883C137.747 283.085 148.771 282.292 148.771 282.292L146.167 305.681C146.167 305.681 169.546 311.096 190.714 305.452C211.882 299.807 230.858 300.143 230.858 300.143Z" fill="white"/>
<path d="M193.068 267.79L189.112 231.469L205.303 263.879L230.001 243.213L214.287 270.555L243.743 276.712L212.949 282.15L230.847 302.593L207.232 286.31L199.015 306.039C199.015 306.039 198.372 283.971 196.898 284.731C195.423 285.491 170.871 298.335 171.528 297.436C172.184 296.538 189.847 278.659 189.847 278.659L162.304 253.471L193.068 267.79Z" fill="#D3D3D3"/>
<path d="M138.54 216.61L134.583 180.289L150.775 212.699L175.473 192.033L159.759 219.376L189.215 225.533L158.421 230.97L176.318 251.413L152.703 235.131L144.487 254.86C144.487 254.86 143.844 232.791 142.369 233.552C140.895 234.312 116.342 247.155 116.999 246.257C117.656 245.358 135.319 227.479 135.319 227.479L107.775 202.292L138.54 216.61Z" fill="#D3D3D3"/>
<path d="M185.919 213.687C182.152 217.464 178.654 221.509 175.462 225.782C174.306 227.328 173.131 229.191 173.624 231.058C173.898 232.096 175.553 233.551 175.553 233.551C175.553 233.551 181.784 235.089 184.126 233.097C187.233 230.455 187.589 225.645 190.437 222.725C192.305 220.811 194.996 219.963 197.16 218.39C200.932 215.647 204.981 204.811 198.287 202.496C193.845 200.96 188.695 210.904 185.919 213.687Z" fill="#3A3A3A"/>
<path d="M112.923 251.637C112.923 251.637 108.509 258.68 109.324 262.457C109.573 263.609 110.279 264.252 111.104 264.57C113.96 265.67 118.246 263.086 121.758 259.001C125.27 254.915 128.087 249.556 130.296 244.235C132.948 237.846 140.543 218.929 136.946 216.591C136.544 216.331 136.004 216.278 134.622 216.711C127.381 218.978 122.337 226.717 121.487 228.053C114.866 238.458 119.015 241.914 112.923 251.637Z" fill="#3A3A3A"/>
<path d="M190.858 253.342C190.752 253.998 190.32 254.524 189.916 255.043C185.378 260.879 183.084 271.414 174.811 274.267C172.158 275.182 170.12 275.132 168.699 274.257C166.335 272.801 165.117 269.477 166.253 267.727C167.109 266.408 168.679 266.933 170.785 266.012C174.096 264.564 173.134 261.988 176.517 256.623C178.345 253.722 179.849 251.427 183.182 250.524C185.567 249.877 191.401 249.978 190.858 253.342Z" fill="#3A3A3A"/>
<path d="M161.316 211C160.336 212.568 159.979 214.682 160.965 216.246C162.591 218.821 166.68 218.308 169.027 216.369L169.113 216.297C171.408 214.358 172.792 211.527 174.983 209.467C176.709 207.844 178.872 206.76 180.692 205.24C186.685 200.233 181.551 199.686 176.97 200.98C171.711 202.466 164.293 206.239 161.316 211Z" fill="#3A3A3A"/>
<path d="M161.849 266.395C165.12 264.489 167.077 260.757 166.906 257.428C166.859 256.518 166.745 254.322 165.081 253.108C164.958 253.019 163.589 252.051 162.008 252.393C159.924 252.846 159.314 255.18 157.572 258.02C154.135 263.624 150.469 264.392 150.982 266.002C151.6 267.94 157.576 268.885 161.849 266.395Z" fill="#3A3A3A"/>
<path d="M134.611 270.306C142.362 259.41 150.286 243.704 154.225 232.127C155.3 228.965 157.899 221.327 156.721 219.136C156.634 218.975 155.626 217.28 152.614 220.497C148.64 224.741 144.686 233.784 138.246 246.054C125.537 270.264 118.581 277.633 117.379 282.685C115.931 288.77 124.484 284.543 134.611 270.306Z" fill="#3A3A3A"/>
<path d="M199.703 217.793C198.148 220.643 195.881 223.126 194.005 225.815C193.275 226.861 192.594 227.966 192.431 229.219C192.269 230.472 192.707 231.909 193.903 232.877C195.065 233.817 196.767 234.162 198.225 233.975C199.683 233.787 200.922 233.132 201.956 232.342C205.96 229.287 207.139 224.377 207.666 219.653C207.921 217.368 208.266 211.575 204.065 210.73C200.54 210.021 200.673 216.015 199.703 217.793Z" fill="#3A3A3A"/>
<path d="M199.348 261.805C197.794 264.655 192.629 265.694 190.753 268.382C190.023 269.428 189.342 270.534 189.179 271.786C189.017 273.039 189.455 274.477 190.651 275.445C191.813 276.385 193.515 276.73 194.973 276.542C196.431 276.355 197.67 275.7 198.705 274.91C202.709 271.855 203.887 266.945 204.414 262.221C204.669 259.936 205.014 254.143 200.813 253.298C197.288 252.588 200.318 260.027 199.348 261.805Z" fill="#3A3A3A"/>
<path d="M195.628 260.987C194.892 262.465 193.097 263.065 191.619 262.329C190.142 261.593 189.541 259.798 190.277 258.321C191.014 256.843 192.809 256.242 194.286 256.978C195.764 257.715 196.364 259.51 195.628 260.987Z" fill="#3A3A3A"/>
<path d="M145.856 225.909C145.119 227.386 143.324 227.987 141.847 227.251C140.369 226.515 139.769 224.72 140.505 223.243C141.241 221.765 143.036 221.164 144.514 221.9C145.991 222.637 146.592 224.431 145.856 225.909Z" fill="#3A3A3A"/>
<path d="M230.857 300.143L220.147 269.91C220.147 269.91 231.276 273.898 230.23 264.241C229.177 254.584 218.893 203.775 218.893 203.775L195.33 201.572L185.508 255.211L156.329 201.25C156.329 201.25 125.042 201.677 122.526 217.42C120 233.164 122.316 277.468 122.316 277.468C122.316 277.468 124.52 280.673 131.138 281.883C137.746 283.085 148.77 282.292 148.77 282.292L146.167 305.681C146.167 305.681 169.546 311.096 190.714 305.452C211.882 299.807 230.857 300.143 230.857 300.143Z" stroke="black" stroke-width="1.5" stroke-linecap="round" stroke-linejoin="round"/>
<path fill-rule="evenodd" clip-rule="evenodd" d="M144.216 280.603C137.206 279.262 131.929 270.546 136.039 258.756C140.149 246.966 167.822 211.56 167.822 211.56C167.822 211.56 168.101 190.644 174.066 187.205C180.03 183.757 191.289 184.95 191.289 184.95L197.254 194.493C197.254 194.493 196.975 196.653 195.504 195.982C194.033 195.32 192.691 194.249 192.691 194.249L192.561 199.125L192.091 202.199C192.091 202.199 188.816 203.81 188.547 201.538C188.285 199.265 186.744 197.323 186.744 197.323H182.399C182.399 197.323 184.672 205.343 183.731 207.354C182.799 209.357 179.856 212.501 179.856 212.501C179.856 212.501 166.751 258.163 164.078 264.12C161.404 270.067 151.226 281.935 144.216 280.603Z" fill="#F08566"/>
<path d="M144.216 280.603C137.206 279.262 131.929 270.546 136.039 258.756C140.149 246.966 167.822 211.56 167.822 211.56C167.822 211.56 168.101 190.644 174.066 187.205C180.03 183.757 191.289 184.95 191.289 184.95L197.254 194.493C197.254 194.493 196.975 196.653 195.504 195.982C194.033 195.32 192.691 194.249 192.691 194.249L192.561 199.125L192.091 202.199C192.091 202.199 188.816 203.81 188.547 201.538C188.285 199.265 186.744 197.323 186.744 197.323H182.399C182.399 197.323 184.672 205.343 183.731 207.354C182.799 209.357 179.856 212.501 179.856 212.501C179.856 212.501 166.751 258.163 164.078 264.12C161.404 270.067 151.226 281.935 144.216 280.603Z" stroke="#303030" stroke-width="1.5" stroke-linecap="round" stroke-linejoin="round"/>
<path fill-rule="evenodd" clip-rule="evenodd" d="M213.903 267.592C213.903 267.592 153.716 271.938 148.648 272.643C143.58 273.357 130.676 271.92 128.15 276.457C125.634 280.985 127.68 286.288 127.68 286.288L136.283 291.277L142.222 291.46L142.805 287.08C142.805 287.08 156.459 289.353 158.845 287.855C161.222 286.349 162.92 284.094 162.92 284.094C162.92 284.094 202.61 290.337 223.168 288.979C242.874 287.681 237.353 261.523 237.353 261.523L213.903 267.592Z" fill="#F08566"/>
<path d="M213.903 267.592C213.903 267.592 153.716 271.938 148.648 272.643C143.58 273.357 130.676 271.92 128.15 276.457C125.634 280.985 127.68 286.288 127.68 286.288L136.283 291.277L142.222 291.46L142.805 287.08C142.805 287.08 156.459 289.353 158.845 287.855C161.222 286.349 162.92 284.094 162.92 284.094C162.92 284.094 202.61 290.337 223.168 288.979C242.874 287.681 237.353 261.523 237.353 261.523L213.903 267.592Z" stroke="#303030" stroke-width="1.5" stroke-linecap="round" stroke-linejoin="round"/>
<path fill-rule="evenodd" clip-rule="evenodd" d="M205.021 235.874L209.001 270.434C209.001 270.434 219.145 275.616 226.695 272.873C236.021 269.477 241.089 271.123 241.089 271.123C241.089 271.123 230.944 218.459 226.416 210.221C221.888 201.992 216.681 198.292 205.152 202.959" fill="white"/>
<path d="M205.021 235.874L209.001 270.434C209.001 270.434 219.145 275.616 226.695 272.873C236.021 269.477 241.089 271.123 241.089 271.123C241.089 271.123 230.944 218.459 226.416 210.221C221.888 201.992 216.681 198.292 205.152 202.959" stroke="black" stroke-width="1.5" stroke-linecap="round" stroke-linejoin="round"/>
<path d="M178.167 191.844H188.32C188.32 191.844 192.744 196.137 191.62 201.936" stroke="#111111" stroke-width="1.5" stroke-linecap="round" stroke-linejoin="round"/>
<path d="M178.646 188.201L188.189 187.766C188.189 187.766 191.786 189.812 192.822 194.331" stroke="#111111" stroke-width="1.5" stroke-linecap="round" stroke-linejoin="round"/>
<path fill-rule="evenodd" clip-rule="evenodd" d="M133.924 277.016C132.617 277.808 128.533 280.185 128.56 281.352C128.577 282.519 129.03 286.968 129.03 286.968" fill="#F08566"/>
<path d="M133.924 277.016C132.617 277.808 128.533 280.185 128.56 281.352C128.577 282.519 129.03 286.968 129.03 286.968" stroke="#303030" stroke-width="1.5" stroke-linecap="round" stroke-linejoin="round"/>
<path fill-rule="evenodd" clip-rule="evenodd" d="M137.807 278.961C136.501 279.753 132.6 282.217 132.443 283.297C132.278 284.482 132.922 288.914 132.922 288.914" fill="#F08566"/>
<path d="M137.807 278.961C136.501 279.753 132.6 282.217 132.443 283.297C132.278 284.482 132.922 288.914 132.922 288.914" stroke="#303030" stroke-width="1.5" stroke-linecap="round" stroke-linejoin="round"/>
<path fill-rule="evenodd" clip-rule="evenodd" d="M142.91 281.172C141.603 281.956 137.285 284.847 137.285 284.847L137.476 288.234C137.476 288.234 138.939 287.424 140.132 287.198C141.325 286.971 142.248 287.319 142.248 287.319" fill="#F08566"/>
<path d="M142.91 281.172C141.603 281.956 137.285 284.847 137.285 284.847L137.476 288.234C137.476 288.234 138.939 287.424 140.132 287.198C141.325 286.971 142.248 287.319 142.248 287.319" stroke="#303030" stroke-width="1.5" stroke-linecap="round" stroke-linejoin="round"/>
<path d="M229.64 2.46219C224.612 6.36319 224.21 18.672 226.958 23.456C229.277 27.4821 236.216 26.4938 236.216 26.4938C236.216 26.4938 248.861 36.4238 253.632 16.7942C256.274 5.9149 243.227 5.59221 243.227 5.59221C243.227 5.59221 235.67 -2.21637 229.64 2.46219Z" fill="#D2F6A4"/>
<path d="M239.86 5.4375C240.855 8.87045 243.504 10.2939 246.7 9.69411" stroke="#232323" stroke-width="1.5" stroke-linecap="round" stroke-linejoin="round"/>
<path fill-rule="evenodd" clip-rule="evenodd" d="M241.976 8.46054C242.655 3.94051 244.961 1.50197 249.277 0C249.805 1.24514 249.805 1.24514 250.332 2.49075C245.989 3.93392 244.276 4.92881 243.077 9.39616" fill="#444444"/>
<path fill-rule="evenodd" clip-rule="evenodd" d="M212.076 128.613L225.667 138.275C225.667 138.275 229.478 138.665 230.286 136.278C231.094 133.898 232.259 132.258 232.259 132.258L230.548 129.797L227.845 113.922L225.292 120.317L227.476 128.5L226.625 130.448L219.703 122.045L217.913 124.873L224.192 131.511L223.005 133.089L214.075 127.117L212.076 128.613Z" fill="#65EAC9"/>
<path d="M212.076 128.613L225.667 138.275C225.667 138.275 229.478 138.665 230.286 136.278C231.094 133.898 232.259 132.258 232.259 132.258L230.548 129.797L227.845 113.922L225.292 120.317L227.476 128.5L226.625 130.448L219.703 122.045L217.913 124.873L224.192 131.511L223.005 133.089L214.075 127.117L212.076 128.613Z" stroke="black" stroke-width="2" stroke-linecap="round" stroke-linejoin="round"/>
<path fill-rule="evenodd" clip-rule="evenodd" d="M212.792 130.229C212.792 130.229 208.495 133.559 205.427 134.353C200.866 135.532 197.356 126.22 203.37 123.487C198.3 119.825 203.755 115.605 208.285 116.613C207.249 110.413 209.852 104.707 215.843 110.482C216.642 104.719 221.327 104.692 224.319 108.865C231.599 102.833 235.666 112.177 234.861 115.137C234.065 118.044 230.385 119.28 229.809 120.724C226.513 128.979 220.265 125.821 220.265 125.821C220.265 125.821 222.093 128.59 218.631 130.671C215.16 132.749 212.792 130.229 212.792 130.229Z" fill="#65EAC9"/>
<path d="M212.792 130.229C212.792 130.229 208.495 133.559 205.427 134.353C200.866 135.532 197.356 126.22 203.37 123.487C198.3 119.825 203.755 115.605 208.285 116.613C207.249 110.413 209.852 104.707 215.843 110.482C216.642 104.719 221.327 104.692 224.319 108.865C231.599 102.833 235.666 112.177 234.861 115.137C234.065 118.044 230.385 119.28 229.809 120.724C226.513 128.979 220.265 125.821 220.265 125.821C220.265 125.821 222.093 128.59 218.631 130.671C215.16 132.749 212.792 130.229 212.792 130.229Z" stroke="black" stroke-width="2" stroke-linecap="round" stroke-linejoin="round"/>
<path fill-rule="evenodd" clip-rule="evenodd" d="M145.713 227.328C146.436 233.458 145.704 233.937 146.61 239.998L145.713 227.328Z" fill="white"/>
<path d="M145.713 227.328C146.436 233.458 145.704 233.937 146.61 239.998" stroke="black" stroke-width="1.5" stroke-linecap="round" stroke-linejoin="round"/>
<path fill-rule="evenodd" clip-rule="evenodd" d="M90.6411 101.759L121.176 125.29C121.176 125.29 128.813 120.085 131.515 115.353C134.21 110.622 134.401 107.196 134.401 107.196L104.413 78.7891L90.6411 101.759Z" fill="#65EAC9"/>
<path d="M90.6411 101.759L121.176 125.29C121.176 125.29 128.813 120.085 131.515 115.353C134.21 110.622 134.401 107.196 134.401 107.196L104.413 78.7891L90.6411 101.759Z" stroke="black" stroke-width="2" stroke-linecap="round" stroke-linejoin="round"/>
<path fill-rule="evenodd" clip-rule="evenodd" d="M87.4649 98.4738C87.4649 98.4738 81.027 91.733 88.4664 83.5228C95.7213 75.5232 103.879 79.0945 103.879 79.0945L106.133 76.5312L111.826 81.3613C111.826 81.3613 106.001 91.8384 99.2206 98.5397C91.8932 105.781 89.7383 106.519 89.7383 106.519L84.4863 101.834L87.4649 98.4738Z" fill="white"/>
<path d="M87.4649 98.4738C87.4649 98.4738 81.027 91.733 88.4664 83.5228C95.7213 75.5232 103.879 79.0945 103.879 79.0945L106.133 76.5312L111.826 81.3613C111.826 81.3613 106.001 91.8384 99.2206 98.5397C91.8932 105.781 89.7383 106.519 89.7383 106.519L84.4863 101.834L87.4649 98.4738Z" stroke="black" stroke-width="1.5" stroke-linecap="round" stroke-linejoin="round"/>
<path fill-rule="evenodd" clip-rule="evenodd" d="M88.3413 101.765C93.1384 98.339 97.1646 94.247 101.296 88.7579C102.983 86.524 105.316 82.9001 106.917 80.5938" fill="white"/>
<path d="M88.3413 101.765C93.1384 98.339 97.1646 94.247 101.296 88.7579C102.983 86.524 105.316 82.9001 106.917 80.5938" stroke="black" stroke-width="1.5" stroke-linecap="round" stroke-linejoin="round"/>
<path fill-rule="evenodd" clip-rule="evenodd" d="M89.9292 103.852C96.9404 100.096 104.083 91.0289 109.421 82.8516L89.9292 103.852Z" fill="white"/>
<path d="M89.9292 103.852C96.9404 100.096 104.083 91.0289 109.421 82.8516" stroke="black" stroke-width="1.5" stroke-linecap="round" stroke-linejoin="round"/>
<path fill-rule="evenodd" clip-rule="evenodd" d="M93.1585 66.3281L92.2026 83.5794C92.8617 82.9665 93.7578 82.3272 94.6143 81.7275L95.3919 67.1847L93.1585 66.3281ZM96.5717 86.1821C95.8007 86.7682 95.247 87.3812 94.6939 88.0139L98.8056 93.279C99.3917 92.541 99.952 91.8819 100.512 91.19L96.5717 86.1821ZM103.227 94.4188C102.66 95.1305 102.001 95.8093 101.395 96.5737L122.85 124.071L125.143 122.134L103.227 94.4188Z" fill="white"/>
<path d="M93.1585 66.3281L92.2026 83.5794C92.8617 82.9665 93.7578 82.3272 94.6143 81.7275L95.3919 67.1847L93.1585 66.3281ZM96.5717 86.1821C95.8007 86.7682 95.247 87.3812 94.6939 88.0139L98.8056 93.279C99.3917 92.541 99.952 91.8819 100.512 91.19L96.5717 86.1821ZM103.227 94.4188C102.66 95.1305 102.001 95.8093 101.395 96.5737L122.85 124.071L125.143 122.134L103.227 94.4188Z" stroke="black" stroke-width="1.5" stroke-linecap="round" stroke-linejoin="round"/>
<path d="M120.893 101.199C119.163 103.255 115.63 101.479 114.751 99.2018C115.274 93.3472 122.344 96.1522 120.893 101.199Z" stroke="#232323" stroke-width="1.5" stroke-linecap="round" stroke-linejoin="round"/>
<path d="M127.831 113.876C127.436 114.877 126.494 115.833 125.242 115.852C123.292 115.886 122.007 113.79 122.975 112.156C124.688 109.263 128.945 111.075 127.831 113.876Z" stroke="#232323" stroke-width="1.5" stroke-linecap="round" stroke-linejoin="round"/>
<path d="M118.6 113.855C120.939 113.315 120.332 107.813 119.226 106.277C118.507 105.289 117.552 104.406 116.181 105.117" stroke="#232323" stroke-width="1.5" stroke-linecap="round" stroke-linejoin="round"/>
<path d="M114.488 93.7243C114.139 93.8231 113.585 93.856 113.322 93.4938C112.827 92.8216 112.584 91.543 113.882 91.6291C114.995 91.7011 115.727 93.395 114.488 93.7243Z" stroke="#232323" stroke-width="1.5" stroke-linecap="round" stroke-linejoin="round"/>
<path d="M126.164 104.903C125.69 106.241 123.93 105.008 124.135 104.316C124.464 103.223 126.777 103.19 126.164 104.903Z" stroke="#232323" stroke-width="1.5" stroke-linecap="round" stroke-linejoin="round"/>
<path d="M106.37 107.487C104.703 108.369 103.695 106.426 105.039 105.701C105.717 105.338 107.266 106.525 106.957 106.907C106.785 107.124 106.613 107.355 106.37 107.487Z" stroke="#232323" stroke-width="1.5" stroke-linecap="round" stroke-linejoin="round"/>
<path fill-rule="evenodd" clip-rule="evenodd" d="M237.489 51.2312C226.017 55.62 221.477 71.7573 225.351 81.3972C230.168 93.3834 239.439 96.329 251.893 95.6634C256.565 95.4131 261.639 90.7609 264.63 87.7033C268.406 83.855 270.152 73.8986 267.589 65.3849C264.202 54.1307 253.942 44.9316 237.489 51.2312Z" fill="black"/>
<path d="M237.489 51.2312C226.017 55.62 221.477 71.7573 225.351 81.3972C230.168 93.3834 239.439 96.329 251.893 95.6634C256.565 95.4131 261.639 90.7609 264.63 87.7033C268.406 83.855 270.152 73.8986 267.589 65.3849C264.202 54.1307 253.942 44.9316 237.489 51.2312Z" stroke="#151425" stroke-width="0.212" stroke-linecap="round" stroke-linejoin="round"/>
<path fill-rule="evenodd" clip-rule="evenodd" d="M234.162 56.3236C231.947 58.0763 231.249 59.3021 229.806 62.6561C228.402 65.9244 226.267 66.1088 225.378 69.3442C224.713 71.7691 226.294 74.55 226.847 77.6137C227.394 80.6713 226.768 81.0203 227.948 83.4655C229.292 86.2657 231.895 88.4469 233.417 89.804C235.374 91.5567 237.581 92.4401 241.548 93.7709C247.037 95.6162 247.044 92.2289 250.734 92.8155C256.282 93.6984 258.127 91.9458 261.521 87.9525C263.939 85.1062 266.245 82.2067 267.056 79.2879C267.866 76.362 265.903 74.5303 265.988 72.2437C266.127 68.5007 266.608 67.4993 265.237 63.5653C264.13 60.3892 261.922 59.5721 260.269 57.8392C258.588 56.0931 257.936 54.6829 255.498 53.4377C250.714 50.9931 245.937 53.0224 243.808 53.378C239.117 54.1555 236.376 54.5709 234.162 56.3236Z" fill="white"/>
<path d="M234.162 56.3236C231.947 58.0763 231.249 59.3021 229.806 62.6561C228.402 65.9244 226.267 66.1088 225.378 69.3442C224.713 71.7691 226.294 74.55 226.847 77.6137C227.394 80.6713 226.768 81.0203 227.948 83.4655C229.292 86.2657 231.895 88.4469 233.417 89.804C235.374 91.5567 237.581 92.4401 241.548 93.7709C247.037 95.6162 247.044 92.2289 250.734 92.8155C256.282 93.6984 258.127 91.9458 261.521 87.9525C263.939 85.1062 266.245 82.2067 267.056 79.2879C267.866 76.362 265.903 74.5303 265.988 72.2437C266.127 68.5007 266.608 67.4993 265.237 63.5653C264.13 60.3892 261.922 59.5721 260.269 57.8392C258.588 56.0931 257.936 54.6829 255.498 53.4377C250.714 50.9931 245.937 53.0224 243.808 53.378C239.117 54.1555 236.376 54.5709 234.162 56.3236Z" stroke="black" stroke-width="1.5" stroke-linecap="round" stroke-linejoin="round"/>
<path fill-rule="evenodd" clip-rule="evenodd" d="M232.718 64.953C232.718 64.953 232.106 61.4143 235.967 58.8976C239.822 56.3735 242.991 58.1793 242.991 58.1793C242.991 58.1793 246.075 55.3654 249.218 55.6354C253.732 56.0245 255.182 60.3601 255.182 60.3601C255.182 60.3601 258.727 59.965 260.592 62.0474C263.096 64.8411 261.982 68.9923 261.982 68.9923C261.982 68.9923 264.921 71.6346 264.947 74.1517C265.006 78.6063 261.448 79.9573 261.448 79.9573C261.448 79.9573 261.409 84.5366 257.442 87.1327C255.841 88.1807 251.063 87.6007 251.063 87.6007C251.063 87.6007 248.296 91.6203 243.769 91.1193C239.242 90.6188 238.023 85.8612 238.023 85.8612C238.023 85.8612 233.983 87.8971 231.677 84.4049C229.371 80.9126 231.051 77.196 231.051 77.196C231.051 77.196 227.987 72.8802 228.567 70.0531C229.266 66.6333 232.718 64.953 232.718 64.953Z" fill="white"/>
<path d="M232.718 64.953C232.718 64.953 232.106 61.4143 235.967 58.8976C239.822 56.3735 242.991 58.1793 242.991 58.1793C242.991 58.1793 246.075 55.3654 249.218 55.6354C253.732 56.0245 255.182 60.3601 255.182 60.3601C255.182 60.3601 258.727 59.965 260.592 62.0474C263.096 64.8411 261.982 68.9923 261.982 68.9923C261.982 68.9923 264.921 71.6346 264.947 74.1517C265.006 78.6063 261.448 79.9573 261.448 79.9573C261.448 79.9573 261.409 84.5366 257.442 87.1327C255.841 88.1807 251.063 87.6007 251.063 87.6007C251.063 87.6007 248.296 91.6203 243.769 91.1193C239.242 90.6188 238.023 85.8612 238.023 85.8612C238.023 85.8612 233.983 87.8971 231.677 84.4049C229.371 80.9126 231.051 77.196 231.051 77.196C231.051 77.196 227.987 72.8802 228.567 70.0531C229.266 66.6333 232.718 64.953 232.718 64.953Z" stroke="black" stroke-width="1.5" stroke-linecap="round" stroke-linejoin="round"/>
<path fill-rule="evenodd" clip-rule="evenodd" d="M233.516 66.1973C236.362 67.0538 245.89 76.259 245.778 71.3966C245.732 69.2812 243.386 60.6687 243.307 60.1484" fill="white"/>
<path d="M233.516 66.1973C236.362 67.0538 245.89 76.259 245.778 71.3966C245.732 69.2812 243.386 60.6687 243.307 60.1484" stroke="black" stroke-width="1.5" stroke-linecap="round" stroke-linejoin="round"/>
<path fill-rule="evenodd" clip-rule="evenodd" d="M254.135 62.5938C250.59 67.6345 247.156 71.2853 247.361 72.4514C247.558 73.5916 251.281 72.3197 258.991 70.6197" fill="white"/>
<path d="M254.135 62.5938C250.59 67.6345 247.156 71.2853 247.361 72.4514C247.558 73.5916 251.281 72.3197 258.991 70.6197" stroke="black" stroke-width="1.5" stroke-linecap="round" stroke-linejoin="round"/>
<path fill-rule="evenodd" clip-rule="evenodd" d="M233.839 75.5768C236.152 75.3859 242.972 73.5673 244.546 75.0825C246.194 76.6644 243.473 79.3922 238.827 84.2354" fill="white"/>
<path d="M233.839 75.5768C236.152 75.3859 242.972 73.5673 244.546 75.0825C246.194 76.6644 243.473 79.3922 238.827 84.2354" stroke="black" stroke-width="1.5" stroke-linecap="round" stroke-linejoin="round"/>
<path fill-rule="evenodd" clip-rule="evenodd" d="M250.49 86.8138C249.436 80.7583 246.345 76.5671 247.914 75.401C249.172 74.472 254.121 75.5656 260.15 78.452" fill="white"/>
<path d="M250.49 86.8138C249.436 80.7583 246.345 76.5671 247.914 75.401C249.172 74.472 254.121 75.5656 260.15 78.452" stroke="black" stroke-width="1.5" stroke-linecap="round" stroke-linejoin="round"/>
<path fill-rule="evenodd" clip-rule="evenodd" d="M159.167 71.9459C154.208 69.4476 153.703 78.9209 154.808 82.1695C159.04 94.6227 181.401 102.034 186.008 89.8237C186.739 87.881 187.354 85.4796 187.665 82.9898C189.234 70.3169 174.733 78.0897 165.39 75.8948C162.963 75.3261 163.126 75.3445 160.797 74.4498L159.167 71.9459Z" fill="#65EAC9"/>
<path d="M159.167 71.9459C154.208 69.4476 153.703 78.9209 154.808 82.1695C159.04 94.6227 181.401 102.034 186.008 89.8237C186.739 87.881 187.354 85.4796 187.665 82.9898C189.234 70.3169 174.733 78.0897 165.39 75.8948C162.963 75.3261 163.126 75.3445 160.797 74.4498L159.167 71.9459Z" stroke="black" stroke-width="2" stroke-linecap="round" stroke-linejoin="round"/>
<path fill-rule="evenodd" clip-rule="evenodd" d="M159.876 71.718C155.313 69.1397 154.184 76.6261 155.289 79.8742C159.516 92.3312 181.877 99.7423 186.486 87.5233C187.215 85.5895 186.193 87.3892 186.504 84.8989C188.072 72.226 175.213 75.7944 165.871 73.6C163.444 73.0313 163.607 73.0497 161.279 72.155L159.876 71.718Z" fill="white"/>
<path d="M159.876 71.718C155.313 69.1397 154.184 76.6261 155.289 79.8742C159.516 92.3312 181.877 99.7423 186.486 87.5233C187.215 85.5895 186.193 87.3892 186.504 84.8989C188.072 72.226 175.213 75.7944 165.871 73.6C163.444 73.0313 163.607 73.0497 161.279 72.155L159.876 71.718Z" stroke="black" stroke-width="1.5" stroke-linecap="round" stroke-linejoin="round"/>
<path fill-rule="evenodd" clip-rule="evenodd" d="M155.931 75.4281C154.745 88.3353 186.351 101.406 187.615 82.9822C188.557 69.2941 177.903 74.8227 169.894 73.3889C164.059 72.3381 156.598 68.1826 155.931 75.4281Z" fill="white"/>
<path d="M155.931 75.4281C154.745 88.3353 186.351 101.406 187.615 82.9822C188.557 69.2941 177.903 74.8227 169.894 73.3889C164.059 72.3381 156.598 68.1826 155.931 75.4281Z" stroke="black" stroke-width="1.5" stroke-linecap="round" stroke-linejoin="round"/>
<path fill-rule="evenodd" clip-rule="evenodd" d="M164.326 80.0443C166.254 84.9415 179.036 91.4203 181.038 82.2448C181.182 81.5792 181.484 79.8429 179.533 78.4976C177.656 77.2002 173.858 77.4209 171.114 77.1979C167.347 76.8874 163.246 77.2934 164.326 80.0443Z" fill="black"/>
<path d="M164.326 80.0443C166.254 84.9415 179.036 91.4203 181.038 82.2448C181.182 81.5792 181.484 79.8429 179.533 78.4976C177.656 77.2002 173.858 77.4209 171.114 77.1979C167.347 76.8874 163.246 77.2934 164.326 80.0443Z" stroke="#151425" stroke-width="0.212" stroke-linecap="round" stroke-linejoin="round"/>
<path fill-rule="evenodd" clip-rule="evenodd" d="M306.909 49.2755C306.909 49.2755 306.797 37.342 305.98 36.0042C303.384 31.7344 298.158 34.5154 298.158 34.5154C298.158 34.5154 299.067 39.7208 298.817 41.3089C298.007 39.3454 291.833 30.5156 291.833 30.5156C291.833 30.5156 287.754 30.7132 286.824 34.0342C286.304 35.8791 285.118 35.6815 288.215 42.2181C289.961 45.9084 292.742 50.7977 292.742 50.7977C292.742 50.7977 289.987 49.4599 286.91 50.0794C285.138 50.4284 283.886 55.3709 283.886 55.3709C283.886 55.3709 295.305 58.8894 299.535 75.3891C302.514 86.9998 300.959 96.897 304.471 98.7155C310.816 92.3172 312.372 80.7727 313.656 72.3385C314.236 68.5758 314.506 46.0599 314.407 44.4586C314.078 39.1869 308.444 41.6447 308.444 41.6447L306.909 49.2755Z" fill="#65EAC9"/>
<path d="M306.909 49.2755C306.909 49.2755 306.797 37.342 305.98 36.0042C303.384 31.7344 298.158 34.5154 298.158 34.5154C298.158 34.5154 299.067 39.7208 298.817 41.3089C298.007 39.3454 291.833 30.5156 291.833 30.5156C291.833 30.5156 287.754 30.7132 286.824 34.0342C286.304 35.8791 285.118 35.6815 288.215 42.2181C289.961 45.9084 292.742 50.7977 292.742 50.7977C292.742 50.7977 289.987 49.4599 286.91 50.0794C285.138 50.4284 283.886 55.3709 283.886 55.3709C283.886 55.3709 295.305 58.8894 299.535 75.3891C302.514 86.9998 300.959 96.897 304.471 98.7155C310.816 92.3172 312.372 80.7727 313.656 72.3385C314.236 68.5758 314.506 46.0599 314.407 44.4586C314.078 39.1869 308.444 41.6447 308.444 41.6447L306.909 49.2755Z" stroke="black" stroke-width="2" stroke-linecap="round" stroke-linejoin="round"/>
<path fill-rule="evenodd" clip-rule="evenodd" d="M302.184 88.7127C295.2 85.4708 293.631 93.5823 289.836 100.449C286.047 107.315 280.34 112.797 271.899 115.512C263.465 118.227 262.12 121.561 262.984 122.173C268.611 126.153 278.68 122.681 283.72 121.68C292.241 119.986 303.818 110.938 307.462 103.42C310.922 96.2838 312.015 93.2662 302.184 88.7127Z" fill="#F08566"/>
<path d="M302.184 88.7127C295.2 85.4708 293.631 93.5823 289.836 100.449C286.047 107.315 280.34 112.797 271.899 115.512C263.465 118.227 262.12 121.561 262.984 122.173C268.611 126.153 278.68 122.681 283.72 121.68C292.241 119.986 303.818 110.938 307.462 103.42C310.922 96.2838 312.015 93.2662 302.184 88.7127Z" stroke="#303030" stroke-width="1.5" stroke-linecap="round" stroke-linejoin="round"/>
<path d="M292.676 50.7109C292.616 50.9151 300.378 58.8817 304.398 79.4079" stroke="#232323" stroke-width="1.5" stroke-linecap="round" stroke-linejoin="round"/>
<path d="M298.804 40.9531C300.853 46.3895 299.872 44.4519 303.503 55.463C305.611 61.8811 303.937 65.472 304.715 69.9201" stroke="#232323" stroke-width="1.5" stroke-linecap="round" stroke-linejoin="round"/>
<path d="M307.18 50.6562C307.884 58.0363 310.026 65.9437 307.93 72.8491C306.85 76.3944 308.984 78.5296 306.725 85.0991" stroke="#232323" stroke-width="1.5" stroke-linecap="round" stroke-linejoin="round"/>
<path fill-rule="evenodd" clip-rule="evenodd" d="M277.099 113.57C277.421 114.532 278.173 115.119 278.766 115.956C279.221 116.595 279.622 117.399 280.169 117.939" fill="#F08566"/>
<path d="M277.099 113.57C277.421 114.532 278.173 115.119 278.766 115.956C279.221 116.595 279.622 117.399 280.169 117.939" stroke="#303030" stroke-width="1.5" stroke-linecap="round" stroke-linejoin="round"/>
<path fill-rule="evenodd" clip-rule="evenodd" d="M296.017 115.242C295.226 114.452 294.33 113.635 293.638 112.719L296.017 115.242Z" fill="#F08566"/>
<path d="M296.017 115.242C295.226 114.452 294.33 113.635 293.638 112.719" stroke="#303030" stroke-width="1.5" stroke-linecap="round" stroke-linejoin="round"/>
<path fill-rule="evenodd" clip-rule="evenodd" d="M291.404 98.635C290.712 97.9496 292.617 99.4981 292.887 99.6694C293.902 100.302 294.897 100.796 295.839 101.527" fill="#F08566"/>
<path d="M291.404 98.635C290.712 97.9496 292.617 99.4981 292.887 99.6694C293.902 100.302 294.897 100.796 295.839 101.527" stroke="#303030" stroke-width="1.5" stroke-linecap="round" stroke-linejoin="round"/>
<path fill-rule="evenodd" clip-rule="evenodd" d="M308.609 100.338C307.752 99.4944 307.133 98.539 306.151 97.7812L308.609 100.338Z" fill="#F08566"/>
<path d="M308.609 100.338C307.752 99.4944 307.133 98.539 306.151 97.7812" stroke="#303030" stroke-width="1.5" stroke-linecap="round" stroke-linejoin="round"/>
<path fill-rule="evenodd" clip-rule="evenodd" d="M67.7383 149.419L69.0356 137.76L72.5815 137.779L72.215 139.913L74.5378 139.816L76.4147 137.055L78.9831 138.577L76.856 142.643L78.3278 143.571L80.5843 140.245L82.7063 141.69L80.2207 148.157L84.0158 142.682L86.0155 143.883L87.2418 142.492L89.5167 143.875L91.0031 142.117L93.3683 143.809L91.8263 145.887L93.9779 147.258L95.6977 145.61L98.068 147.497L96.6385 149.136L98.8437 150.354L90.8813 159.677L67.7383 149.419Z" fill="white"/>
<path d="M67.7383 149.419L69.0356 137.76L72.5815 137.779L72.215 139.913L74.5378 139.816L76.4147 137.055L78.9831 138.577L76.856 142.643L78.3278 143.571L80.5843 140.245L82.7063 141.69L80.2207 148.157L84.0158 142.682L86.0155 143.883L87.2418 142.492L89.5167 143.875L91.0031 142.117L93.3683 143.809L91.8263 145.887L93.9779 147.258L95.6977 145.61L98.068 147.497L96.6385 149.136L98.8437 150.354L90.8813 159.677L67.7383 149.419Z" stroke="black" stroke-width="1.5" stroke-linecap="round" stroke-linejoin="round"/>
<path fill-rule="evenodd" clip-rule="evenodd" d="M67.3877 146.125C65.6049 153.71 63.5761 158.466 63.8221 161.294C63.9299 162.53 82.3797 171.406 84.3634 171.373C85.9411 171.349 91.631 160.575 93.4848 157.814C95.3349 155.06 80.2756 151.707 67.3877 146.125Z" fill="#D2F6A4"/>
<line x1="92.0143" y1="146.77" x2="90.2068" y2="149.125" stroke="black" stroke-width="1.5" stroke-linecap="round" stroke-linejoin="round"/>
<path fill-rule="evenodd" clip-rule="evenodd" d="M86.0142 143.938C85.5255 144.466 85.2568 145.305 84.8279 145.9C84.1509 146.853 83.4303 147.766 82.7402 148.704C82.4312 149.125 82.2171 149.619 81.8667 150.008" fill="white"/>
<path d="M86.0142 143.938C85.5255 144.466 85.2568 145.305 84.8279 145.9C84.1509 146.853 83.4303 147.766 82.7402 148.704C82.4312 149.125 82.2171 149.619 81.8667 150.008" stroke="black" stroke-width="1.5" stroke-linecap="round" stroke-linejoin="round"/>
<path d="M74.8797 139.312L71.9717 145.077" stroke="black" stroke-width="1.5" stroke-linecap="round" stroke-linejoin="round"/>
<path fill-rule="evenodd" clip-rule="evenodd" d="M94.0811 147.266C94.0811 147.266 92.2649 150.333 91.9492 150.804L93.6111 151.571L92.1496 154.968" fill="white"/>
<path d="M94.0811 147.266C94.0811 147.266 92.2649 150.333 91.9492 150.804L93.6111 151.571L92.1496 154.968" stroke="black" stroke-width="1.5" stroke-linecap="round" stroke-linejoin="round"/>
<path fill-rule="evenodd" clip-rule="evenodd" d="M83.6372 151.896L85.9356 145.547L89.1347 146.242L86.9568 153.041" fill="white"/>
<path d="M83.6372 151.896L85.9356 145.547L89.1347 146.242L86.9568 153.041" stroke="black" stroke-width="1.5" stroke-linecap="round" stroke-linejoin="round"/>
<path fill-rule="evenodd" clip-rule="evenodd" d="M73.9805 147.819L78.3904 144.664L79.731 146.306L76.6246 149.572" fill="white"/>
<path d="M73.9805 147.819L78.3904 144.664L79.731 146.306L76.6246 149.572" stroke="black" stroke-width="1.5" stroke-linecap="round" stroke-linejoin="round"/>
<path d="M71.6284 141.914L71.9398 145.029" stroke="black" stroke-width="1.5" stroke-linecap="round" stroke-linejoin="round"/>
<path d="M69.0195 141.826L71.6711 141.758" stroke="black" stroke-width="1.5" stroke-linecap="round" stroke-linejoin="round"/>
<line x1="69.1019" y1="146.233" x2="68.3753" y2="142.778" stroke="black" stroke-width="1.5" stroke-linecap="round" stroke-linejoin="round"/>
<path fill-rule="evenodd" clip-rule="evenodd" d="M83.8459 159.187C83.4292 157.788 81.4187 157.088 80.0955 156.45C76.8709 154.893 69.1169 151.098 68.3393 157.134C68.1164 158.84 70.195 159.758 71.3433 160.445C73.6167 161.804 78.2995 163.865 81.0226 163.679C83.8111 163.486 84.6527 161.839 83.8459 159.187Z" fill="#444444"/>
<path d="M241.075 268.165L237.118 231.844L253.31 264.254L278.008 243.588L262.294 270.93L291.75 277.087L260.956 282.525L278.853 302.968L255.238 286.685L247.022 306.414C247.022 306.414 246.379 284.346 244.904 285.106C243.43 285.866 218.877 298.71 219.535 297.811C220.191 296.913 237.854 279.034 237.854 279.034L210.311 253.847L241.075 268.165Z" fill="#E7E7E7"/>
<path d="M186.547 216.985L182.59 180.664L198.782 213.074L223.48 192.408L207.766 219.751L237.222 225.908L206.428 231.345L224.325 251.788L200.71 235.506L192.494 255.235C192.494 255.235 191.851 233.166 190.376 233.927C188.901 234.687 164.349 247.53 165.006 246.631C165.663 245.733 183.326 227.854 183.326 227.854L155.782 202.667L186.547 216.985Z" fill="#D3D3D3"/>
<path d="M233.926 214.062C230.159 217.839 226.661 221.884 223.468 226.157C222.313 227.703 221.138 229.566 221.631 231.433C221.905 232.471 223.56 233.926 223.56 233.926C223.56 233.926 229.791 235.464 232.133 233.472C235.24 230.83 235.596 226.02 238.444 223.1C240.312 221.186 243.003 220.338 245.166 218.765C248.939 216.022 252.988 205.187 246.293 202.871C241.852 201.335 236.702 211.279 233.926 214.062Z" fill="#3A3A3A"/>
<path d="M160.93 252.012C160.93 252.012 156.515 259.055 157.331 262.832C157.579 263.984 158.285 264.627 159.111 264.945C161.967 266.045 166.253 263.461 169.765 259.376C173.276 255.29 176.094 249.931 178.303 244.61C180.955 238.221 188.55 219.304 184.953 216.966C184.551 216.706 184.011 216.653 182.629 217.086C175.388 219.353 170.344 227.092 169.494 228.428C162.873 238.833 167.022 242.289 160.93 252.012Z" fill="#3A3A3A"/>
<path d="M238.865 253.717C238.759 254.373 238.327 254.899 237.923 255.418C233.385 261.254 231.091 271.789 222.818 274.642C220.165 275.557 218.126 275.507 216.705 274.632C214.342 273.176 213.124 269.852 214.26 268.102C215.115 266.783 216.686 267.309 218.792 266.387C222.103 264.939 221.141 262.363 224.523 256.998C226.352 254.097 227.856 251.802 231.189 250.899C233.574 250.252 239.408 250.353 238.865 253.717Z" fill="#3A3A3A"/>
<path d="M209.324 211.375C208.344 212.943 207.986 215.058 208.973 216.621C210.598 219.196 214.687 218.683 217.034 216.744L217.12 216.672C219.416 214.734 220.799 211.902 222.99 209.842C224.716 208.219 226.88 207.135 228.699 205.615C234.692 200.608 229.559 200.061 224.977 201.356C219.718 202.841 212.3 206.615 209.324 211.375Z" fill="#3A3A3A"/>
<path d="M209.857 266.77C213.127 264.864 215.085 261.132 214.913 257.803C214.866 256.893 214.753 254.697 213.088 253.484C212.965 253.394 211.596 252.426 210.016 252.769C207.931 253.221 207.321 255.555 205.579 258.395C202.142 263.999 198.476 264.767 198.989 266.377C199.607 268.315 205.583 269.26 209.857 266.77Z" fill="#3A3A3A"/>
<path d="M182.618 270.681C190.369 259.785 198.293 244.079 202.231 232.502C203.307 229.34 205.906 221.702 204.728 219.511C204.641 219.35 203.633 217.655 200.621 220.872C196.647 225.116 192.693 234.159 186.253 246.429C173.544 270.639 166.588 278.008 165.386 283.06C163.937 289.145 172.491 284.918 182.618 270.681Z" fill="#3A3A3A"/>
<path d="M247.71 218.168C246.155 221.019 243.888 223.501 242.012 226.19C241.282 227.236 240.601 228.341 240.438 229.594C240.275 230.846 240.714 232.284 241.91 233.252C243.072 234.192 244.773 234.537 246.232 234.35C247.689 234.162 248.929 233.507 249.963 232.717C253.967 229.662 255.146 224.753 255.673 220.028C255.928 217.743 256.273 211.95 252.072 211.105C248.547 210.396 248.68 216.39 247.71 218.168Z" fill="#3A3A3A"/>
<path d="M247.356 262.18C245.801 265.03 240.636 266.069 238.76 268.757C238.031 269.803 237.349 270.909 237.186 272.161C237.024 273.414 237.462 274.852 238.659 275.82C239.82 276.76 241.522 277.105 242.98 276.917C244.438 276.73 245.677 276.075 246.712 275.285C250.716 272.23 251.895 267.32 252.421 262.596C252.676 260.311 253.022 254.518 248.821 253.673C245.295 252.963 248.326 260.402 247.356 262.18Z" fill="#3A3A3A"/>
<path d="M243.635 261.362C242.899 262.84 241.104 263.44 239.627 262.704C238.149 261.968 237.548 260.173 238.285 258.696C239.021 257.218 240.816 256.617 242.293 257.353C243.771 258.09 244.372 259.885 243.635 261.362Z" fill="#3A3A3A"/>
<path d="M193.862 226.284C193.126 227.761 191.331 228.362 189.854 227.626C188.376 226.89 187.775 225.095 188.512 223.618C189.248 222.14 191.043 221.539 192.52 222.275C193.998 223.012 194.599 224.806 193.862 226.284Z" fill="#3A3A3A"/>
<path d="M138.765 42.9092C138.707 43.3236 138.382 45.9692 140.237 47.9824C141.126 48.9472 142.153 49.3739 142.747 49.5644C146.869 50.9422 151.896 52.2231 157.693 52.892C169.19 54.218 182.023 51.5829 185.023 49.2916C186.856 47.8917 186.423 46.4005 186.987 44.1638C183.357 42.6138 149.722 28.5687 140.347 40.1273C139.712 40.9096 139.174 41.8273 138.765 42.9092Z" fill="white"/>
<path d="M138.765 42.9092C138.707 43.3236 138.382 45.9692 140.237 47.9824C141.126 48.9472 142.153 49.3739 142.747 49.5644C146.869 50.9422 151.896 52.2231 157.693 52.892C169.19 54.218 182.023 51.5829 185.023 49.2916C186.856 47.8917 186.423 46.4005 186.987 44.1638C183.357 42.6138 149.722 28.5687 140.347 40.1273C139.712 40.9096 139.174 41.8273 138.765 42.9092Z" stroke="black" stroke-width="1.5" stroke-linecap="round" stroke-linejoin="round"/>
<path fill-rule="evenodd" clip-rule="evenodd" d="M154.078 46.5488C158.188 47.4576 162.378 48.0667 166.587 48.0823C168.457 48.0888 170.554 47.8729 171.759 46.4429C172.627 45.4137 172.818 43.9931 172.974 42.6562C168.397 42.7277 163.819 42.7997 159.242 42.8712C156.509 42.9131 153.444 42.6868 150.772 43.2885C150.485 45.3827 152.289 46.1527 154.078 46.5488Z" fill="white"/>
<path d="M154.078 46.5488C158.188 47.4576 162.378 48.0667 166.587 48.0823C168.457 48.0888 170.554 47.8729 171.759 46.4429C172.627 45.4137 172.818 43.9931 172.974 42.6562C168.397 42.7277 163.819 42.7997 159.242 42.8712C156.509 42.9131 153.444 42.6868 150.772 43.2885C150.485 45.3827 152.289 46.1527 154.078 46.5488Z" stroke="black" stroke-width="1.5" stroke-linecap="round" stroke-linejoin="round"/>
<path fill-rule="evenodd" clip-rule="evenodd" d="M170.126 45.0097C174.235 45.9185 178.426 46.5277 182.634 46.5432C184.504 46.5498 186.601 46.3339 187.807 44.9039C188.674 43.8746 188.865 42.454 189.022 41.1172C184.444 41.1887 179.867 41.2607 175.29 41.3322C172.557 41.374 169.492 41.1478 166.819 41.7494C166.532 43.8436 168.336 44.6136 170.126 45.0097Z" fill="white"/>
<path d="M170.126 45.0097C174.235 45.9185 178.426 46.5277 182.634 46.5432C184.504 46.5498 186.601 46.3339 187.807 44.9039C188.674 43.8746 188.865 42.454 189.022 41.1172C184.444 41.1887 179.867 41.2607 175.29 41.3322C172.557 41.374 169.492 41.1478 166.819 41.7494C166.532 43.8436 168.336 44.6136 170.126 45.0097Z" stroke="black" stroke-width="1.5" stroke-linecap="round" stroke-linejoin="round"/>
<path fill-rule="evenodd" clip-rule="evenodd" d="M140.101 31.5391C139.947 32.6525 139.879 34.1963 140.264 35.9575C140.419 36.6636 140.622 37.2925 140.837 37.8395C146.86 40.2132 152.217 41.3106 156.22 41.8492C159.062 42.2312 166.282 43.0116 175.449 41.6037C179.728 40.9465 183.285 39.9883 185.923 39.1487C186.059 37.2125 186.195 35.2759 186.332 33.3393C182.113 34.1921 177.371 34.8629 172.176 35.1395C159.21 35.83 148.202 33.8115 140.101 31.5391Z" fill="white"/>
<path d="M140.101 31.5391C139.947 32.6525 139.879 34.1963 140.264 35.9575C140.419 36.6636 140.622 37.2925 140.837 37.8395C146.86 40.2132 152.217 41.3106 156.22 41.8492C159.062 42.2312 166.282 43.0116 175.449 41.6037C179.728 40.9465 183.285 39.9883 185.923 39.1487C186.059 37.2125 186.195 35.2759 186.332 33.3393C182.113 34.1921 177.371 34.8629 172.176 35.1395C159.21 35.83 148.202 33.8115 140.101 31.5391Z" stroke="black" stroke-width="1.5" stroke-linecap="round" stroke-linejoin="round"/>
<path fill-rule="evenodd" clip-rule="evenodd" d="M139.446 26.3006C139.268 26.3938 136.991 26.1369 136.909 28.7279C136.84 30.911 137.897 32.5094 138.328 33.0922C141.409 34.3853 145.827 35.9644 151.311 37.0195C157.18 38.149 161.66 38.0634 170.621 37.8926C179.5 37.7233 182.886 36.9937 186.222 35.2739C188.371 34.1661 189.768 32.1086 189.768 29.2735C189.768 15.5271 169.472 25.3241 168.494 24.4186C153.292 25.5461 154.647 25.1731 139.446 26.3006Z" fill="#444444"/>
<path fill-rule="evenodd" clip-rule="evenodd" d="M140.946 24.5821C142.969 25.927 145.418 27.8904 147.711 30.6921C148.665 31.8573 149.455 33.0013 150.111 34.0743C152.74 32.641 156.063 31.1479 160.039 30.0369C167.969 27.8222 174.89 28.1341 179.349 28.7282C183.059 29.383 186.769 30.0369 190.478 30.6921C188.986 27.2008 187.496 23.7096 186.005 20.2188C170.985 21.6727 155.966 23.1281 140.946 24.5821Z" fill="white"/>
<path d="M140.946 24.5821C142.969 25.927 145.418 27.8904 147.711 30.6921C148.665 31.8573 149.455 33.0013 150.111 34.0743C152.74 32.641 156.063 31.1479 160.039 30.0369C167.969 27.8222 174.89 28.1341 179.349 28.7282C183.059 29.383 186.769 30.0369 190.478 30.6921C188.986 27.2008 187.496 23.7096 186.005 20.2188C170.985 21.6727 155.966 23.1281 140.946 24.5821Z" stroke="black" stroke-width="1.5" stroke-linecap="round" stroke-linejoin="round"/>
<path fill-rule="evenodd" clip-rule="evenodd" d="M138.382 22.7832C138.033 16.6821 141.584 12.3249 142.147 11.655C145.481 7.6877 149.731 6.56439 151.147 6.2544C154.357 5.34936 158.854 4.47019 164.239 4.61789C172.342 4.84039 178.616 7.28174 182.241 9.03632C183.461 9.89856 187.048 12.6725 188.459 17.71C189.27 20.6034 189.045 23.1054 188.787 24.5834C181.562 26.0317 172.905 27.2308 163.094 27.529C154.032 27.8047 145.927 27.2529 139.037 26.3836C138.778 25.5472 138.47 24.3063 138.382 22.7832Z" fill="white"/>
<path d="M138.382 22.7832C138.033 16.6821 141.584 12.3249 142.147 11.655C145.481 7.6877 149.731 6.56439 151.147 6.2544C154.357 5.34936 158.854 4.47019 164.239 4.61789C172.342 4.84039 178.616 7.28174 182.241 9.03632C183.461 9.89856 187.048 12.6725 188.459 17.71C189.27 20.6034 189.045 23.1054 188.787 24.5834C181.562 26.0317 172.905 27.2308 163.094 27.529C154.032 27.8047 145.927 27.2529 139.037 26.3836C138.778 25.5472 138.47 24.3063 138.382 22.7832Z" stroke="black" stroke-width="1.5" stroke-linecap="round" stroke-linejoin="round"/>
<path fill-rule="evenodd" clip-rule="evenodd" d="M135.346 34.3753C135.365 35.2037 135.385 36.0316 135.404 36.86C135.971 36.9319 136.538 37.0044 137.105 37.0768C135.974 37.9711 134.93 38.9749 133.993 40.07C134.597 40.6241 135.278 41.0931 136.012 41.4591C136.444 41.0169 136.936 40.6316 137.468 40.3169C137.556 40.8358 137.644 41.3541 137.733 41.8725C139.352 42.5922 141.067 40.8649 142.838 40.9077L143.148 42.9798L144.505 43.0137C144.374 45.2349 144.427 47.4669 144.665 49.6792C145.279 50.0833 146.059 49.3165 146.143 48.5855C146.227 47.855 145.973 47.093 146.191 46.3902C146.558 45.2067 147.998 44.8045 149.218 44.5867C149.137 45.2862 149.056 45.9857 148.975 46.6851C150.195 46.433 151.415 46.1804 152.635 45.9283C152.451 47.1419 152.586 48.4026 153.022 49.5499C153.863 49.1881 154.645 48.689 155.328 48.078C155.521 47.9044 155.717 47.705 155.765 47.45C155.826 47.1292 155.639 46.8164 155.439 46.5581C154.751 45.6677 153.799 44.9837 152.735 44.6145C153.472 44.5298 154.209 44.4451 154.946 44.36C154.986 45.2678 155.109 46.3234 155.884 46.7976C156.472 47.1565 157.221 47.0375 157.897 46.9039C160.615 46.3672 163.327 45.7928 166.03 45.1813C167.111 46.4311 168.192 47.6805 169.274 48.9304C169.472 49.1599 169.677 49.3946 169.945 49.539C170.889 50.0485 172.07 49.229 173.107 49.5047C172.366 47.8574 171.747 46.1545 171.257 44.4159C173.31 43.8237 175.364 43.232 177.417 42.6402C177.594 44.2019 179.271 45.2392 180.842 45.2631C182.414 45.2871 183.889 44.5646 185.293 43.859C185.312 43.0179 185.331 42.1769 185.35 41.3363C187.622 42.0183 190.31 41.2502 191.727 39.3484C192.819 37.8812 193.086 35.8388 192.407 34.1406C192.063 35.5532 190.716 36.5335 189.314 36.9211C187.912 37.3083 186.432 37.2241 184.977 37.242C184.761 37.2443 184.514 37.2636 184.382 37.4348C184.224 37.638 184.317 37.9315 184.278 38.1856C184.178 38.8239 183.352 38.9965 182.706 39.0191C180.208 39.1066 177.709 39.1936 175.21 39.2811C175.203 39.0666 175.196 38.8521 175.188 38.6381C174.122 39.2435 172.912 39.5953 171.688 39.656C171.065 39.6866 170.423 39.6466 169.839 39.8658C169.255 40.085 168.743 40.6683 168.862 41.2803C165.337 40.7083 161.779 40.3442 158.211 40.1899C158.186 39.7482 158.161 39.3065 158.136 38.8643C155.936 39.2341 153.703 39.41 151.472 39.3888C151.294 39.3874 151.109 39.3827 150.951 39.3032C150.726 39.1903 150.599 38.9518 150.446 38.7519C149.454 37.4546 147.48 37.782 145.849 37.7123C144.734 37.6648 143.423 37.3845 142.482 36.7523C141.786 36.2842 141.833 35.4925 141.121 35.0645C140.459 34.6661 135.349 34.5212 135.346 34.3753Z" fill="#D2F6A4"/>
<path d="M157.773 11.6742C157.612 11.7998 157.406 11.8666 157.202 11.8586C157.148 11.8567 157.092 11.8487 157.046 11.8205C157.008 11.7965 156.979 11.7598 156.959 11.7194C156.859 11.5237 156.993 11.2504 157.209 11.2085C157.424 11.1671 157.65 11.3708 157.631 11.5895" stroke="#232323" stroke-width="1.5" stroke-linecap="round" stroke-linejoin="round"/>
<path d="M152.375 15.6222C152.569 16.4355 151.808 16.3198 151.294 16.3005C151.158 16.2954 151.017 16.2756 150.901 16.2036C150.805 16.1439 150.732 16.0508 150.681 15.9496C150.43 15.4567 150.767 14.7675 151.31 14.6622C151.854 14.5573 152.423 15.0709 152.375 15.6222Z" stroke="#232323" stroke-width="1.5" stroke-linecap="round" stroke-linejoin="round"/>
<path d="M166.596 16.0954C166.45 16.1622 166.26 16.1161 166.161 15.9896C166.062 15.8631 166.062 15.6679 166.162 15.5418C166.235 15.4501 166.35 15.3988 166.465 15.3762C166.689 15.3329 166.979 15.4472 166.986 15.6754C166.991 15.8781 166.769 16.0136 166.567 16.0381" stroke="#232323" stroke-width="1.5" stroke-linecap="round" stroke-linejoin="round"/>
<path d="M173.788 20.0889C173.605 20.1727 173.369 20.1148 173.245 19.9568C173.121 19.7987 173.122 19.555 173.246 19.3979C173.338 19.2831 173.48 19.2192 173.624 19.1909C173.904 19.1368 174.266 19.2803 174.274 19.5649C174.281 19.818 174.003 19.9869 173.752 20.0174" stroke="#232323" stroke-width="1.5" stroke-linecap="round" stroke-linejoin="round"/>
<path d="M171.682 8.02404C171.458 8.28982 171.207 8.07673 171.153 7.97465C171.099 7.87304 171.091 7.75356 171.085 7.63879C171.077 7.50425 171.096 7.32974 171.226 7.29446C171.287 7.27799 171.352 7.30151 171.407 7.33397C171.637 7.46897 171.756 7.76815 171.682 8.02404Z" stroke="#232323" stroke-width="1.5" stroke-linecap="round" stroke-linejoin="round"/>
<path d="M162.48 11.9424C162.148 11.8243 162.142 11.3092 162.393 11.0618C162.644 10.8144 163.074 10.5495 163.375 10.733C163.697 10.9291 163.659 11.4433 163.659 11.8201C163.658 12.1973 162.748 12.2105 162.48 11.9424Z" stroke="#232323" stroke-width="1.5" stroke-linecap="round" stroke-linejoin="round"/>
<path d="M161.558 14.7736C161.425 14.7261 161.423 14.52 161.523 14.4208C161.623 14.3215 161.776 14.3022 161.916 14.2891C161.973 14.4292 162.03 14.5737 162.03 14.7246C162.03 14.8752 161.696 14.7129 161.558 14.7736Z" stroke="#232323" stroke-width="1.5" stroke-linecap="round" stroke-linejoin="round"/>
<path d="M177.909 15.0757C177.578 14.9566 177.572 14.442 177.822 14.1946C178.073 13.9472 178.503 13.6823 178.804 13.8658C179.126 14.0624 179.089 14.5761 179.088 14.9529C179.087 15.3301 178.252 15.451 177.909 15.0757Z" stroke="#232323" stroke-width="1.5" stroke-linecap="round" stroke-linejoin="round"/>
<path d="M160.097 8.55914C159.99 8.57184 159.889 8.49422 159.84 8.39826C159.791 8.3023 159.783 8.19129 159.776 8.08404C159.773 8.04029 159.771 7.99466 159.791 7.95562C159.82 7.89635 159.891 7.87142 159.954 7.85213C160.074 7.81544 160.217 7.78204 160.316 7.85966C160.379 7.90999 160.406 7.99325 160.424 8.07228C160.449 8.18753 160.464 8.31077 160.423 8.42131C160.382 8.53233 160.27 8.62405 160.154 8.60759" stroke="#232323" stroke-width="1.5" stroke-linecap="round" stroke-linejoin="round"/>
<path d="M148.498 9.89997C148.468 9.74991 148.566 9.5975 148.697 9.51754C148.827 9.43757 148.984 9.41405 149.135 9.39194C149.196 9.38301 149.261 9.37454 149.318 9.39806C149.405 9.43334 149.448 9.52977 149.483 9.61726C149.549 9.78331 149.612 9.98182 149.513 10.1309C149.45 10.2269 149.335 10.2735 149.224 10.3073C149.064 10.3567 148.891 10.3915 148.73 10.3459C148.568 10.3003 148.425 10.1526 148.435 9.98511" stroke="#232323" stroke-width="1.5" stroke-linecap="round" stroke-linejoin="round"/>
<path d="M157.639 22.577C157.487 22.5953 157.343 22.4843 157.273 22.3479C157.204 22.2115 157.193 22.0539 157.183 21.9015C157.179 21.8394 157.175 21.7745 157.203 21.719C157.245 21.6348 157.345 21.5995 157.435 21.5722C157.606 21.5195 157.809 21.4725 157.95 21.5826C158.04 21.6541 158.077 21.7726 158.102 21.8851C158.139 22.0487 158.16 22.2242 158.101 22.3813C158.043 22.5389 157.885 22.6697 157.719 22.6462" stroke="#232323" stroke-width="1.5" stroke-linecap="round" stroke-linejoin="round"/>
<path d="M168.3 7.75686C168.268 7.54236 168.285 7.32644 168.349 7.14158C168.384 7.03903 168.437 6.94213 168.521 6.89744C168.606 6.85229 168.726 6.87439 168.795 6.97177C168.839 7.03386 168.855 7.11477 168.86 7.1905C168.884 7.58798 168.728 8.18492 168.3 7.75686Z" stroke="#232323" stroke-width="1.5" stroke-linecap="round" stroke-linejoin="round"/>
<path d="M154.77 7.15351C154.965 6.97241 155.21 6.84681 155.471 6.79413C155.615 6.76496 155.771 6.75979 155.903 6.82423C156.035 6.88867 156.134 7.03873 156.1 7.18173C156.078 7.27346 156.009 7.34637 155.934 7.40235C155.538 7.69729 154.899 7.57592 154.639 7.1568" stroke="#232323" stroke-width="1.5" stroke-linecap="round" stroke-linejoin="round"/>
<path d="M164.503 6.29364C164.589 6.18122 164.706 6.09279 164.838 6.04151C164.911 6.01329 164.992 5.99588 165.067 6.01752C165.143 6.03963 165.208 6.10925 165.203 6.1878C165.2 6.23767 165.17 6.28188 165.136 6.31858C164.955 6.50909 164.678 6.49027 164.503 6.29364Z" stroke="#232323" stroke-width="1.5" stroke-linecap="round" stroke-linejoin="round"/>
<path d="M142.965 19.1041C142.708 19.0345 142.472 18.8925 142.29 18.6986C142.189 18.5914 142.102 18.462 142.087 18.3157C142.072 18.1695 142.148 18.0067 142.287 17.9597C142.376 17.93 142.475 17.9502 142.562 17.9846C143.022 18.1652 143.256 18.7716 143.037 19.2142" stroke="#232323" stroke-width="1.5" stroke-linecap="round" stroke-linejoin="round"/>
<path d="M174.794 10.1379C174.588 10.0476 174.5 9.80867 174.444 9.59135C174.397 9.41025 174.378 9.17364 174.54 9.07909C174.648 9.01653 174.787 9.05416 174.897 9.11484C175.119 9.23808 175.295 9.47234 175.281 9.72541C175.266 9.97802 175.009 10.2099 174.765 10.1403" stroke="#232323" stroke-width="1.5" stroke-linecap="round" stroke-linejoin="round"/>
<path d="M171.5 12.677C171.295 12.5867 171.206 12.3477 171.15 12.1304C171.103 11.9493 171.084 11.7127 171.246 11.6182C171.354 11.5556 171.494 11.5932 171.603 11.6539C171.825 11.7771 172.001 12.0114 171.987 12.2645C171.972 12.5171 171.715 12.749 171.471 12.6794" stroke="#232323" stroke-width="1.5" stroke-linecap="round" stroke-linejoin="round"/>
<path d="M166.222 11.2083C166.017 11.1179 165.929 10.879 165.872 10.6617C165.825 10.4806 165.807 10.2439 165.969 10.1494C166.077 10.0868 166.216 10.1245 166.326 10.1852C166.547 10.3084 166.724 10.5427 166.71 10.7957C166.695 11.0483 166.437 11.2802 166.194 11.2106" stroke="#232323" stroke-width="1.5" stroke-linecap="round" stroke-linejoin="round"/>
<path d="M151.72 12.0221C151.598 11.991 151.554 11.8057 151.649 11.7234C151.702 11.6768 151.777 11.6674 151.847 11.6603C151.912 11.6533 151.986 11.65 152.031 11.697C152.057 11.7248 152.066 11.7638 152.066 11.8015C152.069 11.9769 151.869 12.1227 151.703 12.0668" stroke="#232323" stroke-width="1.5" stroke-linecap="round" stroke-linejoin="round"/>
<path d="M162.858 33.204C165.681 33.2972 168.531 33.3884 171.308 32.8733C171.87 32.7689 172.447 32.6306 172.897 32.2773C173.345 31.9246 173.629 31.2999 173.423 30.7669C173.143 30.0463 172.186 29.8783 171.424 30.0096C171.635 30.845 172.489 31.3347 173.293 31.6433C175.115 32.3418 177.102 32.6015 179.042 32.3935" stroke="white" stroke-width="1.5" stroke-linecap="round" stroke-linejoin="round"/>
<path d="M140.213 30.2891C141.482 31.0031 142.819 31.5958 144.2 32.0554" stroke="white" stroke-width="1.5" stroke-linecap="round" stroke-linejoin="round"/>
</svg>
