<svg width="332" height="317" viewBox="0 0 332 317" fill="none" xmlns="http://www.w3.org/2000/svg">
<path d="M159.613 157.184C160.066 156.302 160.165 155.546 160.187 155.099C160.224 154.313 160.042 153.982 159.981 153.879C159.699 153.404 159.235 153.205 159.033 153.133C158.896 153.464 158.711 153.905 158.486 154.42C157.932 155.686 157.482 156.606 157.217 157.15C155.081 161.535 154.858 162.188 154.785 163.097C154.71 164.033 154.829 164.803 154.928 165.273L153.793 173.032L160.375 174.629C160.375 174.629 160.799 169.55 160.585 168.857C159.931 166.74 164.521 164.429 164.532 163.543C164.543 162.656 161.271 160.991 161.271 160.991C160.157 161.674 159.042 162.357 157.928 163.041C157.976 163.142 158.27 163.741 158.931 163.929C159.587 164.115 160.337 163.82 160.773 163.182C161.153 163.668 161.533 164.154 161.912 164.64" fill="#F08566"/>
<path d="M159.613 157.184C160.066 156.302 160.165 155.546 160.187 155.099C160.224 154.313 160.042 153.982 159.981 153.879C159.699 153.404 159.235 153.205 159.033 153.133C158.896 153.464 158.711 153.905 158.486 154.42C157.932 155.686 157.482 156.606 157.217 157.15C155.081 161.535 154.858 162.188 154.785 163.097C154.71 164.033 154.829 164.803 154.928 165.273L153.793 173.032L160.375 174.629C160.375 174.629 160.799 169.55 160.585 168.857C159.931 166.74 164.521 164.429 164.532 163.543C164.543 162.656 161.271 160.991 161.271 160.991C160.157 161.674 159.042 162.357 157.928 163.041C157.976 163.142 158.27 163.741 158.931 163.929C159.587 164.115 160.337 163.82 160.773 163.182C161.153 163.668 161.533 164.154 161.912 164.64" stroke="#303030" stroke-width="1.5" stroke-linecap="round" stroke-linejoin="round"/>
<path d="M162.348 156.865C162.348 156.865 162.941 154.846 162.569 154.471C162.196 154.095 157.191 156.017 157.191 156.017C157.191 156.017 157.03 157.143 158.086 157.168C159.142 157.192 161.339 156.195 161.339 156.195" fill="#F08566"/>
<path d="M162.348 156.865C162.348 156.865 162.941 154.846 162.569 154.471C162.196 154.095 157.191 156.017 157.191 156.017C157.191 156.017 157.03 157.143 158.086 157.168C159.142 157.192 161.339 156.195 161.339 156.195" stroke="#303030" stroke-width="1.5" stroke-linecap="round" stroke-linejoin="round"/>
<path d="M163.015 159.35C163.106 159.203 163.413 158.666 163.309 157.95C163.188 157.122 162.608 156.667 162.49 156.578C161.185 156.935 160.151 157.096 159.425 157.178C158.887 157.239 158.33 157.277 158.094 157.669C157.942 157.921 158.012 158.174 158.089 158.978C158.144 159.547 158.166 160.009 158.175 160.302C158.345 160.27 158.608 160.198 158.879 160.017C159.337 159.71 159.528 159.285 159.595 159.11C160.104 159.051 160.613 158.992 161.122 158.933" fill="#F08566"/>
<path d="M163.015 159.35C163.106 159.203 163.413 158.666 163.309 157.95C163.188 157.122 162.608 156.667 162.49 156.578C161.185 156.935 160.151 157.096 159.425 157.178C158.887 157.239 158.33 157.277 158.094 157.669C157.942 157.921 158.012 158.174 158.089 158.978C158.144 159.547 158.166 160.009 158.175 160.302C158.345 160.27 158.608 160.198 158.879 160.017C159.337 159.71 159.528 159.285 159.595 159.11C160.104 159.051 160.613 158.992 161.122 158.933" stroke="#303030" stroke-width="1.5" stroke-linecap="round" stroke-linejoin="round"/>
<path d="M164.05 162.614C164.033 162.197 163.978 161.684 163.838 161.112C163.681 160.475 163.463 159.949 163.263 159.548C162.891 159.287 162.09 158.812 161.122 158.934C160.602 159 160.238 159.212 159.537 159.631C159.037 159.929 158.37 160.377 157.647 161.023C157.716 161.183 157.917 161.59 158.377 161.865C159.058 162.272 159.762 162.064 159.878 162.027C160.342 161.68 160.806 161.333 161.271 160.986L164.05 162.614Z" fill="#F08566"/>
<path d="M164.05 162.614C164.033 162.197 163.978 161.684 163.838 161.112C163.681 160.475 163.463 159.949 163.263 159.548C162.891 159.287 162.09 158.812 161.122 158.934C160.602 159 160.238 159.212 159.537 159.631C159.037 159.929 158.37 160.377 157.647 161.023C157.716 161.183 157.917 161.59 158.377 161.865C159.058 162.272 159.762 162.064 159.878 162.027C160.342 161.68 160.806 161.333 161.271 160.986L164.05 162.614Z" stroke="#303030" stroke-width="1.5" stroke-linecap="round" stroke-linejoin="round"/>
<path d="M155.935 167.593C155.935 167.593 156.228 166.147 157.125 165.551C158.022 164.955 158.833 164.859 158.833 164.859" fill="#F08566"/>
<path d="M155.935 167.593C155.935 167.593 156.228 166.147 157.125 165.551C158.022 164.955 158.833 164.859 158.833 164.859" stroke="#303030" stroke-width="1.5" stroke-linecap="round" stroke-linejoin="round"/>
<path d="M147.356 149.724C147.778 149.112 148.128 149.021 148.292 149C148.587 148.962 148.981 149.057 149.176 149.321C149.547 149.822 148.995 150.657 148.596 151.76C148.334 152.485 148.064 153.557 148.096 154.996L146.215 153.572C146.285 152.868 146.527 150.923 147.356 149.724Z" fill="#F08566"/>
<path d="M147.356 149.724C147.778 149.112 148.128 149.021 148.292 149C148.587 148.962 148.981 149.057 149.176 149.321C149.547 149.822 148.995 150.657 148.596 151.76C148.334 152.485 148.064 153.557 148.096 154.996L146.215 153.572C146.285 152.868 146.527 150.923 147.356 149.724Z" stroke="#303030" stroke-width="1.5" stroke-linecap="round" stroke-linejoin="round"/>
<path d="M152.005 154.25C152.005 154.25 151.198 156.077 150.761 156.324C150.325 156.571 149.92 156.053 149.924 155.355C149.928 154.658 151.25 152.474 151.461 152.466C151.67 152.458 152.675 154.105 153 155.618C153.324 157.13 151.573 160.726 151.573 160.726L150.129 166.949L144.539 166.17C145.071 164.048 145.602 161.925 146.134 159.803C145.842 159.206 145.559 158.511 145.332 157.72C144.691 155.49 144.789 153.514 144.981 152.196C145.014 152.099 145.067 151.953 145.143 151.781C145.304 151.418 145.466 151.169 145.528 151.073C145.717 150.779 146 150.298 146.456 149.461C146.629 149.458 146.859 149.484 147.044 149.632C148.035 150.421 146.686 153.862 146.65 153.854C146.65 153.854 146.649 153.852 146.649 153.849C147.025 154.151 147.4 154.454 147.776 154.756" fill="#F08566"/>
<path d="M152.005 154.25C152.005 154.25 151.198 156.077 150.761 156.324C150.325 156.571 149.92 156.053 149.924 155.355C149.928 154.658 151.25 152.474 151.461 152.466C151.67 152.458 152.675 154.105 153 155.618C153.324 157.13 151.573 160.726 151.573 160.726L150.129 166.949L144.539 166.17C145.071 164.048 145.602 161.925 146.134 159.803C145.842 159.206 145.559 158.511 145.332 157.72C144.691 155.49 144.789 153.514 144.981 152.196C145.014 152.099 145.067 151.953 145.143 151.781C145.304 151.418 145.466 151.169 145.528 151.073C145.717 150.779 146 150.298 146.456 149.461C146.629 149.458 146.859 149.484 147.044 149.632C148.035 150.421 146.686 153.862 146.65 153.854C146.65 153.854 146.649 153.852 146.649 153.849C147.025 154.151 147.4 154.454 147.776 154.756" stroke="#303030" stroke-width="1.5" stroke-linecap="round" stroke-linejoin="round"/>
<path d="M147.592 154.043C147.597 151.79 148.013 150.143 148.493 149.967C148.761 149.869 149.043 149.867 149.043 149.867C149.328 149.866 149.631 149.94 149.76 150.028C149.76 150.028 150.33 150.415 148.959 154.654C148.765 154.953 148.407 155.088 148.096 154.994C147.725 154.883 147.485 154.464 147.592 154.043Z" fill="#F08566"/>
<path d="M147.592 154.043C147.597 151.79 148.013 150.143 148.493 149.967C148.761 149.869 149.043 149.867 149.043 149.867C149.328 149.866 149.631 149.94 149.76 150.028C149.76 150.028 150.33 150.415 148.959 154.654C148.765 154.953 148.407 155.088 148.096 154.994C147.725 154.883 147.485 154.464 147.592 154.043Z" stroke="#303030" stroke-width="1.5" stroke-linecap="round" stroke-linejoin="round"/>
<path d="M148.625 154.622C149.192 152.58 149.981 151.188 150.462 151.146C150.731 151.122 150.988 151.19 150.988 151.19C151.247 151.257 151.504 151.399 151.6 151.51C151.6 151.51 152.021 152 149.715 155.509C149.465 155.733 149.106 155.769 148.846 155.608C148.536 155.416 148.423 154.978 148.625 154.622Z" fill="#F08566"/>
<path d="M148.625 154.622C149.192 152.58 149.981 151.188 150.462 151.146C150.731 151.122 150.988 151.19 150.988 151.19C151.247 151.257 151.504 151.399 151.6 151.51C151.6 151.51 152.021 152 149.715 155.509C149.465 155.733 149.106 155.769 148.846 155.608C148.536 155.416 148.423 154.978 148.625 154.622Z" stroke="#303030" stroke-width="1.5" stroke-linecap="round" stroke-linejoin="round"/>
<path d="M125.114 293.219V308.359L117.419 308.396L115.925 293.219H125.114Z" fill="#F08566"/>
<path d="M125.114 293.219V308.359L117.419 308.396L115.925 293.219H125.114Z" stroke="#303030" stroke-width="1.5" stroke-linecap="round" stroke-linejoin="round"/>
<path d="M108.104 293.219C107.825 298.505 107.546 299.503 107.267 304.789C107.053 304.851 109.247 311.495 108.599 311.551C107.186 311.673 100.755 312.961 98.3945 311.139C97.4967 310.446 100.008 305.387 99.4709 305.387C99.3774 300.102 98.8737 298.542 98.7801 293.257C101.752 293.257 105.133 293.219 108.104 293.219Z" fill="#F08566"/>
<path d="M108.104 293.219C107.825 298.505 107.546 299.503 107.267 304.789C107.053 304.851 109.247 311.495 108.599 311.551C107.186 311.673 100.755 312.961 98.3945 311.139C97.4967 310.446 100.008 305.387 99.4709 305.387C99.3774 300.102 98.8737 298.542 98.7801 293.257C101.752 293.257 105.133 293.219 108.104 293.219Z" stroke="#303030" stroke-width="1.5" stroke-linecap="round" stroke-linejoin="round"/>
<path d="M310.799 152.925H179.446C184.675 145.131 201.177 137.961 211.445 140.779C212.974 141.177 214.707 140.933 215.843 139.72C222.393 132.349 234.521 131.718 239.714 139.152C240.528 140.294 241.934 140.307 242.789 139.262C252.628 126.78 267.4 149.454 297.759 148.604C302.858 148.462 307.097 149.976 310.799 152.925Z" fill="#141414"/>
<path d="M109.76 248.251C109.611 248.704 109.417 249.157 109.175 249.576C109.192 249.576 109.192 249.576 109.175 249.593C107.982 251.751 105.692 253.284 103.288 253.622L103.093 253.639L102.466 253.703C101.531 253.72 100.579 253.559 99.6898 253.174C99.9649 253.301 100.189 253.559 100.384 253.868C100.384 253.868 100.562 254.266 100.74 254.96C99.2284 254.841 97.6877 254.52 96.1131 253.923C58.2002 234.901 49.2944 247.277 15.7963 268.911C13.4471 266.388 11.6313 262.922 11.0387 258.155C9.98895 258.384 8.35933 257.254 7.88949 256.318C7.42389 255.32 7.80907 254.012 8.74451 253.432C6.64929 253.364 4.45672 253.013 2.72975 251.883C2.45462 251.722 2.19642 251.527 1.97208 251.315C0.130826 249.753 -0.690331 246.833 0.693785 244.848C1.88743 243.172 4.13079 242.719 6.16676 242.397C4.60063 240.86 3.79217 238.588 4.03344 236.408C5.8112 237.233 7.58473 238.215 8.76144 239.781C8.26198 237.957 8.81224 235.891 10.1329 234.554C11.0852 235.603 12.3762 236.522 13.3286 237.572C13.2651 235.811 14.8778 234.168 16.6344 234.168C14.5222 232.585 13.8619 229.36 15.1826 227.07C16.4905 224.763 19.6058 223.713 22.0566 224.729C19.6862 222.939 18.6196 219.421 20.0248 216.806C21.4259 214.194 25.4132 213.242 27.5888 215.273C26.7973 213.017 28.1391 210.257 30.3824 209.449C32.6385 208.645 35.4152 209.953 36.2533 212.192C36.9009 210.274 40.0289 209.242 42.031 209.563C44.0289 209.902 45.6289 211.807 45.6289 213.821C48.304 212.822 51.0468 211.807 53.9039 211.807C54.3695 211.807 54.8394 211.853 55.3092 211.921C56.2743 210.676 57.6161 209.724 59.1314 209.288C59.597 209.144 60.1007 209.047 60.5832 209.013C63.1949 208.839 65.8107 210.241 67.2118 212.42C67.3895 212.708 67.5504 213 67.6985 213.322C67.6985 213 67.762 212.679 67.8594 212.37C68.2953 211.032 69.5694 209.965 70.9874 209.902C72.7313 209.821 74.4075 211.256 74.5852 213C75.8466 210.613 78.1831 208.628 80.8794 208.594C83.5587 208.564 86.2042 211.146 85.6074 213.758C86.0899 211.824 88.1386 210.435 90.1068 210.676C92.0751 210.918 92.4475 212.001 92.4306 213.982C95.3343 212.92 98.8813 213.999 100.676 216.535C102.45 219.049 102.306 222.761 100.337 225.131C101.705 225.906 102.547 227.569 102.335 229.148C102.306 229.326 102.272 229.521 102.208 229.699V229.728C101.789 231.053 100.676 232.149 99.3343 232.488C99.9014 232.666 100.464 232.877 101.015 233.119C102.61 233.779 104.109 234.634 105.451 235.73C106.564 236.619 107.563 237.669 108.354 238.879C108.371 238.879 108.371 238.892 108.371 238.892C108.481 239.07 108.596 239.248 108.693 239.426C109.467 240.75 109.984 242.249 110.179 243.768C110.225 244.107 110.259 244.446 110.259 244.784C110.306 245.961 110.162 247.138 109.76 248.251Z" fill="#141414"/>
<path d="M98.7344 242.743V216.966C119.407 207.748 140.955 188.447 165.701 202.451C171.383 205.169 176.639 205.222 182.244 202.45C198.307 195.103 213.873 185.272 231.094 181.364C278.123 176.933 301.122 181.173 330.855 216.134" fill="black"/>
<path d="M98.7344 242.743V216.966C119.407 207.748 140.955 188.447 165.701 202.451C171.383 205.169 176.639 205.222 182.244 202.45C198.307 195.103 213.873 185.272 231.094 181.364C278.123 176.933 301.122 181.173 330.855 216.134" stroke="#262626" stroke-width="2"/>
<path d="M166.411 202.773L189.752 214.197L175.154 204.468C175.154 204.468 171.145 204.924 166.411 202.773Z" fill="#444444"/>
<path d="M249.278 213.693C249.916 212.281 250.243 216.138 250.42 216.29C249.893 216.465 249.945 216.634 250.484 216.58C251.513 221.096 252.002 223.699 253.008 227.559H246.09C247.131 223.104 248.317 218.014 249.278 213.693Z" fill="#F6F6F6"/>
<path d="M249.278 213.693C249.916 212.281 250.243 216.138 250.42 216.29C249.893 216.465 249.945 216.634 250.484 216.58C251.513 221.096 252.002 223.699 253.008 227.559H246.09C247.131 223.104 248.317 218.014 249.278 213.693Z" stroke="black" stroke-width="2" stroke-linecap="round" stroke-linejoin="round"/>
<path d="M273.173 202.357C273.811 200.945 274.139 204.802 274.315 204.954C273.788 205.129 273.84 205.298 274.379 205.244C275.408 209.76 275.897 212.363 276.903 216.224H269.985C271.026 211.768 272.212 206.678 273.173 202.357Z" fill="#444444"/>
<path d="M259.579 210.92C260.218 209.507 260.545 213.364 260.721 213.517C260.194 213.691 260.247 213.86 260.786 213.806C261.815 218.322 262.304 220.926 263.31 224.786L256.392 224.786C257.432 220.331 258.619 215.241 259.579 210.92Z" fill="#F6F6F6"/>
<path d="M259.579 210.92C260.218 209.507 260.545 213.364 260.721 213.517C260.194 213.691 260.247 213.86 260.786 213.806C261.815 218.322 262.304 220.926 263.31 224.786L256.392 224.786C257.432 220.331 258.619 215.241 259.579 210.92Z" stroke="black" stroke-width="2" stroke-linecap="round" stroke-linejoin="round"/>
<path d="M294.731 204.102C295.871 203.632 296.452 210.257 297.261 211.979C297.248 212.018 296.067 212.351 296.504 212.42C297.848 211.63 297.913 215.428 298.275 215.944L291.704 215.943C292.717 212.041 293.798 207.874 294.731 204.102Z" fill="#444444"/>
<path d="M312.876 211.068C313.81 210.879 314.133 215.623 314.793 217.037C314.784 217.066 313.888 217.32 314.22 217.371C315.237 216.772 315.287 219.65 315.561 220.041C307.038 221.317 312.573 216.089 312.876 211.068Z" fill="#F6F6F6"/>
<path d="M312.876 211.068C313.81 210.879 314.133 215.623 314.793 217.037C314.784 217.066 313.888 217.32 314.22 217.371C315.237 216.772 315.287 219.65 315.561 220.041C307.038 221.317 312.573 216.089 312.876 211.068Z" stroke="black" stroke-width="2" stroke-linecap="round" stroke-linejoin="round"/>
<path d="M279.444 203.327C280.474 202.397 281.399 210.161 282.138 211.715C282.124 211.757 280.867 212.111 281.332 212.185C282.762 211.343 282.832 215.387 283.217 215.937H276.22C277.299 211.781 278.45 207.344 279.444 203.327Z" fill="#F6F6F6"/>
<path d="M279.444 203.327C280.474 202.397 281.399 210.161 282.138 211.715C282.124 211.757 280.867 212.111 281.332 212.185C282.762 211.343 282.832 215.387 283.217 215.937H276.22C277.299 211.781 278.45 207.344 279.444 203.327Z" stroke="black" stroke-width="2" stroke-linecap="round" stroke-linejoin="round"/>
<path d="M284.138 205.646C285.129 205.236 285.634 210.998 286.338 212.494C286.327 212.528 285.298 212.819 285.68 212.877C286.847 212.19 286.904 215.492 287.218 215.941L281.506 215.94C282.387 212.548 283.327 208.925 284.138 205.646Z" fill="#F6F6F6"/>
<path d="M284.138 205.646C285.129 205.236 285.634 210.998 286.338 212.494C286.327 212.528 285.298 212.819 285.68 212.877C286.847 212.19 286.904 215.492 287.218 215.941L281.506 215.94C282.387 212.548 283.327 208.925 284.138 205.646Z" stroke="black" stroke-width="2" stroke-linecap="round" stroke-linejoin="round"/>
<path d="M202.525 242.741L272.697 215.16C286.059 207.707 309.838 223.709 322.067 219.073" fill="black"/>
<path d="M202.525 242.741L272.697 215.16C286.059 207.707 309.838 223.709 322.067 219.073" stroke="#262626" stroke-width="2"/>
<path d="M155.08 252.459C154.441 251.046 154.114 254.903 153.938 255.056C154.465 255.23 154.412 255.399 153.873 255.345C152.844 259.861 152.355 262.465 151.349 266.325H158.267C157.227 261.87 156.04 256.78 155.08 252.459Z" fill="#F6F6F6"/>
<path d="M155.08 252.459C154.441 251.046 154.114 254.903 153.938 255.056C154.465 255.23 154.412 255.399 153.873 255.345C152.844 259.861 152.355 262.465 151.349 266.325H158.267C157.227 261.87 156.04 256.78 155.08 252.459Z" stroke="black" stroke-width="2" stroke-linecap="round" stroke-linejoin="round"/>
<path d="M80.0335 234.974C79.3952 233.562 79.0676 237.419 78.8915 237.571C79.4185 237.746 79.366 237.915 78.8267 237.861C77.7982 242.377 77.3089 244.98 76.3027 248.841H83.2208C82.1804 244.386 80.9939 239.295 80.0335 234.974Z" fill="#444444"/>
<path d="M144.778 249.693C144.139 248.281 143.812 252.138 143.636 252.29C144.163 252.465 144.11 252.634 143.571 252.58C142.542 257.096 142.053 259.699 141.047 263.559L147.965 263.56C146.924 259.104 145.738 254.014 144.778 249.693Z" fill="#F6F6F6"/>
<path d="M144.778 249.693C144.139 248.281 143.812 252.138 143.636 252.29C144.163 252.465 144.11 252.634 143.571 252.58C142.542 257.096 142.053 259.699 141.047 263.559L147.965 263.56C146.924 259.104 145.738 254.014 144.778 249.693Z" stroke="black" stroke-width="2" stroke-linecap="round" stroke-linejoin="round"/>
<path d="M58.4763 233.688C57.336 233.218 56.7552 239.843 55.9459 241.565C55.959 241.604 57.14 241.937 56.7028 242.006C55.3597 241.215 55.2941 245.014 54.9326 245.53L61.5036 245.529C60.4902 241.627 59.4092 237.46 58.4763 233.688Z" fill="#444444"/>
<path d="M67.6535 234.607C66.7198 234.418 66.396 239.162 65.7361 240.576C65.7458 240.605 66.6419 240.859 66.3096 240.91C65.2921 240.311 65.2421 243.189 64.9683 243.58C73.4918 244.856 67.9561 239.628 67.6535 234.607Z" fill="#F6F6F6"/>
<path d="M67.6535 234.607C66.7198 234.418 66.396 239.162 65.7361 240.576C65.7458 240.605 66.6419 240.859 66.3096 240.91C65.2921 240.311 65.2421 243.189 64.9683 243.58C73.4918 244.856 67.9561 239.628 67.6535 234.607Z" stroke="black" stroke-width="2" stroke-linecap="round" stroke-linejoin="round"/>
<path d="M73.7633 235.944C72.733 235.014 71.8081 242.778 71.0687 244.332C71.0831 244.374 72.3398 244.729 71.8746 244.802C70.4444 243.96 70.3749 248.004 69.9897 248.554H76.987C75.9076 244.398 74.7567 239.962 73.7633 235.944Z" fill="#F6F6F6"/>
<path d="M73.7633 235.944C72.733 235.014 71.8081 242.778 71.0687 244.332C71.0831 244.374 72.3398 244.729 71.8746 244.802C70.4444 243.96 70.3749 248.004 69.9897 248.554H76.987C75.9076 244.398 74.7567 239.962 73.7633 235.944Z" stroke="black" stroke-width="2" stroke-linecap="round" stroke-linejoin="round"/>
<path d="M69.0689 238.255C68.0776 237.846 67.5726 243.607 66.8687 245.103C66.8801 245.137 67.9082 245.428 67.5269 245.487C66.3595 244.799 66.3023 248.101 65.9883 248.55L71.7008 248.55C70.8196 245.157 69.8799 241.535 69.0689 238.255Z" fill="#F6F6F6"/>
<path d="M69.0689 238.255C68.0776 237.846 67.5726 243.607 66.8687 245.103C66.8801 245.137 67.9082 245.428 67.5269 245.487C66.3595 244.799 66.3023 248.101 65.9883 248.55L71.7008 248.55C70.8196 245.157 69.8799 241.535 69.0689 238.255Z" stroke="black" stroke-width="2" stroke-linecap="round" stroke-linejoin="round"/>
<path d="M119.296 281.502C129.191 278.861 166.637 252.425 176.68 260.342C183.621 264.854 196.376 253.679 202.264 251.158C214.597 244.689 227.626 252.385 239.27 258.361C260.402 269.207 263.942 252.801 288.39 269.208" fill="black"/>
<path d="M119.296 281.502C129.191 278.861 166.637 252.425 176.68 260.342C183.621 264.854 196.376 253.679 202.264 251.158C214.597 244.689 227.626 252.385 239.27 258.361C260.402 269.207 263.942 252.801 288.39 269.208" stroke="#262626" stroke-width="2"/>
<path d="M15.7961 268.914C13.7813 270.214 11.6776 271.547 9.47656 272.91" stroke="#232323" stroke-width="1.5" stroke-linecap="round" stroke-linejoin="round"/>
<path d="M102.421 255.33C104.379 255.368 106.604 254.927 109.148 253.922L102.421 255.33Z" fill="#444444"/>
<path d="M138.628 279.788L137.645 239.179L125.848 231.016L111.79 237.995L111.761 262.838" fill="#9B9B9B"/>
<path d="M138.628 279.788L137.645 239.179L125.848 231.016L111.79 237.995L111.761 262.838" stroke="black" stroke-width="0.5" stroke-linecap="round" stroke-linejoin="round"/>
<path d="M142.816 245.012L142.365 279.788H138.628L137.645 239.179C136.957 238.193 125.848 231.016 125.848 231.016L111.789 237.995L110.609 276.544" stroke="#232323" stroke-width="1.5" stroke-linecap="round" stroke-linejoin="round"/>
<line x1="118.195" y1="219.573" x2="101.621" y2="205.988" stroke="#232323" stroke-width="1.5" stroke-linecap="round" stroke-linejoin="round"/>
<path d="M113.273 218.259C109.694 215.139 98.2202 205.148 98.2202 205.148" stroke="#232323" stroke-width="1.5" stroke-linecap="round" stroke-linejoin="round"/>
<line x1="137.891" y1="236.481" x2="126.127" y2="227.579" stroke="#232323" stroke-width="1.5" stroke-linecap="round" stroke-linejoin="round"/>
<line x1="104.48" y1="235.298" x2="91.6803" y2="229.175" stroke="#232323" stroke-width="1.5" stroke-linecap="round" stroke-linejoin="round"/>
<line x1="103.998" y1="205.688" x2="92.4425" y2="205.688" stroke="#232323" stroke-width="1.5" stroke-linecap="round" stroke-linejoin="round"/>
<line x1="113.026" y1="281.987" x2="112.935" y2="282.644" stroke="#232323" stroke-width="1.5" stroke-linecap="round" stroke-linejoin="round"/>
<path d="M116.358 267.414C118.441 267.565 120.574 266.848 122.142 265.469" stroke="#232323" stroke-width="1.5" stroke-linecap="round" stroke-linejoin="round"/>
<line x1="137.346" y1="258.555" x2="120" y2="258.555" stroke="#232323" stroke-width="1.5" stroke-linecap="round" stroke-linejoin="round"/>
<line x1="137.346" y1="261.172" x2="120" y2="261.172" stroke="#232323" stroke-width="1.5" stroke-linecap="round" stroke-linejoin="round"/>
<rect x="98.4375" y="199.906" width="2.39151" height="5.02768" fill="#444444"/>
<path d="M107.016 266.685C106.459 267.911 103.348 288.707 103.348 288.707L109.87 290.864L114.764 271.951C114.764 271.951 107.572 265.462 107.016 266.685Z" fill="#F08566"/>
<path d="M107.016 266.685C106.459 267.911 103.348 288.707 103.348 288.707L109.87 290.864L114.764 271.951C114.764 271.951 107.572 265.462 107.016 266.685Z" stroke="#303030" stroke-width="1.5" stroke-linecap="round" stroke-linejoin="round"/>
<path d="M135.524 165.165L134.513 168.282L139.136 186.497C139.136 186.497 140.22 216.041 140.229 216.425C141.684 216.697 145.377 217.204 147.204 215.134C147.939 214.303 148.01 213.463 148.094 208.461C148.182 203.203 148.201 198.205 148.201 198.192C150.314 198.652 151.892 198.411 153.029 198.014C158.949 195.951 162.373 186.379 161.207 174.214C158.681 173.583 156.156 172.951 153.631 172.32C152.712 176.222 151.794 180.125 150.876 184.028C149.923 180.156 148.832 177.009 147.949 174.73C145.299 167.897 143.677 166.691 142.928 166.217C140.28 164.542 137.209 164.843 135.524 165.165Z" fill="#444444"/>
<path d="M124.309 167.063L124.509 226.778L141.078 220.816L140.16 188.592L136.882 166.039L124.309 167.063Z" fill="#65EAC9"/>
<path d="M124.309 167.063L124.509 226.778L141.078 220.816L140.16 188.592L136.882 166.039L124.309 167.063Z" stroke="black" stroke-width="2" stroke-linejoin="round"/>
<path d="M133.618 277.106C133.357 278.425 134.343 292.513 134.343 292.513L140.178 291.855L141.445 279.879C141.445 279.879 133.882 275.787 133.618 277.106Z" fill="#F08566"/>
<path d="M133.618 277.106C133.357 278.425 134.343 292.513 134.343 292.513L140.178 291.855L141.445 279.879C141.445 279.879 133.882 275.787 133.618 277.106Z" stroke="#303030" stroke-width="1.5" stroke-linecap="round" stroke-linejoin="round"/>
<path d="M133.92 286.586L133.856 288.351L141.107 288.065L141.258 286.915L133.92 286.586Z" fill="#444444"/>
<path d="M108.465 283.641L116.698 284.444L116.042 287.878L107.979 286.808L108.465 283.641Z" fill="#444444"/>
<path d="M115.393 202.074C114.484 205.644 114.07 214.234 114.002 214.656C113.57 217.362 107.581 285.616 107.581 285.616L116.291 286.572C116.291 286.572 118.023 284.984 118.115 284.628C118.184 284.359 120.057 279.868 120.057 279.868L130.601 230.013L137.139 233.619L137.267 233.884C137.267 233.41 137.212 233.06 137.237 232.527C137.267 231.955 137.314 231.353 137.37 230.649C137.408 230.218 137.544 228.771 137.566 228.506C137.63 227.747 137.655 227.226 137.664 226.79C137.767 220.503 142.606 213.891 143.749 204.134C142.089 204.705 134.826 203.943 134.826 203.943C134.826 203.943 130.498 207.977 128.372 208.455C125.453 209.116 123.852 206.048 123.852 206.048C123.852 206.048 117.907 201.664 115.393 202.074Z" fill="#C4C4C4"/>
<path d="M146.486 208.694C146.594 207.227 146.758 204.865 146.916 201.93C145.417 202.182 143.021 202.533 140.028 202.733C136.165 202.991 133.979 203.76 133.979 203.76C133.979 203.76 132.522 209.266 132.677 210.65C133.02 213.692 133.903 215.393 134.288 216.692C135.113 219.479 134.69 223.932 128.837 231.131L132.991 286.909H142.187C142.187 286.909 142.77 286.221 142.842 285.184C142.875 284.719 142.371 284.284 142.416 283.639C142.652 280.237 145.738 218.849 146.486 208.694Z" fill="#C4C4C4"/>
<path d="M127.707 161.158L124.638 154.982C124.638 154.982 121.775 153.292 122.543 150.176C123.315 147.059 124.923 146.974 126.481 145.905C127.912 144.922 127.953 145.905 130.521 144.608C131.867 144.373 132.485 145.13 134.594 144.913C136.703 144.696 137.968 147.844 136.21 149.601C135.145 150.666 138.002 154.177 137.555 155.994C137.108 157.811 135.94 160.108 134.547 160.744C133.154 161.384 127.707 161.158 127.707 161.158Z" fill="#444444"/>
<path d="M139.408 158.84C138.567 155.947 136.173 149.305 136.173 149.305C136.173 149.305 134.649 149.746 133.491 149.887C132.328 150.033 131.24 148.852 130.591 149.501C129.371 150.721 129.216 150.907 129.711 153.379C129.883 154.243 128.336 154.342 128.336 154.342C128.336 154.342 127 153.351 126.719 154.46C126.276 156.209 127.683 157.192 127.683 157.192L127.413 162.29L124.278 169.332L128.234 170.128C129.849 170.453 131.523 170.311 133.06 169.718L134.049 169.336L135.762 163.336C138.211 162.586 139.991 160.846 139.408 158.84Z" fill="#F08566"/>
<path d="M139.408 158.84C138.567 155.947 136.173 149.305 136.173 149.305C136.173 149.305 134.649 149.746 133.491 149.887C132.328 150.033 131.24 148.852 130.591 149.501C129.371 150.721 129.216 150.907 129.711 153.379C129.883 154.243 128.336 154.342 128.336 154.342C128.336 154.342 127 153.351 126.719 154.46C126.276 156.209 127.683 157.192 127.683 157.192L127.413 162.29L124.278 169.332L128.234 170.128C129.849 170.453 131.523 170.311 133.06 169.718L134.049 169.336L135.762 163.336C138.211 162.586 139.991 160.846 139.408 158.84Z" stroke="#303030" stroke-width="1.5" stroke-linecap="round" stroke-linejoin="round"/>
<path d="M131.583 153.381C132.364 152.866 133.093 152.574 134.027 152.632" stroke="#0C0C0C" stroke-width="1.5" stroke-linecap="round" stroke-linejoin="round"/>
<path d="M135.762 152.734C136.338 152.504 136.948 152.361 137.567 152.312" stroke="#0C0C0C" stroke-width="1.5" stroke-linecap="round" stroke-linejoin="round"/>
<path d="M134.356 154.327C134.184 154.389 133.984 154.325 133.882 154.164L133.76 153.969C133.642 153.781 133.698 153.533 133.885 153.416C134.065 153.293 134.319 153.352 134.437 153.54L134.559 153.735C134.677 153.923 134.622 154.17 134.434 154.287C134.409 154.304 134.383 154.317 134.356 154.327Z" fill="#0C0C0C"/>
<path d="M137.251 153.551C137.1 153.551 136.967 153.47 136.92 153.315C136.917 153.307 136.895 153.226 136.893 153.216C136.754 153.058 136.778 152.835 136.936 152.698C137.093 152.557 137.342 152.592 137.48 152.749C137.577 152.858 137.609 152.94 137.634 153.047C137.68 153.246 137.569 153.482 137.372 153.534C137.331 153.546 137.29 153.551 137.251 153.551Z" fill="#0C0C0C"/>
<path d="M135.762 152.734C135.885 153.181 136.062 153.418 136.302 153.984C136.543 154.554 138.31 154.938 138.306 155.452C138.383 155.76 136.889 156.659 136.572 156.633" stroke="#0C0C0C" stroke-width="1.5" stroke-linecap="round" stroke-linejoin="round"/>
<path d="M127.863 153.377C127.863 153.377 129.737 163.398 131.583 164.107C133.43 164.816 140.544 163.566 140.544 161.77C140.544 159.974 138.961 157.4 138.961 157.4L136.665 158.209C135.464 158.659 134.91 158.137 134.686 157.939L132.805 158.388L128.841 150.289L127.863 153.377Z" fill="#444444"/>
<line x1="132.816" y1="153.291" x2="133.314" y2="152.992" stroke="#0C0C0C" stroke-width="1.5" stroke-linecap="round" stroke-linejoin="round"/>
<path d="M124.8 163.548C121.671 163.522 118.347 164.209 115.081 165.485C114.924 168.063 114.783 171.043 114.578 173.279C114.275 176.638 113.861 179.327 112.798 185.366C112.674 186.083 112.627 186.403 112.555 186.8C112.021 189.878 111.748 191.807 111.479 193.864C111.658 195.819 112.627 210.511 114.002 212.735C117.8 218.872 126.033 213.856 126.033 213.856C126.033 213.856 128.974 190.862 128.603 184.866C128.635 185.702 124.8 163.548 124.8 163.548Z" fill="#444444"/>
<path d="M115.973 165.164C113.118 166.338 108.948 166.623 106.413 168.74C104.185 170.602 96.6988 195.112 99.4276 205.242C99.9876 207.322 100.978 208.796 102.534 209.343C104 209.859 105.492 210.112 106.989 210.151C120.017 210.487 133.444 194.61 133.444 194.61L123.375 188.916L110.121 196.206C110.369 194.516 112.716 189.757 113.139 187.354C113.207 186.957 118.099 177.738 118.401 174.396C118.598 172.236 115.819 167.627 115.973 165.164Z" fill="#444444"/>
<line x1="147.531" y1="183.417" x2="148.876" y2="197.37" stroke="#F5F3EC" stroke-width="1.5" stroke-linecap="round" stroke-linejoin="round"/>
<path d="M133.587 289.651V295.856L138.028 295.841L138.881 295.362L140.682 295.832L149.806 295.802C149.806 295.802 152.64 294.591 152.004 293.684C151.369 292.774 147.268 292.169 147.268 292.169L140.957 289.031L138.849 291.113L133.587 289.651Z" fill="#444444"/>
<path d="M115.615 180.625C113.866 189.832 111.479 193.865 110.82 195.317L123.375 188.914L126.513 190.856" stroke="#F5F3EC" stroke-width="1.5" stroke-linecap="round" stroke-linejoin="round"/>
<path d="M114.001 212.734L113.93 215.787C113.93 215.787 119.495 217.297 121.193 217.311C127.078 217.36 130.598 215.232 130.598 215.232V213.812C130.598 213.812 128.535 214.848 124.929 215.232C121.322 215.617 114.001 212.734 114.001 212.734Z" fill="#444444"/>
<path d="M117.323 307.011L116.721 312.55C116.721 312.55 137.664 314.198 139.121 312.699C140.572 311.198 134.198 310.367 130.552 308.435C126.906 306.502 125.938 304.188 124.532 304.968C123.13 305.746 121.72 308.369 121.72 308.369L117.323 307.011Z" fill="white"/>
<path d="M117.323 307.011L116.721 312.55C116.721 312.55 137.664 314.198 139.121 312.699C140.572 311.198 134.198 310.367 130.552 308.435C126.906 306.502 125.938 304.188 124.532 304.968C123.13 305.746 121.72 308.369 121.72 308.369L117.323 307.011Z" stroke="black" stroke-width="2" stroke-linecap="round" stroke-linejoin="round"/>
<path d="M116.545 311.797L139.502 312.345L139.463 313.981L116.502 313.435L116.545 311.797Z" fill="white"/>
<path d="M116.545 311.797L139.502 312.345L139.463 313.981L116.502 313.435L116.545 311.797Z" stroke="black" stroke-width="2" stroke-linecap="round" stroke-linejoin="round"/>
<path d="M126.558 215.688C126.558 215.688 129.034 261.351 128.841 267.536C128.648 273.721 127.42 293.131 127.42 293.131H114.832L113.179 239.59L109.643 293.131C109.643 293.131 95.6964 293.324 95.8898 293.131C96.0828 292.938 95.8877 215.688 95.8877 215.688H126.558Z" fill="#444444"/>
<path d="M109.861 290.063C107.946 289.376 105.853 290.094 103.834 290.354C101.266 290.685 98.6684 290.255 96.1147 289.827" stroke="#232323" stroke-width="1.5" stroke-linecap="round" stroke-linejoin="round"/>
<path d="M127.589 290.48C125.87 289.637 123.993 290.518 122.182 290.838C119.878 291.244 117.547 290.717 115.256 290.191" stroke="#232323" stroke-width="1.5" stroke-linecap="round" stroke-linejoin="round"/>
<path d="M109.861 313.329C105.686 313.317 101.512 313.304 97.337 313.291C97.2951 309.742 97.8919 308.702 98.5015 308.476L99.6346 306.898C99.6346 306.898 100.904 304.359 103.981 304.762C106.155 305.048 108.091 308.054 108.233 308.132C109.623 308.892 110.262 310.966 109.861 313.329Z" fill="white"/>
<path d="M109.861 313.329C105.686 313.317 101.512 313.304 97.337 313.291C97.2951 309.742 97.8919 308.702 98.5015 308.476L99.6346 306.898C99.6346 306.898 100.904 304.359 103.981 304.762C106.155 305.048 108.091 308.054 108.233 308.132C109.623 308.892 110.262 310.966 109.861 313.329Z" stroke="black" stroke-width="2" stroke-linecap="round" stroke-linejoin="round"/>
<path d="M190.876 222.988L191.231 226.899H172.438C172.438 225.524 172.513 222.492 172.513 221.117C178.634 221.741 184.755 222.364 190.876 222.988Z" fill="#F08566"/>
<path d="M190.876 222.988V225.243L172.438 226.899C172.438 225.524 172.513 222.492 172.513 221.117C178.634 221.741 184.755 222.364 190.876 222.988Z" stroke="#303030" stroke-width="1.5" stroke-linecap="round" stroke-linejoin="round"/>
<path d="M235.259 151.159C233.888 150.42 237.027 151.041 235.631 150.351C234.354 149.72 233.193 150.488 232.395 148.735C231.293 146.301 232.179 144.112 234.824 143.819C235.734 143.716 236.753 143.716 237.561 144.255C240.083 145.934 238.095 151.805 235.01 151.037" fill="#444444"/>
<path d="M242.909 192.033C243.369 195.104 243.828 198.174 244.287 201.245C246.726 202.536 249.166 203.828 251.605 205.12C251.663 200.47 251.72 195.821 251.777 191.172C248.821 191.459 245.865 191.746 242.909 192.033Z" fill="#F08566"/>
<path d="M242.909 192.033C243.369 195.104 243.828 198.174 244.287 201.245C246.726 202.536 249.166 203.828 251.605 205.12C251.663 200.47 251.72 195.821 251.777 191.172C248.821 191.459 245.865 191.746 242.909 192.033Z" stroke="#303030" stroke-width="1.5" stroke-linecap="round" stroke-linejoin="round"/>
<line x1="192.124" y1="152.633" x2="187.093" y2="153.559" stroke="black" stroke-width="2" stroke-linecap="round" stroke-linejoin="round"/>
<path d="M185.929 152.756C185.929 152.756 189.468 171.575 191.938 173.731C194.783 176.214 204.266 176.2 204.266 176.2L205.469 165.831L198.994 165.328L192.926 151.469" fill="#F08566"/>
<path d="M185.929 152.756C185.929 152.756 189.468 171.575 191.938 173.731C194.783 176.214 204.266 176.2 204.266 176.2L205.469 165.831L198.994 165.328L192.926 151.469" stroke="#303030" stroke-width="1.5" stroke-linecap="round" stroke-linejoin="round"/>
<path d="M189.523 193.099C189.007 193.099 177.797 194.13 175.348 192.069C172.9 190.007 171.998 175.281 171.998 175.281H163.493C163.493 175.281 162.463 193.228 164.395 197.48C166.328 201.733 170.57 205.985 170.57 205.985C170.57 210.258 170.569 214.531 170.569 218.805C170.921 219.425 171.527 220.325 172.513 221.124C175.082 223.206 177.527 222.414 183.645 222.739C190.09 223.08 192.968 224.255 194.343 222.477C194.947 221.697 194.988 220.7 194.923 219.965C195.618 214.901 195.904 206.769 192.217 198.219C191.397 196.317 190.474 194.613 189.523 193.099Z" fill="#F6F6F6"/>
<path d="M189.523 193.099C189.007 193.099 177.797 194.13 175.348 192.069C172.9 190.007 171.998 175.281 171.998 175.281H163.493C163.493 175.281 162.463 193.228 164.395 197.48C166.328 201.733 170.57 205.985 170.57 205.985C170.57 210.258 170.569 214.531 170.569 218.805C170.921 219.425 171.527 220.325 172.513 221.124C175.082 223.206 177.527 222.414 183.645 222.739C190.09 223.08 192.968 224.255 194.343 222.477C194.947 221.697 194.988 220.7 194.923 219.965C195.618 214.901 195.904 206.769 192.217 198.219C191.397 196.317 190.474 194.613 189.523 193.099Z" stroke="black" stroke-width="2" stroke-linecap="round" stroke-linejoin="round"/>
<path d="M229.293 147.61C229.293 147.61 233.697 146.58 236.275 149.93C238.851 153.281 241.429 162.687 244.779 167.326C248.129 171.965 250.062 175.83 248.516 177.119C246.969 178.408 217.333 173.64 217.333 173.64C217.333 173.64 217.848 163.847 219.909 159.208C221.971 154.569 223.26 151.09 224.419 149.543C225.579 147.997 229.293 147.61 229.293 147.61Z" fill="#444444"/>
<path d="M239.171 167.295C241.657 168.369 244.924 169.964 246.865 171.709C247.996 172.727 249.451 174.324 253.307 184.853C255.353 190.436 254.852 191.542 254.852 191.542C251.214 193.761 242.67 194.902 240.172 191.646C240.172 191.646 238.164 197.056 237.973 203.232C237.869 206.581 228.953 205.441 227.02 204.374C224.422 202.973 216.014 204.096 209.886 203.043C205.591 195.301 213.626 190.186 212.275 181.174C207.436 178.784 202.196 182.255 199.38 178.668C196.501 174.998 200.347 169.39 200.83 164.751C204.065 163.858 211.606 165.788 212.718 165.92C220.929 166.894 228.335 163.179 239.171 167.295Z" fill="#9BF0B8"/>
<path d="M234.456 167.107C234.426 165.023 234.395 162.939 234.365 160.856C236.707 160.727 236.671 155.277 233.35 157.747C235.425 150.655 228.362 147.083 224.958 152.738C223.667 155.284 224.311 164.894 228.524 163.94C228.278 164.954 228.138 166.032 227.892 167.046C229.94 167.154 232.407 166.999 234.456 167.107Z" fill="#F08566"/>
<path d="M234.456 167.107C234.426 165.023 234.395 162.939 234.365 160.856C236.707 160.727 236.671 155.277 233.35 157.747C235.425 150.655 228.362 147.083 224.958 152.738C223.667 155.284 224.311 164.894 228.524 163.94C228.278 164.954 228.138 166.032 227.892 167.046C229.94 167.154 232.407 166.999 234.456 167.107Z" stroke="#303030" stroke-width="1.5" stroke-linecap="round" stroke-linejoin="round"/>
<path d="M235.32 166.096C235.325 166.404 235.277 166.771 235.062 167.095C233.663 169.209 229.857 170.259 227.197 168.044C226.473 167.441 227.007 165.495 228.228 165.086" fill="#F08566"/>
<path d="M235.32 166.096C235.325 166.404 235.277 166.771 235.062 167.095C233.663 169.209 229.857 170.259 227.197 168.044C226.473 167.441 227.007 165.495 228.228 165.086" stroke="#303030" stroke-width="1.5" stroke-linecap="round" stroke-linejoin="round"/>
<path d="M201.556 302.62C201.546 303.674 201.556 304.728 201.595 305.782C201.821 311.982 202.495 312.839 202.495 312.839L188.1 315.057L194.872 309.021L190.921 280.827L190.758 272.346L187.43 255L199.182 267.967C199.254 268.287 199.321 268.608 199.389 268.929C200.508 274.279 201.325 279.719 201.769 285.166C201.814 285.715 201.849 286.264 201.875 286.814C202.035 290.149 201.882 293.488 201.739 296.82C201.616 299.679 202.198 303.268 200.625 305.792" fill="#F08566"/>
<path d="M201.556 302.62C201.546 303.674 201.556 304.728 201.595 305.782C201.821 311.982 202.495 312.839 202.495 312.839L188.1 315.057L194.872 309.021L190.921 280.827L190.758 272.346L187.43 255L199.182 267.967C199.254 268.287 199.321 268.608 199.389 268.929C200.508 274.279 201.325 279.719 201.769 285.166C201.814 285.715 201.849 286.264 201.875 286.814C202.035 290.149 201.882 293.488 201.739 296.82C201.616 299.679 202.198 303.268 200.625 305.792" stroke="#303030" stroke-width="1.5" stroke-linecap="round" stroke-linejoin="round"/>
<path d="M181.684 288.341C180.121 298.109 178.272 302.909 177.094 309.018C177.059 311.716 176.979 312.73 176.979 312.73L162.187 314.467L170.745 309.441L172.338 280.044L174.087 271.73L174.746 254.078L183.281 269.357C183.281 269.357 183.247 278.558 181.684 288.341Z" fill="#F08566"/>
<path d="M181.684 288.341C180.121 298.109 178.272 302.909 177.094 309.018C177.059 311.716 176.979 312.73 176.979 312.73L162.187 314.467L170.745 309.441L172.338 280.044L174.087 271.73L174.746 254.078L183.281 269.357C183.281 269.357 183.247 278.558 181.684 288.341Z" stroke="#303030" stroke-width="1.5" stroke-linecap="round" stroke-linejoin="round"/>
<path d="M194.138 177.298C194.131 178.706 195.282 179.776 196.825 180.015C203.037 183.431 201.379 167.719 204.125 164.515C204.849 163.671 201.675 162.726 200.067 162.695C198.435 162.664 196.092 174.612 194.138 177.298Z" fill="#9BF0B8"/>
<path d="M196.99 179.991C197.168 178.352 198.391 178.21 198.77 176.57L196.99 179.991Z" fill="white"/>
<path d="M196.99 179.991C197.168 178.352 198.391 178.21 198.77 176.57" stroke="black" stroke-width="2" stroke-linecap="round" stroke-linejoin="round"/>
<path d="M227.431 156.094C227.496 156.655 227.371 156.977 227.238 157.169C227.161 157.279 227.05 157.393 227.02 157.592C226.991 157.787 227.054 157.988 227.153 158.123C227.355 158.397 227.783 158.5 228.204 158.353" stroke="#070707" stroke-width="1.5" stroke-linecap="round" stroke-linejoin="round"/>
<path d="M230.338 159.125C230.268 159.295 230.097 159.639 229.726 159.898C229.041 160.376 228.259 160.157 228.147 160.124" stroke="#070707" stroke-width="1.5" stroke-linecap="round" stroke-linejoin="round"/>
<path d="M234.838 154.675C234.113 154.985 233.255 154.857 232.56 154.485C231.865 154.113 231.312 153.523 230.832 152.898C230.624 152.628 230.372 152.32 230.03 152.327C229.802 152.332 229.606 152.481 229.394 152.565C228.691 152.845 227.895 152.396 227.148 152.517C226.698 152.589 226.307 152.862 225.879 153.019C225.452 153.177 224.898 153.184 224.616 152.825C224.379 152.524 224.432 152.089 224.545 151.722C225.242 149.46 227.801 148.083 230.153 148.344C230.666 148.401 231.176 148.525 231.636 148.761C232.417 149.164 232.998 149.86 233.557 150.538C234.177 151.29 234.804 152.054 235.194 152.946" fill="#444444"/>
<path d="M231.206 155.437C230.991 155.213 230.623 154.887 230.086 154.635C229.601 154.408 229.161 154.327 228.865 154.297" stroke="#070707" stroke-width="1.5" stroke-linecap="round" stroke-linejoin="round"/>
<path d="M227.325 154.5C227.134 154.306 226.795 154.011 226.294 153.803C225.898 153.638 225.542 153.586 225.296 153.57" stroke="#070707" stroke-width="1.5" stroke-linecap="round" stroke-linejoin="round"/>
<path d="M230.433 155.905C229.877 155.653 229.321 155.4 228.765 155.148" stroke="#070707" stroke-width="1.5" stroke-linecap="round" stroke-linejoin="round"/>
<path d="M228.822 156.173C229.02 156.173 229.199 156.036 229.243 155.834L229.296 155.591C229.347 155.357 229.2 155.125 228.967 155.075C228.738 155.016 228.502 155.169 228.451 155.403L228.398 155.646C228.347 155.881 228.494 156.112 228.727 156.162C228.759 156.17 228.79 156.173 228.822 156.173Z" fill="#0C0C0C"/>
<path d="M226.798 155.02C226.238 154.777 225.678 154.533 225.118 154.289" stroke="#070707" stroke-width="1.5" stroke-linecap="round" stroke-linejoin="round"/>
<path d="M225.206 155.392C225.404 155.392 225.583 155.255 225.628 155.053L225.68 154.81C225.731 154.576 225.584 154.344 225.35 154.294C225.122 154.234 224.886 154.388 224.835 154.622L224.782 154.865C224.731 155.099 224.878 155.331 225.112 155.381C225.143 155.389 225.174 155.392 225.206 155.392Z" fill="#0C0C0C"/>
<path d="M229.496 177.525C229.681 177.407 228.474 183.641 229.681 184.887C231.476 186.742 233.943 186.737 235.431 186.093C237.725 185.101 238.342 178.647 238.342 178.647C235.393 178.273 232.445 177.899 229.496 177.525Z" fill="#9BF0B8"/>
<path d="M229.496 177.525C229.681 177.407 228.474 183.641 229.681 184.887C231.476 186.742 233.943 186.737 235.431 186.093C237.725 185.101 238.342 178.647 238.342 178.647C235.393 178.273 232.445 177.899 229.496 177.525Z" stroke="black" stroke-width="2" stroke-linejoin="round"/>
<path d="M224.031 273.227C225.424 274.583 224.663 276.939 224.232 283.847C224.056 286.663 224.012 289.003 224.006 290.621L218.977 290.418C218.253 284.719 217.529 279.021 216.806 273.322C221.708 271.599 223.401 272.614 224.031 273.227Z" fill="#F08566"/>
<path d="M224.031 273.227C225.424 274.583 224.663 276.939 224.232 283.847C224.056 286.663 224.012 289.003 224.006 290.621L218.977 290.418C218.253 284.719 217.529 279.021 216.806 273.322C221.708 271.599 223.401 272.614 224.031 273.227Z" stroke="#303030" stroke-width="1.5" stroke-linecap="round" stroke-linejoin="round"/>
<path d="M240.943 269.691C241.467 270.845 244.394 290.416 244.394 290.416L238.257 292.447L233.65 274.647C233.65 274.647 240.419 268.541 240.943 269.691Z" fill="#F08566"/>
<path d="M240.943 269.691C241.467 270.845 244.394 290.416 244.394 290.416L238.257 292.447L233.65 274.647C233.65 274.647 240.419 268.541 240.943 269.691Z" stroke="#303030" stroke-width="1.5" stroke-linecap="round" stroke-linejoin="round"/>
<path d="M225.028 287.94L225.417 293.766L221.247 294.031L220.416 293.635L218.754 294.189L210.184 294.733C210.184 294.733 207.447 293.773 207.988 292.882C208.527 291.988 212.339 291.162 212.339 291.162L218.069 287.82L220.179 289.643L225.028 287.94Z" fill="#444444"/>
<path d="M209.818 292.904L214.261 293L225.293 291.898" stroke="#F5F3EC" stroke-width="1.5" stroke-linecap="round" stroke-linejoin="round"/>
<path d="M244.074 287.016L245.575 292.447L234.213 295.074L227.444 294.831C226.87 292.387 231.36 292.276 231.36 292.276L236.57 288.171L238.913 289.683L244.074 287.016Z" fill="#444444"/>
<path d="M227.444 294.04L233.517 293.835L245.576 290.898" stroke="#F5F3EC" stroke-width="1.5" stroke-linecap="round" stroke-linejoin="round"/>
<path d="M208.797 244.764C209.243 250.139 212.707 273.062 213.271 276.243C215.692 277.34 218.513 276.306 221.227 276.502C224.376 276.74 226.895 276.588 226.895 276.588C223.105 224.907 223.54 224.853 223.54 224.853C224.137 224.853 226.656 243.386 230.499 274.721C230.499 274.721 237.719 277.392 245.58 274.721L241.14 250.954C241.14 250.954 241.324 238.772 241.031 225.439C240.977 222.681 240.922 221.324 240.879 220.521C240.846 220.043 240.825 219.761 240.803 219.479C240.141 212.921 238.317 207.753 236.872 204.408C236.872 204.408 211.673 202.758 209.881 203.04C208.101 203.312 207.894 214.658 207.569 226.623C207.373 233.864 208.548 241.811 208.797 244.764Z" fill="#444444"/>
<path d="M219.229 237.524C220.054 232.986 220.815 227.775 221.64 223.247C221.607 223.008 222.91 223.996 223.54 224.854C223.54 224.854 223.196 224.899 225.789 261.3L219.851 248.64C219.649 244.923 219.442 241.218 219.229 237.524Z" fill="#444444"/>
<path d="M246.83 200.795C246.268 200.914 245.366 201.119 244.276 201.435C238.794 203.026 237.78 204.76 234.116 204.985C232.31 205.096 232.077 204.64 230.085 204.962C228.017 205.297 225.772 206.614 224.884 207.7C224.522 208.143 225.194 208.506 226.262 208.229C226.818 208.083 228.146 207.242 228.146 207.242L229.743 207.618C229.743 207.618 225.002 210.884 224.907 211.62C224.816 212.355 225.296 212.195 226.21 212.239C225.79 212.979 225.792 213.267 225.929 213.507C226.16 213.912 226.464 213.53 226.923 213.46C226.958 213.763 226.374 214.388 227.344 214.385C228.312 214.388 229.662 213.838 230.798 213.464C231.189 213.335 231.576 213.212 231.968 213.106C239.676 211.025 244.438 209.877 244.438 209.877C248.063 209.259 250.932 209.216 252.014 207.433C252.41 206.782 251.621 197.276 251.591 196.852" fill="#F08566"/>
<path d="M246.83 200.795C246.268 200.914 245.366 201.119 244.276 201.435C238.794 203.026 237.78 204.76 234.116 204.985C232.31 205.096 232.077 204.64 230.085 204.962C228.017 205.297 225.772 206.614 224.884 207.7C224.522 208.143 225.194 208.506 226.262 208.229C226.818 208.083 228.146 207.242 228.146 207.242L229.743 207.618C229.743 207.618 225.002 210.884 224.907 211.62C224.816 212.355 225.296 212.195 226.21 212.239C225.79 212.979 225.792 213.267 225.929 213.507C226.16 213.912 226.464 213.53 226.923 213.46C226.958 213.763 226.374 214.388 227.344 214.385C228.312 214.388 229.662 213.838 230.798 213.464C231.189 213.335 231.576 213.212 231.968 213.106C239.676 211.025 244.438 209.877 244.438 209.877C248.063 209.259 250.932 209.216 252.014 207.433C252.41 206.782 251.621 197.276 251.591 196.852" stroke="#303030" stroke-width="1.5" stroke-linecap="round" stroke-linejoin="round"/>
<path d="M226.388 212.045C227.174 211.42 228.784 210.281 229.786 209.883L226.388 212.045Z" fill="white"/>
<path d="M226.388 212.045C227.174 211.42 228.784 210.281 229.786 209.883" stroke="black" stroke-width="2" stroke-linecap="round" stroke-linejoin="round"/>
<path d="M227.04 213.333C227.025 213.366 228.061 212.573 228.245 212.462C229.023 211.991 229.88 211.619 230.637 211.141" fill="white"/>
<path d="M227.04 213.333C227.025 213.366 228.061 212.573 228.245 212.462C229.023 211.991 229.88 211.619 230.637 211.141" stroke="black" stroke-width="2" stroke-linecap="round" stroke-linejoin="round"/>
<path d="M237.798 290.998C237.882 291.364 237.829 291.787 237.558 292.047C237.443 292.159 237.285 292.235 237.124 292.223C236.937 292.21 236.775 292.081 236.665 291.929C236.448 291.631 236.388 291.25 236.335 290.886C236.194 289.924 236.067 288.881 236.539 288.031C236.265 288.471 236.028 288.934 235.835 289.414C235.622 289.94 235.455 290.496 235.113 290.948C234.771 291.401 234.194 291.734 233.644 291.594C233.475 291.551 233.307 291.454 233.239 291.293C233.206 291.216 233.198 291.13 233.199 291.046C233.203 290.576 233.436 290.139 233.711 289.759C234.15 289.151 235.342 287.724 236.218 288.116C236.623 288.297 236.819 288.838 236.99 289.209C237.254 289.782 237.657 290.38 237.798 290.998Z" stroke="white" stroke-width="1.5" stroke-linecap="round" stroke-linejoin="round"/>
<path d="M219.685 290.064C219.793 290.423 219.769 290.85 219.516 291.127C219.408 291.246 219.256 291.333 219.095 291.332C218.907 291.331 218.737 291.212 218.617 291.068C218.381 290.785 218.296 290.41 218.218 290.05C218.014 289.099 217.817 288.067 218.232 287.188C217.987 287.644 217.782 288.122 217.621 288.615C217.444 289.154 217.314 289.719 217.003 290.194C216.692 290.668 216.138 291.039 215.581 290.936C215.409 290.904 215.235 290.818 215.156 290.662C215.118 290.587 215.105 290.502 215.1 290.418C215.072 289.949 215.276 289.497 215.526 289.099C215.923 288.464 217.017 286.961 217.917 287.294C218.333 287.447 218.565 287.974 218.76 288.332C219.062 288.887 219.503 289.457 219.685 290.064Z" stroke="white" stroke-width="1.5" stroke-linecap="round" stroke-linejoin="round"/>
<path d="M221.792 47.0723C222.524 22.4714 202.11 1.64151 177.452 1.71897C153.836 1.79304 133.422 21.293 133.422 45.7482C133.422 69.9872 153.514 89.6852 177.452 89.7771C201.188 89.8689 221.09 70.6556 221.792 47.0723Z" fill="#F6F6F6"/>
<path d="M221.792 47.0723C222.524 22.4714 202.11 1.64151 177.452 1.71897C153.836 1.79304 133.422 21.293 133.422 45.7482C133.422 69.9872 153.514 89.6852 177.452 89.7771C201.188 89.8689 221.09 70.6556 221.792 47.0723Z" stroke="black" stroke-width="2" stroke-linecap="round" stroke-linejoin="round"/>
<path d="M204.552 80.5505C188.704 92.6274 162.722 92.0344 146.923 76.9966C137.798 68.311 132.055 54.7932 133.85 40.5664C135.661 26.2055 144.383 17.2341 147.21 14.5472C143.049 22.6589 141.187 26.8887 141.678 27.1321C141.955 27.2696 142.613 26.6927 143.793 25.0411C142.347 35.1587 147.531 35.1172 153.702 40.7573C161.743 39.2369 149.958 49.7308 155.367 52.7259C157.913 57.6245 163.781 61.8966 163.461 67.7133C163.178 71.6824 168.529 90.2731 169.429 82.743C169.316 79.9977 168.762 77.3141 171.368 75.403C172.27 74.3761 170.543 72.7723 172.606 72.7342C176.21 70.7 175.835 65.8581 179.599 64.3787C183.869 52.6404 189.573 46.4788 172.456 47.2449C175.372 41.3884 167.256 37.3775 162.355 37.6264C159.656 35.5028 153.129 43.0926 153 37.2395C152.435 32.6846 150.029 35.9121 151.564 30.2423C147.293 34.6516 145.76 31.5659 148.444 27.0927C155.288 18.8392 155.787 31.4965 155.993 25.4419C157.292 20.8604 162.433 17.7133 164.827 14.9413C166.167 15.5918 169.884 14.2598 167.114 12.8338C165.807 9.20628 174.462 15.4852 171.072 10.4456C165.408 3.13987 166.371 7.97539 161.203 11.0945C161.692 8.55739 158.085 7.1428 163.025 6.76058C165.668 4.60441 166.633 5.55848 169.557 5.50133C169.385 0.953222 173.331 2.43215 174.318 6.48757C179.775 0.251006 189.926 2.5384 193.936 8.58829C192.785 10.4321 190.751 4.97054 189.89 7.87931C191.282 10.0422 194.312 10.6111 194.81 13.2189C191.237 16.2191 196.247 20.3181 199.616 13.7823C201.215 12.9662 204.292 18.2339 203.171 14.6318C205.332 14.6047 205.556 18.5251 207.397 17.1495C211.346 15.0708 213.842 24.5361 204.16 19.2223C200.855 14.3995 195.655 21.1397 194.132 23.9168C194.133 30.3769 193.813 36.1352 199.517 40.7065C202.586 43.3914 212.466 36.3189 209.921 43.6902C214.031 52.1905 208.052 61.9347 209.084 70.5154C214.241 71.3975 216.676 61.3328 217.391 63.2858C215.53 67.8881 211.827 75.0068 204.552 80.5505Z" fill="#00887F"/>
<path d="M213.227 176.438C213.036 177.161 212.844 177.886 212.653 178.609C212.443 179.403 212.231 180.213 212.282 181.033" stroke="#232323" stroke-width="1.5" stroke-linecap="round" stroke-linejoin="round"/>
<path d="M184.111 225.243C186.816 225.243 187.933 224.359 190.639 224.359C198.13 235.29 203.833 247.938 203.44 260.587C203.439 260.634 203.441 260.558 203.439 260.615C203.077 272.219 204.682 284.954 208.839 298.947C205.119 299.29 201.299 299.573 197.383 299.787C187.533 300.326 178.189 300.362 169.42 300.045C169.157 289.3 174.555 283.195 172.015 270.073C166.198 240.019 172.513 225.243 172.513 225.243H184.111Z" fill="#65EAC9"/>
<path d="M186.212 223C188.095 231.407 194.665 238.243 197.278 246.473C202.475 262.843 193.559 274.437 199.966 292.301C201.61 296.883 203.595 300.403 204.934 302.559" stroke="#232323" stroke-width="1.5" stroke-linecap="round" stroke-linejoin="round"/>
<path d="M183.178 223.008C182.93 227.98 182.683 232.995 183.503 237.911C185.72 251.203 188.768 253.216 191.091 267.106C193.413 280.988 191.605 290.384 190.931 293.461C190.005 297.686 188.786 301.108 187.829 303.472" stroke="#232323" stroke-width="1.5" stroke-linecap="round" stroke-linejoin="round"/>
<path d="M176.485 223.008C177.434 236.847 170.874 250.691 176.66 264.167C178.833 268.765 179.288 272.526 179.323 275.047C179.427 282.661 175.645 286.352 175.187 295.479C175.009 299.023 175.399 301.938 175.744 303.81" stroke="#232323" stroke-width="1.5" stroke-linecap="round" stroke-linejoin="round"/>
<path d="M187.091 177.649C186.953 177.612 185.315 179.753 183.004 178.878C182.743 178.78 181.732 182.527 181.758 182.796L180.866 184.024C180.701 184.25 180.727 184.563 180.927 184.759L181.522 185.342C181.465 186.382 181.388 187.22 181.328 187.796C181.242 188.622 181.189 188.916 181.328 189.253C181.662 190.065 182.744 190.262 183.261 190.32C183.111 191.719 182.96 193.118 182.81 194.516L185.58 194.871L187.091 177.649Z" fill="#F08566"/>
<path d="M187.091 177.649C186.953 177.612 185.315 179.753 183.004 178.878C182.743 178.78 181.732 182.527 181.758 182.796L180.866 184.024C180.701 184.25 180.727 184.563 180.927 184.759L181.522 185.342C181.465 186.382 181.388 187.22 181.328 187.796C181.242 188.622 181.189 188.916 181.328 189.253C181.662 190.065 182.744 190.262 183.261 190.32C183.111 191.719 182.96 193.118 182.81 194.516L185.58 194.871L187.091 177.649Z" stroke="#303030" stroke-width="1.5" stroke-linecap="round" stroke-linejoin="round"/>
<path d="M185.84 190.692C186.136 189.65 186.434 188.589 186.406 187.507C186.379 186.425 185.973 185.298 185.102 184.655C184.449 184.171 184.216 184.219 183.943 183.752C183.38 182.786 184.425 181.936 184.094 180.752C183.728 179.444 182.205 179.603 181.88 178.409C181.562 177.236 182.648 175.673 183.932 175.036C184.935 174.539 185.86 174.693 187.663 175.036C188.817 175.256 190.144 175.509 191.653 176.434C193.129 177.34 194.066 178.454 194.608 179.226" fill="#444444"/>
<path d="M125.101 178.544C124.066 177.63 122.275 176.313 119.769 175.703C115.186 174.586 111.307 176.581 108.83 177.855C105.085 179.782 102.612 182.413 101.115 184.379L99.7988 216.411C106.75 219.022 110.203 219.282 112.073 218.95C112.417 218.89 113.945 218.589 116.09 218.377C118.449 218.143 118.368 218.33 119.649 218.147C123.344 217.618 126.558 215.692 126.558 215.692C126.072 203.309 125.587 190.927 125.101 178.544Z" fill="#D2F6A4"/>
<path d="M125.101 178.544C124.066 177.63 122.275 176.313 119.769 175.703C115.186 174.586 111.307 176.581 108.83 177.855C105.085 179.782 102.612 182.413 101.115 184.379L99.7988 216.411C106.75 219.022 110.203 219.282 112.073 218.95C112.417 218.89 113.945 218.589 116.09 218.377C118.449 218.143 118.368 218.33 119.649 218.147C123.344 217.618 126.558 215.692 126.558 215.692C126.072 203.309 125.587 190.927 125.101 178.544Z" stroke="black" stroke-width="2" stroke-linejoin="round"/>
<path d="M139.252 179.968C136.727 179.682 134.202 179.538 131.677 179.538H131.676C129.444 179.341 128.902 178.777 126.08 178.161C124.1 177.728 122.41 177.577 121.21 177.523C121.841 178.897 122.565 180.643 123.239 182.709C123.473 183.426 124.148 186.729 125.075 190.441C126.438 195.892 125.16 198.852 125.075 204.165C124.99 209.557 125.709 210.395 126.665 219.185C127.147 223.621 127.212 230.171 127.302 238.245C131.096 238.245 135.369 238.183 139.163 238.183C139.699 235.838 140.181 232.378 139.507 228.358C139.181 226.407 138.763 225.404 138.13 223.422C136.586 218.583 137.22 218.746 134.801 207.58C133.974 203.762 133.299 200.974 132.918 196.642C132.819 195.507 132.765 194.565 132.735 193.92C134.241 194.243 136.519 194.577 139.278 194.38C141.427 194.226 143.629 194.088 145.476 192.888C148.21 191.11 149.08 187.922 149.698 185.192C150.664 180.93 151.91 173.846 152.136 163.96C149.107 163.703 146.079 163.446 143.051 163.188C142.514 166.356 141.85 169.681 141.031 173.138C140.471 175.507 139.874 177.785 139.252 179.968Z" fill="white"/>
<path d="M109.613 176.422C109.334 187.372 109.017 195.901 108.84 200.776C108.784 202.334 106.424 229.924 106.108 238.321C104.659 238.044 103.199 237.756 101.727 237.455C99.3583 236.972 98.566 236.769 97.2809 236.517C95.7905 236.225 93.5992 235.852 90.8365 235.59C90.3193 232.632 90.5846 230.435 90.9512 228.932C91.2246 227.812 91.78 226.155 92.3133 223.339C92.3133 223.339 92.4365 222.523 92.6041 221.651C93.5273 216.853 94.9275 204.553 96.8568 184.733C96.8568 184.733 96.2904 182.027 101.116 179.708C105.941 177.388 109.613 176.422 109.613 176.422Z" fill="white"/>
<path d="M125.593 177.492C126.721 178.912 125.678 179.862 126.883 182.17C127.769 183.869 128.675 184.008 129.228 185.071C129.916 186.394 129.894 188.832 126.258 193.736C126.05 193.043 125.681 191.851 125.175 190.385C124.615 188.766 124.178 187.546 123.751 186.412C122.262 182.449 122.211 182.194 121.888 181.679C121.079 180.395 120.609 180.198 119.892 178.82C119.281 177.645 118.992 176.578 118.844 175.864C119.071 175.808 119.387 175.742 119.769 175.699C121.449 175.51 124.245 175.795 125.593 177.492Z" fill="#444444"/>
<path d="M105.673 190.003C104.307 188.182 103.816 187.558 103.814 186.53C103.813 185.853 104.025 185.659 104.357 184.648C105.431 181.376 104.34 179.961 105.673 178.116C106.177 177.418 106.835 176.926 107.122 176.715C108.011 176.06 108.867 175.728 109.442 175.555C109.646 179.281 109.679 182.313 109.674 184.349C109.658 190.311 109.288 196.465 109.203 196.462C109.193 196.462 109.188 196.372 109.186 196.335C109.058 194.55 106.65 191.306 105.673 190.003Z" fill="#444444"/>
<path d="M183.929 193.471C183.908 193.434 183.886 193.394 183.848 193.374C183.808 193.353 183.76 193.359 183.715 193.365L181.291 193.704C182.041 194.808 183.13 195.677 184.372 196.164C184.417 196.181 184.466 196.199 184.513 196.187C184.572 196.172 184.609 196.115 184.64 196.063C184.886 195.654 185.351 195.11 185.437 194.648C184.826 194.359 184.279 194.094 183.929 193.471Z" fill="#444444"/>
<path d="M186.881 177.184C187.343 176.977 189.834 175.913 192.487 176.991C192.487 176.991 194.803 177.931 196.254 180.463C196.283 180.513 196.308 180.558 196.308 180.558C196.473 180.864 196.831 181.636 196.995 183.111C197.509 187.722 195.885 189.71 196.995 191.23C197.18 191.483 197.536 191.877 198.221 192.196C200.284 193.099 201.172 194.237 201.603 195.095C203.105 198.084 201.603 202.73 201.603 202.73C201.603 202.73 202.801 203.309 203.604 204.736C203.604 204.736 204.376 206.084 204.309 207.755C204.171 211.231 200.428 213.282 200.218 213.393C198.413 213.926 195.777 214.535 192.551 214.681C188.235 214.877 185.802 215.066 184.014 213.457C183.545 213.036 182.679 211.295 180.947 207.814C179.883 205.675 179.71 205.197 179.57 204.715C178.995 202.742 179.147 201.13 179.34 199.09C179.478 197.636 179.782 195.626 180.507 193.285C181.381 191.087 182.255 188.89 183.128 186.692C183.007 185.672 182.868 183.313 184.094 180.757C184.954 178.963 186.134 177.808 186.881 177.184Z" fill="#444444"/>
<path d="M241.009 192.618C239.74 190.924 239.77 188.417 239.567 187.139C239.364 185.86 239.297 184.487 239.889 183.336" stroke="#232323" stroke-width="1.5" stroke-linecap="round" stroke-linejoin="round"/>
<path d="M124.898 188.172C133.168 220.927 131.676 217.253 131.076 230.158C131.909 232.044 132.689 236.127 132.447 237.841" stroke="#232323" stroke-width="1.5" stroke-linecap="round" stroke-linejoin="round"/>
<path d="M220.834 209.695C221.061 212.601 220.952 218.335 221.188 221.24C221.235 221.822 221.305 222.422 221.541 222.918C221.959 223.796 222.784 224.137 223.54 224.413" stroke="#232323" stroke-width="1.5" stroke-linecap="round" stroke-linejoin="round"/>
<path d="M239.408 216.04C236.649 216.604 233.61 215.397 231.99 213.094" stroke="#232323" stroke-width="1.5" stroke-linecap="round" stroke-linejoin="round"/>
<path d="M126.911 206.164C126.659 205.827 127.014 205.298 127.427 205.922C127.703 206.338 127.406 206.836 126.911 206.164Z" stroke="#232323" stroke-width="1.5" stroke-linecap="round" stroke-linejoin="round"/>
<path d="M128.411 213.992C128.158 213.655 128.513 213.127 128.927 213.751C129.203 214.167 128.906 214.664 128.411 213.992Z" stroke="#232323" stroke-width="1.5" stroke-linecap="round" stroke-linejoin="round"/>
<path d="M129.526 221.869C129.267 221.538 129.612 221.002 130.037 221.618C130.321 222.029 130.034 222.532 129.526 221.869Z" stroke="#232323" stroke-width="1.5" stroke-linecap="round" stroke-linejoin="round"/>
<path d="M106.641 200.812C106.174 203.072 104.926 216.532 104.856 216.878" stroke="#232323" stroke-width="1.5" stroke-linecap="round" stroke-linejoin="round"/>
<path d="M104.575 225.836C104.709 228.11 104.642 230.397 104.376 232.66C104.156 234.529 103.8 236.409 104.001 238.281C104.073 238.38 104.17 238.122 104.051 238.148" stroke="#232323" stroke-width="1.5" stroke-linecap="round" stroke-linejoin="round"/>
<path d="M115.597 181.34L109.761 177.158L112.074 167.078L119.234 169.785C118.995 172.087 118.755 174.389 118.516 176.69C117.543 178.24 116.57 179.79 115.597 181.34Z" fill="#F08566"/>
<path d="M115.597 181.34L109.761 177.158L112.074 167.078L119.234 169.785C118.995 172.087 118.755 174.389 118.516 176.69C117.543 178.24 116.57 179.79 115.597 181.34Z" stroke="#303030" stroke-width="1.5" stroke-linecap="round" stroke-linejoin="round"/>
<path d="M116.202 159.214C114.831 158.889 110.066 163.011 110.066 163.011C110.066 163.011 99.8454 163.39 99.5262 167.872C99.2934 171.15 101.176 174.489 104.262 175.514C104.895 175.724 107.409 176.518 109.164 175.243C111.5 173.543 111.685 168.773 111.685 168.773C116.652 165.977 119.578 162.889 118.944 160.983C118.61 159.98 117.263 159.465 116.202 159.214Z" fill="#F6F6F6"/>
<path d="M116.202 159.214C114.831 158.889 110.066 163.011 110.066 163.011C110.066 163.011 99.8454 163.39 99.5262 167.872C99.2934 171.15 101.176 174.489 104.262 175.514C104.895 175.724 107.409 176.518 109.164 175.243C111.5 173.543 111.685 168.773 111.685 168.773C116.652 165.977 119.578 162.889 118.944 160.983C118.61 159.98 117.263 159.465 116.202 159.214Z" stroke="black" stroke-width="2" stroke-linecap="round" stroke-linejoin="round"/>
<path d="M112.164 169.727C107.785 162.284 116.193 155.763 121.283 160.446C121.309 161.721 125.953 172.658 121.065 174.55C119.865 175.015 115.604 173.307 114.285 172.211" fill="#F08566"/>
<path d="M112.164 169.727C107.785 162.284 116.193 155.763 121.283 160.446C121.309 161.721 125.953 172.658 121.065 174.55C119.865 175.015 115.604 173.307 114.285 172.211" stroke="#303030" stroke-width="1.5" stroke-linecap="round" stroke-linejoin="round"/>
<path d="M111.548 170.107C111.548 170.107 103.095 168.582 108.753 160.844C113.054 154.45 120.146 157.441 120.146 157.441C120.146 157.441 122.531 157.572 122.81 159.015C122.992 159.96 121.86 161.802 121.86 161.802L118.815 159.472C118.815 159.472 118.433 162.404 116.396 163.183C114.361 163.967 112.242 165.723 112.242 165.723L111.548 170.107Z" fill="white"/>
<path d="M111.548 170.107C111.548 170.107 103.095 168.582 108.753 160.844C113.054 154.45 120.146 157.441 120.146 157.441C120.146 157.441 122.531 157.572 122.81 159.015C122.992 159.96 121.86 161.802 121.86 161.802L118.815 159.472C118.815 159.472 118.433 162.404 116.396 163.183C114.361 163.967 112.242 165.723 112.242 165.723L111.548 170.107Z" stroke="black" stroke-width="2" stroke-linecap="round" stroke-linejoin="round"/>
<path d="M113.551 166.408C112.771 165.917 111.765 165.734 111.347 166.068C110.727 166.565 111.038 168.213 112.002 168.893C112.373 169.155 112.774 169.226 113.056 169.243" fill="#F08566"/>
<path d="M113.179 165.947C112.4 165.456 111.394 165.273 110.976 165.607C110.356 166.104 110.667 167.752 111.631 168.432C112.002 168.694 112.403 168.765 112.685 168.782" stroke="#303030" stroke-width="1.5" stroke-linecap="round" stroke-linejoin="round"/>
<path d="M119.342 165.32C119.507 166.403 120.033 167.427 120.817 168.192C120.873 168.246 120.935 168.31 120.931 168.389C120.927 168.454 120.878 168.506 120.831 168.552C120.635 168.747 120.439 168.942 120.243 169.137" stroke="#0C0C0C" stroke-width="1.5" stroke-linecap="round" stroke-linejoin="round"/>
<path d="M117.169 169.625C117.779 170.203 119.403 170.599 119.901 170.548" stroke="#0C0C0C" stroke-width="1.5" stroke-linecap="round" stroke-linejoin="round"/>
<path d="M121.562 162.633C121.34 162.666 121.102 162.714 120.851 162.784C120.093 162.996 119.497 163.328 119.067 163.626" stroke="#0C0C0C" stroke-width="1.5" stroke-linecap="round" stroke-linejoin="round"/>
<path d="M116.857 164.664C115.296 164.677 114.226 166.157 114.226 166.157" stroke="#0C0C0C" stroke-width="1.5" stroke-linecap="round" stroke-linejoin="round"/>
<path d="M110.537 170.117C109.67 171.774 107.568 172.616 105.904 173.172" stroke="#232323" stroke-width="1.5" stroke-linecap="round" stroke-linejoin="round"/>
<path d="M116.462 158.562C116.719 159.289 116.468 160.118 116.007 160.736C115.546 161.354 114.899 161.803 114.264 162.24C113.501 162.764 112.738 163.288 111.976 163.813C111.416 164.198 110.832 164.61 110.536 165.222" stroke="#232323" stroke-width="1.5" stroke-linecap="round" stroke-linejoin="round"/>
<path d="M139.837 177.688C139.657 178.435 139.462 179.197 139.252 179.973C138.953 181.079 138.639 182.146 138.317 183.173" stroke="#232323" stroke-width="1.5" stroke-linecap="round" stroke-linejoin="round"/>
<path d="M114.661 237.695C115.513 244.869 115.357 255.982 115.58 263.204L116.334 287.558" stroke="#232323" stroke-width="1.5" stroke-linecap="round" stroke-linejoin="round"/>
<path d="M115.561 181.535C114.881 180.728 114.275 180.4 113.387 179.811C112.399 179.157 111.023 178.154 109.427 176.675C109.277 177.345 109.131 178.493 109.544 179.77C110.565 182.917 114.026 183.855 114.331 183.932C115.342 182.393 116.36 180.716 117.355 178.899C117.928 177.853 118.457 176.827 118.945 175.828C119.175 176.809 119.418 178.422 119.025 180.312C118.714 181.806 117.923 183.877 117.169 183.831C116.652 183.801 116.631 182.805 115.561 181.535Z" fill="#F6F6F6"/>
<path d="M115.561 181.535C114.881 180.728 114.275 180.4 113.387 179.811C112.399 179.157 111.023 178.154 109.427 176.675C109.277 177.345 109.131 178.493 109.544 179.77C110.565 182.917 114.026 183.855 114.331 183.932C115.342 182.393 116.36 180.716 117.355 178.899C117.928 177.853 118.457 176.827 118.945 175.828C119.175 176.809 119.418 178.422 119.025 180.312C118.714 181.806 117.923 183.877 117.169 183.831C116.652 183.801 116.631 182.805 115.561 181.535Z" stroke="black" stroke-width="2" stroke-linecap="round" stroke-linejoin="round"/>
<path d="M115.721 182.195C115.717 184.876 115.871 187.557 116.183 190.22" stroke="#232323" stroke-width="1.5" stroke-linecap="round" stroke-linejoin="round"/>
<path d="M171.015 198.625C171.373 201.064 171.236 203.574 170.616 205.96" stroke="#232323" stroke-width="1.5" stroke-linecap="round" stroke-linejoin="round"/>
<path d="M117.028 166.688C116.817 166.688 116.626 166.542 116.579 166.327L116.523 166.07C116.469 165.821 116.625 165.575 116.874 165.522C117.116 165.458 117.367 165.621 117.422 165.87L117.478 166.128C117.532 166.377 117.376 166.623 117.127 166.676C117.094 166.685 117.061 166.688 117.028 166.688Z" fill="#0C0C0C"/>
<path d="M115.545 166.487C116.042 166.208 116.54 165.928 117.037 165.648" stroke="#0C0C0C" stroke-width="1.5" stroke-linecap="round" stroke-linejoin="round"/>
<path d="M121.495 164.61C121.284 164.61 121.094 164.464 121.046 164.249L120.991 163.992C120.937 163.742 121.093 163.496 121.341 163.444C121.583 163.38 121.834 163.543 121.889 163.792L121.945 164.05C121.999 164.299 121.843 164.545 121.594 164.598C121.561 164.607 121.528 164.61 121.495 164.61Z" fill="#0C0C0C"/>
<line x1="120.428" y1="163.346" x2="120.612" y2="163.242" stroke="#0C0C0C" stroke-width="1.5" stroke-linecap="round" stroke-linejoin="round"/>
<path d="M188.283 184.898C190.19 187.698 190.557 191.48 189.224 194.594C188.725 195.762 187.988 196.916 188.079 198.183C188.19 199.721 189.466 200.875 190.596 201.925C191.726 202.975 192.882 204.335 192.646 205.859C192.519 206.676 191.999 207.386 191.832 208.195C191.664 209.005 192.112 210.073 192.937 210.035" stroke="#232323" stroke-width="1.5" stroke-linecap="round" stroke-linejoin="round"/>
<path d="M102.538 216.642L106.38 217.594L109.229 218.041C109.229 218.041 109.364 218.541 108.635 218.788C107.912 219.038 106.593 219.254 106.593 219.254L110.409 224.471L111.471 227.492C111.471 227.492 110.276 228.017 109.85 227.074C109.675 226.746 109.085 225.437 109.085 225.437L107.063 223.726L106.018 227.395L103.946 229.698C103.946 229.698 103.198 229.183 103.364 228.079C103.527 226.977 104.354 226.354 104.354 226.354C104.354 226.354 103.158 226.939 102.703 226.947C102.107 226.956 100.562 225.896 100.562 225.896L99.8042 223.858L101.376 223.122C101.376 223.122 98.8506 221.561 98.0553 220.974C95.2718 218.92 87.4492 212.088 87.4492 212.088L91.8669 204.922L102.538 216.642Z" fill="#F08566"/>
<path d="M102.538 216.642L106.38 217.594L109.229 218.041C109.229 218.041 109.364 218.541 108.635 218.788C107.912 219.038 106.593 219.254 106.593 219.254L110.409 224.471L111.471 227.492C111.471 227.492 110.276 228.017 109.85 227.074C109.675 226.746 109.085 225.437 109.085 225.437L107.063 223.726L106.018 227.395L103.946 229.698C103.946 229.698 103.198 229.183 103.364 228.079C103.527 226.977 104.354 226.354 104.354 226.354C104.354 226.354 103.158 226.939 102.703 226.947C102.107 226.956 100.562 225.896 100.562 225.896L99.8042 223.858L101.376 223.122C101.376 223.122 98.8506 221.561 98.0553 220.974C95.2718 218.92 87.4492 212.088 87.4492 212.088L91.8669 204.922L102.538 216.642Z" stroke="#303030" stroke-width="1.5" stroke-linecap="round" stroke-linejoin="round"/>
<path d="M103.394 223.992L102.396 225.051L100.143 224.598" stroke="black" stroke-width="1.5" stroke-linecap="round" stroke-linejoin="round"/>
<line x1="103.699" y1="225.106" x2="103.814" y2="224.738" stroke="black" stroke-width="2" stroke-linecap="round" stroke-linejoin="round"/>
<path d="M106.394 166.266C106.008 166.431 105.621 166.596 105.234 166.762C104.305 167.159 103.35 167.574 102.647 168.301C101.945 169.027 101.553 170.152 101.969 171.072" stroke="#232323" stroke-width="1.5" stroke-linecap="round" stroke-linejoin="round"/>
<line x1="119.114" y1="231.716" x2="114.421" y2="239.554" stroke="#232323" stroke-width="1.5" stroke-linecap="round" stroke-linejoin="round"/>
<path d="M101.115 179.709C91.8728 179.294 81.5215 200.115 80.2915 202.699C80.6306 205.125 80.0769 207.718 84.6348 212.349C86.3126 214.054 88.534 217.88 90.0032 218.683C91.0571 217.039 93.248 215.911 94.4061 214.219C95.2823 212.94 98.5403 212.296 99.4126 211.083C98.2664 209.635 93.9837 204.508 93.9837 204.508C94.1043 203.623 99.9256 198.516 102.247 192.927" fill="white"/>
<path d="M91.5928 200.656L99.2117 211.238C99.2117 211.238 95.8255 212.729 94.9789 213.888C94.1324 215.048 92.2111 216.428 92.2111 216.428" stroke="#232323" stroke-width="1.5" stroke-linecap="round" stroke-linejoin="round"/>
<path d="M255.965 193.6C256.121 192.683 256.027 191.454 255.491 189.683C255.026 188.147 243.702 191.346 241.184 192.446C241.184 192.446 241.411 196.054 241.968 196.28C244.954 197.498 251.557 194.835 251.557 194.835C252.052 195.148 255.355 194.83 255.965 193.6Z" fill="#9BF0B8"/>
<path d="M252.337 190.34C249.709 190.137 246.864 190.654 244.503 191.824" stroke="#232323" stroke-width="1.5" stroke-linecap="round" stroke-linejoin="round"/>
<path d="M252.997 192.648C252.927 193.851 251.069 194.64 250.11 194.875" stroke="#232323" stroke-width="1.5" stroke-linecap="round" stroke-linejoin="round"/>
<line x1="102.242" y1="194.361" x2="95.1839" y2="204.024" stroke="#232323" stroke-width="1.5" stroke-linecap="round" stroke-linejoin="round"/>
<path d="M176.829 310.734L178.172 315.954L159.899 316.004C159.899 316.004 158.919 314.034 162.349 313.554C165.096 313.157 166.526 310.784 168.139 310.735C169.751 310.702 168.971 313.076 168.971 313.076L176.829 310.734Z" fill="#444444"/>
<path d="M202.391 309.078L203.195 315.983L185.598 316.105C185.598 316.105 185.419 314.651 186.579 313.701C187.554 312.921 189.713 312.722 191.394 311.88C192.161 311.482 193.905 309.354 194.311 309.201C196.471 308.435 193.592 311.956 193.592 311.956L202.391 309.078Z" fill="#444444"/>
<path d="M161.377 154.292C162.931 143.488 164.901 134.8 166.539 128.501C169.03 118.924 171.39 112.423 173.432 100.857C175.069 91.5907 175.648 94.4927 175.884 89.5391" stroke="#3D3D3D" stroke-width="1.5" stroke-linecap="round" stroke-linejoin="round"/>
<path d="M161.61 172.947C161.157 172.736 158.714 171.553 158.453 169.445C158.349 168.606 158.623 167.878 159.026 166.805C159.557 165.396 160.237 164.338 160.749 163.648" stroke="#232323" stroke-width="1.5" stroke-linecap="round" stroke-linejoin="round"/>
<path d="M176.188 90.5469C170.525 97.1783 166.09 103.303 161.954 120.142C160.011 128.05 158.169 139.843 147.002 153.747" stroke="#3D3D3D" stroke-width="1.5" stroke-linecap="round" stroke-linejoin="round"/>
<path d="M164.594 164.337C166.048 163.611 168.361 162.271 170.563 159.975C176.079 154.22 176.881 146.649 177.221 141.493C177.995 129.745 177.888 118.11 175.885 89.5391" stroke="#3D3D3D" stroke-width="1.5" stroke-linecap="round" stroke-linejoin="round"/>
<path d="M183.706 148.27L188.814 144.711L192.488 150.852C193.556 153.234 193.829 155.889 193.636 155.731C192.777 155.028 191.603 155.136 187.676 156.639L184.912 151.14L183.706 148.27Z" fill="#F08566"/>
<path d="M194.181 154.408C193.375 152.18 192.569 149.952 191.763 147.724C191.763 147.724 191.9 141.038 191.636 140.699C191.373 140.36 186.109 137.549 185.471 137.701C184.833 137.854 183.799 144.742 183.799 144.742C183.799 144.742 183.925 144.964 184.185 145.035C184.518 145.127 184.831 144.908 184.992 144.794C185.863 144.175 185.966 141.657 185.972 141.472" fill="#F08566"/>
<path d="M194.181 154.408C193.375 152.18 192.569 149.952 191.763 147.724C191.763 147.724 191.9 141.038 191.636 140.699C191.373 140.36 186.109 137.549 185.471 137.701C184.833 137.854 183.799 144.742 183.799 144.742C183.799 144.742 183.925 144.964 184.185 145.035C184.518 145.127 184.831 144.908 184.992 144.794C185.863 144.175 185.966 141.657 185.972 141.472" stroke="#303030" stroke-width="1.5" stroke-linecap="round" stroke-linejoin="round"/>
<path d="M182.672 145.469C182.54 145.686 182.407 145.904 182.274 146.122C182.274 146.122 182.572 146.958 182.948 147.86C183.421 148.995 183.947 149.752 184.096 149.991C184.657 150.891 185.437 152.438 186.39 155.272" fill="#F08566"/>
<path d="M182.672 145.469C182.54 145.686 182.407 145.904 182.274 146.122C182.274 146.122 182.572 146.958 182.948 147.86C183.421 148.995 183.947 149.752 184.096 149.991C184.657 150.891 185.437 152.438 186.39 155.272" stroke="#303030" stroke-width="1.5" stroke-linecap="round" stroke-linejoin="round"/>
<path d="M184.458 140.188L183.19 141.659L184.342 147.608C184.342 147.608 184.779 148.18 185.105 148.07C185.223 148.03 185.294 147.912 185.344 147.783C185.627 147.047 185.755 144.526 185.775 144.113" fill="#F08566"/>
<path d="M184.458 140.188L183.19 141.659L184.342 147.608C184.342 147.608 184.779 148.18 185.105 148.07C185.223 148.03 185.294 147.912 185.344 147.783C185.627 147.047 185.755 144.526 185.775 144.113" stroke="#303030" stroke-width="1.5" stroke-linecap="round" stroke-linejoin="round"/>
<line x1="189.66" y1="140.496" x2="189.714" y2="140.495" stroke="#232323" stroke-width="1.5" stroke-linecap="round" stroke-linejoin="round"/>
<path d="M183.215 142.188C183.027 142.323 182.769 142.541 182.535 142.868C182.232 143.292 182.108 143.705 182.053 143.958C182.565 145.216 183.283 146.622 184.307 148.045C184.578 148.422 184.853 148.776 185.128 149.107C185.446 149.222 185.616 149.174 185.708 149.122C185.708 149.122 186.003 148.953 186.038 147.436" fill="#F08566"/>
<path d="M183.215 142.188C183.027 142.323 182.769 142.541 182.535 142.868C182.232 143.292 182.108 143.705 182.053 143.958C182.565 145.216 183.283 146.622 184.307 148.045C184.578 148.422 184.853 148.776 185.128 149.107C185.446 149.222 185.616 149.174 185.708 149.122C185.708 149.122 186.003 148.953 186.038 147.436" stroke="#303030" stroke-width="1.5" stroke-linecap="round" stroke-linejoin="round"/>
<path d="M185.959 143.749C186.242 142.616 186.524 141.483 186.806 140.351C186.603 139.699 186.481 139.13 186.404 138.686C186.174 137.352 186.028 136.437 186.548 135.816C186.798 135.518 187.128 135.377 187.373 135.305C187.373 135.305 188.736 138.69 188.757 138.916C188.924 140.644 188.63 141.679 189.413 142.792C189.602 143.06 189.796 143.251 189.928 143.369" fill="#F08566"/>
<path d="M185.959 143.749C186.242 142.616 186.524 141.483 186.806 140.351C186.603 139.699 186.481 139.13 186.404 138.686C186.174 137.352 186.028 136.437 186.548 135.816C186.798 135.518 187.128 135.377 187.373 135.305C187.373 135.305 188.736 138.69 188.757 138.916C188.924 140.644 188.63 141.679 189.413 142.792C189.602 143.06 189.796 143.251 189.928 143.369" stroke="#303030" stroke-width="1.5" stroke-linecap="round" stroke-linejoin="round"/>
<path d="M183.913 148.266C183.76 148.78 183.632 149.316 183.534 149.873C182.866 153.658 183.85 156.985 184.682 159.056" stroke="#232323" stroke-width="1.5" stroke-linecap="round" stroke-linejoin="round"/>
<path d="M176.813 89.5938C180.846 110.339 184.881 120.503 188.914 141.248" stroke="#3D3D3D" stroke-width="1.5" stroke-linecap="round" stroke-linejoin="round"/>
<path d="M140.43 200.614C140.43 200.614 140.766 207.616 142.225 211.175C143.684 214.733 145.928 216.455 145.928 216.455C145.928 216.455 148.51 206.238 147.837 203.254C147.163 200.27 140.43 200.614 140.43 200.614Z" fill="#444444"/>
<path d="M164.424 163.636C165.083 163.387 165.635 163.274 166.03 163.218C166.03 163.218 166.327 163.175 167.547 163.086C167.847 163.508 168.204 163.962 168.624 164.427C169.118 164.974 169.605 165.432 170.054 165.813C169.947 165.989 169.768 166.219 169.482 166.341C168.175 166.896 165.81 164.669 165.81 164.669C165.714 164.947 165.619 165.227 165.524 165.505C165.157 164.882 164.791 164.259 164.424 163.636Z" fill="#F08566"/>
<path d="M164.424 163.636C165.083 163.387 165.635 163.274 166.03 163.218C166.03 163.218 166.327 163.175 167.547 163.086C167.847 163.508 168.204 163.962 168.624 164.427C169.118 164.974 169.605 165.432 170.054 165.813C169.947 165.989 169.768 166.219 169.482 166.341C168.175 166.896 165.81 164.669 165.81 164.669C165.714 164.947 165.619 165.227 165.524 165.505C165.157 164.882 164.791 164.259 164.424 163.636Z" stroke="#303030" stroke-width="1.5" stroke-linecap="round" stroke-linejoin="round"/>
<path d="M163.55 176.954H164.396L168.525 177.15C168.525 177.15 168.064 174.247 168.624 172.532C169.185 170.817 169.086 168.969 168.79 167.65C168.493 166.331 167.635 164.615 167.569 163.592C167.504 162.57 166.81 161.317 166.81 161.317L165.491 161.482C165.309 162.017 165.132 162.786 165.194 163.131C165.269 163.554 165.755 165.11 165.722 165.209C165.689 165.307 165.666 165.949 165.666 165.949L164.369 163.857C164.344 163.137 164.319 162.417 164.294 161.697C164.997 161.559 165.7 161.421 166.403 161.284C166.772 161.129 167.002 160.927 167.135 160.786C167.216 160.702 167.59 160.283 167.52 160.087C167.428 159.83 166.498 159.784 163.273 160.484C163.273 160.484 162.233 163.894 162.258 164.054C162.258 164.054 161.532 165.407 161.302 165.704C161.071 166.001 161.334 167.056 161.334 167.056C161.334 167.056 161.236 167.749 161.302 168.277C161.368 168.805 163.907 173.06 163.907 173.06L163.808 177.117" fill="#F08566"/>
<path d="M163.55 176.954H164.396L168.525 177.15C168.525 177.15 168.064 174.247 168.624 172.532C169.185 170.817 169.086 168.969 168.79 167.65C168.493 166.331 167.635 164.615 167.569 163.592C167.504 162.57 166.81 161.317 166.81 161.317L165.491 161.482C165.309 162.017 165.132 162.786 165.194 163.131C165.269 163.554 165.755 165.11 165.722 165.209C165.689 165.307 165.666 165.949 165.666 165.949L164.369 163.857C164.344 163.137 164.319 162.417 164.294 161.697C164.997 161.559 165.7 161.421 166.403 161.284C166.772 161.129 167.002 160.927 167.135 160.786C167.216 160.702 167.59 160.283 167.52 160.087C167.428 159.83 166.498 159.784 163.273 160.484C163.273 160.484 162.233 163.894 162.258 164.054C162.258 164.054 161.532 165.407 161.302 165.704C161.071 166.001 161.334 167.056 161.334 167.056C161.334 167.056 161.236 167.749 161.302 168.277C161.368 168.805 163.907 173.06 163.907 173.06L163.808 177.117" stroke="#303030" stroke-width="1.5" stroke-linecap="round" stroke-linejoin="round"/>
<rect x="163.36" y="174.727" width="8.86766" height="4.13288" fill="white"/>
<rect x="163.36" y="174.727" width="8.86766" height="4.13288" stroke="black" stroke-width="2"/>
<path d="M162.871 171.688C162.463 172.986 161.97 175.04 162.068 177.542C162.264 182.575 164.671 184.752 163.962 188.332C163.692 189.696 162.893 191.645 160.346 193.728" stroke="#232323" stroke-width="1.5" stroke-linecap="round" stroke-linejoin="round"/>
<path d="M151.479 155.445C153.438 156.722 154.125 158.205 154.377 158.889C155.614 162.254 153.804 166.703 149.67 169.622" stroke="#232323" stroke-width="1.5" stroke-linecap="round" stroke-linejoin="round"/>
<path d="M176.671 88.9131C176.057 88.8381 175.686 88.2159 172.829 90.8648C171.655 91.953 171.185 92.3509 171.303 92.6705C171.515 93.25 173.461 93.0307 174.207 92.9308C175.857 95.007 178.517 94.8169 178.597 92.5867C178.535 92.9088 180.064 94.7809 180.779 93.5039C180.223 92.5528 179.634 88.9131 176.671 88.9131Z" fill="#F6F6F6"/>
</svg>
