<svg width="24" height="24" viewBox="0 0 24 24" fill="none" xmlns="http://www.w3.org/2000/svg">
<path fill-rule="evenodd" clip-rule="evenodd" d="M23.7926 12.2454C23.7926 11.3969 23.7166 10.5807 23.575 9.79688H12.2998V14.4278H18.7427C18.4652 15.9243 17.6216 17.1918 16.354 18.0411V21.0446H20.2229C22.4863 18.9608 23.7926 15.8919 23.7926 12.2454Z" fill="white"/>
<path fill-rule="evenodd" clip-rule="evenodd" d="M12.3 23.9471C15.5324 23.9471 18.2422 22.8752 20.2231 21.0464L16.3542 18.0429C15.2824 18.7612 13.9106 19.1859 12.3 19.1859C9.18174 19.1859 6.54305 17.0795 5.60151 14.25H1.60156V17.3521C3.57125 21.264 7.61979 23.9471 12.3 23.9471Z" fill="white"/>
<path fill-rule="evenodd" clip-rule="evenodd" d="M5.60129 14.2451C5.36186 13.5268 5.22595 12.7599 5.22595 11.9704C5.22595 11.1817 5.36186 10.4141 5.60129 9.69582V6.59375H1.60135C0.790795 8.20992 0.328125 10.0388 0.328125 11.9704C0.328125 13.9021 0.790795 15.731 1.60135 17.3471L5.60129 14.2451Z" fill="white"/>
<path fill-rule="evenodd" clip-rule="evenodd" d="M12.3 4.7612C14.0577 4.7612 15.6359 5.36542 16.8767 6.55203L20.3105 3.11827C18.2366 1.1866 15.5267 0 12.3 0C7.61979 0 3.57125 2.68306 1.60156 6.59498L5.60151 9.69705C6.54305 6.86751 9.18174 4.7612 12.3 4.7612Z" fill="white"/>
</svg>
