<svg width="25" height="25" viewBox="0 0 25 25" fill="none" xmlns="http://www.w3.org/2000/svg">
<path d="M0 12.5C0 5.59644 5.59644 0 12.5 0C19.4036 0 25 5.59644 25 12.5C25 19.4036 19.4036 25 12.5 25C5.59644 25 0 19.4036 0 12.5Z" fill="#8BC222"/>
<path d="M16.5629 19.6495H8.55616L7.16992 12.7891H17.3038L16.5629 19.6495Z" fill="#560F00"/>
<rect x="10.6118" y="16.8047" width="3.84799" height="2.13384" fill="#ECB79E"/>
<path d="M11.6873 18.4572C12.3088 18.4342 12.9063 18.2507 13.3843 17.9524C13.7667 17.723 14.0774 17.4247 14.3164 17.1035C14.3642 17.0346 14.412 16.9658 14.4598 16.897V16.8281H10.6118V18.4342C10.9703 18.4342 11.3288 18.4572 11.6873 18.4572Z" fill="#DFA68B"/>
<path d="M17.3043 11.0009C17.3043 7.58212 15.1772 5.60888 12.5242 5.58594H12.5003H12.4764C9.82344 5.60888 7.69629 7.58212 7.69629 11.0009C7.69629 15.4521 11.0185 18.0448 12.5003 18.0448C13.9821 18.0219 17.3043 15.4291 17.3043 11.0009Z" fill="#ECB79E"/>
<path d="M16.8259 12.2619L16.563 14.2811C17.6385 14.74 17.8058 12.3537 17.8058 12.3537C17.5429 11.7572 16.8259 12.2619 16.8259 12.2619Z" fill="#ECB79E"/>
<path d="M7.31348 12.3537C7.31348 12.3537 7.48078 14.74 8.5563 14.2811L8.2695 12.2619C8.2695 12.2619 7.55248 11.7572 7.31348 12.3537Z" fill="#ECB79E"/>
<path d="M10.5879 18.7812L5.9512 20.1579C5.9512 20.1579 4.32597 20.4333 3.91965 22.0623L3.20264 24.9992H12.4522H12.5239H21.7734L21.0564 22.0623C20.6501 20.4333 19.0248 20.1579 19.0248 20.1579L14.3881 18.7812H10.5879Z" fill="#ECB79E"/>
<path d="M17.8535 22.454L18.1881 19.9072L17.1126 19.5859C17.1126 19.5859 16.3 23.0506 12.5237 23.6012C8.7474 23.0506 7.93478 19.5859 7.93478 19.5859L6.85926 19.9072L7.19387 22.454C7.19387 22.454 6.57245 23.8536 6.83536 25.0009H12.5237H18.212C18.4749 23.8536 17.8535 22.454 17.8535 22.454Z" fill="#F7941E"/>
<path d="M10.2053 7.03359C10.2053 7.03359 11.0179 9.44277 14.9137 10.7047C14.9137 10.7047 17.8774 11.0489 18.2598 12.2191C18.2598 12.2191 19.1919 8.34143 17.2799 6.32231C17.2799 6.32231 14.2206 2.69707 10.1814 5.56514C10.2053 5.58808 9.48829 5.86342 10.2053 7.03359Z" fill="#852A00"/>
<path d="M10.1576 5.75C10.1576 5.75 5.59258 6.62189 7.71973 12.0597C7.71973 12.0597 8.00653 8.04445 10.779 7.99856L10.1576 5.75Z" fill="#852A00"/>
<path d="M9.46468 19.6571C9.46468 19.6571 5.73619 19.0605 6.2142 13.8521C6.2142 13.8521 6.3576 7.90948 8.31745 6.96875L8.65206 9.21732C8.62816 9.21732 7.17022 13.5538 9.46468 19.6571Z" fill="#852A00"/>
<path d="M16.085 19.6571C16.085 19.6571 19.8134 19.0605 19.3354 13.8521C19.3354 13.8521 19.192 7.90948 17.2322 6.96875L16.563 9.01082C16.563 9.01082 17.7819 16.2383 16.085 19.6571Z" fill="#852A00"/>
<path d="M10.8029 5.52196C10.6356 5.91202 10.8507 6.48563 10.8985 6.92158C11.0898 6.85274 11.1136 6.6233 11.281 6.50858C11.4244 6.78391 11.52 7.08218 11.6634 7.35752C11.9024 7.79347 12.3804 8.57359 12.8106 8.84892C12.9301 8.68831 12.8823 8.4818 12.9062 8.27531C13.193 8.64242 13.5515 9.05542 13.91 9.3537C13.8861 9.23898 13.9339 9.10131 13.9339 8.98659C14.388 9.21603 14.6987 9.83553 15.2007 9.99615C15.1767 9.88142 15.2484 9.7667 15.2723 9.67492C15.5831 9.88142 15.8938 10.2485 16.2284 10.3862C16.3957 10.455 16.7542 10.4321 16.8976 10.5927C16.8976 10.2944 16.8259 9.83553 16.5869 9.67492C16.5869 9.74376 16.5391 9.83553 16.5391 9.88142C16.4435 9.74376 16.324 9.5602 16.2045 9.44547C16.2045 9.49136 16.2045 9.5602 16.1806 9.60609C16.1567 9.5602 16.0372 9.44547 16.0133 9.37664C16.0133 9.42253 15.9655 9.49136 15.9655 9.5602C15.7982 9.39959 15.7026 9.07836 15.4397 9.05542C15.4397 9.12425 15.368 9.30781 15.368 9.3537C15.3201 9.10131 15.1528 8.78008 14.866 8.75714C14.866 8.82597 14.7943 8.9407 14.7704 8.98659C14.7465 8.84892 14.6509 8.75714 14.6031 8.64242C14.5553 8.66537 14.5314 8.68831 14.5075 8.71125C14.3402 8.41297 14.388 7.99997 14.1968 7.72463C14.1251 7.83936 14.1012 7.99997 14.1012 8.13764C14.0773 7.99997 14.0056 7.8623 13.9339 7.77053C13.91 7.81641 13.8144 7.93114 13.7905 7.97703C13.6949 7.79347 13.5037 7.24281 13.3842 7.72464C13.3125 7.63286 13.2647 7.47225 13.2169 7.35752C13.193 7.4493 13.0496 7.58697 13.0018 7.6558C12.9301 7.4493 12.7867 7.05924 12.5716 7.35752C12.5477 7.17397 12.476 7.01336 12.3565 6.89864C12.3565 7.01336 12.3326 7.19691 12.3087 7.26575C12.3087 7.0363 12.237 6.78391 12.0697 6.60036C12.0458 6.69213 11.998 6.80685 12.0219 6.92158C12.0458 6.69213 11.998 6.48563 11.8785 6.30207C11.8546 6.30207 11.8546 6.37091 11.8546 6.37091C11.8307 6.02674 11.6395 5.86613 11.4722 5.63668C11.4244 5.63668 11.3766 5.65963 11.3288 5.65963C11.281 5.56785 11.2093 5.52196 11.1615 5.45312C11.1615 5.56785 11.0898 5.65963 11.0898 5.77435C11.042 5.59079 10.9464 5.49902 10.8029 5.56785" fill="#98330A"/>
<path d="M10.0385 6.61719C9.94294 6.80074 10.1102 7.21375 10.2297 7.3973C10.2058 7.23669 10.0863 7.12197 9.91904 7.12197C9.91904 7.21375 9.89513 7.35142 9.91904 7.44319C9.84733 7.28259 9.77563 7.30553 9.70393 7.25964C9.65613 7.37436 9.65613 7.53497 9.65613 7.67264C9.56052 7.62675 9.39323 7.60381 9.29762 7.55791C9.24982 7.69558 9.27372 7.87914 9.20202 8.01681C9.13032 7.94798 9.08252 7.94798 9.03471 7.90208C9.08252 8.13153 8.89131 8.15447 8.84351 8.2692C8.77181 8.45275 8.67621 8.65926 8.6045 8.86575C8.5567 8.75103 8.4372 8.63631 8.3894 8.52158C8.3416 8.72809 8.2938 9.00343 8.3177 9.23287C8.2938 9.20992 8.2699 9.20992 8.24599 9.20992C8.2221 9.37054 8.17429 9.5082 8.15039 9.66882C8.12649 9.57703 8.07869 9.48526 8.05479 9.39348C8.03089 9.57704 8.00699 9.7606 8.00699 9.9212C7.95919 9.87532 7.88749 9.87532 7.83969 9.85237C7.81578 10.013 7.79188 10.1507 7.79188 10.3113C7.79188 10.3342 7.79188 10.3342 7.79188 10.3113C7.79188 10.2883 7.79188 10.2654 7.74408 10.2654C7.74408 10.3801 7.67238 10.5178 7.64848 10.6095C7.52898 10.403 7.43338 10.1736 7.36167 9.94415C7.33777 9.94415 7.33777 9.94415 7.33777 9.96709C7.31387 9.82943 7.33777 9.69176 7.33777 9.55409C7.38557 9.55409 7.40947 9.57703 7.45727 9.57703C7.50508 9.43937 7.52898 9.27876 7.50508 9.14109C7.50508 9.20992 7.52898 9.3017 7.52898 9.32465C7.50508 9.20992 7.57678 9.0952 7.60068 9.00343C7.64848 9.02637 7.79188 9.00343 7.83968 9.02637C7.81578 8.81986 7.88749 8.61337 7.93529 8.40686C7.95919 8.42981 8.03089 8.49864 8.05479 8.52158C8.07869 8.45275 8.10259 8.40686 8.10259 8.31509C8.12649 8.31509 8.17429 8.36098 8.17429 8.33803C8.19819 8.20036 8.24599 8.0627 8.3177 7.94798C8.3655 8.01681 8.485 8.10858 8.5328 8.15447C8.5806 7.99386 8.5806 7.83325 8.6523 7.67264C8.6762 7.69558 8.6762 7.74147 8.7001 7.78736C8.74791 7.6497 8.79571 7.44319 8.91521 7.28258C8.96301 7.28258 8.98691 7.30553 9.03471 7.30553C9.05861 7.1908 9.17812 7.12197 9.22592 7.05314C9.27372 7.09902 9.36932 7.12197 9.41712 7.14491C9.44102 7.05314 9.56052 6.96136 9.58443 6.84663C9.63223 6.84663 9.63223 6.86958 9.65613 6.86958C9.68003 6.75485 9.75173 6.75485 9.84733 6.70897" fill="#98330A"/>
</svg>
