<svg width="342" height="192" viewBox="0 0 342 192" fill="none" xmlns="http://www.w3.org/2000/svg">
<path d="M89.3223 91.6218C86.7658 90.3462 83.7014 91.0505 80.8745 90.6364C77.8174 90.189 75.1216 88.4442 72.1926 87.4608C69.3783 86.5161 66.3269 86.2853 63.4028 86.7966C65.7339 90.0226 68.2971 93.2007 71.6924 95.2773C74.9034 97.2417 78.6909 98.1037 82.4495 98.3175C84.2949 98.4225 86.1451 98.377 87.9886 98.259C89.1433 98.1855 92.2691 98.4505 93.1737 97.694C94.874 96.2709 90.6854 92.3019 89.3223 91.6218Z" stroke="#232323" stroke-width="1.5" stroke-linecap="round" stroke-linejoin="round"/>
<path d="M87.1121 81.1468C87.5343 80.2224 88.1109 79.3667 88.4452 78.4065C89.2598 76.0658 88.5327 73.5083 87.9866 71.0902C87.441 68.6725 87.1493 65.9076 88.6324 63.9219C91.3795 68.9381 93.9268 74.3418 93.846 80.0609C93.8228 81.6973 93.5823 83.3323 93.6767 84.9668C93.8194 87.428 94.7119 89.7726 95.3508 92.153C95.9893 94.5349 96.3676 97.1175 95.5008 99.4253C95.4389 99.5903 91.5096 95.8608 91.2039 95.4868C90.3346 94.4246 89.4257 93.3725 88.6783 92.2188C86.563 88.9546 85.4176 84.8555 87.1121 81.1468Z" fill="#F9F9F9"/>
<path d="M87.1121 81.1468C87.5343 80.2224 88.1109 79.3667 88.4452 78.4065C89.2598 76.0658 88.5327 73.5083 87.9866 71.0902C87.441 68.6725 87.1493 65.9076 88.6324 63.9219C91.3795 68.9381 93.9268 74.3418 93.846 80.0609C93.8228 81.6973 93.5823 83.3323 93.6767 84.9668C93.8194 87.428 94.7119 89.7726 95.3508 92.153C95.9893 94.5349 96.3676 97.1175 95.5008 99.4253C95.4389 99.5903 91.5096 95.8608 91.2039 95.4868C90.3346 94.4246 89.4257 93.3725 88.6783 92.2188C86.563 88.9546 85.4176 84.8555 87.1121 81.1468Z" stroke="#020202" stroke-width="1.5" stroke-linecap="round" stroke-linejoin="round"/>
<path d="M80.979 91.1503C78.2963 88.5725 76.6787 84.9175 76.5738 81.1986C76.4872 78.1153 77.3903 74.9987 76.7774 71.9759C76.3595 69.9128 75.2643 68.0577 74.5518 66.0769C73.8388 64.096 73.5515 61.7601 74.6819 59.9844C76.0533 62.1476 78.678 63.1387 80.4948 64.944C81.8377 66.2786 82.6973 68.0181 83.4281 69.7648C86.374 76.8088 87.5974 84.5663 86.9617 92.1753C84.1624 91.4763 81.3627 90.7768 78.5633 90.0778" fill="white"/>
<path d="M80.979 91.1503C78.2963 88.5725 76.6787 84.9175 76.5738 81.1986C76.4872 78.1153 77.3903 74.9987 76.7774 71.9759C76.3595 69.9128 75.2643 68.0577 74.5518 66.0769C73.8388 64.096 73.5515 61.7601 74.6819 59.9844C76.0533 62.1476 78.678 63.1387 80.4948 64.944C81.8377 66.2786 82.6973 68.0181 83.4281 69.7648C86.374 76.8088 87.5974 84.5663 86.9617 92.1753C84.1624 91.4763 81.3627 90.7768 78.5633 90.0778" stroke="black" stroke-width="1.5" stroke-linecap="round" stroke-linejoin="round"/>
<path d="M64.5506 63.8866C64.331 62.7629 63.766 61.7374 63.141 60.7787C62.1489 59.2554 60.9778 57.8333 60.2242 56.1789C59.47 54.5246 59.1827 52.5312 60.0142 50.9141C61.2105 54.6184 65.5771 56.296 67.6314 59.6022C68.9709 61.7572 69.221 64.4414 70.4965 66.6346C71.6638 68.6416 73.6199 70.1165 74.6899 72.1771C76.4526 75.5729 75.4736 79.836 76.9726 83.356C76.7883 82.9236 73.9499 82.2285 73.3689 81.9624C72.1131 81.3877 70.8946 80.7328 69.7221 80.0028C68.0987 78.9919 66.1711 77.8082 65.2322 76.0668C63.2919 72.4669 65.2926 67.6833 64.5506 63.8866Z" fill="white"/>
<path d="M64.5506 63.8866C64.331 62.7629 63.766 61.7374 63.141 60.7787C62.1489 59.2554 60.9778 57.8333 60.2242 56.1789C59.47 54.5246 59.1827 52.5312 60.0142 50.9141C61.2105 54.6184 65.5771 56.296 67.6314 59.6022C68.9709 61.7572 69.221 64.4414 70.4965 66.6346C71.6638 68.6416 73.6199 70.1165 74.6899 72.1771C76.4526 75.5729 75.4736 79.836 76.9726 83.356C76.7883 82.9236 73.9499 82.2285 73.3689 81.9624C72.1131 81.3877 70.8946 80.7328 69.7221 80.0028C68.0987 78.9919 66.1711 77.8082 65.2322 76.0668C63.2919 72.4669 65.2926 67.6833 64.5506 63.8866Z" stroke="black" stroke-width="1.5" stroke-linecap="round" stroke-linejoin="round"/>
<path d="M54.5817 68.9599C53.0633 66.4339 52.5602 65.6149 52.2124 64.1976C51.7031 62.122 52.1123 61.1487 52.0871 58.2991C52.0741 56.7778 51.9357 54.5817 51.334 51.8984C54.0869 55.4664 56.3971 58.2686 57.9784 60.1469C61.5609 64.4003 62.2512 64.9179 63.2573 66.9587C64.8376 70.1648 64.4163 71.4883 66.3947 74.2383C68.0065 76.4789 68.8806 76.4271 69.9095 78.3804C71.261 80.9466 71.7114 84.7559 70.4116 85.5342C68.3625 86.7614 61.9087 80.4919 58.4883 75.494C58.1143 74.9474 58.4815 75.4462 54.5817 68.9599Z" fill="white"/>
<path d="M54.5817 68.9599C53.0633 66.4339 52.5602 65.6149 52.2124 64.1976C51.7031 62.122 52.1123 61.1487 52.0871 58.2991C52.0741 56.7778 51.9357 54.5817 51.334 51.8984C54.0869 55.4664 56.3971 58.2686 57.9784 60.1469C61.5609 64.4003 62.2512 64.9179 63.2573 66.9587C64.8376 70.1648 64.4163 71.4883 66.3947 74.2383C68.0065 76.4789 68.8806 76.4271 69.9095 78.3804C71.261 80.9466 71.7114 84.7559 70.4116 85.5342C68.3625 86.7614 61.9087 80.4919 58.4883 75.494C58.1143 74.9474 58.4815 75.4462 54.5817 68.9599Z" stroke="black" stroke-width="1.5" stroke-linecap="round" stroke-linejoin="round"/>
<path d="M84.4612 90.2956C83.827 88.3457 83.1928 86.3954 82.5587 84.4454C82.1078 83.0586 81.6522 81.6476 81.6178 80.1892C81.5787 78.5198 82.0934 76.8389 81.7886 75.1971C81.2033 72.0423 78.8132 71.5474 76.9983 67.3405C76.3636 65.8699 76.0768 64.5716 75.9341 63.7266" stroke="#232323" stroke-width="1.5" stroke-linecap="round" stroke-linejoin="round"/>
<path d="M89.1118 68.8125C89.3368 69.5536 89.6647 70.6463 90.0464 71.9731C91.7597 77.9297 91.8129 79.0505 91.7239 80.0078C91.5058 82.3456 90.5528 82.4869 90.0038 84.8073C89.5481 86.734 89.4901 89.6615 91.5875 93.7751" stroke="#232323" stroke-width="1.5" stroke-linecap="round" stroke-linejoin="round"/>
<path d="M63.2256 57.7031C64.3314 58.7785 65.0434 59.801 65.4846 60.5271C66.9449 62.9307 67.3508 65.2425 67.6947 67.3084C67.985 69.0532 67.9356 69.7159 68.0648 70.7492C68.3376 72.9356 69.3104 76.0034 72.5121 79.6313" stroke="#232323" stroke-width="1.5" stroke-linecap="round" stroke-linejoin="round"/>
<path d="M53.248 56.7578C54.5855 58.4291 55.2782 59.9354 55.6609 60.9798C56.7705 64.005 56.2113 65.6869 57.6359 68.047C58.5197 69.5112 59.4697 70.0815 60.3549 70.8777C62.2265 72.5616 64.3161 75.7116 64.9203 82.1737" stroke="#232323" stroke-width="1.5" stroke-linecap="round" stroke-linejoin="round"/>
<path d="M73.8576 80.4533C72.0581 79.6097 70.1256 78.9528 68.6135 77.6637C67.4772 76.6943 66.6191 75.3989 65.3551 74.6027C63.5654 73.4756 61.3102 73.5453 59.207 73.3213C55.8945 72.9687 52.417 71.5726 50.8066 68.6562C50.9479 73.5844 53.0792 78.8425 57.4898 81.0459C60.6175 82.6083 64.7297 82.6204 66.8692 85.3859C67.9339 86.7616 68.3823 88.7062 69.8988 89.5575C70.4918 89.8903 71.1797 90.0064 71.8545 90.092C73.9538 90.3586 76.0846 90.3813 78.1898 90.1597C78.6576 90.1104 79.1752 90.0214 79.4625 89.6485C80.4106 88.4164 79.6565 85.2253 78.748 84.0605C77.5639 82.5435 75.5651 81.2539 73.8576 80.4533Z" fill="white"/>
<path d="M73.8576 80.4533C72.0581 79.6097 70.1256 78.9528 68.6135 77.6637C67.4772 76.6943 66.6191 75.3989 65.3551 74.6027C63.5654 73.4756 61.3102 73.5453 59.207 73.3213C55.8945 72.9687 52.417 71.5726 50.8066 68.6562C50.9479 73.5844 53.0792 78.8425 57.4898 81.0459C60.6175 82.6083 64.7297 82.6204 66.8692 85.3859C67.9339 86.7616 68.3823 88.7062 69.8988 89.5575C70.4918 89.8903 71.1797 90.0064 71.8545 90.092C73.9538 90.3586 76.0846 90.3813 78.1898 90.1597C78.6576 90.1104 79.1752 90.0214 79.4625 89.6485C80.4106 88.4164 79.6565 85.2253 78.748 84.0605C77.5639 82.5435 75.5651 81.2539 73.8576 80.4533Z" stroke="black" stroke-width="1.5" stroke-linecap="round" stroke-linejoin="round"/>
<path d="M133.309 122.215C133.709 120.597 134.231 118.037 134.375 114.867C134.685 108.048 132.851 107.154 133.411 102.296C134.029 96.9373 136.259 98.0465 138.919 89.1034C139.811 86.1033 140.452 83.0017 142.702 82.3748C144.069 81.9936 145.38 82.7289 145.474 82.7835C147.815 84.1394 147.321 87.5086 148.258 91.9303C149.272 96.7109 150.507 95.8823 151.498 100.211C152.778 105.805 151.627 110.882 150.889 114.132C150.889 114.132 150.868 114.227 149.242 120.603C143.931 121.14 138.62 121.678 133.309 122.215Z" fill="#D2F6A4"/>
<path d="M133.309 122.215C133.709 120.597 134.231 118.037 134.375 114.867C134.685 108.048 132.851 107.154 133.411 102.296C134.029 96.9373 136.259 98.0465 138.919 89.1034C139.811 86.1033 140.452 83.0017 142.702 82.3748C144.069 81.9936 145.38 82.7289 145.474 82.7835C147.815 84.1394 147.321 87.5086 148.258 91.9303C149.272 96.7109 150.507 95.8823 151.498 100.211C152.778 105.805 151.627 110.882 150.889 114.132C150.889 114.132 150.868 114.227 149.242 120.603C143.931 121.14 138.62 121.678 133.309 122.215Z" stroke="black" stroke-width="2" stroke-linecap="round" stroke-linejoin="round"/>
<path d="M143.414 86.7188C142.716 91.4452 142.017 96.2428 142.704 100.984C142.93 102.536 143.303 104.076 143.35 105.64C143.478 109.885 141.202 113.979 141.639 118.209" stroke="black" stroke-width="1.5" stroke-linecap="round" stroke-linejoin="round"/>
<path d="M156.485 89.4252C156.003 80.9073 160.486 72.2873 167.737 67.7916C170.284 66.2132 173.118 65.119 175.573 63.4023C179.352 60.7612 182.078 56.6558 183.047 52.1484" stroke="#232323" stroke-width="1.5" stroke-linecap="round" stroke-linejoin="round"/>
<path d="M174.114 51.9141C174.321 53.7604 173.33 55.5048 172.91 57.3148C172.743 58.0327 172.667 58.7684 172.62 59.5037C172.505 61.3452 172.579 63.1989 172.842 65.0249" stroke="#232323" stroke-width="1.5" stroke-linecap="round" stroke-linejoin="round"/>
<path d="M176.527 62.6421C177.599 62.5309 178.671 62.4196 179.743 62.3084C180.385 62.2416 181.029 62.1744 181.658 62.0264C183.252 61.6515 184.716 60.7445 185.762 59.4844" stroke="#232323" stroke-width="1.5" stroke-linecap="round" stroke-linejoin="round"/>
<path d="M166.954 50.1797C166.639 54.392 166.332 58.6966 167.404 62.7826C167.756 64.125 168.183 66.3366 167.745 67.6538C170.276 67.0017 172.938 67.5261 175.536 67.8129C178.134 68.1002 180.971 68.0843 183.094 66.5591" stroke="#232323" stroke-width="1.5" stroke-linecap="round" stroke-linejoin="round"/>
<path d="M163.318 52.0625C163.925 53.8262 163.554 55.7683 163.045 57.5629C162.537 59.3576 161.889 61.1614 161.956 63.0256C161.995 64.0874 162.266 65.1255 162.535 66.1529C162.951 67.741 163.367 69.3286 163.783 70.9166C168.636 72.7872 174.305 74.8967 179.408 73.8891" stroke="#232323" stroke-width="1.5" stroke-linecap="round" stroke-linejoin="round"/>
<path d="M157.081 62.2812C155.615 64.8203 155.19 67.9408 155.925 70.7793C156.243 72.0089 156.768 73.1839 156.994 74.4334C157.323 76.2498 157.021 78.2084 157.799 79.8816" stroke="#232323" stroke-width="1.5" stroke-linecap="round" stroke-linejoin="round"/>
<path d="M158.042 79.3534C158.338 78.8397 158.952 78.6138 159.524 78.4566C161.282 77.9743 163.117 77.774 164.937 77.8664C165.973 77.9192 167.147 78.0217 167.911 77.3203" stroke="#232323" stroke-width="1.5" stroke-linecap="round" stroke-linejoin="round"/>
<path d="M180.926 57.6208C180.611 56.6843 180.297 55.7478 179.982 54.8109C179.757 54.1419 179.532 53.4714 179.386 52.7811C179.212 51.9612 179.152 51.1176 179.208 50.2812" stroke="#232323" stroke-width="1.5" stroke-linecap="round" stroke-linejoin="round"/>
<path d="M127.607 34.4419C127.231 34.3476 124.031 32.7474 124.031 29.8296C124.031 25.8626 124.207 22.4412 122.524 21.5458C122.142 21.3422 121.521 21.243 121.065 21.4989C120.424 21.8583 120.329 22.7996 120.265 23.4285C120.08 25.2546 120.783 26.4382 120.359 26.7236C120.251 26.7967 120.028 26.8378 119.512 26.5345C119.366 21.734 117.919 18.4771 116.923 16.6984C116.042 15.1244 114.466 12.3081 112.405 12.3681C111.704 12.3884 110.771 12.7474 110.288 13.4976C109.912 14.0805 109.868 14.8047 110.099 15.8979C110.857 19.4852 113.425 20.604 114.052 24.3698L114.241 25.4993C113.901 25.2071 113.24 24.6368 112.405 23.8992C110.695 22.3875 110.212 21.9033 109.44 21.9227C108.856 21.9377 108.235 22.238 107.886 22.7227C107.886 22.7227 107.495 23.2674 107.557 24.0873C107.77 26.8973 117.188 29.5046 119.135 32.8418C119.794 33.9713 119.418 35.4776 119.418 35.4776C116.946 33.5814 114.603 33.0033 113.629 33.8769C113.321 34.1517 113.111 34.6059 113.136 35.063C113.213 36.49 115.525 36.8349 118.037 38.4269C122.267 41.1072 122.557 44.4657 126.384 45.2672C127.008 45.3978 127.486 45.4921 128.078 45.3301C130.797 44.5842 131.666 39.5825 131.655 36.6071C131.642 33.2974 130.526 29.0257 128.643 28.7001C128.167 28.6174 127.575 28.7862 127.155 29.1118C126.32 29.7585 126.214 31.0138 126.478 31.8066C126.854 32.9361 127.607 34.4419 127.607 34.4419Z" fill="#D2F6A4"/>
<path d="M127.607 34.4419C127.231 34.3476 124.031 32.7474 124.031 29.8296C124.031 25.8626 124.207 22.4412 122.524 21.5458C122.142 21.3422 121.521 21.243 121.065 21.4989C120.424 21.8583 120.329 22.7996 120.265 23.4285C120.08 25.2546 120.783 26.4382 120.359 26.7236C120.251 26.7967 120.028 26.8378 119.512 26.5345C119.366 21.734 117.919 18.4771 116.923 16.6984C116.042 15.1244 114.466 12.3081 112.405 12.3681C111.704 12.3884 110.771 12.7474 110.288 13.4976C109.912 14.0805 109.868 14.8047 110.099 15.8979C110.857 19.4852 113.425 20.604 114.052 24.3698L114.241 25.4993C113.901 25.2071 113.24 24.6368 112.405 23.8992C110.695 22.3875 110.212 21.9033 109.44 21.9227C108.856 21.9377 108.235 22.238 107.886 22.7227C107.886 22.7227 107.495 23.2674 107.557 24.0873C107.77 26.8973 117.188 29.5046 119.135 32.8418C119.794 33.9713 119.418 35.4776 119.418 35.4776C116.946 33.5814 114.603 33.0033 113.629 33.8769C113.321 34.1517 113.111 34.6059 113.136 35.063C113.213 36.49 115.525 36.8349 118.037 38.4269C122.267 41.1072 122.557 44.4657 126.384 45.2672C127.008 45.3978 127.486 45.4921 128.078 45.3301C130.797 44.5842 131.666 39.5825 131.655 36.6071C131.642 33.2974 130.526 29.0257 128.643 28.7001C128.167 28.6174 127.575 28.7862 127.155 29.1118C126.32 29.7585 126.214 31.0138 126.478 31.8066C126.854 32.9361 127.607 34.4419 127.607 34.4419Z" stroke="black" stroke-width="2" stroke-linecap="round" stroke-linejoin="round"/>
<path d="M111.757 13.1328C114.76 16.0584 115.062 20.6983 116.701 24.556C118.859 29.6312 123.378 33.3641 125.844 38.2976C126.907 40.4226 127.566 42.7334 127.952 45.077" stroke="#232323" stroke-width="1.5" stroke-linecap="round" stroke-linejoin="round"/>
<path d="M127.696 43.2576V41.9051C127.696 41.5182 127.696 41.1268 127.787 40.751C127.915 40.2266 128.21 39.7618 128.475 39.2916C129.482 37.5033 130.095 35.4063 129.712 33.3906" stroke="#232323" stroke-width="1.5" stroke-linecap="round" stroke-linejoin="round"/>
<path d="M113.96 26.7578C114.762 27.3867 115.684 27.8414 116.599 28.2917C116.874 28.4276 117.151 28.5636 117.441 28.6637C118.16 28.9123 118.979 28.9515 119.573 29.427" stroke="#050505" stroke-width="1.5" stroke-linecap="round" stroke-linejoin="round"/>
<path d="M117.544 36.9688C119.625 37.4302 121.564 38.5157 123.044 40.0496C123.47 40.4907 123.861 40.9696 124.336 41.3571C125.16 42.028 126.208 42.3918 127.266 42.4793" stroke="#050505" stroke-width="1.5" stroke-linecap="round" stroke-linejoin="round"/>
<path d="M121.752 32.1503C122.204 30.1003 122.659 28.0169 122.523 25.9219" stroke="#050505" stroke-width="1.5" stroke-linecap="round" stroke-linejoin="round"/>
<path d="M119.608 153.842C117.632 152.679 115.378 151.928 113.694 150.372C112.32 149.102 111.434 147.39 110.147 146.032C108.512 144.306 106.229 143.207 103.859 143.006C102.381 142.88 100.853 143.087 99.4385 142.638C96.2237 141.619 94.8214 137.716 91.8566 136.109C90.7421 135.505 89.4724 135.264 88.2258 135.032C85.4734 134.518 82.721 134.005 79.9686 133.492C79.2943 133.366 78.589 133.242 77.9321 133.439C76.0805 133.996 75.8565 136.661 76.7683 138.367C77.6801 140.072 79.2904 141.346 80.0852 143.109C81.5248 146.304 80.225 150.823 83.0233 152.932C84.7053 154.199 87.0799 153.862 89.0689 154.553C90.7049 155.121 92.0027 156.356 93.3601 157.431C97.8234 160.966 104.099 162.991 109.266 160.599C111.157 159.724 112.845 158.292 114.905 157.978C117.979 157.508 120.834 159.665 122.855 162.028C123.565 158.415 123.002 155.84 119.608 153.842Z" fill="white"/>
<path d="M119.608 153.842C117.632 152.679 115.378 151.928 113.694 150.372C112.32 149.102 111.434 147.39 110.147 146.032C108.512 144.306 106.229 143.207 103.859 143.006C102.381 142.88 100.853 143.087 99.4385 142.638C96.2237 141.619 94.8214 137.716 91.8566 136.109C90.7421 135.505 89.4724 135.264 88.2258 135.032C85.4734 134.518 82.721 134.005 79.9686 133.492C79.2943 133.366 78.589 133.242 77.9321 133.439C76.0805 133.996 75.8565 136.661 76.7683 138.367C77.6801 140.072 79.2904 141.346 80.0852 143.109C81.5248 146.304 80.225 150.823 83.0233 152.932C84.7053 154.199 87.0799 153.862 89.0689 154.553C90.7049 155.121 92.0027 156.356 93.3601 157.431C97.8234 160.966 104.099 162.991 109.266 160.599C111.157 159.724 112.845 158.292 114.905 157.978C117.979 157.508 120.834 159.665 122.855 162.028C123.565 158.415 123.002 155.84 119.608 153.842Z" stroke="black" stroke-width="1.5" stroke-linecap="round" stroke-linejoin="round"/>
<path d="M78.1724 134.18C80.0434 137.639 83.1073 140.439 86.7207 141.992C88.6764 142.832 90.8401 143.351 92.4398 144.756C94.1479 146.256 95.0016 148.599 96.8524 149.92C99.5902 151.874 103.358 150.918 106.683 151.428C108.228 151.665 109.72 152.241 111.024 153.102C112.333 153.967 113.488 155.134 114.985 155.605C116.311 156.022 117.766 155.844 119.096 156.244C120.854 156.772 122.244 158.365 122.527 160.178" fill="white"/>
<path d="M78.1724 134.18C80.0434 137.639 83.1073 140.439 86.7207 141.992C88.6764 142.832 90.8401 143.351 92.4398 144.756C94.1479 146.256 95.0016 148.599 96.8524 149.92C99.5902 151.874 103.358 150.918 106.683 151.428C108.228 151.665 109.72 152.241 111.024 153.102C112.333 153.967 113.488 155.134 114.985 155.605C116.311 156.022 117.766 155.844 119.096 156.244C120.854 156.772 122.244 158.365 122.527 160.178" stroke="black" stroke-width="1.5" stroke-linecap="round" stroke-linejoin="round"/>
<path d="M99.1839 88.0072C99.388 86.6392 99.6855 84.5046 98.9957 82.1716C98.659 81.0329 98.0548 79.736 97.9605 79.5353C97.426 78.3966 97.1933 78.1557 96.9118 77.5646C95.5917 74.7924 96.8025 71.8266 96.266 71.7227C95.9565 71.6627 95.5656 72.3055 95.2628 72.9141C94.8395 73.6566 94.2663 74.8238 93.9122 76.335C93.4493 78.3119 93.6854 79.4947 93.6307 81.0421C93.5045 84.6129 92.0247 84.6569 91.5696 88.0706C90.9755 92.5233 93.4474 96.886 94.3839 97.5777C94.8574 97.9275 95.419 98.268 95.419 98.268C95.6919 98.4334 95.9221 98.5606 96.0779 98.6443C96.7058 96.4356 97.2877 94.5298 97.7724 92.9964C98.7117 90.0234 98.9686 89.4492 99.1839 88.0072Z" fill="white"/>
<path d="M99.1839 88.0072C99.388 86.6392 99.6855 84.5046 98.9957 82.1716C98.659 81.0329 98.0548 79.736 97.9605 79.5353C97.426 78.3966 97.1933 78.1557 96.9118 77.5646C95.5917 74.7924 96.8025 71.8266 96.266 71.7227C95.9565 71.6627 95.5656 72.3055 95.2628 72.9141C94.8395 73.6566 94.2663 74.8238 93.9122 76.335C93.4493 78.3119 93.6854 79.4947 93.6307 81.0421C93.5045 84.6129 92.0247 84.6569 91.5696 88.0706C90.9755 92.5233 93.4474 96.886 94.3839 97.5777C94.8574 97.9275 95.419 98.268 95.419 98.268C95.6919 98.4334 95.9221 98.5606 96.0779 98.6443C96.7058 96.4356 97.2877 94.5298 97.7724 92.9964C98.7117 90.0234 98.9686 89.4492 99.1839 88.0072Z" stroke="black" stroke-width="1.5" stroke-linecap="round" stroke-linejoin="round"/>
<path d="M222.477 113.985C220.353 112.345 219.362 109.67 218.472 107.139C217.801 105.233 217.121 103.268 217.215 101.249C217.302 99.3957 218.036 97.6417 218.442 95.8307C218.848 94.0201 218.87 91.9526 217.715 90.5" stroke="#232323" stroke-width="1.5" stroke-linecap="round" stroke-linejoin="round"/>
<path d="M220.223 107.447C220.213 106.293 220.494 105.158 220.725 104.026C221.285 101.267 221.547 98.4481 221.505 95.6328C222.473 96.6578 222.791 98.1245 222.971 99.522C223.472 103.374 223.235 107.322 222.278 111.086C222.121 111.702 221.451 113.292 221.975 113.753C221.436 111.619 220.244 109.716 220.223 107.447Z" stroke="#232323" stroke-width="1.5" stroke-linecap="round" stroke-linejoin="round"/>
<path d="M225.015 103.551C224.663 105.803 225.794 108.366 224.52 110.256C224.057 110.942 223.341 111.41 222.779 112.018C222.217 112.626 221.803 113.515 222.138 114.272C222.26 113.807 222.632 113.417 223.09 113.274C223.53 113.136 224.004 113.218 224.464 113.193C225.949 113.115 227.161 111.93 227.874 110.625C228.96 108.639 229.208 106.211 228.546 104.046C228.37 103.469 227.511 100.271 226.977 100.138C226.06 99.9089 225.127 102.835 225.015 103.551Z" stroke="#232323" stroke-width="1.5" stroke-linecap="round" stroke-linejoin="round"/>
<path d="M211.49 82.3505C211.001 86.8191 212.937 90.45 215.623 91.252C217.137 91.7043 219.501 91.4416 220.718 89.9251C221.566 88.8692 221.567 87.567 221.568 86.6871C221.568 86.6871 221.569 85.5764 220.302 81.8203L218.736 83.108L217.322 81.9021L216.45 83.3571L214.847 81.9742L214.062 83.4045L211.49 82.3505Z" fill="#444444"/>
<path d="M159.504 131.808C159.504 131.808 161.011 130.93 156.869 126.788C152.727 122.646 143.942 112.982 148.334 111.476C152.727 109.971 159.128 116.496 159.128 116.496C159.128 116.496 148.483 102.377 151.015 99.8679C151.209 99.6759 151.42 99.6077 151.597 99.5525C155.224 98.4322 161.46 106.958 162.893 108.966C161.878 107.606 154.489 97.5789 156.994 94.7835C157.377 94.3559 157.881 94.2209 158.124 94.1556C162.267 93.0435 168.29 101.812 168.29 101.812C167.763 100.652 162.37 88.5735 165.905 85.4955C167.242 84.3322 168.667 84.4918 168.667 84.4918C170.168 84.6601 171.262 86.0639 172.181 87.7545C175.362 93.61 175.019 100.296 175.444 100.306C175.927 100.317 175.437 91.6872 178.456 90.6414C179.591 90.2486 181.252 90.9306 182.101 92.0006C182.575 92.5985 182.724 93.4165 182.724 94.5325C182.724 97.0425 175.946 112.732 175.946 112.732C176.534 111.685 180.386 104.957 183.226 105.703C184.362 106.001 184.903 107.383 184.983 107.585C184.983 107.585 186.716 112.015 165.152 133.189L159.504 131.808Z" fill="white"/>
<path d="M159.504 131.808C159.504 131.808 161.011 130.93 156.869 126.788C152.727 122.646 143.942 112.982 148.334 111.476C152.727 109.971 159.128 116.496 159.128 116.496C159.128 116.496 148.483 102.377 151.015 99.8679C151.209 99.6759 151.42 99.6077 151.597 99.5525C155.224 98.4322 161.46 106.958 162.893 108.966C161.878 107.606 154.489 97.5789 156.994 94.7835C157.377 94.3559 157.881 94.2209 158.124 94.1556C162.267 93.0435 168.29 101.812 168.29 101.812C167.763 100.652 162.37 88.5735 165.905 85.4955C167.242 84.3322 168.667 84.4918 168.667 84.4918C170.168 84.6601 171.262 86.0639 172.181 87.7545C175.362 93.61 175.019 100.296 175.444 100.306C175.927 100.317 175.437 91.6872 178.456 90.6414C179.591 90.2486 181.252 90.9306 182.101 92.0006C182.575 92.5985 182.724 93.4165 182.724 94.5325C182.724 97.0425 175.946 112.732 175.946 112.732C176.534 111.685 180.386 104.957 183.226 105.703C184.362 106.001 184.903 107.383 184.983 107.585C184.983 107.585 186.716 112.015 165.152 133.189L159.504 131.808Z" stroke="black" stroke-width="1.5" stroke-linecap="round" stroke-linejoin="round"/>
<path d="M163.571 132.798C161.295 127.526 162.29 120.994 166.033 116.638C167.872 114.498 170.338 112.802 171.482 110.222C172.657 107.57 172.199 104.506 171.615 101.664C170.789 97.6479 169.757 93.6751 168.522 89.7656" fill="white"/>
<path d="M163.571 132.798C161.295 127.526 162.29 120.994 166.033 116.638C167.872 114.498 170.338 112.802 171.482 110.222C172.657 107.57 172.199 104.506 171.615 101.664C170.789 97.6479 169.757 93.6751 168.522 89.7656" stroke="black" stroke-width="1.5" stroke-linecap="round" stroke-linejoin="round"/>
<path d="M179.679 94.1328C179.65 97.0637 179.289 100.044 178.076 102.712C176.862 105.379 174.707 107.716 171.931 108.652" fill="white"/>
<path d="M179.679 94.1328C179.65 97.0637 179.289 100.044 178.076 102.712C176.862 105.379 174.707 107.716 171.931 108.652" stroke="black" stroke-width="1.5" stroke-linecap="round" stroke-linejoin="round"/>
<path d="M159.88 98.7812C162.936 101.904 165.789 105.225 168.415 108.717C169.205 109.767 170.008 110.93 170.009 112.244" fill="white"/>
<path d="M159.88 98.7812C162.936 101.904 165.789 105.225 168.415 108.717C169.205 109.767 170.008 110.93 170.009 112.244" stroke="black" stroke-width="1.5" stroke-linecap="round" stroke-linejoin="round"/>
<path d="M153.352 102.172C157.682 107.168 161.455 112.646 164.576 118.475L153.352 102.172Z" fill="white"/>
<path d="M153.352 102.172C157.682 107.168 161.455 112.646 164.576 118.475" stroke="black" stroke-width="1.5" stroke-linecap="round" stroke-linejoin="round"/>
<path d="M150.583 114.367C153.495 119.025 157.551 122.962 162.293 125.735L150.583 114.367Z" fill="white"/>
<path d="M150.583 114.367C153.495 119.025 157.551 122.962 162.293 125.735" stroke="black" stroke-width="1.5" stroke-linecap="round" stroke-linejoin="round"/>
<path d="M162.73 128.094C163.718 126.84 164.816 125.673 166.007 124.61C166.996 123.728 168.047 122.918 169.059 122.062C170.128 121.156 171.153 120.197 172.176 119.239C173.049 118.423 173.921 117.606 174.794 116.789" fill="white"/>
<path d="M162.73 128.094C163.718 126.84 164.816 125.673 166.007 124.61C166.996 123.728 168.047 122.918 169.059 122.062C170.128 121.156 171.153 120.197 172.176 119.239C173.049 118.423 173.921 117.606 174.794 116.789" stroke="black" stroke-width="1.5" stroke-linecap="round" stroke-linejoin="round"/>
<line x1="215.757" y1="19.4332" x2="214.988" y2="26.0388" stroke="#232323" stroke-width="1.5" stroke-linecap="round" stroke-linejoin="round"/>
<path d="M212.495 18.7891C212.745 18.9148 214.69 22.178 214.69 22.178L217.953 19.6051" stroke="#232323" stroke-width="1.5" stroke-linecap="round" stroke-linejoin="round"/>
<path d="M212.024 22.1484C212.275 22.2742 214.22 25.5374 214.22 25.5374L217.483 22.9645" stroke="#232323" stroke-width="1.5" stroke-linecap="round" stroke-linejoin="round"/>
<path d="M85.2528 42.9224C85.2528 44.0659 84.3676 44.9932 83.2758 44.9932C82.1841 44.9932 81.2993 44.0659 81.2993 42.9224C81.2993 41.7789 82.1841 40.8516 83.2758 40.8516C84.3676 40.8516 85.2528 41.7789 85.2528 42.9224Z" stroke="#232323" stroke-width="1.5" stroke-linecap="round" stroke-linejoin="round"/>
<path d="M65.876 127.758C66.1744 126.266 68.0382 116.164 68.0382 116.164" stroke="#232323" stroke-width="1.5" stroke-linecap="round" stroke-linejoin="round"/>
<path d="M73.1427 114.379C72.9787 115.232 72.1066 119.356 68.9154 120.787C68.3964 121.02 67.8445 121.259 67.2548 121.096C65.5835 120.635 64.7182 117.256 65.0219 112.477" stroke="#232323" stroke-width="1.5" stroke-linecap="round" stroke-linejoin="round"/>
<path d="M71.0252 115.452C70.9478 115.902 70.5264 118.079 68.6689 118.768C68.3666 118.88 68.0454 118.994 67.6923 118.894C66.6915 118.61 66.1004 116.79 66.1695 114.25" stroke="#232323" stroke-width="1.5" stroke-linecap="round" stroke-linejoin="round"/>
<path d="M73.9691 117.29C73.8423 118.156 73.125 122.333 69.1565 123.498C68.5107 123.688 67.8238 123.88 67.0484 123.654C64.8508 123.012 63.4031 119.434 63.3237 114.523" stroke="#232323" stroke-width="1.5" stroke-linecap="round" stroke-linejoin="round"/>
<path d="M75.4905 120.568C75.0121 121.514 73.7598 123.666 71.1951 125.078C70.3398 125.549 68.2003 126.727 66.1276 126.254C63.1672 125.578 60.8259 121.645 60.8617 116.594" stroke="#232323" stroke-width="1.5" stroke-linecap="round" stroke-linejoin="round"/>
<path d="M21.751 122.254C21.751 124.905 19.4891 127.054 16.6995 127.054C13.9094 127.054 11.6475 124.905 11.6475 122.254C11.6475 119.602 13.9094 117.453 16.6995 117.453C19.4891 117.453 21.751 119.602 21.751 122.254Z" fill="#65EAC9"/>
<path d="M21.751 122.254C21.751 124.905 19.4891 127.054 16.6995 127.054C13.9094 127.054 11.6475 124.905 11.6475 122.254C11.6475 119.602 13.9094 117.453 16.6995 117.453C19.4891 117.453 21.751 119.602 21.751 122.254Z" stroke="black" stroke-width="2" stroke-linecap="round" stroke-linejoin="round"/>
<path d="M12.0853 113.688C12.0432 114.294 11.989 114.936 11.632 115.428C11.3722 115.786 10.9814 116.022 10.6036 116.253C10.2263 116.484 9.83932 116.731 9.59698 117.101C9.35511 117.472 9.29804 118.001 9.58343 118.339" stroke="#232323" stroke-width="1.5" stroke-linecap="round" stroke-linejoin="round"/>
<path d="M8.20752 122.969C8.6927 123.675 9.07 124.456 9.32299 125.274C9.50777 125.872 9.63548 126.51 10.0171 127.005C10.9386 128.203 12.8687 128.055 13.9842 129.074C14.1849 129.258 14.361 129.48 14.6096 129.589C15.1601 129.829 15.7914 129.421 16.3858 129.507" stroke="#232323" stroke-width="1.5" stroke-linecap="round" stroke-linejoin="round"/>
<path d="M23.1211 127.544C23.2982 126.694 22.9552 125.809 23.0839 124.951C23.1806 124.304 23.5367 123.727 23.7045 123.096C23.9299 122.248 23.8017 121.331 23.4626 120.521C23.1236 119.712 22.5847 119 21.9849 118.359" stroke="#232323" stroke-width="1.5" stroke-linecap="round" stroke-linejoin="round"/>
<path d="M22.1021 114.836C22.8465 115.705 23.8314 116.325 24.7088 117.059C25.5868 117.793 26.399 118.715 26.5867 119.844C26.8072 121.172 26.1334 122.607 26.666 123.843" stroke="#232323" stroke-width="1.5" stroke-linecap="round" stroke-linejoin="round"/>
<path d="M30.287 124.575C30.8036 123.747 31.3396 122.844 31.2617 121.872C31.222 121.376 31.0237 120.909 30.8278 120.451C30.3489 119.335 29.87 118.218 29.3916 117.102" stroke="#232323" stroke-width="1.5" stroke-linecap="round" stroke-linejoin="round"/>
<path d="M8.29209 112.414C7.39381 112.913 6.4283 113.489 6.07276 114.453C5.62822 115.659 6.30011 117.069 5.83719 118.268C5.61854 118.834 5.16481 119.292 4.98438 119.871C4.75558 120.606 5.00228 121.396 5.24753 122.126" stroke="#232323" stroke-width="1.5" stroke-linecap="round" stroke-linejoin="round"/>
<path d="M7.65869 129.852C8.03745 130.331 8.4162 130.812 8.79496 131.292C9.13309 131.72 9.48137 132.158 9.94671 132.444C10.4604 132.759 11.0714 132.863 11.6639 132.974C13.194 133.26 14.707 133.635 16.1935 134.096" stroke="#232323" stroke-width="1.5" stroke-linecap="round" stroke-linejoin="round"/>
<path d="M1.75392 121.102C1.33067 119.964 1.03753 118.776 0.880802 117.572C0.812597 117.045 0.785992 116.457 1.11396 116.039C1.26536 115.846 1.47675 115.711 1.67798 115.571C2.3581 115.095 2.98307 114.473 3.22106 113.677C3.3536 113.236 3.36037 112.759 3.53887 112.334C3.71736 111.909 4.16287 111.532 4.60645 111.657" stroke="#232323" stroke-width="1.5" stroke-linecap="round" stroke-linejoin="round"/>
<path d="M202.672 87.6228C202.716 88.7248 202.902 90.3539 203.62 92.1515C204.829 95.1757 206.311 95.6962 206.829 98.2875C207.213 100.199 206.835 101.906 206.443 103.071C205.951 104.456 205.445 106.339 205.292 108.609C205.068 111.934 205.698 114.644 206.246 116.353C206.246 116.353 202.238 114.576 200.732 112.555C199.614 111.058 198.998 108.259 201.356 102.531C200.521 100.65 199.486 97.8328 198.967 94.2813C198.732 92.6729 198.375 90.2306 198.746 87.5213C199.487 82.1093 202.777 78.24 204.824 76.25C205.17 77.9483 205.807 80.4187 207.059 83.2127C208.452 86.3231 209.237 86.771 210.259 89.0493C212.088 93.1276 210.373 93.4914 211.827 100.51C212.563 104.06 213.748 107.934 212.394 111.269C212.285 111.538 212.163 111.771 212.038 111.988C210.494 114.653 207.871 115.835 206.246 116.353" fill="white"/>
<path d="M202.672 87.6228C202.716 88.7248 202.902 90.3539 203.62 92.1515C204.829 95.1757 206.311 95.6962 206.829 98.2875C207.213 100.199 206.835 101.906 206.443 103.071C205.951 104.456 205.445 106.339 205.292 108.609C205.068 111.934 205.698 114.644 206.246 116.353M206.246 116.353C206.246 116.353 202.238 114.576 200.732 112.555C199.614 111.058 198.998 108.259 201.356 102.531C200.521 100.65 199.486 97.8328 198.967 94.2813C198.732 92.6729 198.375 90.2306 198.746 87.5213C199.487 82.1093 202.777 78.24 204.824 76.25C205.17 77.9483 205.807 80.4187 207.059 83.2127C208.452 86.3231 209.237 86.771 210.259 89.0493C212.088 93.1276 210.373 93.4914 211.827 100.51C212.563 104.06 213.748 107.934 212.394 111.269C212.285 111.538 212.163 111.771 212.038 111.988C210.494 114.653 207.871 115.835 206.246 116.353Z" stroke="black" stroke-width="1.5" stroke-linecap="round" stroke-linejoin="round"/>
<path d="M232.197 111.829C232.197 111.829 231.787 109.338 231.031 107.411C229.931 104.608 229.256 104.738 229.044 103.271C228.636 100.458 230.684 98.0389 230.871 95.2139C230.977 93.6031 230.457 91.9812 229.684 90.6258C228.912 89.2709 227.898 88.1424 226.89 87.0312C227.027 89.2781 225.764 91.2856 224.257 92.5539C222.749 93.8218 220.973 94.5652 219.392 95.701C217.812 96.8368 216.354 98.5453 216.101 100.763C215.975 101.874 216.151 103.088 215.716 104.069C215.395 104.789 214.798 105.252 214.224 105.685C213.493 106.238 212.762 106.789 212.031 107.342C210.891 108.203 210.351 108.687 210.082 109.296C209.915 109.672 209.511 110.799 210.133 112.791C212.83 112.817 215.595 112.791 218.425 112.705C223.212 112.56 227.807 112.256 232.197 111.829Z" fill="white"/>
<path d="M232.197 111.829C232.197 111.829 231.787 109.338 231.031 107.411C229.931 104.608 229.256 104.738 229.044 103.271C228.636 100.458 230.684 98.0389 230.871 95.2139C230.977 93.6031 230.457 91.9812 229.684 90.6258C228.912 89.2709 227.898 88.1424 226.89 87.0312C227.027 89.2781 225.764 91.2856 224.257 92.5539C222.749 93.8218 220.973 94.5652 219.392 95.701C217.812 96.8368 216.354 98.5453 216.101 100.763C215.975 101.874 216.151 103.088 215.716 104.069C215.395 104.789 214.798 105.252 214.224 105.685C213.493 106.238 212.762 106.789 212.031 107.342C210.891 108.203 210.351 108.687 210.082 109.296C209.915 109.672 209.511 110.799 210.133 112.791C212.83 112.817 215.595 112.791 218.425 112.705C223.212 112.56 227.807 112.256 232.197 111.829Z" stroke="black" stroke-width="1.5" stroke-linecap="round" stroke-linejoin="round"/>
<path d="M227.484 92.1875C225.967 93.5139 222.549 96.9111 221 102.877C220.302 105.568 220.186 108.001 220.237 109.806" fill="white"/>
<path d="M227.484 92.1875C225.967 93.5139 222.549 96.9111 221 102.877C220.302 105.568 220.186 108.001 220.237 109.806" stroke="black" stroke-width="1.5" stroke-linecap="round" stroke-linejoin="round"/>
<path d="M61.9731 163.194C57.3951 159.332 53.4305 154.743 50.2733 149.654C47.9166 145.855 46.001 141.756 44.886 137.427C43.8494 133.399 44.6833 130.637 43.1973 125.475C42.3982 122.7 41.395 120.524 40.6655 119.109" stroke="#232323" stroke-width="1.5" stroke-linecap="round" stroke-linejoin="round"/>
<path d="M60.7112 154.395C61.592 152.05 63.3978 150.042 65.6911 149.036C67.0257 148.451 68.5528 148.168 69.6059 147.161C70.0577 146.729 70.3949 146.184 70.8747 145.783C71.6458 145.138 72.6848 144.941 73.6745 144.766C74.0344 146.651 74.3957 148.554 74.3503 150.473C74.3048 152.393 73.8201 154.355 72.6427 155.871C70.5196 158.604 66.8632 159.27 63.8413 160.542C62.4714 161.118 61.1446 161.691 60.359 159.991C59.6083 158.367 60.1142 155.983 60.7112 154.395Z" fill="#D2F6A4"/>
<path d="M60.7112 154.395C61.592 152.05 63.3978 150.042 65.6911 149.036C67.0257 148.451 68.5528 148.168 69.6059 147.161C70.0577 146.729 70.3949 146.184 70.8747 145.783C71.6458 145.138 72.6848 144.941 73.6745 144.766C74.0344 146.651 74.3957 148.554 74.3503 150.473C74.3048 152.393 73.8201 154.355 72.6427 155.871C70.5196 158.604 66.8632 159.27 63.8413 160.542C62.4714 161.118 61.1446 161.691 60.359 159.991C59.6083 158.367 60.1142 155.983 60.7112 154.395Z" stroke="black" stroke-width="2" stroke-linecap="round" stroke-linejoin="round"/>
<path d="M51.0632 147.282C51.3026 145.955 52.1448 144.749 53.3081 144.067C55.2469 142.931 57.9161 143.218 59.5313 141.656C60.3139 140.898 60.713 139.813 61.4889 139.048C62.3722 138.178 63.6342 137.824 64.8546 137.606C66.5922 137.295 68.3665 137.192 70.1277 137.299C68.6983 138.003 67.9514 139.601 67.5263 141.137C67.1011 142.674 66.8713 144.306 66.0199 145.653C64.5775 147.936 61.7158 148.852 59.0422 149.233C57.0691 149.513 55.0636 149.606 53.1296 150.12C52.5656 150.27 51.5982 150.811 51.1183 150.254C50.7062 149.775 50.9606 147.851 51.0632 147.282Z" fill="#D2F6A4"/>
<path d="M51.0632 147.282C51.3026 145.955 52.1448 144.749 53.3081 144.067C55.2469 142.931 57.9161 143.218 59.5313 141.656C60.3139 140.898 60.713 139.813 61.4889 139.048C62.3722 138.178 63.6342 137.824 64.8546 137.606C66.5922 137.295 68.3665 137.192 70.1277 137.299C68.6983 138.003 67.9514 139.601 67.5263 141.137C67.1011 142.674 66.8713 144.306 66.0199 145.653C64.5775 147.936 61.7158 148.852 59.0422 149.233C57.0691 149.513 55.0636 149.606 53.1296 150.12C52.5656 150.27 51.5982 150.811 51.1183 150.254C50.7062 149.775 50.9606 147.851 51.0632 147.282Z" stroke="black" stroke-width="2" stroke-linecap="round" stroke-linejoin="round"/>
<path d="M49.7129 130.863C50.6968 130.35 51.8248 130.049 52.6177 129.274C53.6132 128.3 53.871 126.78 54.7635 125.711C55.4421 124.897 56.4275 124.413 57.3823 123.953C57.9473 125.556 58.5186 127.187 58.5965 128.885C58.6744 130.583 58.1882 132.387 56.9291 133.529C56.3515 134.053 55.6458 134.41 54.9492 134.761C52.1746 136.161 50.5962 137.112 49.3743 138.11C48.5147 138.813 47.3896 139.956 46.4071 141.827C46.2678 141.49 46.0985 141.02 45.966 140.447C45.8968 140.15 45.7715 138.663 45.8721 136.86C46.0105 134.377 47.5008 132.015 49.7129 130.863Z" fill="#D2F6A4"/>
<path d="M49.7129 130.863C50.6968 130.35 51.8248 130.049 52.6177 129.274C53.6132 128.3 53.871 126.78 54.7635 125.711C55.4421 124.897 56.4275 124.413 57.3823 123.953C57.9473 125.556 58.5186 127.187 58.5965 128.885C58.6744 130.583 58.1882 132.387 56.9291 133.529C56.3515 134.053 55.6458 134.41 54.9492 134.761C52.1746 136.161 50.5962 137.112 49.3743 138.11C48.5147 138.813 47.3896 139.956 46.4071 141.827C46.2678 141.49 46.0985 141.02 45.966 140.447C45.8968 140.15 45.7715 138.663 45.8721 136.86C46.0105 134.377 47.5008 132.015 49.7129 130.863Z" stroke="black" stroke-width="2" stroke-linecap="round" stroke-linejoin="round"/>
<path d="M47.3487 148.344C46.8059 147.986 46.2327 147.626 45.587 147.551C44.7225 147.45 43.8963 147.872 43.0605 148.114C40.6085 148.823 38.0181 147.983 35.5037 147.546C34.6596 147.399 33.7831 147.3 32.9535 147.515C32.1244 147.73 31.3451 148.322 31.1294 149.151C32.8969 149.964 34.3171 151.356 35.8177 152.595C37.3182 153.833 39.033 154.977 40.9732 155.123C42.3286 155.225 43.6666 154.829 44.9683 154.438C46.1297 154.088 47.3042 153.733 48.3456 153.112C49.1186 152.651 50.6361 151.584 50.3168 150.532C50.0754 149.735 47.9978 148.773 47.3487 148.344Z" fill="#D2F6A4"/>
<path d="M47.3487 148.344C46.8059 147.986 46.2327 147.626 45.587 147.551C44.7225 147.45 43.8963 147.872 43.0605 148.114C40.6085 148.823 38.0181 147.983 35.5037 147.546C34.6596 147.399 33.7831 147.3 32.9535 147.515C32.1244 147.73 31.3451 148.322 31.1294 149.151C32.8969 149.964 34.3171 151.356 35.8177 152.595C37.3182 153.833 39.033 154.977 40.9732 155.123C42.3286 155.225 43.6666 154.829 44.9683 154.438C46.1297 154.088 47.3042 153.733 48.3456 153.112C49.1186 152.651 50.6361 151.584 50.3168 150.532C50.0754 149.735 47.9978 148.773 47.3487 148.344Z" stroke="black" stroke-width="2" stroke-linecap="round" stroke-linejoin="round"/>
<path d="M40.1165 136.003C39.5244 135.957 38.9256 135.997 38.3374 135.913C37.4555 135.788 36.6385 135.393 35.838 135.003C34.9063 134.549 33.9751 134.095 33.0435 133.641C32.8282 135.26 33.1441 136.944 33.9311 138.375C34.2702 138.992 34.7109 139.577 35.3194 139.93C35.793 140.205 36.3381 140.323 36.8736 140.438C37.8053 140.637 38.7466 140.837 39.6995 140.825C41.0675 140.807 45.4689 141.074 44.931 139.067C44.4642 137.325 41.7012 136.126 40.1165 136.003Z" fill="#D2F6A4"/>
<path d="M40.1165 136.003C39.5244 135.957 38.9256 135.997 38.3374 135.913C37.4555 135.788 36.6385 135.393 35.838 135.003C34.9063 134.549 33.9751 134.095 33.0435 133.641C32.8282 135.26 33.1441 136.944 33.9311 138.375C34.2702 138.992 34.7109 139.577 35.3194 139.93C35.793 140.205 36.3381 140.323 36.8736 140.438C37.8053 140.637 38.7466 140.837 39.6995 140.825C41.0675 140.807 45.4689 141.074 44.931 139.067C44.4642 137.325 41.7012 136.126 40.1165 136.003Z" stroke="black" stroke-width="2" stroke-linecap="round" stroke-linejoin="round"/>
<path d="M44.6247 123.759C44.8269 121.979 44.6146 120.099 43.6883 118.566C42.3841 116.408 39.7232 114.945 39.4571 112.438C38.4819 114.693 37.4879 117.177 38.1617 119.54C38.3179 120.087 38.5593 120.605 38.8055 121.117C39.7077 122.994 40.7187 125.957 42.2289 127.414C44.1135 129.233 44.4787 125.044 44.6247 123.759Z" fill="#D2F6A4"/>
<path d="M44.6247 123.759C44.8269 121.979 44.6146 120.099 43.6883 118.566C42.3841 116.408 39.7232 114.945 39.4571 112.438C38.4819 114.693 37.4879 117.177 38.1617 119.54C38.3179 120.087 38.5593 120.605 38.8055 121.117C39.7077 122.994 40.7187 125.957 42.2289 127.414C44.1135 129.233 44.4787 125.044 44.6247 123.759Z" stroke="black" stroke-width="2" stroke-linecap="round" stroke-linejoin="round"/>
<path d="M35.1748 136.492C35.1748 136.492 36.4925 138.469 39.3165 138.845C42.1404 139.222 44.931 139.068 44.931 139.068" stroke="black" stroke-width="1.5" stroke-linecap="round" stroke-linejoin="round"/>
<path d="M55.3181 128.867C54.8717 129.874 54.0372 131.406 52.4947 132.726C50.626 134.326 49.1918 134.352 47.7875 135.928C47.0982 136.701 46.2338 138.053 45.9653 140.446" stroke="black" stroke-width="1.5" stroke-linecap="round" stroke-linejoin="round"/>
<path d="M51.1187 150.249C51.7422 150.228 51.4597 147.404 55.8838 145.804C60.308 144.204 61.2493 144.392 62.567 143.168C63.8846 141.945 64.7316 140.156 64.7316 140.156" stroke="black" stroke-width="1.5" stroke-linecap="round" stroke-linejoin="round"/>
<path d="M34.7041 149.477C34.7041 149.477 36.3986 150.889 40.0696 151.265C43.741 151.642 49.4829 150.607 49.4829 150.607" stroke="black" stroke-width="1.5" stroke-linecap="round" stroke-linejoin="round"/>
<path d="M60.9355 160.462C62.1976 156.682 63.9835 155.11 65.3911 154.375C66.7494 153.665 67.921 153.648 69.4075 152.492C70.9124 151.321 71.6888 149.799 72.1057 148.727" stroke="black" stroke-width="1.5" stroke-linecap="round" stroke-linejoin="round"/>
<path d="M170.906 136.693C170.906 136.693 174.178 134.263 175.865 129.564C176.867 126.77 176.561 126.308 176.428 120.078C176.36 116.892 176.751 113.426 178.942 111.113C180.154 109.834 181.789 109.051 183.167 107.954C186.755 105.095 188.268 100.429 189.599 96.0391C191.73 102.714 193.873 109.901 191.811 116.597C191.23 118.488 189.843 120.922 188.886 125.322C187.72 130.681 188.562 131.949 187.298 133.97C183.832 139.512 170.906 136.693 170.906 136.693Z" fill="white"/>
<path d="M170.906 136.693C170.906 136.693 174.178 134.263 175.865 129.564C176.867 126.77 176.561 126.308 176.428 120.078C176.36 116.892 176.751 113.426 178.942 111.113C180.154 109.834 181.789 109.051 183.167 107.954C186.755 105.095 188.268 100.429 189.599 96.0391C191.73 102.714 193.873 109.901 191.811 116.597C191.23 118.488 189.843 120.922 188.886 125.322C187.72 130.681 188.562 131.949 187.298 133.97C183.832 139.512 170.906 136.693 170.906 136.693Z" stroke="black" stroke-width="1.5" stroke-linecap="round" stroke-linejoin="round"/>
<path d="M189.171 110.821C189.137 110.791 185.472 113.632 183.923 117.213C182.633 120.198 184.017 120.909 182.776 125.297C182.424 126.541 181.751 128.843 180.07 131.097C177.578 134.436 174.169 135.933 172.117 136.602" fill="white"/>
<path d="M189.171 110.821C189.137 110.791 185.472 113.632 183.923 117.213C182.633 120.198 184.017 120.909 182.776 125.297C182.424 126.541 181.751 128.843 180.07 131.097C177.578 134.436 174.169 135.933 172.117 136.602" stroke="black" stroke-width="1.5" stroke-linecap="round" stroke-linejoin="round"/>
<path d="M187.521 82.625C189.171 85.7977 190.999 88.8786 192.993 91.8482" stroke="#232323" stroke-width="1.5" stroke-linecap="round" stroke-linejoin="round"/>
<path d="M186.26 85.5024C187.055 86.4404 188.31 86.9686 189.536 86.8829C189.881 86.8588 190.251 86.7731 190.472 86.5071C190.634 86.3122 190.689 86.0524 190.738 85.8038C190.844 85.2717 190.947 84.7004 190.73 84.2031" stroke="#232323" stroke-width="1.5" stroke-linecap="round" stroke-linejoin="round"/>
<path d="M187.239 88.9258C188.387 89.7593 189.63 90.5685 191.039 90.7287C191.461 90.7765 191.909 90.7596 192.28 90.5531C192.679 90.331 192.936 89.9223 193.142 89.515C193.552 88.7072 193.832 87.7397 193.477 86.9062" stroke="#232323" stroke-width="1.5" stroke-linecap="round" stroke-linejoin="round"/>
<path d="M172.842 126.409C172.172 126.964 171.374 127.365 170.528 127.571C170.241 127.642 169.945 127.69 169.676 127.813C169.377 127.949 169.125 128.169 168.882 128.39C168.503 128.733 167.929 129.572 167.379 129.625C166.792 129.681 165.805 128.855 165.3 128.578C165.145 128.493 162.859 127.135 162.799 127.205C162.799 127.205 164.441 125.289 167.832 124.594C171.224 123.899 175.03 125.022 175.03 125.022C175.03 125.022 175.824 125.422 175.477 127.016C175.13 128.611 172.094 132.308 172.094 132.308C172.094 132.308 169.809 131.053 167.504 129.788" fill="white"/>
<path d="M172.842 126.409C172.172 126.964 171.374 127.365 170.528 127.571C170.241 127.642 169.945 127.69 169.676 127.813C169.377 127.949 169.125 128.169 168.882 128.39C168.503 128.733 167.929 129.572 167.379 129.625C166.792 129.681 165.805 128.855 165.3 128.578C165.145 128.493 162.859 127.135 162.799 127.205C162.799 127.205 164.441 125.289 167.832 124.594C171.224 123.899 175.03 125.022 175.03 125.022C175.03 125.022 175.824 125.422 175.477 127.016C175.13 128.611 172.094 132.308 172.094 132.308C172.094 132.308 169.809 131.053 167.504 129.788" stroke="black" stroke-width="1.5" stroke-linecap="round" stroke-linejoin="round"/>
<path d="M84.1107 122.804C85.779 123.367 87.6302 123.245 89.2676 123.892C91.7569 124.875 93.2303 127.377 94.7134 129.605C96.197 131.833 98.2132 134.128 100.887 134.249C103.116 134.35 105.132 132.882 107.353 132.661C110.035 132.395 112.52 133.955 114.762 135.451C112.405 131.191 108.275 128.257 104.281 125.472C101.325 123.41 98.3694 121.348 95.4139 119.286C93.5167 117.963 91.6084 116.633 89.5173 115.644C87.4459 114.664 79.8548 111.822 78.3635 114.601C76.8683 117.387 81.8841 122.053 84.1107 122.804Z" fill="white"/>
<path d="M84.1107 122.804C85.779 123.367 87.6302 123.245 89.2676 123.892C91.7569 124.875 93.2303 127.377 94.7134 129.605C96.197 131.833 98.2132 134.128 100.887 134.249C103.116 134.35 105.132 132.882 107.353 132.661C110.035 132.395 112.52 133.955 114.762 135.451C112.405 131.191 108.275 128.257 104.281 125.472C101.325 123.41 98.3694 121.348 95.4139 119.286C93.5167 117.963 91.6084 116.633 89.5173 115.644C87.4459 114.664 79.8548 111.822 78.3635 114.601C76.8683 117.387 81.8841 122.053 84.1107 122.804Z" stroke="black" stroke-width="1.5" stroke-linecap="round" stroke-linejoin="round"/>
<path d="M94.9308 47.6691C94.9308 47.6691 94.5163 40.213 99.488 35.9659L104.46 31.7188" stroke="#232323" stroke-width="1.5" stroke-linecap="round" stroke-linejoin="round"/>
<path d="M106.424 31.7989C106.365 31.9706 105.653 31.8826 104.834 31.602C104.014 31.3214 103.398 30.9548 103.456 30.7831C103.515 30.6113 104.228 30.6994 105.047 30.9799C105.866 31.2605 106.483 31.6271 106.424 31.7989Z" stroke="#232323" stroke-width="1.5" stroke-linecap="round" stroke-linejoin="round"/>
<line x1="98.6088" y1="35.3681" x2="98.1021" y2="32.7665" stroke="#232323" stroke-width="1.5" stroke-linecap="round" stroke-linejoin="round"/>
<path d="M100.146 30.9011C100.173 31.0806 99.5006 31.3311 98.6439 31.4603C97.7877 31.5895 97.0713 31.5483 97.0442 31.3689C97.0172 31.1894 97.6895 30.9388 98.5462 30.8097C99.4024 30.6805 100.119 30.7217 100.146 30.9011Z" stroke="#232323" stroke-width="1.5" stroke-linecap="round" stroke-linejoin="round"/>
<path d="M107.524 35.7402C107.475 35.9158 106.759 35.8674 105.925 35.6342C105.091 35.4006 104.455 35.0693 104.504 34.8941C104.552 34.72 105.268 34.7669 106.102 35.0006C106.937 35.2347 107.573 35.5651 107.524 35.7402Z" stroke="#232323" stroke-width="1.5" stroke-linecap="round" stroke-linejoin="round"/>
<line x1="97.8461" y1="37.4638" x2="104.796" y2="34.9895" stroke="#232323" stroke-width="1.5" stroke-linecap="round" stroke-linejoin="round"/>
<path d="M90.7886 38.4962C90.7886 38.4962 91.3057 33.835 90.063 30.6245L88.8203 27.4141" stroke="#232323" stroke-width="1.5" stroke-linecap="round" stroke-linejoin="round"/>
<line x1="90.4567" y1="33.3271" x2="91.6056" y2="30.658" stroke="#232323" stroke-width="1.5" stroke-linecap="round" stroke-linejoin="round"/>
<line x1="86.9297" y1="30.2822" x2="90.8051" y2="34.2803" stroke="#232323" stroke-width="1.5" stroke-linecap="round" stroke-linejoin="round"/>
<path d="M90.372 26.8464C90.3991 27.0259 89.7267 27.2765 88.87 27.4056C88.0138 27.5348 87.2974 27.4937 87.2703 27.3142C87.2432 27.1347 87.9156 26.8842 88.7723 26.755C89.6285 26.6259 90.3449 26.667 90.372 26.8464Z" stroke="#232323" stroke-width="1.5" stroke-linecap="round" stroke-linejoin="round"/>
<path d="M87.5082 29.9167C87.5353 30.0962 86.8629 30.3468 86.0062 30.4759C85.15 30.6051 84.4337 30.564 84.4066 30.3845C84.3795 30.205 85.0518 29.9545 85.9085 29.8253C86.7647 29.6962 87.4811 29.7373 87.5082 29.9167Z" stroke="#232323" stroke-width="1.5" stroke-linecap="round" stroke-linejoin="round"/>
<path d="M94.4715 30.0776C94.4526 30.258 93.7386 30.331 92.8771 30.2401C92.0161 30.1492 91.3331 29.9291 91.3519 29.7482C91.3713 29.5677 92.0848 29.4952 92.9463 29.5861C93.8078 29.677 94.4903 29.8971 94.4715 30.0776Z" stroke="#232323" stroke-width="1.5" stroke-linecap="round" stroke-linejoin="round"/>
<path d="M178.131 12.0799C186.651 11.3582 186.283 21.6015 180.701 22.1776C193.166 35.8235 174.658 32.8723 173.244 45.5599C170.108 44.3163 160.73 42.5986 162.579 34.755L156.808 46.7915C141.391 34.9354 160.956 26.505 160.956 26.505C160.956 26.505 140.219 32.4558 143.916 10.9528C143.916 10.9528 158.018 21.6596 155.862 18.7964C150.632 11.8545 151.747 3.309 152.86 0.65625C157.626 4.51976 163.568 1.63821 169.027 2.51133C174.266 2.75368 179.016 7.89519 178.131 12.0799Z" fill="#444444"/>
<path d="M179.215 15.7557C179.215 16.536 179.847 17.1682 180.627 17.1682C181.407 17.1682 182.04 16.536 182.04 15.7557C182.04 14.976 181.407 14.3438 180.627 14.3438C179.847 14.3438 179.215 14.976 179.215 15.7557Z" fill="black"/>
<path d="M184.294 14.8054L187.651 14.6797L184.702 17.2212L184.294 14.8054Z" fill="#444444"/>
<path d="M39.5806 118.039C40.9805 119.187 41.6282 121.009 42.0166 122.777C42.4045 124.545 42.6058 126.382 43.3812 128.018" stroke="#232323" stroke-width="1.5" stroke-linecap="round" stroke-linejoin="round"/>
<path d="M54.0951 112.391C54.0951 113.535 53.2099 114.462 52.1181 114.462C51.0263 114.462 50.1416 113.535 50.1416 112.391C50.1416 111.248 51.0263 110.32 52.1181 110.32C53.2099 110.32 54.0951 111.248 54.0951 112.391Z" stroke="#232323" stroke-width="1.5" stroke-linecap="round" stroke-linejoin="round"/>
<path d="M167.524 112.766C167.524 113.91 166.639 114.837 165.547 114.837C164.455 114.837 163.57 113.91 163.57 112.766C163.57 111.623 164.455 110.695 165.547 110.695C166.639 110.695 167.524 111.623 167.524 112.766Z" stroke="#232323" stroke-width="1.5" stroke-linecap="round" stroke-linejoin="round"/>
<path d="M102.315 50.4674C102.315 50.747 102.088 50.9739 101.808 50.9739C101.529 50.9739 101.302 50.747 101.302 50.4674C101.302 50.1878 101.529 49.9609 101.808 49.9609C102.088 49.9609 102.315 50.1878 102.315 50.4674Z" fill="white"/>
<path d="M138.174 98.0298C139.557 93.4567 137.234 88.5261 134.073 84.9426C130.48 80.8692 127.672 79.702 123.865 74.8971C120.631 70.8145 119.188 66.5974 118.481 63.8203" stroke="#232323" stroke-width="1.5" stroke-linecap="round" stroke-linejoin="round"/>
<path d="M133.333 79.4221C132.579 76.7476 128.865 73.9483 130.589 71.3691C132.087 69.1304 135.234 61.0212 137.976 64.6042C137.162 70.0344 138.181 75.1194 138.074 80.9047C137.948 87.6207 131.58 85.5697 133.333 79.4221Z" fill="white"/>
<path d="M133.333 79.4221C132.579 76.7476 128.865 73.9483 130.589 71.3691C132.087 69.1304 135.234 61.0212 137.976 64.6042C137.162 70.0344 138.181 75.1194 138.074 80.9047C137.948 87.6207 131.58 85.5697 133.333 79.4221Z" stroke="black" stroke-width="1.5" stroke-linecap="round" stroke-linejoin="round"/>
<path d="M116.145 67.7508C115.212 67.3861 114.233 67.0944 113.411 66.5222C111.444 65.1547 111.432 63.881 109.962 62.3559C107.486 59.7849 103.298 59.1304 102.666 60.0528C102.425 60.405 102.707 60.9816 103.175 61.9384C103.881 63.3828 104.729 64.2143 105.656 65.233C106.838 66.5333 108.021 67.8331 109.204 69.1333C110.803 70.8907 111.716 71.6608 112.563 72.2021C113.455 72.7719 115.283 73.9067 117.854 73.9841C119.487 74.033 120.796 73.6358 121.584 73.3272C119.742 69.8681 117.73 68.37 116.145 67.7508Z" fill="white"/>
<path d="M116.145 67.7508C115.212 67.3861 114.233 67.0944 113.411 66.5222C111.444 65.1547 111.432 63.881 109.962 62.3559C107.486 59.7849 103.298 59.1304 102.666 60.0528C102.425 60.405 102.707 60.9816 103.175 61.9384C103.881 63.3828 104.729 64.2143 105.656 65.233C106.838 66.5333 108.021 67.8331 109.204 69.1333C110.803 70.8907 111.716 71.6608 112.563 72.2021C113.455 72.7719 115.283 73.9067 117.854 73.9841C119.487 74.033 120.796 73.6358 121.584 73.3272C119.742 69.8681 117.73 68.37 116.145 67.7508Z" stroke="black" stroke-width="1.5" stroke-linecap="round" stroke-linejoin="round"/>
<path d="M123.475 51.695C122.919 50.5327 121.724 49.7016 120.441 49.5841C119.79 49.5241 119.138 49.6349 118.486 49.6668C116.425 49.7669 114.406 49.0781 112.346 48.946C110.286 48.8145 107.911 49.4646 107.035 51.3337C104.689 56.3388 112.261 58.1436 115.557 58.325C118.936 58.5112 125.643 56.2174 123.475 51.695Z" fill="white"/>
<path d="M123.475 51.695C122.919 50.5327 121.724 49.7016 120.441 49.5841C119.79 49.5241 119.138 49.6349 118.486 49.6668C116.425 49.7669 114.406 49.0781 112.346 48.946C110.286 48.8145 107.911 49.4646 107.035 51.3337C104.689 56.3388 112.261 58.1436 115.557 58.325C118.936 58.5112 125.643 56.2174 123.475 51.695Z" stroke="black" stroke-width="1.5" stroke-linecap="round" stroke-linejoin="round"/>
<path d="M109.871 45.2417C109.06 45.217 108.234 45.1943 107.455 45.4177C106.531 45.6828 105.731 46.2812 105.077 46.985C103.372 48.8188 102.577 51.4924 103.118 53.9376C103.659 56.3828 105.566 58.5054 107.973 59.1957C108.713 59.408 109.494 59.4932 110.203 59.7969C111.718 60.4471 112.669 61.9863 114.096 62.8139C115.486 63.6198 117.176 63.6706 118.783 63.6213C120.405 63.571 122.05 63.435 123.573 62.8691C125.094 62.3036 126.497 61.2578 127.186 59.7882C128.363 57.2792 127.24 54.3468 126.119 51.8121C125.566 50.5631 125.001 49.2924 124.101 48.265C120.749 44.4372 114.406 45.3795 109.871 45.2417Z" stroke="#232323" stroke-width="1.5" stroke-linecap="round" stroke-linejoin="round"/>
<path d="M112.753 60.4609C114.271 61.3592 116.046 61.8173 117.808 61.7651C118.482 61.7452 119.173 61.6456 119.754 61.305" stroke="#232323" stroke-width="1.5" stroke-linecap="round" stroke-linejoin="round"/>
<path d="M124.212 57.625C123.746 58.9688 122.136 59.794 120.773 59.3882" stroke="#232323" stroke-width="1.5" stroke-linecap="round" stroke-linejoin="round"/>
<path d="M105.229 54.4062C105.384 55.2678 106.078 56.0079 106.928 56.2183" stroke="#232323" stroke-width="1.5" stroke-linecap="round" stroke-linejoin="round"/>
<path d="M106.688 49.2755C107.457 48.3545 108.555 47.715 109.735 47.5022C110.079 47.4398 110.495 47.4403 110.703 47.7218" stroke="#232323" stroke-width="1.5" stroke-linecap="round" stroke-linejoin="round"/>
<path d="M114.369 47.6506C115.876 47.6148 117.387 47.6757 118.887 47.8334" stroke="#232323" stroke-width="1.5" stroke-linecap="round" stroke-linejoin="round"/>
<path d="M109.17 58.1094C109.796 58.5926 110.568 58.8853 111.357 58.939" stroke="#232323" stroke-width="1.5" stroke-linecap="round" stroke-linejoin="round"/>
<path d="M122.718 61.2472C123.284 60.9231 123.833 60.5506 124.249 60.049C124.664 59.5469 124.936 58.8987 124.874 58.25" stroke="#232323" stroke-width="1.5" stroke-linecap="round" stroke-linejoin="round"/>
<path d="M121.605 48.0469C122.51 48.3178 123.231 49.1265 123.398 50.0567" stroke="#232323" stroke-width="1.5" stroke-linecap="round" stroke-linejoin="round"/>
<path d="M105.067 51.7639C104.362 50.5212 104.862 48.7459 106.113 48.0547" stroke="#232323" stroke-width="1.5" stroke-linecap="round" stroke-linejoin="round"/>
<path d="M113.053 53.2778C113.053 53.8496 112.589 54.3135 112.017 54.3135C111.445 54.3135 110.982 53.8496 110.982 53.2778C110.982 52.7061 111.445 52.2422 112.017 52.2422C112.589 52.2422 113.053 52.7061 113.053 53.2778Z" fill="white"/>
<path d="M116.284 54.5324C116.284 54.8957 115.99 55.1898 115.627 55.1898C115.264 55.1898 114.97 54.8957 114.97 54.5324C114.97 54.1691 115.264 53.875 115.627 53.875C115.99 53.875 116.284 54.1691 116.284 54.5324Z" fill="white"/>
<path d="M115.908 50.9551C115.908 51.241 115.677 51.4727 115.391 51.4727C115.105 51.4727 114.873 51.241 114.873 50.9551C114.873 50.6692 115.105 50.4375 115.391 50.4375C115.677 50.4375 115.908 50.6692 115.908 50.9551Z" fill="white"/>
<path d="M121.273 52.5195C121.273 53.0918 120.81 53.5557 120.238 53.5557C119.666 53.5557 119.203 53.0918 119.203 52.5195C119.203 51.9483 119.666 51.4844 120.238 51.4844C120.81 51.4844 121.273 51.9483 121.273 52.5195Z" fill="white"/>
<path d="M241.951 103.539C241.951 104.683 241.065 105.61 239.974 105.61C238.882 105.61 237.997 104.683 237.997 103.539C237.997 102.396 238.882 101.469 239.974 101.469C241.065 101.469 241.951 102.396 241.951 103.539Z" stroke="#232323" stroke-width="1.5" stroke-linecap="round" stroke-linejoin="round"/>
<path d="M196.469 69.6528C196.469 70.2246 196.027 70.6885 195.481 70.6885C194.935 70.6885 194.492 70.2246 194.492 69.6528C194.492 69.0811 194.935 68.6172 195.481 68.6172C196.027 68.6172 196.469 69.0811 196.469 69.6528Z" fill="#444444"/>
<path d="M109.931 81.8638C109.931 82.4355 109.488 82.8994 108.942 82.8994C108.396 82.8994 107.954 82.4355 107.954 81.8638C107.954 81.292 108.396 80.8281 108.942 80.8281C109.488 80.8281 109.931 81.292 109.931 81.8638Z" fill="#444444"/>
<path d="M196.14 36.3364C196.14 37.48 195.254 38.4073 194.163 38.4073C193.071 38.4073 192.186 37.48 192.186 36.3364C192.186 35.1929 193.071 34.2656 194.163 34.2656C195.254 34.2656 196.14 35.1929 196.14 36.3364Z" fill="#D2F6A4"/>
<path d="M196.14 36.3364C196.14 37.48 195.254 38.4073 194.163 38.4073C193.071 38.4073 192.186 37.48 192.186 36.3364C192.186 35.1929 193.071 34.2656 194.163 34.2656C195.254 34.2656 196.14 35.1929 196.14 36.3364Z" stroke="black" stroke-width="2" stroke-linecap="round" stroke-linejoin="round"/>
<path d="M119.16 96.3074C119.024 95.2475 118.891 94.1446 119.23 93.1307C119.501 92.3186 120.054 91.6331 120.428 90.8625C121.771 88.0976 120.654 84.7444 121.404 81.7637C121.466 81.5189 121.548 81.2655 121.733 81.0942C121.931 80.9114 122.21 80.8548 122.476 80.8112C123.886 80.5795 125.41 80.5302 126.662 81.2185C129.139 82.5807 129.395 85.9706 130.751 88.4512C131.826 90.4151 133.646 91.8411 135.117 93.5284C137.811 96.6189 139.321 100.598 140.053 104.633C140.785 108.667 140.789 112.793 140.79 116.893C140.79 117.142 140.779 117.419 140.602 117.593C140.448 117.745 140.213 117.773 139.996 117.779C136.888 117.882 134.277 115.632 131.462 114.311C129.974 113.613 128.362 113.153 127.003 112.23C125.63 111.298 124.649 109.953 123.419 108.863C122.61 108.146 121.842 107.678 121.341 106.686C119.803 103.641 119.59 99.6368 119.16 96.3074Z" fill="#D2F6A4"/>
<path d="M119.16 96.3074C119.024 95.2475 118.891 94.1446 119.23 93.1307C119.501 92.3186 120.054 91.6331 120.428 90.8625C121.771 88.0976 120.654 84.7444 121.404 81.7637C121.466 81.5189 121.548 81.2655 121.733 81.0942C121.931 80.9114 122.21 80.8548 122.476 80.8112C123.886 80.5795 125.41 80.5302 126.662 81.2185C129.139 82.5807 129.395 85.9706 130.751 88.4512C131.826 90.4151 133.646 91.8411 135.117 93.5284C137.811 96.6189 139.321 100.598 140.053 104.633C140.785 108.667 140.789 112.793 140.79 116.893C140.79 117.142 140.779 117.419 140.602 117.593C140.448 117.745 140.213 117.773 139.996 117.779C136.888 117.882 134.277 115.632 131.462 114.311C129.974 113.613 128.362 113.153 127.003 112.23C125.63 111.298 124.649 109.953 123.419 108.863C122.61 108.146 121.842 107.678 121.341 106.686C119.803 103.641 119.59 99.6368 119.16 96.3074Z" stroke="black" stroke-width="2" stroke-linecap="round" stroke-linejoin="round"/>
<path d="M124.599 84.4062C124.536 85.2121 124.544 86.4509 125.058 87.7822C125.904 89.9744 127.264 90.1901 128.27 91.9374C129.744 94.4938 127.832 95.7684 128.769 99.6794C129.435 102.457 130.612 102.699 132.034 106.128C133.185 108.902 133.515 111.398 133.619 113.037" stroke="black" stroke-width="1.5" stroke-linecap="round" stroke-linejoin="round"/>
<path d="M113.98 105.985C114.386 104.369 114.307 102.634 113.754 101.062C113.57 100.54 113.334 100.033 113.009 99.5843C112.606 99.0275 112.078 98.5762 111.569 98.1138C109.627 96.3481 107.799 94.1017 107.766 91.4766" stroke="#232323" stroke-width="1.5" stroke-linecap="round" stroke-linejoin="round"/>
<path d="M114.276 103.45C115.2 102.044 115.638 100.162 117.128 99.3819C117.47 99.203 117.844 99.0985 118.206 98.965C118.686 98.7865 119.146 98.5557 119.604 98.3255C120.805 97.7213 122.025 97.1046 123.001 96.1797" stroke="#232323" stroke-width="1.5" stroke-linecap="round" stroke-linejoin="round"/>
<path d="M114.959 102.562C115.11 102.94 115.385 103.267 115.73 103.483" stroke="#232323" stroke-width="1.5" stroke-linecap="round" stroke-linejoin="round"/>
<path d="M116.162 100.312C116.307 101.047 116.69 101.732 117.24 102.239" stroke="#232323" stroke-width="1.5" stroke-linecap="round" stroke-linejoin="round"/>
<path d="M117.37 99.3594C117.49 100.296 117.962 101.184 118.671 101.808" stroke="#232323" stroke-width="1.5" stroke-linecap="round" stroke-linejoin="round"/>
<path d="M118.983 98.6562C118.958 98.8933 118.926 99.5245 119.295 100.182C119.77 101.029 120.572 101.313 120.765 101.376" stroke="#232323" stroke-width="1.5" stroke-linecap="round" stroke-linejoin="round"/>
<path d="M120.297 98.0703C120.382 98.3131 120.625 98.9091 121.242 99.3735C121.714 99.73 122.189 99.8451 122.441 99.8877" stroke="#232323" stroke-width="1.5" stroke-linecap="round" stroke-linejoin="round"/>
<path d="M121.514 97.4844C121.919 98.0953 122.522 98.5723 123.21 98.8262" stroke="#232323" stroke-width="1.5" stroke-linecap="round" stroke-linejoin="round"/>
<path d="M122.61 96.6016C122.694 96.7675 122.889 97.0988 123.275 97.3615C123.594 97.5787 123.904 97.6537 124.081 97.6827" stroke="#232323" stroke-width="1.5" stroke-linecap="round" stroke-linejoin="round"/>
<path d="M105.441 92.4844C105.704 92.6808 106.145 92.9599 106.753 93.1224C107.225 93.2487 107.637 93.2622 107.928 93.2477" stroke="#232323" stroke-width="1.5" stroke-linecap="round" stroke-linejoin="round"/>
<path d="M105.977 94.2422C106.211 94.5223 106.585 94.6355 106.936 94.7346C107.443 94.8778 107.993 95.019 108.484 94.8285" stroke="#232323" stroke-width="1.5" stroke-linecap="round" stroke-linejoin="round"/>
<path d="M109.407 95.8047C109.048 96.4243 108.289 96.7852 107.582 96.673" stroke="#232323" stroke-width="1.5" stroke-linecap="round" stroke-linejoin="round"/>
<path d="M110.318 97.0547C109.791 97.5612 109.079 97.8698 108.349 97.907" stroke="#232323" stroke-width="1.5" stroke-linecap="round" stroke-linejoin="round"/>
<path d="M111.286 97.9453C111.126 98.2152 110.739 98.7856 110.006 99.1977C109.215 99.6427 108.468 99.6514 108.155 99.6374" stroke="#232323" stroke-width="1.5" stroke-linecap="round" stroke-linejoin="round"/>
<path d="M112.073 98.6172C112.04 98.8508 111.934 99.3732 111.524 99.8661C110.977 100.523 110.26 100.682 110.048 100.721" stroke="#232323" stroke-width="1.5" stroke-linecap="round" stroke-linejoin="round"/>
<path d="M113.087 99.7734C112.995 100.179 112.892 100.586 112.714 100.962C112.535 101.338 112.275 101.685 111.923 101.907C111.657 102.075 111.35 102.165 111.043 102.234" stroke="#232323" stroke-width="1.5" stroke-linecap="round" stroke-linejoin="round"/>
<path d="M114.026 102.414C113.672 102.877 113.093 103.159 112.51 103.151" stroke="#232323" stroke-width="1.5" stroke-linecap="round" stroke-linejoin="round"/>
<path d="M207.196 64.7527C201.794 62.7568 196.394 60.7615 190.992 58.7661L190.646 56.6899C190.646 56.6899 200.024 58.8474 200.4 58.9156L197.662 57.625C195.605 55.9363 193.547 54.2471 191.49 52.5584C191.192 51.7463 190.917 50.7213 191.333 50.3764C192.064 49.7707 194.55 51.5794 194.69 51.3661C194.828 51.1571 192.266 49.6871 192.537 48.5116C192.651 48.0197 193.218 47.7584 193.56 47.6012C194.88 46.9947 196.205 47.6399 196.447 47.7628C196.447 47.7628 195.754 46.8355 195.912 46.2067C196.05 45.6571 196.863 45.3848 197.527 45.2416C200.198 46.6173 203.016 48.1957 205.93 50.0058C208.343 51.5044 210.579 53.0127 212.644 54.4958C212.644 54.4958 210.848 48.4458 210.504 46.181C210.16 43.9162 212.408 44.7023 212.408 44.7023L219.652 58.2369" fill="#F08566"/>
<path d="M207.196 64.7527C201.794 62.7568 196.394 60.7615 190.992 58.7661L190.646 56.6899C190.646 56.6899 200.024 58.8474 200.4 58.9156L197.662 57.625C195.605 55.9363 193.547 54.2471 191.49 52.5584C191.192 51.7463 190.917 50.7213 191.333 50.3764C192.064 49.7707 194.55 51.5794 194.69 51.3661C194.828 51.1571 192.266 49.6871 192.537 48.5116C192.651 48.0197 193.218 47.7584 193.56 47.6012C194.88 46.9947 196.205 47.6399 196.447 47.7628C196.447 47.7628 195.754 46.8355 195.912 46.2067C196.05 45.6571 196.863 45.3848 197.527 45.2416C200.198 46.6173 203.016 48.1957 205.93 50.0058C208.343 51.5044 210.579 53.0127 212.644 54.4958C212.644 54.4958 210.848 48.4458 210.504 46.181C210.16 43.9162 212.408 44.7023 212.408 44.7023L219.652 58.2369" stroke="#303030" stroke-width="1.5" stroke-linecap="round" stroke-linejoin="round"/>
<path d="M278.648 133.415C279.053 134.29 282.518 134.278 283.077 137.979C283.332 139.669 280.994 146.923 280.994 146.923C275.909 148.426 270.231 136.427 268.944 135.747C272.046 133.633 276.562 128.908 278.648 133.415Z" fill="#444444"/>
<path d="M184.482 140.653C177.311 135.308 166.268 127.937 151.594 121.45C143.109 117.699 138.288 116.401 129.756 113.166C119.455 109.263 105.013 103.019 88.0842 93L75.7163 109.733C78.8407 111.804 83.4854 114.899 89.0913 118.689C105.156 129.551 113.968 135.888 118.209 138.77C127.811 145.294 142.562 153.523 164.647 160.295C171.259 153.747 177.87 147.2 184.482 140.653Z" fill="#F08566"/>
<path d="M184.482 140.653C177.311 135.308 166.268 127.937 151.594 121.45C143.109 117.699 138.288 116.401 129.756 113.166C119.455 109.263 105.013 103.019 88.0842 93L75.7163 109.733C78.8407 111.804 83.4854 114.899 89.0913 118.689C105.156 129.551 113.968 135.888 118.209 138.77C127.811 145.294 142.562 153.523 164.647 160.295C171.259 153.747 177.87 147.2 184.482 140.653Z" stroke="#303030" stroke-width="1.5" stroke-linecap="round" stroke-linejoin="round"/>
<path d="M92.7895 94.7203C89.9287 93.6904 87.0302 92.6098 84.0964 91.4759C78.7092 89.393 73.5251 87.2535 68.5456 85.0825C65.9911 81.2471 62.2684 76.7185 58.7396 77.3197C56.1618 77.7589 55.9741 80.5457 52.5102 84.9093C46.4264 92.573 40.8108 91.7826 35.2069 99.3746C33.0325 102.32 31.873 105.155 31.2505 106.987C31.5354 107.589 31.8847 107.921 32.1265 108.104C36.0592 111.093 44.8523 100.42 56.8187 100.476C59.9595 100.491 62.5359 101.241 64.2342 101.88C69.3515 105.401 74.4689 108.922 79.5862 112.443C83.9871 106.536 88.3885 100.628 92.7895 94.7203Z" fill="#444444"/>
<path d="M216.935 166.275C195.719 181.738 177.252 186.188 165.524 187.616C158.271 188.499 151.546 188.475 125.489 185.962C104.613 183.95 86.5968 181.811 72.2529 179.954C74.184 174.594 76.115 169.233 78.046 163.873C87.9179 161.039 96.4353 159.496 102.897 158.601C112.34 157.294 119.672 157.057 126.241 156.844C135.052 156.559 142.542 156.72 148.205 156.97C157.003 152.166 177.201 141.127 185.997 136.32C194.402 131.727 198.613 129.424 198.625 129.414C204.729 141.701 210.832 153.988 216.935 166.275Z" fill="#F08566"/>
<path d="M216.935 166.275C195.719 181.738 177.252 186.188 165.524 187.616C158.271 188.499 151.546 188.475 125.489 185.962C104.613 183.95 86.5968 181.811 72.2529 179.954C74.184 174.594 76.115 169.233 78.046 163.873C87.9179 161.039 96.4353 159.496 102.897 158.601C112.34 157.294 119.672 157.057 126.241 156.844C135.052 156.559 142.542 156.72 148.205 156.97C157.003 152.166 177.201 141.127 185.997 136.32C194.402 131.727 198.613 129.424 198.625 129.414C204.729 141.701 210.832 153.988 216.935 166.275Z" stroke="#303030" stroke-width="1.5" stroke-linecap="round" stroke-linejoin="round"/>
<path d="M284.835 134.908C282.829 135.93 276.558 139.635 273.069 140.318C268.455 141.221 255.474 142.826 252.755 144.293C250.732 145.385 249.391 146.75 248.613 147.682C237.623 128.354 234.155 120.018 233.399 116.265C233.336 115.956 231.944 108.989 231.944 108.989C236.427 109.315 241.521 109.421 247.107 109.088C253.799 108.689 259.748 107.746 264.804 106.641C269.452 117.609 280.187 123.94 284.835 134.908Z" fill="#F08566"/>
<path d="M284.835 134.908C282.829 135.93 276.558 139.635 273.069 140.318C268.455 141.221 255.474 142.826 252.755 144.293C250.732 145.385 249.391 146.75 248.613 147.682C237.623 128.354 234.155 120.018 233.399 116.265C233.336 115.956 231.944 108.989 231.944 108.989C236.427 109.315 241.521 109.421 247.107 109.088C253.799 108.689 259.748 107.746 264.804 106.641C269.452 117.609 280.187 123.94 284.835 134.908Z" stroke="#303030" stroke-width="1.5" stroke-linecap="round" stroke-linejoin="round"/>
<path d="M207.195 64.7546C215.961 71.5786 234.69 86.0081 241.968 90.4515C251.616 96.3428 269.785 104.273 269.785 104.273L286.96 94.6338L242.138 73.304L219.04 57.6797" fill="#F08566"/>
<path d="M207.195 64.7546C215.961 71.5786 234.69 86.0081 241.968 90.4515C251.616 96.3428 269.785 104.273 269.785 104.273L286.96 94.6338L242.138 73.304L219.04 57.6797" stroke="#303030" stroke-width="1.5" stroke-linecap="round" stroke-linejoin="round"/>
<path d="M245.187 38.085C245.187 38.085 243.401 37.0759 243.348 39.0481C243.294 41.0202 243.894 46.422 243.894 46.422C242.371 44.8499 240.705 43.2308 238.888 41.593C236.694 39.6145 234.546 37.847 232.491 36.2734C231.908 36.2942 231.177 36.4011 230.976 36.8457C230.746 37.3546 231.192 38.2461 231.192 38.2461C231.006 38.1053 229.981 37.356 228.77 37.6695C228.456 37.7507 227.935 37.8852 227.764 38.2848C227.355 39.2396 229.303 40.8766 229.154 41.0323C229.002 41.1919 227.171 39.2803 226.459 39.6822C226.054 39.911 226.131 40.8219 226.26 41.5552C227.746 43.3005 233.276 48.0584 233.276 48.0584L224.915 44.9282L224.892 46.7412C229.649 49.5028 235.775 53.5201 240.532 56.2817L249.723 51.4445L245.187 38.085Z" fill="#F08566"/>
<path d="M245.187 38.085C245.187 38.085 243.401 37.0759 243.348 39.0481C243.294 41.0202 243.894 46.422 243.894 46.422C242.371 44.8499 240.705 43.2308 238.888 41.593C236.694 39.6145 234.546 37.847 232.491 36.2734C231.908 36.2942 231.177 36.4011 230.976 36.8457C230.746 37.3546 231.192 38.2461 231.192 38.2461C231.006 38.1053 229.981 37.356 228.77 37.6695C228.456 37.7507 227.935 37.8852 227.764 38.2848C227.355 39.2396 229.303 40.8766 229.154 41.0323C229.002 41.1919 227.171 39.2803 226.459 39.6822C226.054 39.911 226.131 40.8219 226.26 41.5552C227.746 43.3005 233.276 48.0584 233.276 48.0584L224.915 44.9282L224.892 46.7412C229.649 49.5028 235.775 53.5201 240.532 56.2817L249.723 51.4445L245.187 38.085Z" stroke="#303030" stroke-width="1.5" stroke-linecap="round" stroke-linejoin="round"/>
<path d="M239.184 55.0244C239.184 55.0244 252.527 77.5833 258.176 81.5697C263.825 85.5561 276.562 93.7881 276.562 93.7881L286.784 86.5013C282.353 84.0077 255.821 57.933 249.263 50.6641" fill="#F08566"/>
<path d="M239.184 55.0244C239.184 55.0244 252.527 77.5833 258.176 81.5697C263.825 85.5561 276.562 93.7881 276.562 93.7881L286.784 86.5013C282.353 84.0077 255.821 57.933 249.263 50.6641" stroke="#303030" stroke-width="1.5" stroke-linecap="round" stroke-linejoin="round"/>
<path d="M310.502 97.9979C310.916 103.169 312.378 102.729 314.318 107.18C314.318 107.18 310.53 128.48 305.189 136.054C304.664 137.264 298.482 135.79 293.427 136.705C290.082 137.311 285.605 139.541 280.994 146.925C281.028 145.474 277.757 143.804 276.653 141.7C273.779 136.223 275.943 128.075 266.409 123.273C255.893 118.033 258.46 113.533 256.542 107.953C256.542 107.953 274.361 94.7908 280.516 94.4531C289.494 94.7937 298.473 95.1337 307.452 95.4738" fill="#65EAC9"/>
<path d="M333.329 87.3936C329.908 86.4707 327.304 84.664 327.304 84.664C327.482 84.5107 324.173 89.0852 323.539 89.4645C320.814 83.4261 315.688 90.3091 320.245 92.7586C309.217 115.166 283.749 93.7807 266.213 81.2745C266 80.6795 270.77 71.8608 291.958 78.6227C297.364 80.3477 297.847 74.7114 307.082 75.332C326.895 64.7157 329.286 70.634 337.973 74.1831C344.537 77.1454 341.435 90.3192 333.329 87.3936Z" fill="#444444"/>
<path d="M87.434 105.294C86.3607 107.097 85.6389 109.101 84.463 110.838C83.5086 112.248 82.264 113.461 80.8297 114.378C80.5376 114.564 80.2178 114.744 79.8715 114.738C79.5822 114.733 79.3128 114.598 79.0554 114.467C77.7982 113.824 76.5415 113.182 75.2848 112.54C74.3314 112.053 73.3151 111.503 72.8517 110.538C72.204 109.188 72.8817 107.597 73.6309 106.301C75.0541 103.837 76.7655 101.54 78.7197 99.4713C79.6146 98.5232 80.5743 97.6061 81.2041 96.4645C81.8925 95.2179 82.1585 93.7551 82.9697 92.585C84.4315 90.4769 87.3741 89.837 89.8817 90.3778C91.7498 90.7807 93.7742 91.7244 95.2834 92.9159C97.2169 94.442 96.0361 95.1913 94.554 96.9414C92.1891 99.734 89.323 102.12 87.434 105.294Z" fill="white"/>
<path d="M87.434 105.294C86.3607 107.097 85.6389 109.101 84.463 110.838C83.5086 112.248 82.264 113.461 80.8297 114.378C80.5376 114.564 80.2178 114.744 79.8715 114.738C79.5822 114.733 79.3128 114.598 79.0554 114.467C77.7982 113.824 76.5415 113.182 75.2848 112.54C74.3314 112.053 73.3151 111.503 72.8517 110.538C72.204 109.188 72.8817 107.597 73.6309 106.301C75.0541 103.837 76.7655 101.54 78.7197 99.4713C79.6146 98.5232 80.5743 97.6061 81.2041 96.4645C81.8925 95.2179 82.1585 93.7551 82.9697 92.585C84.4315 90.4769 87.3741 89.837 89.8817 90.3778C91.7498 90.7807 93.7742 91.7244 95.2834 92.9159C97.2169 94.442 96.0361 95.1913 94.554 96.9414C92.1891 99.734 89.323 102.12 87.434 105.294Z" stroke="black" stroke-width="1.5" stroke-linecap="round" stroke-linejoin="round"/>
<path d="M83.4653 162.257C80.3811 162.324 77.2891 162.397 74.1889 162.474C69.3894 162.594 64.6092 162.727 59.8479 162.87C59.0067 162.685 57.7137 162.35 56.2079 161.741C52.8871 160.398 52.2477 159.223 50.1836 158.98C48.2908 158.756 46.2466 159.44 44.9125 160.611C42.6254 162.621 43.5208 165.105 42.4237 168.111C40.1386 174.374 32.5654 173.316 27.718 179.814C26.2615 181.766 24.642 184.94 24.4229 190.106C24.7682 190.484 25.3235 190.968 26.0864 191.11C28.2172 191.506 30.2783 188.942 31.3575 187.721C33.9203 184.823 40.0157 183.536 52.207 180.963C54.2551 180.531 57.125 179.97 60.6006 179.438C63.3341 179.499 66.8402 179.847 70.767 180.944C73.5185 181.712 75.8699 182.677 77.7907 183.617C79.6821 176.497 81.5739 169.377 83.4653 162.257Z" fill="#444444"/>
<path d="M82.4217 174.065C82.0952 176.138 82.1692 178.266 81.7232 180.316C81.3609 181.98 80.6556 183.568 79.6645 184.952C79.4628 185.234 79.233 185.519 78.9094 185.643C78.6385 185.745 78.3381 185.72 78.0498 185.694C76.6446 185.564 75.2394 185.435 73.8337 185.306C72.768 185.207 71.6196 185.074 70.8312 184.351C69.7283 183.338 69.767 181.609 69.9803 180.127C70.3866 177.311 71.1224 174.543 72.1677 171.896C72.6471 170.683 73.1966 169.476 73.3577 168.181C73.5337 166.768 73.2377 165.311 73.556 163.924C74.1297 161.424 76.6243 159.736 79.1532 159.307C81.0378 158.987 83.2678 159.111 85.1112 159.657C87.4732 160.355 86.6558 161.489 85.9297 163.665C84.7712 167.136 82.9964 170.416 82.4217 174.065Z" fill="white"/>
<path d="M82.4217 174.065C82.0952 176.138 82.1692 178.266 81.7232 180.316C81.3609 181.98 80.6556 183.568 79.6645 184.952C79.4628 185.234 79.233 185.519 78.9094 185.643C78.6385 185.745 78.3381 185.72 78.0498 185.694C76.6446 185.564 75.2394 185.435 73.8337 185.306C72.768 185.207 71.6196 185.074 70.8312 184.351C69.7283 183.338 69.767 181.609 69.9803 180.127C70.3866 177.311 71.1224 174.543 72.1677 171.896C72.6471 170.683 73.1966 169.476 73.3577 168.181C73.5337 166.768 73.2377 165.311 73.556 163.924C74.1297 161.424 76.6243 159.736 79.1532 159.307C81.0378 158.987 83.2678 159.111 85.1112 159.657C87.4732 160.355 86.6558 161.489 85.9297 163.665C84.7712 167.136 82.9964 170.416 82.4217 174.065Z" stroke="black" stroke-width="1.5" stroke-linecap="round" stroke-linejoin="round"/>
<path d="M296.996 100.617C284.413 94.0272 276.063 88.6273 270.361 84.5114C268.132 82.9025 257.9 78.3047 257.9 78.3047C257.9 78.3047 250.386 82.1595 246.166 84.4267C242.193 86.5614 239.261 88.8445 237.419 90.4273C240.753 93.3287 244.417 96.3108 248.425 99.2993C253.451 103.047 258.326 106.289 262.921 109.089" fill="#65EAC9"/>
<path d="M278.366 114.844C275.333 114.72 272.305 114.46 269.295 114.064C267.863 113.876 266.298 113.582 265.387 112.461" stroke="#232323" stroke-width="1.5" stroke-linecap="round" stroke-linejoin="round"/>
<path d="M269.507 84.1719C265.937 84.4452 262.668 86.2006 259.579 88.0097C254.717 90.8579 250.929 94.1792 246.359 97.4753" stroke="#232323" stroke-width="1.5" stroke-linecap="round" stroke-linejoin="round"/>
<path d="M265.598 81.7578C256.957 83.2641 249.856 89.2081 243.209 94.9306" stroke="#232323" stroke-width="1.5" stroke-linecap="round" stroke-linejoin="round"/>
<path d="M239.303 46.5812C237.56 44.9476 235.783 43.1903 233.993 41.3018C233.02 40.2763 232.087 39.2581 231.192 38.25" stroke="#232323" stroke-width="1.5" stroke-linecap="round" stroke-linejoin="round"/>
<path d="M237.022 48.2725C234.883 46.3497 232.737 44.3858 230.587 42.3793C229.916 41.7524 229.248 41.1264 228.585 40.5" stroke="#232323" stroke-width="1.5" stroke-linecap="round" stroke-linejoin="round"/>
<path d="M207.43 55.6199C205.102 54.1111 202.71 52.4679 200.275 50.6776C198.953 49.7054 197.677 48.7336 196.447 47.7656" stroke="#232323" stroke-width="1.5" stroke-linecap="round" stroke-linejoin="round"/>
<path d="M205.171 58.0235C202.331 56.2656 199.475 54.4618 196.605 52.6106C195.709 52.0326 194.817 51.454 193.931 50.875" stroke="#232323" stroke-width="1.5" stroke-linecap="round" stroke-linejoin="round"/>
<path d="M338.006 82.4382C338.557 86.8745 331.374 98.6251 327.858 103.73C326.86 105.181 324.856 104.695 323.445 103.629C322.575 102.972 321.522 102.127 320.366 101.083C320.024 101.274 313.1 109.85 313.1 109.85C313.1 109.85 301.506 102.705 303.363 102.006C303.87 100.654 312.511 93.0294 314.013 90.8831C313.558 90.5701 312.965 85.1012 318.273 84.0868C319.649 83.8241 320.307 85.0944 320.505 86.0396C321.706 84.9415 324.096 83.0565 327.648 82.0808C332.449 80.7621 336.456 81.9052 338.006 82.4382Z" fill="#F08566"/>
<path d="M338.006 82.4382C338.557 86.8745 331.374 98.6251 327.858 103.73C326.86 105.181 324.856 104.695 323.445 103.629C322.575 102.972 321.522 102.127 320.366 101.083C320.024 101.274 313.1 109.85 313.1 109.85C313.1 109.85 301.506 102.705 303.363 102.006C303.87 100.654 312.511 93.0294 314.013 90.8831C313.558 90.5701 312.965 85.1012 318.273 84.0868C319.649 83.8241 320.307 85.0944 320.505 86.0396C321.706 84.9415 324.096 83.0565 327.648 82.0808C332.449 80.7621 336.456 81.9052 338.006 82.4382Z" stroke="#303030" stroke-width="1.5" stroke-linecap="round" stroke-linejoin="round"/>
<path d="M334.13 92.8438C333.894 94.7008 333.419 96.0562 333.408 96.9574C333.408 96.9574 332.285 97.1557 330.989 96.4315" fill="#F08566"/>
<path d="M334.13 92.8438C333.894 94.7008 333.419 96.0562 333.408 96.9574C333.408 96.9574 332.285 97.1557 330.989 96.4315" stroke="#303030" stroke-width="1.5" stroke-linecap="round" stroke-linejoin="round"/>
<path d="M327.244 95.9297C327.383 96.2489 328.086 97.8878 329.054 98.3715" stroke="#232323" stroke-width="1.5" stroke-linecap="round" stroke-linejoin="round"/>
<path d="M329.1 89.3516C330.329 89.6728 331.558 89.994 332.788 90.3152" stroke="#232323" stroke-width="1.5" stroke-linecap="round" stroke-linejoin="round"/>
<path d="M332.119 91.1387C331.922 91.5837 331.523 91.8386 331.229 91.708C330.936 91.5774 330.858 91.1106 331.056 90.6656C331.253 90.221 331.652 89.9661 331.946 90.0967C332.239 90.2273 332.317 90.6936 332.119 91.1387Z" fill="black"/>
<path d="M332.119 91.1387C331.922 91.5837 331.523 91.8386 331.229 91.708C330.936 91.5774 330.858 91.1106 331.056 90.6656C331.253 90.221 331.652 89.9661 331.946 90.0967C332.239 90.2273 332.317 90.6936 332.119 91.1387Z" stroke="black" stroke-width="0.44" stroke-linecap="round" stroke-linejoin="round"/>
<path fill-rule="evenodd" clip-rule="evenodd" d="M334.397 88.8497C334.106 89.2145 334.24 89.6073 333.587 89.421C332.356 89.0732 330.371 87.6366 329.766 87.3691C329.283 87.1649 329.295 86.095 330.052 86.0475C330.689 86.0059 335.116 87.9471 334.397 88.8497Z" fill="#444444"/>
<path d="M300.884 89.9754C299.048 88.4831 296.823 86.9381 294.516 87.4663C293.706 87.652 292.942 88.0908 292.111 88.0821C290.25 88.0617 288.815 85.8395 286.987 86.1849" stroke="#232323" stroke-width="1.5" stroke-linecap="round" stroke-linejoin="round"/>
<path d="M179.646 137.266C173.988 139.708 166.929 142.205 158.623 143.98C147.708 146.312 138.097 146.659 130.698 146.365C137.371 149.419 144.044 152.473 150.717 155.527C161.071 149.9 171.425 144.273 181.78 138.646C181.068 138.186 180.357 137.726 179.646 137.266Z" fill="#444444"/>
<path d="M226.186 159.445C218.305 164.441 198.926 180.372 195.147 181.566C190.708 173.868 180.211 135.295 177.45 121.95C185.389 118.24 198.65 108.483 211.513 105.822C225.17 102.997 234.44 108.331 243.53 108.708C244.51 114.151 245.977 120.36 248.2 127.072C250.379 133.652 252.853 139.407 255.265 144.29C247.474 151.384 237.882 152.031 226.186 159.445Z" fill="#444444"/>
<path d="M226.619 155.234L208.295 168.439C206.086 170.615 198.982 176.63 193.661 179.323" stroke="#232323" stroke-width="1.5" stroke-linecap="round" stroke-linejoin="round"/>
<path d="M252.338 146.981C249.416 142.743 247.599 138.954 246.479 136.257C244.078 130.475 243.192 125.65 242.212 120.317C241.357 115.661 240.922 111.756 240.685 109.031" stroke="#232323" stroke-width="1.5" stroke-linecap="round" stroke-linejoin="round"/>
<path d="M339.927 81.2941C338.805 84.374 335.162 86.2871 331.99 85.4604C331.082 85.2234 330.122 84.7953 329.249 85.1392C328.358 85.4894 327.949 86.4922 327.309 87.2052C326.216 88.4232 324.253 88.7507 322.824 87.954C321.394 87.1563 320.642 85.3148 321.103 83.7442C321.724 81.6361 324.024 80.5579 326.122 79.9048C330.277 78.6109 334.633 77.9636 338.985 77.9932" fill="#444444"/>
<path d="M317.645 104.271L317.928 97.8828L320.588 101.027L317.645 104.271Z" fill="black"/>
<path d="M317.645 104.271L317.928 97.8828L320.588 101.027L317.645 104.271Z" stroke="black" stroke-linecap="round" stroke-linejoin="round"/>
</svg>
