<svg width="324" height="310" viewBox="0 0 324 310" fill="none" xmlns="http://www.w3.org/2000/svg">
<path d="M114.692 153.101C113.609 174.103 111.537 190.985 109.807 202.697C107.603 217.62 106.629 228.787 106.497 239.234C106.251 258.727 108.705 254.834 107.553 263.942C107.072 267.752 105.791 275.082 110.009 280.518C110.581 281.254 111.134 281.801 111.523 282.157C113.266 282.647 115.743 283.143 118.731 283.104C121.937 283.063 124.554 282.422 126.34 281.837C131.945 272.694 138.06 260.807 142.872 246.283C150.43 223.472 151.765 203.242 151.514 189.171C151.514 189.171 147.758 239.519 148.885 248.537C149.539 253.78 146.866 265.926 151.514 280.098C151.74 280.788 151.937 281.35 152.068 281.716C157.269 281.177 162.47 280.638 167.671 280.098C169.012 279.277 170.948 277.947 172.931 275.965C182.349 266.56 180.615 254.712 181.198 224.49C181.768 194.921 183.735 190.373 182.324 172.639C182.054 169.244 180.446 150.094 180.446 150.094C158.528 151.096 136.61 152.098 114.692 153.101Z" fill="#B6B6B6"/>
<path d="M154.802 289.016C154.753 294 154.703 298.985 154.654 303.969C156.154 304.109 157.667 304.235 159.194 304.347C171.413 305.241 183.04 305.098 193.972 304.234C193.95 303.881 193.878 303.323 193.623 302.708C191.842 298.411 184.886 300.394 177.628 296.062C172.975 293.285 168.804 288.273 168.804 288.273L154.802 289.016Z" fill="#565656"/>
<path d="M154.802 289.016C154.753 294 154.703 298.985 154.654 303.969C156.154 304.109 157.667 304.235 159.194 304.347C171.413 305.241 183.04 305.098 193.972 304.234C193.95 303.881 193.878 303.323 193.623 302.708C191.842 298.411 184.886 300.394 177.628 296.062C172.975 293.285 168.804 288.273 168.804 288.273L154.802 289.016Z" stroke="black" stroke-width="2" stroke-linecap="round" stroke-linejoin="round"/>
<path d="M114.341 287.703C113.515 291.101 112.688 294.499 111.862 297.897C107.219 301.723 102.706 305.949 103.572 307.482C103.814 307.911 104.405 308.004 104.723 308.042C109.956 308.674 123.501 307.726 123.501 307.726C123.755 301.098 124.008 294.469 124.261 287.841C120.954 287.795 117.648 287.749 114.341 287.703Z" fill="#565656"/>
<path d="M114.341 287.703C113.515 291.101 112.688 294.499 111.862 297.897C107.219 301.723 102.706 305.949 103.572 307.482C103.814 307.911 104.405 308.004 104.723 308.042C109.956 308.674 123.501 307.726 123.501 307.726C123.755 301.098 124.008 294.469 124.261 287.841C120.954 287.795 117.648 287.749 114.341 287.703Z" stroke="black" stroke-width="2" stroke-linecap="round" stroke-linejoin="round"/>
<path d="M160.908 169.258L153.392 183.16C153.392 183.16 153.487 202.542 152.257 210.021L151.123 271.312" stroke="#232323" stroke-width="1.5" stroke-linecap="round" stroke-linejoin="round"/>
<path d="M133.026 42.6655C137.468 42.5731 142.074 42.5666 146.835 42.6655C152.368 42.7806 157.69 43.0298 162.786 43.3819C166.418 81.5813 170.05 119.781 173.682 157.98L150.011 156.478L118.074 157.23C123.058 119.042 128.042 80.8536 133.026 42.6655Z" fill="#65EAC9"/>
<path d="M133.026 42.6655C137.468 42.5731 142.074 42.5666 146.835 42.6655C152.368 42.7806 157.69 43.0298 162.786 43.3819C166.418 81.5813 170.05 119.781 173.682 157.98L150.011 156.478L118.074 157.23C123.058 119.042 128.042 80.8536 133.026 42.6655Z" stroke="black" stroke-width="2" stroke-linecap="round" stroke-linejoin="round"/>
<path d="M137.236 42.631C137.236 42.631 120.704 41.5036 110.183 50.5216C99.6633 59.5392 100.039 137.692 100.039 137.692C98.9068 145.28 97.774 152.867 96.6421 160.455C98.013 161.563 102.702 165.068 109.506 164.996C114.356 164.944 117.937 163.102 119.577 162.115C125.005 141.386 129.14 117.128 129.721 89.9735C129.858 83.6028 129.791 77.4245 129.558 71.4511C131.825 67.0208 135.8 53.8583 135.8 53.8583C136.279 50.1158 136.758 46.3734 137.236 42.631Z" fill="#F9F9F9"/>
<path d="M108.563 107.204C107.831 108.573 108.08 109.987 108.051 110.434C107.629 117.048 106.261 123.601 104.002 129.832C103.846 130.262 103.24 131.576 103.741 132.859C103.794 132.996 104.093 133.759 104.713 134.1C106.102 134.863 108.826 133.353 110.357 131.42C111.07 130.519 111.349 129.747 112.476 121.221C112.972 117.461 113.064 116.46 113.255 115.557C113.361 115.056 113.36 115.158 113.439 114.803C114.219 111.305 113.277 110.342 113.005 106.166C112.985 105.863 112.95 105.246 112.532 104.968C112.057 104.651 111.35 104.947 110.924 105.125C110.527 105.291 109.299 105.826 108.563 107.204Z" fill="#444444"/>
<path d="M157.15 53.9048L163.537 69.3102L168.798 161.741L187.209 160.614L186.081 104.254C190.306 89.8898 192.624 71.2529 183.943 54.9008C183.506 54.0773 183.048 53.2735 182.571 52.4891C178.142 49.1118 171.497 45.1271 162.786 43.3844C160.882 43.0033 159.059 42.7659 157.338 42.6328C157.275 46.3904 157.213 50.1476 157.15 53.9048Z" fill="white"/>
<path d="M137.266 41.3724C131.637 40.7337 129.239 42.1067 128.084 43.4416C124.772 47.2686 128.253 54.0671 124.839 58.587C121.953 62.4074 122.15 62.8851 121.982 65.7605C121.694 70.6771 124.723 76.2431 129.179 78.8601C129.457 79.0232 129.697 79.1493 129.873 79.238C129.622 77.2616 129.526 74.3941 130.504 71.23C131.141 69.1681 131.976 67.8153 132.434 67.0098C133.909 64.4158 135.549 60.3218 136.107 53.8326C136.556 48.6099 137.216 45.3349 137.25 44.242C137.288 43.0579 137.281 42.0685 137.266 41.3724Z" fill="#444444"/>
<path d="M164.463 55.881C164.681 61.8425 167.621 63.2446 166.635 67.7645C166.066 70.3721 164.686 72.3074 163.608 73.5342C162.44 71.5615 160.814 68.6302 159.163 64.9269C156.832 59.6981 155.691 57.0737 155.537 54.1441C155.289 49.4086 156.868 44.4213 156.562 42.6996C156.54 42.5788 156.704 41.7537 156.704 41.7537C156.704 41.7537 157.378 41.3311 158.076 41.3282C158.752 41.3249 159.891 41.4206 161.339 42.0379C162.339 42.6942 163.692 43.797 164.555 45.5368C166.192 48.8414 164.279 50.8559 164.463 55.881Z" fill="#444444"/>
<path d="M183.291 85.3125C180.488 85.8259 179.631 87.0047 177.573 87.9539L177.484 75.4827L165.117 75.5729C165.977 73.1856 167.582 71.4449 167.568 69.4397C167.569 69.3667 167.567 69.2946 167.559 69.2225C167.424 66.1756 164.901 63.7579 161.824 63.7803C158.675 63.8025 156.142 66.3735 156.165 69.5226C156.708 72.4921 157.999 73.2763 158.97 75.6172L146.338 75.7083L146.429 88.2339C148.573 87.2767 149.408 86.0629 152.263 85.5402C155.412 85.5167 157.984 88.0491 158.006 91.1988C158.028 94.2762 155.609 96.7991 152.562 96.9348C152.493 96.9417 152.42 96.9455 152.344 96.9418C150.416 96.9561 148.729 95.4687 146.475 94.5902L146.563 106.855L177.71 106.629L177.621 94.4113C179.816 95.2923 181.476 96.7292 183.374 96.7153C183.448 96.7184 183.52 96.7146 183.59 96.7092C186.637 96.5714 189.056 94.048 189.034 90.973C189.01 87.8232 186.439 85.2895 183.291 85.3125Z" fill="#050505"/>
<path d="M176.787 129.812C176.838 130.895 176.916 132.551 178.111 133.974C179.309 135.401 180.948 135.784 181.611 135.898C181.698 132.622 181.778 129.988 181.831 128.299C182.072 120.703 182.273 116.302 182.273 109.484V109.445C182.029 110.141 178.227 121.05 177.229 126.408C177.154 126.806 176.706 128.099 176.787 129.812Z" fill="#444444"/>
<path d="M107.459 108.383L124.931 105.847L133.386 92.0381L143.53 88.375C145.795 91.1958 136.99 93.7886 136.485 94.9874C136.556 95.3254 138.095 95.5049 144.985 94.6708C145.316 94.7961 145.907 95.0778 146.317 95.6857C146.445 95.8746 146.637 96.2172 146.73 96.7958C146.73 96.7958 146.738 96.8386 146.744 96.8846C147.166 99.7878 146.095 101.268 146.095 101.268C145.686 101.833 145.22 102.106 144.62 102.457C143.323 103.217 142.397 103.181 141.005 103.551C140.177 103.772 139.018 104.181 137.69 105.01C134.92 109.98 131.756 112.816 129.348 114.494C118.459 122.085 101.961 120.71 101.26 120.783L107.459 108.383Z" fill="#F08566"/>
<path d="M107.459 108.383L124.931 105.847L133.386 92.0381L143.53 88.375C145.795 91.1958 136.99 93.7886 136.485 94.9874C136.556 95.3254 138.095 95.5049 144.985 94.6708C145.316 94.7961 145.907 95.0778 146.317 95.6857C146.445 95.8746 146.637 96.2172 146.73 96.7958C146.73 96.7958 146.738 96.8386 146.744 96.8846C147.166 99.7878 146.095 101.268 146.095 101.268C145.686 101.833 145.22 102.106 144.62 102.457C143.323 103.217 142.397 103.181 141.005 103.551C140.177 103.772 139.018 104.181 137.69 105.01C134.92 109.98 131.756 112.816 129.348 114.494C118.459 122.085 101.961 120.71 101.26 120.783L107.459 108.383Z" stroke="#303030" stroke-width="1.5" stroke-linecap="round" stroke-linejoin="round"/>
<path d="M184.015 100.682C184.653 104.211 185.291 107.741 185.93 111.271C180.98 109.316 176.03 107.361 171.08 105.407C168.337 100.048 165.465 96.4312 163.413 94.18C162.234 92.8863 161.265 91.9754 159.892 91.1826C156.442 89.1898 152.829 89.3201 150.852 89.5648C150.837 90.061 150.89 90.9318 151.471 91.6106C151.857 92.0608 152.327 92.255 153.232 92.5155C156.195 93.3673 157.135 93.0946 158.227 93.895C158.613 94.178 159.143 94.6848 159.559 95.631C158.317 95.0397 156.31 94.2594 153.945 94.1086C152.752 94.0326 151.69 94.1312 151.399 94.1607C150.311 94.27 149.387 94.4758 148.664 94.6796C148.757 95.0692 148.995 95.7933 149.647 96.2578C149.858 96.4085 150.145 96.5543 151.17 96.7331C152.54 96.9717 153.565 96.9782 153.565 97.0107C153.564 97.0481 152.214 96.9848 150.536 97.1774C149.855 97.2554 149.297 97.3557 148.918 97.4312C148.954 97.708 149.119 98.7357 150.02 99.5562C150.881 100.34 152.067 100.403 152.058 100.444C152.052 100.471 151.554 100.402 149.616 100.032C149.616 100.36 149.66 101.59 150.599 102.664C151.356 103.53 152.274 103.812 152.629 103.902C152.518 104.115 152.468 104.318 152.46 104.51C152.358 107.042 159.681 109.095 160.463 109.309C165.303 121.893 195.4 126.086 198.604 129.148C213.007 139.39 202.27 107.26 200.736 97.3001C195.162 98.4273 189.589 99.5546 184.015 100.682Z" fill="#F08566"/>
<path d="M184.015 100.682C184.653 104.211 185.291 107.741 185.93 111.271C180.98 109.316 176.03 107.361 171.08 105.407C168.337 100.048 165.465 96.4312 163.413 94.18C162.234 92.8863 161.265 91.9754 159.892 91.1826C156.442 89.1898 152.829 89.3201 150.852 89.5648C150.837 90.061 150.89 90.9318 151.471 91.6106C151.857 92.0608 152.327 92.255 153.232 92.5155C156.195 93.3673 157.135 93.0946 158.227 93.895C158.613 94.178 159.143 94.6848 159.559 95.631C158.317 95.0397 156.31 94.2594 153.945 94.1086C152.752 94.0326 151.69 94.1312 151.399 94.1607C150.311 94.27 149.387 94.4758 148.664 94.6796C148.757 95.0692 148.995 95.7933 149.647 96.2578C149.858 96.4085 150.145 96.5543 151.17 96.7331C152.54 96.9717 153.565 96.9782 153.565 97.0107C153.564 97.0481 152.214 96.9848 150.536 97.1774C149.855 97.2554 149.297 97.3557 148.918 97.4312C148.954 97.708 149.119 98.7357 150.02 99.5562C150.881 100.34 152.067 100.403 152.058 100.444C152.052 100.471 151.554 100.402 149.616 100.032C149.616 100.36 149.66 101.59 150.599 102.664C151.356 103.53 152.274 103.812 152.629 103.902C152.518 104.115 152.468 104.318 152.46 104.51C152.358 107.042 159.681 109.095 160.463 109.309C165.303 121.893 195.4 126.086 198.604 129.148C213.007 139.39 202.27 107.26 200.736 97.3001C195.162 98.4273 189.589 99.5546 184.015 100.682Z" stroke="#303030" stroke-width="1.5" stroke-linecap="round" stroke-linejoin="round"/>
<path d="M182.572 52.4844C183.286 53.6315 184.389 55.3976 185.741 57.5443C195.623 73.2282 199.955 79.2102 202.199 82.8927C209.989 95.6806 216.588 120.184 205.982 130.942C204.39 132.556 197.962 138.35 181.643 135.734C180.816 128.986 181.731 124.7 182.778 121.988C183.079 121.207 183.651 119.885 183.913 117.952C184.365 114.615 183.583 111.741 182.841 109.819" fill="white"/>
<path d="M182.572 52.4844C183.286 53.6315 184.389 55.3976 185.741 57.5443C195.623 73.2282 199.955 79.2102 202.199 82.8927C209.989 95.6806 216.588 120.184 205.982 130.942C204.39 132.556 197.962 138.35 181.643 135.734C180.816 128.986 181.731 124.7 182.778 121.988C183.079 121.207 183.651 119.885 183.913 117.952C184.365 114.615 183.583 111.741 182.841 109.819" stroke="black" stroke-width="1.5" stroke-linecap="round" stroke-linejoin="round"/>
<path d="M138.458 37.0938C138.329 39.8147 138.199 42.5356 138.07 45.2566C140.329 49.5293 144.292 52.1932 148.222 51.9406C150.47 51.796 153.964 50.6165 155.221 47.9045C155.542 47.2125 155.592 46.6892 155.726 45.5089C155.941 43.6068 156.274 40.8551 156.775 37.3755L138.458 37.0938Z" fill="#F08566"/>
<path d="M138.458 37.0938C138.329 39.8147 138.199 42.5356 138.07 45.2566C140.329 49.5293 144.292 52.1932 148.222 51.9406C150.47 51.796 153.964 50.6165 155.221 47.9045C155.542 47.2125 155.592 46.6892 155.726 45.5089C155.941 43.6068 156.274 40.8551 156.775 37.3755L138.458 37.0938Z" stroke="#303030" stroke-width="1.5" stroke-linecap="round" stroke-linejoin="round"/>
<path d="M140.061 13.2572C139.566 14.0034 139.322 15.199 138.827 17.5857C138.36 19.8323 138.161 21.7215 138.067 23.0387C137.761 22.9216 135.8 22.1988 134.127 23.0387C132.072 24.0704 131.7 26.832 132.845 28.6581C134.053 30.5826 136.6 30.91 136.928 30.947C137.013 31.7031 137.179 32.7496 137.529 33.9579C138.008 35.6126 138.623 37.7381 140.151 39.3875C143.452 42.9525 149.044 42.1643 149.861 42.0362C150.955 41.8654 152.503 41.6234 154.023 40.5227C157.988 37.651 157.606 31.9467 157.554 31.3166C157.994 31.3667 160.569 31.6181 162.469 29.7961C163.631 28.6811 165.073 26.3236 163.984 24.7452C163.336 23.8047 161.918 23.0222 160.851 23.3299C160.851 23.3299 160.478 23.4728 159.095 25.3276C159.426 24.1472 159.794 22.352 159.713 20.167C159.65 18.4749 159.587 14.4807 157.149 12.0086C153.348 8.15408 142.711 9.26587 140.061 13.2572Z" fill="#F08566"/>
<path d="M140.061 13.2572C139.566 14.0034 139.322 15.199 138.827 17.5857C138.36 19.8323 138.161 21.7215 138.067 23.0387C137.761 22.9216 135.8 22.1988 134.127 23.0387C132.072 24.0704 131.7 26.832 132.845 28.6581C134.053 30.5826 136.6 30.91 136.928 30.947C137.013 31.7031 137.179 32.7496 137.529 33.9579C138.008 35.6126 138.623 37.7381 140.151 39.3875C143.452 42.9525 149.044 42.1643 149.861 42.0362C150.955 41.8654 152.503 41.6234 154.023 40.5227C157.988 37.651 157.606 31.9467 157.554 31.3166C157.994 31.3667 160.569 31.6181 162.469 29.7961C163.631 28.6811 165.073 26.3236 163.984 24.7452C163.336 23.8047 161.918 23.0222 160.851 23.3299C160.851 23.3299 160.478 23.4728 159.095 25.3276C159.426 24.1472 159.794 22.352 159.713 20.167C159.65 18.4749 159.587 14.4807 157.149 12.0086C153.348 8.15408 142.711 9.26587 140.061 13.2572Z" stroke="#303030" stroke-width="1.5" stroke-linecap="round" stroke-linejoin="round"/>
<path d="M135.769 8.70593C136.011 7.67465 136.136 6.67084 136.809 5.58414C138.942 2.13736 144.28 0.405029 148.254 1.26504C149.212 1.47244 149.99 1.80884 151.532 1.89508C153.886 2.02731 154.136 1.36035 155.947 1.51724C158.443 1.7341 160.312 3.20648 161.37 4.03943C162.341 4.80502 162.899 5.24399 163.387 6.05682C164.348 7.65494 164.004 8.97125 164.018 12.2364C164.032 15.4621 164.371 15.1266 164.333 17.6915C164.31 19.276 164.154 21.5181 163.544 24.2177C162.042 23.1479 161.171 23.1396 160.644 23.3659C159.046 24.053 158.929 27.6278 158.185 27.5749C158.099 27.5687 158.033 27.5161 157.996 27.4809C158.194 26.3674 158.414 24.8211 158.504 22.9684C158.728 18.3643 158.848 15.909 157.523 14.9483C155.306 13.3421 151.59 17.6591 146.864 16.2072C145.2 15.6959 144.036 14.6617 143.335 13.9076C142.555 13.5318 141.514 13.1971 140.687 13.6238C139.759 14.1023 139.329 15.4215 139.174 20.718C139.076 24.0612 139.123 27.7938 138.89 27.8119C138.643 27.8307 138.811 23.5548 136.809 22.7991C135.828 22.4286 134.444 23.0825 134.444 23.0825C134.206 17.1785 134.914 12.3477 135.769 8.70593Z" fill="#444444"/>
<path d="M182.65 109.376C184.536 109.003 187.033 108.29 189.713 106.854C194.039 104.537 196.729 101.466 198.163 99.5391" stroke="#232323" stroke-width="1.5" stroke-linecap="round" stroke-linejoin="round"/>
<path d="M110.183 50.5234C100.485 63.9919 93.3573 76.0192 88.3183 85.2939C77.8168 104.624 75.9255 110.704 78.2296 116.318C81.3079 123.818 90.7062 128.684 93.6153 130.19C97.9331 132.425 101.888 133.522 104.713 134.1C107.319 124.39 109.926 114.679 112.532 104.968C110.855 104.77 108.296 104.242 105.596 102.698C104.168 101.882 103.043 100.977 102.191 100.176" fill="white"/>
<path d="M110.183 50.5234C100.485 63.9919 93.3573 76.0192 88.3183 85.2939C77.8168 104.624 75.9255 110.704 78.2296 116.318C81.3079 123.818 90.7062 128.684 93.6153 130.19C97.9331 132.425 101.888 133.522 104.713 134.1C107.319 124.39 109.926 114.679 112.532 104.968C110.855 104.77 108.296 104.242 105.596 102.698C104.168 101.882 103.043 100.977 102.191 100.176" stroke="black" stroke-width="1.5" stroke-linecap="round" stroke-linejoin="round"/>
<line x1="135.889" y1="97.2315" x2="145.369" y2="96.2511" stroke="#232323" stroke-width="1.5" stroke-linecap="round" stroke-linejoin="round"/>
<line x1="136.817" y1="100.308" x2="145.745" y2="98.6842" stroke="#232323" stroke-width="1.5" stroke-linecap="round" stroke-linejoin="round"/>
<path d="M153.137 96.9531C154.572 97.17 156.186 97.499 157.926 98C159.5 98.4531 160.91 98.9702 162.144 99.4905" stroke="#232323" stroke-width="1.5" stroke-linecap="round" stroke-linejoin="round"/>
<line x1="151.311" y1="99.4911" x2="159.709" y2="101.415" stroke="#232323" stroke-width="1.5" stroke-linecap="round" stroke-linejoin="round"/>
<line x1="153.784" y1="103.292" x2="160.796" y2="104.935" stroke="#232323" stroke-width="1.5" stroke-linecap="round" stroke-linejoin="round"/>
<path d="M134.077 13.4353C134.36 12.7675 134.764 12.1366 135.075 10.8864C135.684 8.43111 134.939 7.58224 135.322 6.12704C135.993 3.58355 139.519 2.40887 142.137 1.55419C143.495 1.11056 150.442 -1.1565 152.1 1.4277C152.907 2.68569 152.334 4.8941 151.279 6.18658C150.518 7.11892 149.554 7.62084 149.085 7.73211C148.182 7.94692 147.235 7.97076 146.355 8.26604C144.493 8.89071 143.282 10.6281 142.361 12.2557C137.578 20.7094 136.955 22.9391 135.957 22.8668C134.411 22.7547 132.504 17.1555 134.077 13.4353Z" fill="#444444"/>
<path d="M144.331 32.4297C145.574 33.5883 147.417 34.063 149.065 33.6495" stroke="#232323" stroke-width="1.5" stroke-linecap="round" stroke-linejoin="round"/>
<path d="M153.834 22.9281C153.834 23.3113 153.693 23.6218 153.519 23.6218C153.345 23.6218 153.204 23.3113 153.204 22.9281C153.204 22.5449 153.345 22.2344 153.519 22.2344C153.693 22.2344 153.834 22.5449 153.834 22.9281Z" stroke="#232323" stroke-width="1.5" stroke-linecap="round" stroke-linejoin="round"/>
<path d="M144.313 22.7406C144.313 23.1238 144.171 23.4343 143.998 23.4343C143.823 23.4343 143.682 23.1238 143.682 22.7406C143.682 22.3574 143.823 22.0469 143.998 22.0469C144.171 22.0469 144.313 22.3574 144.313 22.7406Z" stroke="#232323" stroke-width="1.5" stroke-linecap="round" stroke-linejoin="round"/>
<path d="M148.956 22.9922C148.753 23.9344 148.767 24.6896 148.819 25.2096C148.984 26.8734 149.505 28.2087 149.505 28.2087C149.733 28.7956 150.088 29.5413 149.778 29.8876C149.715 29.957 149.644 29.9903 149.592 30.0121C148.916 30.2962 147.641 30.2655 147.188 30.2474" stroke="#232323" stroke-width="1.5" stroke-linecap="round" stroke-linejoin="round"/>
<path d="M108.846 284.788C108.529 287.777 110.996 289.096 113.744 288.726C117.912 288.041 122.445 291.176 126.288 289.935C130.368 282.631 123.833 280.92 117.35 280.744C112.555 279.347 106.651 277.721 108.846 284.788Z" fill="#565656"/>
<path d="M108.846 284.788C108.529 287.777 110.996 289.096 113.744 288.726C117.912 288.041 122.445 291.176 126.288 289.935C130.368 282.631 123.833 280.92 117.35 280.744C112.555 279.347 106.651 277.721 108.846 284.788Z" stroke="black" stroke-width="2" stroke-linecap="round" stroke-linejoin="round"/>
<path d="M169.124 282.959C169.009 279.956 166.379 279.005 163.712 279.766C160.905 280.197 158.024 280.218 155.211 279.827C152.156 279.055 149.62 280.419 150.634 283.771C151.064 285.332 150.885 287.406 152.311 288.453C155.09 289.403 158.318 288.761 161.242 289.053C166.804 289.169 172.027 290.883 169.124 282.959Z" fill="#565656"/>
<path d="M169.124 282.959C169.009 279.956 166.379 279.005 163.712 279.766C160.905 280.197 158.024 280.218 155.211 279.827C152.156 279.055 149.62 280.419 150.634 283.771C151.064 285.332 150.885 287.406 152.311 288.453C155.09 289.403 158.318 288.761 161.242 289.053C166.804 289.169 172.027 290.883 169.124 282.959Z" stroke="black" stroke-width="2" stroke-linecap="round" stroke-linejoin="round"/>
<path d="M108.605 98.5889C109.066 93.3272 109.527 88.0656 109.988 82.8044C110.405 78.0471 110.806 73.1386 109.339 68.5938" stroke="#232323" stroke-width="1.5" stroke-linecap="round" stroke-linejoin="round"/>
<path d="M185.609 98.9546C184.317 97.5585 183.844 95.6126 183.437 93.7541C181.908 86.7704 180.662 79.7246 179.701 72.6406" stroke="#232323" stroke-width="1.5" stroke-linecap="round" stroke-linejoin="round"/>
<path d="M97.3911 156.359C104.846 158.975 111.748 160.99 119.814 157.117" stroke="#232323" stroke-width="1.5" stroke-linecap="round" stroke-linejoin="round"/>
<path d="M168.516 157.684C173.206 157.121 181.831 156.71 185.388 155.531" stroke="#232323" stroke-width="1.5" stroke-linecap="round" stroke-linejoin="round"/>
<path d="M154.338 300.82C156.041 301.009 166.445 301.388 175.904 301.577C185.362 301.766 192.551 301.387 192.551 301.387" stroke="black" stroke-width="1.5" stroke-linecap="round" stroke-linejoin="round"/>
<path d="M149.597 11.7174C151.29 11.1686 151.954 9.15494 153.253 7.93836C154.618 6.65979 156.805 6.35382 158.469 7.20816" stroke="#232323" stroke-width="1.5" stroke-linecap="round" stroke-linejoin="round"/>
<path d="M150.618 8.35947C151.401 7.17743 152.495 6.20361 153.76 5.5625" stroke="#232323" stroke-width="1.5" stroke-linecap="round" stroke-linejoin="round"/>
<path d="M144.38 11.071C143.061 9.73829 140.728 9.58265 139.244 10.7286" stroke="#232323" stroke-width="1.5" stroke-linecap="round" stroke-linejoin="round"/>
<path d="M137.691 41.4062C139.043 42.3078 142.328 44.2373 146.964 44.4373C151.74 44.6431 155.261 42.8984 156.671 42.1C156.839 43.4212 156.907 48.2455 154.724 50.7487C150.889 55.1463 141.015 54.5216 137.885 49.5166C136.462 47.2413 137.46 42.863 137.691 41.4062Z" fill="#65EAC9"/>
<path d="M140.216 43.1016C140.488 43.7719 140.25 44.5247 140.169 45.2435C140.066 46.1642 140.229 47.0917 140.392 48.0034C140.482 48.5111 140.578 49.0319 140.843 49.4738" stroke="#232323" stroke-width="1.5" stroke-linecap="round" stroke-linejoin="round"/>
<path d="M146.048 44.625C146.21 45.3614 146.255 46.1241 146.182 46.8745C146.098 47.7152 145.867 48.5394 145.835 49.3835C145.806 50.1573 145.946 50.9315 146.19 51.6662" stroke="#232323" stroke-width="1.5" stroke-linecap="round" stroke-linejoin="round"/>
<path d="M151.795 44.1719C151.562 45.8073 152.519 47.4609 152.191 49.0799C152.035 49.8467 151.595 50.5991 151.77 51.3618" stroke="#232323" stroke-width="1.5" stroke-linecap="round" stroke-linejoin="round"/>
<path fill-rule="evenodd" clip-rule="evenodd" d="M151.197 20.828C151.286 21.1956 151.056 21.4317 151.593 21.5143C152.601 21.6724 155.156 21.3167 155.686 21.3295C156.102 21.3373 156.45 20.5516 155.918 20.2682C155.471 20.0242 150.975 19.9318 151.197 20.828Z" fill="#444444"/>
<path fill-rule="evenodd" clip-rule="evenodd" d="M141.854 20.0635C141.882 20.4405 141.617 20.636 142.133 20.8049C143.102 21.1253 145.681 21.1897 146.202 21.2882C146.611 21.3634 147.082 20.6451 146.603 20.2787C146.202 19.9658 141.781 19.1431 141.854 20.0635Z" fill="#444444"/>
<path d="M145.008 51.8194C147.452 51.851 149.934 51.8777 152.292 51.2345C153.389 50.9351 154.447 50.4928 155.43 49.9219" stroke="#232323" stroke-width="1.5" stroke-linecap="round" stroke-linejoin="round"/>
<path d="M136.992 103.522C139.289 103.356 141.638 103.147 144.034 102.888C144.963 102.788 145.883 102.682 146.793 102.57C146.845 103.001 146.799 103.367 146.698 103.68C145.97 105.93 141.845 107.036 136.516 106.757C136.03 107.529 135.544 108.301 135.057 109.072" fill="#F08566"/>
<path d="M136.992 103.522C139.289 103.356 141.638 103.147 144.034 102.888C144.963 102.788 145.883 102.682 146.793 102.57C146.845 103.001 146.799 103.367 146.698 103.68C145.97 105.93 141.845 107.036 136.516 106.757C136.03 107.529 135.544 108.301 135.057 109.072" stroke="#303030" stroke-width="1.5" stroke-linecap="round" stroke-linejoin="round"/>
<path d="M153.139 70.7449C154.786 70.5133 156.173 70.779 157.298 71.5418C158.437 72.2866 159.116 73.4432 159.337 75.0118C159.555 76.5646 159.223 77.823 158.341 78.7872C157.456 79.7356 156.19 80.3255 154.542 80.5571L154.704 82.4005L151.781 82.8113L151.094 78.7877L152.164 78.6374C153.542 78.4437 154.578 78.1123 155.271 77.6432C155.965 77.1741 156.244 76.4564 156.108 75.4899C156.01 74.7927 155.726 74.2671 155.256 73.913C154.802 73.5568 154.227 73.4276 153.529 73.5256C152.801 73.628 152.258 73.9062 151.902 74.3602C151.561 74.812 151.44 75.3865 151.538 76.0836L148.401 76.5245C148.249 75.5603 148.334 74.6678 148.655 73.8471C148.976 73.0265 149.518 72.3444 150.282 71.8008C151.061 71.255 152.014 70.903 153.139 70.7449ZM154.029 88.2878C153.427 88.3724 152.902 88.2603 152.455 87.9516C152.021 87.6247 151.765 87.1841 151.687 86.6295C151.609 86.075 151.735 85.5887 152.064 85.1709C152.407 84.735 152.879 84.4747 153.481 84.3901C154.067 84.3077 154.577 84.4299 155.011 84.7567C155.442 85.0677 155.697 85.5004 155.775 86.055C155.853 86.6095 155.729 87.1037 155.402 87.5374C155.073 87.9552 154.615 88.2054 154.029 88.2878Z" fill="white"/>
<path d="M109.95 274.362C110.234 274.362 114.868 275.213 118.652 274.929C122.435 274.646 130.286 274.078 130.286 274.078" stroke="black" stroke-width="1.5" stroke-linecap="round" stroke-linejoin="round"/>
<path d="M35.0841 70.4318C37.2929 67.3248 36.868 65.4644 38.1342 62.5206L49.3405 73.8832L60.61 62.7692C57.8542 61.6691 56.0186 61.9837 53.0279 59.8579C50.2347 57.0264 50.2648 52.4648 53.0976 49.6699C55.8643 46.9409 60.2819 46.9108 63.089 49.549C63.1553 49.6093 63.2213 49.6703 63.2852 49.7395C64.9995 51.4774 65.135 54.315 66.3246 57.1298L77.3564 46.2474L49.7215 18.2344L38.7332 29.0744C37.5965 26.3097 37.4361 23.5405 35.7508 21.8335C35.6885 21.7647 35.623 21.7028 35.5538 21.6422C32.7467 19.004 28.3303 19.0349 25.5652 21.7643C22.732 24.5596 22.7015 29.1188 25.4948 31.9507C28.428 34.0374 30.2526 33.7761 32.9241 34.805L21.708 45.8705L32.6787 56.9914C29.7585 58.3166 26.769 58.3952 24.9652 60.1734C24.8981 60.2381 24.8329 60.3044 24.7772 60.372C22.1349 63.1783 22.1667 67.5963 24.8977 70.3638C27.6917 73.1962 32.2534 73.2251 35.0841 70.4318Z" fill="#444444"/>
<path d="M34.4831 43.9597C34.453 43.9149 33.5918 41.5156 33.5918 41.5156" stroke="white" stroke-width="1.5" stroke-linecap="round" stroke-linejoin="round"/>
<path d="M32.3288 44.7175C32.2987 44.6727 31.4375 42.2734 31.4375 42.2734" stroke="white" stroke-width="1.5" stroke-linecap="round" stroke-linejoin="round"/>
<path d="M30.4597 45.6315C30.4296 45.5868 29.5684 43.1875 29.5684 43.1875" stroke="white" stroke-width="1.5" stroke-linecap="round" stroke-linejoin="round"/>
<path d="M36.0636 48.1316C36.0331 48.0868 35.1719 45.6875 35.1719 45.6875" stroke="white" stroke-width="1.5" stroke-linecap="round" stroke-linejoin="round"/>
<path d="M33.9089 48.8972C33.8788 48.8524 33.0176 46.4531 33.0176 46.4531" stroke="white" stroke-width="1.5" stroke-linecap="round" stroke-linejoin="round"/>
<path d="M32.0398 49.8034C32.0096 49.7587 31.1484 47.3594 31.1484 47.3594" stroke="white" stroke-width="1.5" stroke-linecap="round" stroke-linejoin="round"/>
<path d="M44.0712 42.6603C44.129 42.9188 44.4005 43.9961 45.4432 44.71C45.5869 44.8089 46.409 45.3547 47.5291 45.2786C48.6097 45.2053 49.3858 44.5927 50.0708 44.0522C51.1775 43.1788 51.184 42.6982 51.8169 42.5883C52.5482 42.4613 52.6512 43.0832 54.2023 43.6851C56.0896 44.4177 57.547 44.1218 57.8449 44.0559C57.8665 44.051 58.0277 44.0124 58.2116 43.9607C60.9089 43.2065 62.1759 40.7132 62.2577 40.5468C63.3891 38.2472 62.7114 36.0067 62.4152 35.0258C62.1677 34.2081 61.2247 31.0893 58.0965 29.7112C57.5116 29.4535 54.5869 28.1564 51.9711 29.8434C49.6878 31.3164 49.357 33.955 49.3138 34.3498C49.1982 34.6493 48.9951 35.0197 48.628 35.1621C48.1901 35.3315 47.827 35.0583 47.1945 34.9513C46.4013 34.8174 45.746 35.0408 45.398 35.1597C44.0887 35.6074 42.954 36.9529 42.7786 38.5175C42.6777 39.4165 42.9194 40.1585 43.1152 40.6029" fill="#65EAC9"/>
<path d="M44.0712 42.6603C44.129 42.9188 44.4005 43.9961 45.4432 44.71C45.5869 44.8089 46.409 45.3547 47.5291 45.2786C48.6097 45.2053 49.3858 44.5927 50.0708 44.0522C51.1775 43.1788 51.184 42.6982 51.8169 42.5883C52.5482 42.4613 52.6512 43.0832 54.2023 43.6851C56.0896 44.4177 57.547 44.1218 57.8449 44.0559C57.8665 44.051 58.0277 44.0124 58.2116 43.9607C60.9089 43.2065 62.1759 40.7132 62.2577 40.5468C63.3891 38.2472 62.7114 36.0067 62.4152 35.0258C62.1677 34.2081 61.2247 31.0893 58.0965 29.7112C57.5116 29.4535 54.5869 28.1564 51.9711 29.8434C49.6878 31.3164 49.357 33.955 49.3138 34.3498C49.1982 34.6493 48.9951 35.0197 48.628 35.1621C48.1901 35.3315 47.827 35.0583 47.1945 34.9513C46.4013 34.8174 45.746 35.0408 45.398 35.1597C44.0887 35.6074 42.954 36.9529 42.7786 38.5175C42.6777 39.4165 42.9194 40.1585 43.1152 40.6029" stroke="black" stroke-width="2" stroke-linecap="round" stroke-linejoin="round"/>
<path d="M50.4724 36.985C51.1542 35.799 52.6678 35.3904 53.8538 36.0721C55.0394 36.7535 55.4485 38.2675 54.7667 39.4531C54.085 40.6391 52.5713 41.0477 51.3853 40.3664C50.1998 39.6847 49.7907 38.171 50.4724 36.985Z" fill="#444444"/>
<line x1="56.8218" y1="38.7896" x2="55.6007" y2="35.2979" stroke="#232323" stroke-width="1.5" stroke-linecap="round" stroke-linejoin="round"/>
<path d="M35.4824 43.4884C40.611 41.7135 45.7401 39.9386 50.8691 38.1641C51.0494 38.613 51.2301 39.0623 51.4104 39.5112C46.3526 41.5031 41.2948 43.4954 36.2366 45.4876L35.4824 43.4884Z" fill="white"/>
<path d="M35.4824 43.4884C40.611 41.7135 45.7401 39.9386 50.8691 38.1641C51.0494 38.613 51.2301 39.0623 51.4104 39.5112C46.3526 41.5031 41.2948 43.4954 36.2366 45.4876L35.4824 43.4884Z" stroke="black" stroke-width="1.5" stroke-linecap="round" stroke-linejoin="round"/>
<path d="M35.3342 43.2656C35.65 44.1053 35.9654 44.9445 36.2812 45.7841C34.1266 46.8065 31.9724 47.8289 29.8181 48.8513C29.6007 48.4003 29.3842 47.9038 29.1795 47.3637C28.939 46.7304 28.7505 46.1297 28.6016 45.5758C30.8458 44.8057 33.09 44.0357 35.3342 43.2656Z" fill="#65EAC9"/>
<path d="M35.3342 43.2656C35.65 44.1053 35.9654 44.9445 36.2812 45.7841C34.1266 46.8065 31.9724 47.8289 29.8181 48.8513C29.6007 48.4003 29.3842 47.9038 29.1795 47.3637C28.939 46.7304 28.7505 46.1297 28.6016 45.5758C30.8458 44.8057 33.09 44.0357 35.3342 43.2656Z" stroke="black" stroke-width="2" stroke-linecap="round" stroke-linejoin="round"/>
<line x1="57.5171" y1="38.5299" x2="56.3427" y2="35.1503" stroke="#232323" stroke-width="1.5" stroke-linecap="round" stroke-linejoin="round"/>
<path d="M38.5459 48.5414C39.3782 48.4026 40.2101 48.2638 41.0424 48.125C40.8996 48.8995 40.7832 49.9996 40.9293 51.3025C41.0929 52.7612 41.5227 53.9122 41.8744 54.6692" stroke="white" stroke-width="1.5" stroke-linecap="round" stroke-linejoin="round"/>
<path d="M45.5616 54.2139C45.5616 55.0914 44.6344 55.8029 43.4908 55.8029C42.3471 55.8029 41.4199 55.0914 41.4199 54.2139C41.4199 53.3364 42.3471 52.625 43.4908 52.625C44.6344 52.625 45.5616 53.3364 45.5616 54.2139Z" fill="white"/>
<path d="M50.7141 59.858C49.465 59.5618 48.2159 59.265 46.9668 58.9688C47.0649 59.6029 47.1454 60.504 47.0445 61.5711C46.9322 62.7657 46.6367 63.7079 46.3945 64.3281" stroke="white" stroke-width="1.5" stroke-linecap="round" stroke-linejoin="round"/>
<path d="M43.8594 63.9574C43.8594 64.6762 44.4968 65.2586 45.2831 65.2586C46.0694 65.2586 46.7068 64.6762 46.7068 63.9574C46.7068 63.2386 46.0694 62.6562 45.2831 62.6562C44.4968 62.6562 43.8594 63.2386 43.8594 63.9574Z" fill="white"/>
<path d="M50.7148 59.8594C50.8133 60.4939 50.8923 61.395 50.7917 62.4618C50.6794 63.6567 50.3839 64.5989 50.1426 65.2188" stroke="white" stroke-width="1.5" stroke-linecap="round" stroke-linejoin="round"/>
<path d="M47.6055 64.8481C47.6055 65.5668 48.2429 66.1492 49.0291 66.1492C49.8155 66.1492 50.4529 65.5668 50.4529 64.8481C50.4529 64.1293 49.8155 63.5469 49.0291 63.5469C48.2429 63.5469 47.6055 64.1293 47.6055 64.8481Z" fill="white"/>
<path d="M49.8097 97.6761C48.511 100.346 48.688 102.198 46.3519 105.023C43.3222 107.603 38.7743 107.237 36.1939 104.21C33.6758 101.253 33.9652 96.8438 36.8065 94.2374C36.8679 94.1731 36.9343 94.1136 37.0112 94.053C38.8671 92.4726 41.708 92.5447 44.6009 91.5621L34.5562 79.7656L4.59521 105.278L14.6038 117.029C11.7592 117.96 8.98837 117.918 7.16298 119.472C7.08971 119.531 7.02257 119.59 6.95866 119.656C4.12024 122.262 3.8272 126.667 6.34776 129.627C8.92773 132.657 13.4747 133.021 16.5036 130.441C18.8008 127.668 18.6681 125.831 19.8911 123.241L30.1077 135.238L42.0039 125.109C43.1093 128.117 42.9701 131.105 44.6119 133.035C44.671 133.11 44.7312 133.176 44.7959 133.237C47.4032 136.077 51.8085 136.368 54.7686 133.849C57.7984 131.27 58.161 126.723 55.5806 123.693C52.6441 121.261 50.7585 121.551 47.9156 120.073L60.0686 109.727L49.8097 97.6761Z" fill="#D2F6A4"/>
<path d="M49.8097 97.6761C48.511 100.346 48.688 102.198 46.3519 105.023C43.3222 107.603 38.7743 107.237 36.1939 104.21C33.6758 101.253 33.9652 96.8438 36.8065 94.2374C36.8679 94.1731 36.9343 94.1136 37.0112 94.053C38.8671 92.4726 41.708 92.5447 44.6009 91.5621L34.5562 79.7656L4.59521 105.278L14.6038 117.029C11.7592 117.96 8.98837 117.918 7.16298 119.472C7.08971 119.531 7.02257 119.59 6.95866 119.656C4.12024 122.262 3.8272 126.667 6.34776 129.627C8.92773 132.657 13.4747 133.021 16.5036 130.441C18.8008 127.668 18.6681 125.831 19.8911 123.241L30.1077 135.238L42.0039 125.109C43.1093 128.117 42.9701 131.105 44.6119 133.035C44.671 133.11 44.7312 133.176 44.7959 133.237C47.4032 136.077 51.8085 136.368 54.7686 133.849C57.7984 131.27 58.161 126.723 55.5806 123.693C52.6441 121.261 50.7585 121.551 47.9156 120.073L60.0686 109.727L49.8097 97.6761Z" stroke="black" stroke-width="2" stroke-linecap="round" stroke-linejoin="round"/>
<path d="M34.5874 106.436C35.0493 104.714 34.2134 102.508 32.7917 101.517C30.9948 100.263 28.5398 101.14 28.1531 101.281C23.3359 103.03 18.5971 111.513 22.5105 117.313C25.6908 122.025 32.7042 122.182 36.6236 120.2C37.5528 119.73 39.9472 118.659 40.7815 116.155C41.5723 113.782 40.8112 110.645 39.2032 110.007C37.5264 109.343 35.3924 111.58 34.0379 110.557C33.681 110.287 33.53 109.906 33.4881 109.788C33.0864 108.654 34.2195 107.808 34.5874 106.436Z" fill="white"/>
<path d="M34.5874 106.436C35.0493 104.714 34.2134 102.508 32.7917 101.517C30.9948 100.263 28.5398 101.14 28.1531 101.281C23.3359 103.03 18.5971 111.513 22.5105 117.313C25.6908 122.025 32.7042 122.182 36.6236 120.2C37.5528 119.73 39.9472 118.659 40.7815 116.155C41.5723 113.782 40.8112 110.645 39.2032 110.007C37.5264 109.343 35.3924 111.58 34.0379 110.557C33.681 110.287 33.53 109.906 33.4881 109.788C33.0864 108.654 34.2195 107.808 34.5874 106.436Z" stroke="black" stroke-width="1.5" stroke-linecap="round" stroke-linejoin="round"/>
<path d="M31.321 105.895C31.2156 106.775 30.4472 107.406 29.6047 107.305C28.7626 107.204 28.1651 106.409 28.2709 105.53C28.3763 104.65 29.1448 104.019 29.9868 104.12C30.8293 104.221 31.4264 105.016 31.321 105.895Z" fill="#070707"/>
<path d="M25.9133 112.608C25.8295 113.307 25.1941 113.806 24.4945 113.723C23.7945 113.639 23.2955 113.003 23.3793 112.304C23.4636 111.604 24.0989 111.105 24.7985 111.189C25.4982 111.273 25.9971 111.908 25.9133 112.608Z" fill="#070707"/>
<path d="M29.2512 117.655C29.1673 118.354 28.532 118.854 27.8324 118.769C27.1323 118.686 26.6334 118.05 26.7172 117.351C26.8015 116.651 27.4368 116.152 28.1364 116.236C28.836 116.32 29.335 116.955 29.2512 117.655Z" fill="#070707"/>
<path d="M35.5266 117.905C35.4427 118.604 34.8074 119.104 34.1078 119.019C33.4077 118.936 32.9088 118.3 32.9926 117.601C33.0768 116.901 33.7122 116.402 34.4118 116.486C35.1114 116.57 35.6104 117.205 35.5266 117.905Z" stroke="black" stroke-width="2" stroke-linecap="round" stroke-linejoin="round"/>
<path d="M38.6428 113.748C38.5589 114.448 37.9236 114.947 37.224 114.863C36.5239 114.779 36.025 114.144 36.1088 113.444C36.1931 112.745 36.8284 112.245 37.528 112.33C38.2276 112.413 38.7266 113.049 38.6428 113.748Z" fill="#070707"/>
<path d="M17.1665 98.3593L27.8055 112.214L29.4388 110.849L18.046 97.9141L17.1665 98.3593Z" stroke="black" stroke-width="1.5" stroke-linecap="round" stroke-linejoin="round"/>
<path d="M26.4102 110.118C26.5074 109.935 26.6645 109.688 26.912 109.445C27.1012 109.259 27.2893 109.129 27.4419 109.039" stroke="black" stroke-width="1.5" stroke-linecap="round" stroke-linejoin="round"/>
<path d="M28.5516 111.052C28.217 111.246 27.9248 111.537 27.8015 111.903C27.696 112.217 27.7213 112.562 27.8104 112.881C28.0969 113.903 29.0066 114.658 30.0001 115.034C30.9932 115.41 32.0746 115.467 33.1352 115.52C32.6533 115.192 32.1417 114.825 31.9553 114.273C31.8548 113.975 31.8617 113.653 31.8316 113.34C31.7547 112.544 31.4115 111.625 30.8177 111.066C30.2597 110.54 29.1637 110.697 28.5516 111.052Z" stroke="black" stroke-width="2" stroke-linecap="round" stroke-linejoin="round"/>
<path d="M269.317 70.4617C268.698 67.5578 267.418 66.2069 267.522 62.5427C268.322 58.6449 272.132 56.1345 276.029 56.9326C279.834 57.7145 282.319 61.3681 281.683 65.1707C281.674 65.2594 281.658 65.347 281.635 65.4426C281.145 67.8301 278.861 69.5216 277.185 72.0759L292.362 75.1935L300.28 36.6469L285.159 33.5423C286.828 31.0584 289.039 29.3868 289.521 27.0384C289.542 26.9468 289.559 26.8585 289.569 26.7673C290.203 22.9668 287.723 19.3139 283.914 18.5317C280.017 17.7307 276.208 20.2419 275.409 24.1398C275.304 27.7389 276.539 29.1056 277.169 31.8996L261.733 28.7299L258.589 44.0344C255.866 42.3437 254.137 39.9025 251.656 39.3917C251.564 39.3693 251.475 39.3538 251.387 39.3453C247.584 38.7112 243.932 41.1923 243.149 44.9998C242.348 48.8976 244.86 52.7043 248.758 53.5049C252.57 53.6152 253.878 52.2261 257.028 51.642L253.815 67.2757L269.317 70.4617Z" fill="#444444"/>
<path d="M262.91 37.1791C263.859 37.5791 266.998 38.7623 270.86 37.7314C274.612 36.7301 276.72 34.2601 277.365 33.4375C280.068 42.8474 279.751 50.1726 276.387 52.0171C275.381 52.5686 274.356 52.4888 273.836 52.4424C269.179 52.026 265.053 45.7647 262.91 37.1791Z" fill="white"/>
<path d="M262.91 37.1791C263.859 37.5791 266.998 38.7623 270.86 37.7314C274.612 36.7301 276.72 34.2601 277.365 33.4375C280.068 42.8474 279.751 50.1726 276.387 52.0171C275.381 52.5686 274.356 52.4888 273.836 52.4424C269.179 52.026 265.053 45.7647 262.91 37.1791Z" stroke="black" stroke-width="1.5" stroke-linecap="round" stroke-linejoin="round"/>
<path d="M271.285 47.2472C271.366 45.3563 272.815 43.909 274.431 43.8459C275.673 43.7975 276.885 44.5724 277.492 45.8015" stroke="#232323" stroke-width="1.5" stroke-linecap="round" stroke-linejoin="round"/>
<path d="M295.399 40.3119C294.449 40.7124 291.31 41.8951 287.449 40.8646C283.696 39.8634 281.589 37.3929 280.943 36.5703C278.241 45.9802 278.557 53.3058 281.921 55.1503C282.928 55.7014 283.953 55.6216 284.473 55.5752C289.13 55.1589 293.256 48.8979 295.399 40.3119Z" fill="white"/>
<path d="M295.399 40.3119C294.449 40.7124 291.31 41.8951 287.449 40.8646C283.696 39.8634 281.589 37.3929 280.943 36.5703C278.241 45.9802 278.557 53.3058 281.921 55.1503C282.928 55.7014 283.953 55.6216 284.473 55.5752C289.13 55.1589 293.256 48.8979 295.399 40.3119Z" stroke="black" stroke-width="1.5" stroke-linecap="round" stroke-linejoin="round"/>
<path d="M281.443 47.2422C281.524 49.1331 282.974 50.5804 284.589 50.6435C285.832 50.6919 287.043 49.917 287.651 48.6879" fill="white"/>
<path d="M281.443 47.2422C281.524 49.1331 282.974 50.5804 284.589 50.6435C285.832 50.6919 287.043 49.917 287.651 48.6879" stroke="black" stroke-width="1.5" stroke-linecap="round" stroke-linejoin="round"/>
<path d="M268.834 240.807C268.273 237.891 267.021 236.515 267.197 232.854C268.076 228.973 271.935 226.539 275.815 227.415C279.604 228.273 282.015 231.975 281.303 235.765C281.293 235.853 281.275 235.94 281.25 236.035C280.712 238.413 278.395 240.058 276.668 242.578L291.779 245.999L300.467 207.619L285.412 204.212C287.13 201.762 289.374 200.135 289.903 197.797C289.926 197.706 289.944 197.618 289.956 197.527C290.666 193.739 288.259 190.038 284.467 189.179C280.587 188.301 276.729 190.735 275.851 194.616C275.675 198.212 276.882 199.604 277.456 202.41L262.087 198.932L258.637 214.17C255.949 212.425 254.269 209.95 251.798 209.39C251.706 209.366 251.618 209.348 251.53 209.338C247.74 208.628 244.04 211.036 243.18 214.827C242.302 218.708 244.737 222.564 248.619 223.442C252.427 223.629 253.763 222.266 256.924 221.745L253.399 237.312L268.834 240.807Z" fill="white"/>
<path d="M286.125 212.404C282.526 212.285 268.391 212.218 264.964 212.203C264.484 212.201 264.045 212.447 263.793 212.856C262.824 214.428 261.729 216.629 261.092 219.404C260.833 220.536 259.222 227.556 261.947 229.088C263.026 229.694 264.485 229.272 265.282 228.831C265.282 228.831 266.439 228.191 268.489 223.744L282.341 224C282.381 224.206 283.315 228.657 286.53 229.43C286.993 229.541 287.672 229.704 288.326 229.387C290.534 228.318 289.88 223.031 289.63 221.007C289.396 219.115 288.829 216.353 287.311 213.171C287.093 212.714 286.632 212.421 286.125 212.404Z" fill="#D2F6A4"/>
<path d="M274.601 223.372C274.601 224.665 273.553 225.713 272.261 225.713C270.968 225.713 269.92 224.665 269.92 223.372C269.92 222.079 270.968 221.031 272.261 221.031C273.553 221.031 274.601 222.079 274.601 223.372Z" fill="white"/>
<path d="M280.962 223.45C280.962 224.743 279.914 225.791 278.621 225.791C277.328 225.791 276.28 224.743 276.28 223.45C276.28 222.157 277.328 221.109 278.621 221.109C279.914 221.109 280.962 222.157 280.962 223.45Z" fill="white"/>
<path d="M274.517 219.218H272.461C272.403 219.218 272.356 219.171 272.356 219.113V218.339C272.356 218.281 272.403 218.234 272.461 218.234H274.517C274.575 218.234 274.622 218.281 274.622 218.339V219.113C274.622 219.171 274.575 219.218 274.517 219.218Z" fill="white"/>
<path d="M278.353 219.186H276.297C276.239 219.186 276.192 219.14 276.192 219.081V218.308C276.192 218.25 276.239 218.203 276.297 218.203H278.353C278.411 218.203 278.458 218.25 278.458 218.308V219.081C278.458 219.14 278.411 219.186 278.353 219.186Z" fill="white"/>
<path d="M269.125 216.923H268.306V216.14C268.306 215.942 268.146 215.781 267.947 215.781H267.596C267.398 215.781 267.237 215.942 267.237 216.14V216.923H266.358C266.159 216.923 265.999 217.083 265.999 217.281V217.633C265.999 217.831 266.159 217.991 266.358 217.991H267.237V218.907C267.237 219.105 267.398 219.266 267.596 219.266H267.947C268.146 219.266 268.306 219.105 268.306 218.907V217.991H269.125C269.323 217.991 269.483 217.831 269.483 217.633V217.281C269.483 217.083 269.323 216.923 269.125 216.923Z" fill="white"/>
<path d="M283.666 216.146C283.666 216.494 283.383 216.777 283.035 216.777C282.687 216.777 282.404 216.494 282.404 216.146C282.404 215.798 282.687 215.516 283.035 215.516C283.383 215.516 283.666 215.798 283.666 216.146Z" fill="white"/>
<path d="M283.698 218.568C283.698 218.916 283.415 219.198 283.067 219.198C282.719 219.198 282.437 218.916 282.437 218.568C282.437 218.22 282.719 217.938 283.067 217.938C283.415 217.938 283.698 218.22 283.698 218.568Z" fill="white"/>
<path d="M282.296 217.349C282.296 217.697 282.013 217.979 281.665 217.979C281.317 217.979 281.034 217.697 281.034 217.349C281.034 217.001 281.317 216.719 281.665 216.719C282.013 216.719 282.296 217.001 282.296 217.349Z" fill="white"/>
<path d="M285.045 217.349C285.045 217.698 284.763 217.98 284.415 217.98C284.067 217.98 283.784 217.698 283.784 217.349C283.784 217.001 284.067 216.719 284.415 216.719C284.763 216.719 285.045 217.001 285.045 217.349Z" fill="white"/>
<path d="M277.252 212.154H273.404V210.216C273.404 210.131 273.473 210.062 273.557 210.062H277.099C277.183 210.062 277.252 210.131 277.252 210.216V212.154Z" fill="white"/>
<path d="M268.833 240.807C268.272 237.891 267.02 236.515 267.196 232.854C268.075 228.973 271.934 226.539 275.814 227.415C279.603 228.273 282.014 231.975 281.302 235.765C281.292 235.853 281.274 235.94 281.249 236.035C280.711 238.413 278.394 240.058 276.667 242.578L291.779 245.999L300.466 207.619L285.411 204.212C287.129 201.762 289.373 200.135 289.902 197.797C289.925 197.706 289.943 197.618 289.955 197.527C290.665 193.739 288.258 190.038 284.466 189.179C280.586 188.301 276.728 190.735 275.85 194.616C275.674 198.212 276.881 199.604 277.455 202.41L262.086 198.932L258.636 214.17C255.948 212.425 254.268 209.95 251.797 209.39C251.705 209.366 251.617 209.348 251.529 209.338C247.739 208.628 244.039 211.036 243.179 214.827C242.301 218.708 244.736 222.564 248.618 223.442C252.426 223.629 253.762 222.266 256.923 221.745L253.398 237.312L268.833 240.807Z" stroke="black" stroke-width="1.5" stroke-linecap="round" stroke-linejoin="round"/>
<path d="M286.124 212.412C282.525 212.293 268.39 212.226 264.964 212.211C264.483 212.209 264.045 212.455 263.792 212.864C262.823 214.436 261.728 216.637 261.091 219.412C260.832 220.544 259.221 227.563 261.946 229.095C263.025 229.702 264.484 229.28 265.281 228.839C265.281 228.839 266.438 228.199 268.488 223.751L282.34 224.008C282.38 224.213 283.314 228.664 286.529 229.438C286.992 229.549 287.671 229.712 288.325 229.395C290.533 228.326 289.879 223.039 289.629 221.015C289.395 219.123 288.828 216.36 287.31 213.179C287.092 212.721 286.631 212.429 286.124 212.412Z" stroke="black" stroke-width="2" stroke-linecap="round" stroke-linejoin="round"/>
<circle cx="275.15" cy="223.733" r="2.34067" transform="rotate(-67.5 275.15 223.733)" stroke="black" stroke-width="1.5" stroke-linecap="round" stroke-linejoin="round"/>
<circle cx="281.51" cy="223.804" r="2.34067" transform="rotate(-67.5 281.51 223.804)" stroke="black" stroke-width="1.5" stroke-linecap="round" stroke-linejoin="round"/>
<circle cx="268.235" cy="221.548" r="3.27921" transform="rotate(-22.5 268.235 221.548)" stroke="#232323" stroke-width="1.5" stroke-linecap="round" stroke-linejoin="round"/>
<circle cx="283.566" cy="221.431" r="3.27921" transform="rotate(-22.5 283.566 221.431)" stroke="#232323" stroke-width="1.5" stroke-linecap="round" stroke-linejoin="round"/>
<path d="M272.357 218.492C272.357 218.35 272.472 218.234 272.615 218.234H274.366C274.508 218.234 274.623 218.349 274.623 218.491V218.976C274.623 219.119 274.507 219.234 274.365 219.234H272.614C272.472 219.234 272.357 219.119 272.357 218.977V218.492Z" stroke="black" stroke-width="1.5" stroke-linecap="round" stroke-linejoin="round"/>
<path d="M276.192 218.461C276.192 218.319 276.307 218.203 276.45 218.203H278.201C278.343 218.203 278.458 218.318 278.458 218.46V218.945C278.458 219.088 278.342 219.203 278.2 219.203H276.449C276.307 219.203 276.192 219.088 276.192 218.946V218.461Z" stroke="black" stroke-width="1.5" stroke-linecap="round" stroke-linejoin="round"/>
<path d="M269.125 216.923H268.306V216.14C268.306 215.942 268.146 215.781 267.947 215.781H267.596C267.398 215.781 267.237 215.942 267.237 216.14V216.923H266.358C266.159 216.923 265.999 217.083 265.999 217.281V217.633C265.999 217.831 266.159 217.991 266.358 217.991H267.237V218.907C267.237 219.105 267.398 219.266 267.596 219.266H267.947C268.146 219.266 268.306 219.105 268.306 218.907V217.991H269.125C269.323 217.991 269.483 217.831 269.483 217.633V217.281C269.483 217.083 269.323 216.923 269.125 216.923Z" stroke="black" stroke-width="1.5" stroke-linecap="round" stroke-linejoin="round"/>
<path d="M283.666 216.146C283.666 216.494 283.383 216.777 283.035 216.777C282.687 216.777 282.404 216.494 282.404 216.146C282.404 215.798 282.687 215.516 283.035 215.516C283.383 215.516 283.666 215.798 283.666 216.146Z" stroke="black" stroke-width="1.5" stroke-linecap="round" stroke-linejoin="round"/>
<path d="M283.697 218.576C283.697 218.924 283.415 219.206 283.067 219.206C282.718 219.206 282.436 218.924 282.436 218.576C282.436 218.227 282.718 217.945 283.067 217.945C283.415 217.945 283.697 218.227 283.697 218.576Z" stroke="black" stroke-width="1.5" stroke-linecap="round" stroke-linejoin="round"/>
<path d="M282.296 217.349C282.296 217.697 282.013 217.979 281.665 217.979C281.317 217.979 281.034 217.697 281.034 217.349C281.034 217.001 281.317 216.719 281.665 216.719C282.013 216.719 282.296 217.001 282.296 217.349Z" stroke="black" stroke-width="1.5" stroke-linecap="round" stroke-linejoin="round"/>
<path d="M285.045 217.349C285.045 217.698 284.763 217.98 284.415 217.98C284.067 217.98 283.784 217.698 283.784 217.349C283.784 217.001 284.067 216.719 284.415 216.719C284.763 216.719 285.045 217.001 285.045 217.349Z" stroke="black" stroke-width="1.5" stroke-linecap="round" stroke-linejoin="round"/>
<path d="M277.252 212.162H273.404V210.223C273.404 210.139 273.473 210.07 273.557 210.07H277.099C277.183 210.07 277.252 210.139 277.252 210.223V212.162Z" stroke="black" stroke-width="1.5" stroke-linecap="round" stroke-linejoin="round"/>
<path d="M275.461 210.109L275.332 208.809C275.311 208.603 275.295 208.378 275.412 208.207C275.564 207.984 275.862 207.942 276.014 207.925C277.084 207.803 281.415 207.833 282.19 207.832C283.129 207.83 283.611 207.771 283.922 207.415C284.337 206.939 284.36 206.032 284.028 205.448C283.477 204.478 281.871 204.28 274.943 204.465C272.492 204.531 271.234 204.891 270.359 204.048C269.468 203.191 269.494 201.705 269.658 200.578" stroke="#232323" stroke-width="1.5" stroke-linecap="round" stroke-linejoin="round"/>
<path d="M278.388 215.94H272.671C272.585 215.94 272.516 215.871 272.516 215.785V213.53C272.516 213.445 272.585 213.375 272.671 213.375H278.388C278.474 213.375 278.544 213.445 278.544 213.53V215.785C278.544 215.871 278.474 215.94 278.388 215.94Z" fill="white"/>
<path d="M272.516 213.749C272.516 213.538 272.687 213.367 272.898 213.367H278.162C278.373 213.367 278.544 213.538 278.544 213.749V215.551C278.544 215.761 278.373 215.933 278.162 215.933H272.898C272.687 215.933 272.516 215.761 272.516 215.55V213.749Z" stroke="black" stroke-width="1.5" stroke-linecap="round" stroke-linejoin="round"/>
<path d="M285.537 112.063C287.79 113.996 289.627 114.294 291.767 117.271C293.494 120.855 291.987 125.162 288.404 126.89C284.905 128.576 280.714 127.178 278.913 123.769C278.866 123.693 278.826 123.614 278.786 123.524C277.728 121.328 278.518 118.598 278.302 115.551L264.344 122.276L281.424 157.726L295.329 151.026C295.509 154.013 294.765 156.683 295.805 158.842C295.844 158.928 295.884 159.008 295.932 159.087C297.732 162.493 301.92 163.894 305.422 162.206C309.007 160.479 310.513 156.173 308.785 152.589C306.685 149.664 304.874 149.326 302.679 147.486L316.875 140.646L310.094 126.57C313.284 126.264 316.139 127.156 318.422 126.057C318.509 126.019 318.588 125.978 318.665 125.931C322.073 124.129 323.471 119.941 321.785 116.439C320.058 112.854 315.752 111.35 312.167 113.078C309.07 115.302 308.872 117.199 306.721 119.575L299.795 105.195L285.537 112.063Z" fill="white"/>
<path d="M285.537 112.063C287.79 113.996 289.627 114.294 291.767 117.271C293.494 120.855 291.987 125.162 288.404 126.89C284.905 128.576 280.714 127.178 278.913 123.769C278.866 123.693 278.826 123.614 278.786 123.524C277.728 121.328 278.518 118.598 278.302 115.551L264.344 122.276L281.424 157.726L295.329 151.026C295.509 154.013 294.765 156.683 295.805 158.842C295.844 158.928 295.884 159.008 295.932 159.087C297.732 162.493 301.92 163.894 305.422 162.206C309.007 160.479 310.513 156.173 308.785 152.589C306.685 149.664 304.874 149.326 302.679 147.486L316.875 140.646L310.094 126.57C313.284 126.264 316.139 127.156 318.422 126.057C318.509 126.019 318.588 125.978 318.665 125.931C322.073 124.129 323.471 119.941 321.785 116.439C320.058 112.854 315.752 111.35 312.167 113.078C309.07 115.302 308.872 117.199 306.721 119.575L299.795 105.195L285.537 112.063Z" stroke="black" stroke-width="1.5" stroke-linecap="round" stroke-linejoin="round"/>
<rect x="281.279" y="142.938" width="26.7457" height="19.4238" transform="rotate(-22.4486 281.279 142.938)" fill="#65EAC9"/>
<rect x="281.279" y="142.938" width="26.7457" height="19.4238" transform="rotate(-22.4486 281.279 142.938)" stroke="black" stroke-width="2" stroke-linecap="round" stroke-linejoin="round"/>
<path d="M277.975 133.715L285.038 149.99C286.182 149.011 288.643 147.172 292.291 146.405C295.18 145.797 297.595 146.118 298.993 146.414C299.746 145.305 300.958 143.816 302.796 142.485C306.081 140.107 309.449 139.618 311.056 139.494C308.888 133.767 306.72 128.04 304.552 122.314C303.17 122.296 300.645 122.446 297.848 123.737C294.569 125.249 292.666 127.522 291.829 128.665C290.689 128.387 287.354 127.734 283.606 129.284C280.476 130.578 278.695 132.732 277.975 133.715Z" fill="#65EAC9"/>
<path d="M277.975 133.715L285.038 149.99C286.182 149.011 288.643 147.172 292.291 146.405C295.18 145.797 297.595 146.118 298.993 146.414C299.746 145.305 300.958 143.816 302.796 142.485C306.081 140.107 309.449 139.618 311.056 139.494C308.888 133.767 306.72 128.04 304.552 122.314C303.17 122.296 300.645 122.446 297.848 123.737C294.569 125.249 292.666 127.522 291.829 128.665C290.689 128.387 287.354 127.734 283.606 129.284C280.476 130.578 278.695 132.732 277.975 133.715Z" stroke="black" stroke-width="2" stroke-linecap="round" stroke-linejoin="round"/>
<path d="M299.052 146.556C296.628 140.552 294.204 134.548 291.78 128.544C292.038 127.502 292.75 125.232 294.764 123.145C296.666 121.176 298.76 120.373 299.782 120.055C302.085 125.646 304.389 131.237 306.691 136.829C305.862 137.046 303.078 137.886 301.041 140.647C299.228 143.106 299.067 145.649 299.052 146.556Z" fill="#65EAC9"/>
<path d="M299.052 146.556C296.628 140.552 294.204 134.548 291.78 128.544C292.038 127.502 292.75 125.232 294.764 123.145C296.666 121.176 298.76 120.373 299.782 120.055C302.085 125.646 304.389 131.237 306.691 136.829C305.862 137.046 303.078 137.886 301.041 140.647C299.228 143.106 299.067 145.649 299.052 146.556Z" stroke="black" stroke-width="2" stroke-linecap="round" stroke-linejoin="round"/>
<path d="M11.7022 202.36C13.001 199.69 12.8239 197.838 15.1601 195.013C18.1898 192.433 22.7376 192.799 25.3181 195.826C27.8362 198.783 27.5468 203.193 24.7055 205.799C24.644 205.863 24.5777 205.922 24.5008 205.983C22.6448 207.564 19.804 207.492 16.911 208.474L26.9558 220.27L56.9168 194.758L46.9082 183.006C49.7527 182.076 52.5236 182.118 54.349 180.564C54.4223 180.505 54.4894 180.446 54.5533 180.38C57.3918 177.774 57.6848 173.369 55.1642 170.409C52.5843 167.379 48.0372 167.015 45.0083 169.595C42.7112 172.368 42.8439 174.205 41.6208 176.795L31.4044 164.798L19.5081 174.927C18.4027 171.919 18.5419 168.931 16.9 167.001C16.841 166.926 16.7808 166.86 16.7161 166.798C14.1088 163.959 9.70343 163.667 6.74335 166.187C3.71359 168.766 3.35098 173.313 5.93137 176.343C8.86789 178.775 10.7535 178.485 13.5964 179.963L1.44336 190.309L11.7022 202.36Z" fill="#65EAC9"/>
<path d="M11.7022 202.36C13.001 199.69 12.8239 197.838 15.1601 195.013C18.1898 192.433 22.7376 192.799 25.3181 195.826C27.8362 198.783 27.5468 203.193 24.7055 205.799C24.644 205.863 24.5777 205.922 24.5008 205.983C22.6448 207.564 19.804 207.492 16.911 208.474L26.9558 220.27L56.9168 194.758L46.9082 183.006C49.7527 182.076 52.5236 182.118 54.349 180.564C54.4223 180.505 54.4894 180.446 54.5533 180.38C57.3918 177.774 57.6848 173.369 55.1642 170.409C52.5843 167.379 48.0372 167.015 45.0083 169.595C42.7112 172.368 42.8439 174.205 41.6208 176.795L31.4044 164.798L19.5081 174.927C18.4027 171.919 18.5419 168.931 16.9 167.001C16.841 166.926 16.7808 166.86 16.7161 166.798C14.1088 163.959 9.70343 163.667 6.74335 166.187C3.71359 168.766 3.35098 173.313 5.93137 176.343C8.86789 178.775 10.7535 178.485 13.5964 179.963L1.44336 190.309L11.7022 202.36Z" stroke="black" stroke-width="2" stroke-linecap="round" stroke-linejoin="round"/>
<path d="M29.7461 192.132C34.4445 191.387 39.1425 190.643 43.8409 189.898C42.2382 194.252 40.6354 198.605 39.0327 202.959C35.9374 199.35 32.8417 195.741 29.7461 192.132Z" fill="#444444"/>
<path d="M19.5605 180.346C24.9545 179.528 30.3485 178.709 35.7425 177.891L30.2224 192.247C26.6684 188.28 23.1145 184.313 19.5605 180.346Z" fill="#444444"/>
<path d="M24.1523 185.691C27.3103 184.743 30.4682 183.795 33.6261 182.846C36.3087 182.041 38.9908 181.236 41.6733 180.43C39.1218 185.928 36.5707 191.426 34.0197 196.925C30.7307 193.18 27.4413 189.436 24.1523 185.691Z" fill="white"/>
<path d="M24.1523 185.691C27.3103 184.743 30.4682 183.795 33.6261 182.846C36.3087 182.041 38.9908 181.236 41.6733 180.43C39.1218 185.928 36.5707 191.426 34.0197 196.925C30.7307 193.18 27.4413 189.436 24.1523 185.691Z" stroke="black" stroke-width="1.5" stroke-linecap="round" stroke-linejoin="round"/>
<path d="M31.6914 183.43C32.899 183.692 34.107 183.954 35.3145 184.216C35.0679 185.064 34.8213 185.912 34.575 186.761C35.9446 186.783 37.3141 186.805 38.6837 186.826" stroke="#232323" stroke-width="1.5" stroke-linecap="round" stroke-linejoin="round"/>
<line x1="17.1093" y1="176.552" x2="42.0646" y2="204.91" stroke="#232323" stroke-width="1.5" stroke-linecap="round" stroke-linejoin="round"/>
<line x1="18.2807" y1="182.427" x2="25.2115" y2="190.416" stroke="#232323" stroke-width="1.5" stroke-linecap="round" stroke-linejoin="round"/>
<line x1="30.5912" y1="195.122" x2="37.522" y2="203.111" stroke="#232323" stroke-width="1.5" stroke-linecap="round" stroke-linejoin="round"/>
</svg>
