<svg width="24" height="24" viewBox="0 0 24 24" fill="none" xmlns="http://www.w3.org/2000/svg">
<path d="M18.0001 7.16C17.9401 7.15 17.8701 7.15 17.8101 7.16C16.4301 7.11 15.3301 5.98 15.3301 4.58C15.3301 3.15 16.4801 2 17.9101 2C19.3401 2 20.4901 3.16 20.4901 4.58C20.4801 5.98 19.3801 7.11 18.0001 7.16Z" stroke="#ffffff" stroke-width="1.5" stroke-linecap="round" stroke-linejoin="round"/>
<path d="M16.9695 14.4402C18.3395 14.6702 19.8495 14.4302 20.9095 13.7202C22.3195 12.7802 22.3195 11.2402 20.9095 10.3002C19.8395 9.59016 18.3095 9.35016 16.9395 9.59016" stroke="#ffffff" stroke-width="1.5" stroke-linecap="round" stroke-linejoin="round"/>
<path d="M5.96949 7.16C6.02949 7.15 6.09949 7.15 6.15949 7.16C7.53949 7.11 8.63949 5.98 8.63949 4.58C8.63949 3.15 7.48949 2 6.05949 2C4.62949 2 3.47949 3.16 3.47949 4.58C3.48949 5.98 4.58949 7.11 5.96949 7.16Z" stroke="#ffffff" stroke-width="1.5" stroke-linecap="round" stroke-linejoin="round"/>
<path d="M6.99945 14.4402C5.62945 14.6702 4.11945 14.4302 3.05945 13.7202C1.64945 12.7802 1.64945 11.2402 3.05945 10.3002C4.12945 9.59016 5.65945 9.35016 7.02945 9.59016" stroke="#ffffff" stroke-width="1.5" stroke-linecap="round" stroke-linejoin="round"/>
<path d="M12.0001 14.6288C11.9401 14.6188 11.8701 14.6188 11.8101 14.6288C10.4301 14.5788 9.33008 13.4488 9.33008 12.0488C9.33008 10.6188 10.4801 9.46875 11.9101 9.46875C13.3401 9.46875 14.4901 10.6288 14.4901 12.0488C14.4801 13.4488 13.3801 14.5888 12.0001 14.6288Z" stroke="#ffffff" stroke-width="1.5" stroke-linecap="round" stroke-linejoin="round"/>
<path d="M9.08973 17.7794C7.67973 18.7194 7.67973 20.2594 9.08973 21.1994C10.6897 22.2694 13.3097 22.2694 14.9097 21.1994C16.3197 20.2594 16.3197 18.7194 14.9097 17.7794C13.3197 16.7194 10.6897 16.7194 9.08973 17.7794Z" stroke="#ffffff" stroke-width="1.5" stroke-linecap="round" stroke-linejoin="round"/>
</svg>
