<svg width="19" height="16" viewBox="0 0 19 16" fill="none" xmlns="http://www.w3.org/2000/svg">
<path d="M1 8.14281C1 12.0816 4.20447 15.286 8.14322 15.286C9.3242 15.286 10.4602 14.9953 11.467 14.4664C11.8777 15.2035 12.6653 15.7035 13.5675 15.7035H15.7908C17.116 15.7035 18.1943 14.6252 18.1943 13.3001V12.3C18.1943 12.2237 18.1323 12.1617 18.056 12.1617C17.9798 12.1617 17.9178 12.2237 17.9178 12.3V13.3001C17.9178 14.4728 16.9635 15.427 15.7908 15.427H13.5675C12.3948 15.427 11.4405 14.4728 11.4405 13.3001V10.4783H17.9174V11.4484C17.9174 11.5246 17.9794 11.5866 18.0556 11.5866C18.1319 11.5866 18.1939 11.5246 18.1939 11.4484V10.3401C18.1939 10.2639 18.1319 10.2018 18.0556 10.2018H17.212V9.19622C17.212 7.95757 16.3181 6.9247 15.1419 6.70628C15.1419 6.70547 15.1419 6.70429 15.1415 6.70351C14.9862 5.94515 14.7062 5.21917 14.3191 4.55441C14.3144 4.54337 14.3085 4.53309 14.3009 4.524C13.8799 3.80909 13.3348 3.16567 12.6871 2.63127C11.4125 1.57944 9.79857 1 8.14321 1C5.52726 1 3.23559 2.41364 1.991 4.5173C1.98034 4.52994 1.97166 4.54417 1.96573 4.55994C1.35192 5.61376 1 6.83781 1 8.14281ZM16.9355 10.2018H16.5346V9.19622C16.5346 8.17323 15.7019 7.34061 14.6789 7.34061C13.6559 7.34061 12.8233 8.17282 12.8233 9.19622V10.2018H12.4224V9.19622C12.4224 7.95204 13.4348 6.9397 14.6789 6.9397C15.9231 6.9397 16.9355 7.95204 16.9355 9.19622V10.2018ZM13.0998 9.19622C13.0998 8.32568 13.808 7.6171 14.6789 7.6171C14.8121 7.6171 14.9416 7.63368 15.0652 7.66489C15.7497 7.8375 16.2581 8.4584 16.2581 9.19582V10.2015H13.0998V9.19622ZM14.6789 6.66322C13.2823 6.66322 12.1459 7.79957 12.1459 9.19622V10.2018H11.6325C11.7324 9.54262 11.7841 8.85062 11.7841 8.14281C11.7841 6.93655 11.6336 5.77609 11.3512 4.74519H14.1102C14.4479 5.3349 14.7007 5.98148 14.8512 6.66994C14.7943 6.66599 14.7366 6.66322 14.6789 6.66322ZM11.3023 10.2018C11.226 10.2018 11.164 10.2639 11.164 10.3401V11.1597C11.1328 11.2884 11.0996 11.4156 11.0645 11.5404H2.17784C1.62605 10.5755 1.30177 9.46443 1.27846 8.28107H4.50426C4.51295 9.19662 4.60696 10.0853 4.78628 10.9231C4.80208 10.9977 4.87594 11.0451 4.9502 11.0293C5.02485 11.0135 5.07264 10.9401 5.05645 10.8654C4.88147 10.0462 4.78944 9.17727 4.78075 8.28107H11.5065C11.5001 8.94187 11.4476 9.58686 11.3524 10.2018H11.3023ZM2.17784 4.74519H4.93558C4.66384 5.7366 4.51453 6.84807 4.50347 8.00457H1.27807C1.30177 6.82122 1.62605 5.71014 2.17784 4.74519ZM10.4961 3.25139C10.6825 3.62424 10.8449 4.03265 10.9819 4.46871H8.40074C8.32451 4.46871 8.2625 4.53073 8.2625 4.60696C8.2625 4.68318 8.32451 4.74519 8.40074 4.74519H11.0641C11.3422 5.73067 11.495 6.84373 11.5065 8.00457H4.77956C4.79102 6.84373 4.94348 5.73027 5.22195 4.74519H7.31099C7.38722 4.74519 7.44924 4.68318 7.44924 4.60696C7.44924 4.53073 7.38722 4.46871 7.31099 4.46871H5.30449C5.44155 4.03265 5.60389 3.62424 5.79032 3.25139C6.42702 1.97758 7.2628 1.27609 8.14321 1.27609C9.02362 1.27609 9.85939 1.97758 10.4961 3.25139ZM5.30528 11.8169H10.9815C10.8445 12.253 10.6821 12.6614 10.4957 13.0342C9.859 14.3081 9.02323 15.0095 8.14282 15.0095C7.00172 15.0095 5.92421 13.7914 5.30528 11.8169ZM5.01616 11.8169C5.32384 12.8281 5.75595 13.6788 6.26982 14.2812C6.48983 14.5387 6.72287 14.7481 6.96499 14.908C5.02524 14.5715 3.36238 13.4186 2.34412 11.8169H5.01616ZM10.743 13.1579C10.9002 12.8439 11.0404 12.5054 11.1632 12.1475V13.3001C11.1632 13.6247 11.2284 13.9344 11.3457 14.2172C10.7177 14.5482 10.0371 14.7832 9.32618 14.9068C9.85703 14.5541 10.3405 13.9624 10.743 13.1579ZM11.2707 4.46832C11.1241 3.98684 10.9476 3.53657 10.743 3.12736C10.3413 2.32397 9.85821 1.7323 9.32775 1.37957C11.2422 1.71728 12.9161 2.85758 13.9423 4.46832H11.2707ZM5.54266 3.12736C5.33807 3.53657 5.1619 3.98684 5.01497 4.46832H2.34451C3.36198 2.86826 5.02248 1.7161 6.95985 1.37839C6.429 1.7311 5.94515 2.32278 5.54266 3.12736Z" fill="#909F9F" stroke="#909F9F" stroke-width="0.1"/>
<path d="M14.6784 6.9375C13.4342 6.9375 12.4219 7.94986 12.4219 9.19402V10.1996H12.8228V9.19402C12.8228 8.17104 13.6554 7.33842 14.6784 7.33842C15.7014 7.33842 16.534 8.17062 16.534 9.19402V10.1996H16.9349V9.19402C16.9349 7.94986 15.9226 6.9375 14.6784 6.9375Z" fill="#1AABA6"/>
<path d="M17.9173 11.4466V10.4766H11.4404V13.2983C11.4404 14.471 12.3947 15.4253 13.5674 15.4253H15.7907C16.9634 15.4253 17.9177 14.471 17.9177 13.2983V12.2982C17.9177 12.222 17.9797 12.16 18.0559 12.16V11.5849C17.9797 11.5849 17.9173 11.5228 17.9173 11.4466ZM14.6788 14.3383C14.6027 14.3383 14.5406 14.2763 14.5406 14.2V12.957C14.116 12.8903 13.7901 12.5222 13.7901 12.0794C13.7901 11.5892 14.1887 11.1907 14.6788 11.1907C15.169 11.1907 15.5675 11.5892 15.5675 12.0794C15.5675 12.5222 15.2417 12.8907 14.8171 12.957V14.2C14.8171 14.2763 14.7551 14.3383 14.6788 14.3383Z" fill="#1AABA6"/>
<path d="M14.817 12.9617C15.2416 12.8949 15.5674 12.5268 15.5674 12.084C15.5674 11.5938 15.1689 11.1953 14.6787 11.1953C14.1885 11.1953 13.79 11.5938 13.79 12.084C13.79 12.5268 14.1158 12.8953 14.5405 12.9617V14.2046C14.5405 14.2809 14.6025 14.3429 14.6787 14.3429C14.755 14.3429 14.817 14.2809 14.817 14.2046V12.9617ZM14.0665 12.084C14.0665 11.7463 14.341 11.4718 14.6787 11.4718C15.0164 11.4718 15.2909 11.7463 15.2909 12.084C15.2909 12.4218 15.0164 12.6962 14.6787 12.6962C14.341 12.6962 14.0665 12.4218 14.0665 12.084Z" fill="#6E6E6E"/>
</svg>
