<svg width="23" height="23" viewBox="0 0 23 23" fill="none" xmlns="http://www.w3.org/2000/svg">
<path d="M8.52347 10.8141C8.49555 10.8141 8.47694 10.8141 8.44903 10.8141C8.4025 10.8048 8.33736 10.8048 8.28152 10.8141C5.58287 10.7303 3.54492 8.60862 3.54492 5.99372C3.54492 3.33229 5.71315 1.16406 8.37458 1.16406C11.036 1.16406 13.2042 3.33229 13.2042 5.99372C13.1949 8.60862 11.1477 10.7303 8.55139 10.8141C8.54208 10.8141 8.53278 10.8141 8.52347 10.8141ZM8.37458 2.55992C6.48552 2.55992 4.94078 4.10466 4.94078 5.99372C4.94078 7.85486 6.39247 9.35308 8.2443 9.41822C8.30013 9.40891 8.42111 9.40891 8.54208 9.41822C10.366 9.33447 11.7991 7.83625 11.8084 5.99372C11.8084 4.10466 10.2636 2.55992 8.37458 2.55992Z" fill="white"/>
<path d="M15.3914 10.9333C15.3635 10.9333 15.3355 10.9333 15.3076 10.924C14.9261 10.9612 14.5353 10.6913 14.498 10.3098C14.4608 9.92827 14.6935 9.58396 15.075 9.53743C15.1867 9.52812 15.3076 9.52812 15.41 9.52812C16.7686 9.45368 17.8295 8.33699 17.8295 6.96905C17.8295 5.55459 16.6849 4.40999 15.2704 4.40999C14.8889 4.41929 14.5725 4.1029 14.5725 3.72136C14.5725 3.33983 14.8889 3.02344 15.2704 3.02344C17.4479 3.02344 19.2253 4.80083 19.2253 6.97836C19.2253 9.11867 17.5503 10.8495 15.4193 10.9333C15.41 10.9333 15.4007 10.9333 15.3914 10.9333Z" fill="white"/>
<path d="M8.5327 20.9807C6.70878 20.9807 4.87556 20.5154 3.48901 19.5848C2.19551 18.7287 1.48828 17.5562 1.48828 16.2813C1.48828 15.0064 2.19551 13.8246 3.48901 12.9592C6.28072 11.1074 10.8033 11.1074 13.5764 12.9592C14.8606 13.8153 15.5771 14.9878 15.5771 16.2627C15.5771 17.5376 14.8699 18.7194 13.5764 19.5848C12.1805 20.5154 10.3566 20.9807 8.5327 20.9807ZM4.26138 14.1317C3.36803 14.7273 2.88414 15.4903 2.88414 16.2906C2.88414 17.0816 3.37734 17.8447 4.26138 18.4309C6.5785 19.985 10.4869 19.985 12.804 18.4309C13.6974 17.8354 14.1813 17.0723 14.1813 16.272C14.1813 15.481 13.6881 14.718 12.804 14.1317C10.4869 12.587 6.5785 12.587 4.26138 14.1317Z" fill="white"/>
<path d="M17.0658 19.3069C16.7401 19.3069 16.4516 19.0835 16.3865 18.7485C16.3121 18.367 16.554 18.0041 16.9262 17.9203C17.5125 17.7994 18.0522 17.5667 18.471 17.241C19.0014 16.8409 19.2899 16.3384 19.2899 15.8079C19.2899 15.2775 19.0014 14.775 18.4803 14.3842C18.0708 14.0678 17.559 13.8444 16.9542 13.7048C16.5819 13.6211 16.34 13.2489 16.4237 12.8673C16.5075 12.4951 16.8797 12.2532 17.2612 12.3369C18.0615 12.5137 18.7595 12.8301 19.3271 13.2675C20.1925 13.9189 20.6857 14.8401 20.6857 15.8079C20.6857 16.7757 20.1832 17.697 19.3178 18.3577C18.7408 18.8044 18.015 19.1301 17.2147 19.2883C17.1589 19.3069 17.1123 19.3069 17.0658 19.3069Z" fill="white"/>
</svg>
