<svg width="17" height="17" viewBox="0 0 17 17" fill="none" xmlns="http://www.w3.org/2000/svg">
<path d="M15.0344 8.25571C15.0344 12.0299 11.9748 15.0896 8.20054 15.0896C4.42631 15.0896 1.3667 12.0299 1.3667 8.25571C1.3667 4.48149 4.42631 1.42188 8.20054 1.42188C11.9748 1.42188 15.0344 4.48149 15.0344 8.25571Z" stroke="#909F9F" stroke-width="0.4" stroke-linecap="round" stroke-linejoin="round"/>
<path d="M5.82818 1.82812L6.35917 1.7096L7.57818 1.4375C4.70455 5.63674 4.34517 10.7851 7.21881 14.9844L5.79693 14.6406" stroke="#909F9F" stroke-width="0.4" stroke-linecap="round" stroke-linejoin="round"/>
<path d="M9.28711 1.59375C11.9044 5.85731 11.9044 10.4713 9.28711 14.7349" stroke="#909F9F" stroke-width="0.4" stroke-linecap="round" stroke-linejoin="round"/>
<path d="M1.95312 10.9881L1.6875 10.3047C5.67846 11.6373 10.6653 11.6373 14.6562 10.3047L14.4531 10.9881" stroke="#909F9F" stroke-width="0.4" stroke-linecap="round" stroke-linejoin="round"/>
<path d="M1.78125 6.20257C5.84427 4.86998 10.5151 4.86998 14.5781 6.20257" stroke="#909F9F" stroke-width="0.4" stroke-linecap="round" stroke-linejoin="round"/>
<path d="M1.32812 8.25781H15.0781" stroke="#909F9F" stroke-width="0.4"/>
</svg>
