<svg width="344" height="358" viewBox="0 0 344 358" fill="none" xmlns="http://www.w3.org/2000/svg">
<rect x="2.33984" y="182.039" width="113.782" height="10.0139" stroke="#BEBEBE" stroke-width="1.5"/>
<path d="M19.8809 341.396L63.7196 270.606L329.942 268.523L292.48 339.314L19.8809 341.396Z" fill="white"/>
<path d="M97.1398 270.341L54.0435 341.132L102.146 340.764L137.748 270.023L97.1398 270.341Z" fill="#444444"/>
<path d="M63.7194 270.604L20.0967 341.046L292.48 338.964L329.758 268.523L63.7194 270.604Z" fill="white"/>
<path d="M103.764 255.094C83.439 285.978 63.1133 316.862 42.7881 347.746L91.4096 348.44C106.156 317.44 120.901 286.441 135.647 255.441C125.02 255.325 114.392 255.21 103.764 255.094Z" fill="#444444"/>
<path d="M19.8804 341.044L63.7191 270.254L329.942 268.172L292.48 338.962L19.8804 341.044Z" stroke="black" stroke-width="1.5" stroke-linecap="round" stroke-linejoin="round"/>
<path d="M167.264 257.766C154.378 289.922 141.492 322.078 128.606 354.235C143.225 353.409 157.843 352.584 172.462 351.759L215.876 257.93C199.672 257.875 183.468 257.82 167.264 257.766Z" fill="#444444"/>
<path d="M256.804 263.986L203.817 357.719L252.441 357.141L295.855 263.312L256.804 263.986Z" fill="#444444"/>
<path d="M19.8809 341.396L63.7196 270.606L329.942 268.523L292.48 339.314L19.8809 341.396Z" stroke="black" stroke-width="1.5" stroke-linecap="round" stroke-linejoin="round"/>
<path d="M20.6935 341.305C20.0602 341.293 19.1046 341.256 17.954 341.132C15.1716 340.832 14.5986 340.386 12.8281 340.159C9.33014 339.712 8.49588 341.06 5.39219 340.568C3.59836 340.284 2.24561 339.576 1.41748 339.055" stroke="#232323" stroke-width="1.5" stroke-linecap="round" stroke-linejoin="round"/>
<path d="M9.06494 328.916C11.0782 328 13.5153 327.818 15.6794 328.42C16.8322 328.74 17.9138 329.273 19.1095 329.439C20.4338 329.623 21.7754 329.34 23.1037 329.179C24.4319 329.019 25.8799 329.003 27.0021 329.643" stroke="#232323" stroke-width="1.5" stroke-linecap="round" stroke-linejoin="round"/>
<path d="M16.3672 317.406C17.9355 318.523 19.5845 319.675 21.5649 320.049C24.1807 320.542 26.9776 319.596 29.5522 320.234C30.5023 320.469 31.4741 320.918 32.4225 320.677" stroke="#232323" stroke-width="1.5" stroke-linecap="round" stroke-linejoin="round"/>
<path d="M11.7769 322.25C13.9171 323.666 16.7863 323.825 19.4712 323.939C20.4948 323.983 21.524 324.028 22.5264 324.214C23.3646 324.37 24.1749 324.623 24.9819 324.875C26.3591 325.305 27.7364 325.735 29.1136 326.165" stroke="#232323" stroke-width="1.5" stroke-linecap="round" stroke-linejoin="round"/>
<path d="M6.03711 333.812C6.48153 334.156 7.01338 334.404 7.56473 334.597C9.94889 335.429 12.6137 335.239 15.1817 335.198C17.7502 335.156 20.5108 335.334 22.524 336.723" stroke="#232323" stroke-width="1.5" stroke-linecap="round" stroke-linejoin="round"/>
<path d="M23.272 306.812C24.3507 307.49 25.7174 307.739 27.0473 307.756C29.3424 307.786 31.5973 307.182 33.8924 307.165C35.9112 307.151 37.8927 307.591 39.848 308.028" stroke="#232323" stroke-width="1.5" stroke-linecap="round" stroke-linejoin="round"/>
<path d="M19.5391 312.438C21.9355 313.253 24.5942 313.255 27.1554 313.04C28.2593 312.948 29.3625 312.817 30.4708 312.836C32.4584 312.871 34.3881 313.385 36.2878 313.894" stroke="#232323" stroke-width="1.5" stroke-linecap="round" stroke-linejoin="round"/>
<path d="M26.3584 301.077C28.8094 300.631 31.3177 300.183 33.7999 300.471C34.8553 300.593 35.8928 300.847 36.9571 300.879C39.5896 300.957 42.2138 299.671 44.7656 300.239" stroke="#232323" stroke-width="1.5" stroke-linecap="round" stroke-linejoin="round"/>
<path d="M30.6162 293.164C33.0343 294.645 36.2405 294.565 39.1899 294.385C42.1388 294.205 45.3121 294.03 47.8333 295.374" stroke="#232323" stroke-width="1.5" stroke-linecap="round" stroke-linejoin="round"/>
<path d="M43.7349 269.992C46.5239 271.427 49.025 272.09 50.7091 272.421C53.6212 272.995 55.3298 273.331 57.0853 272.595C58.3511 272.064 58.8173 271.322 60.5225 270.86C61.775 270.521 62.9072 270.547 63.6669 270.622" stroke="#232323" stroke-width="1.5" stroke-linecap="round" stroke-linejoin="round"/>
<path d="M33.5605 288.427C35.9625 289.625 39.035 289.739 41.5451 288.724C42.7224 288.249 43.8301 287.53 45.1249 287.459C46.1352 287.404 47.1142 287.756 48.1222 287.832C49.5273 287.937 51.148 287.555 52.2117 288.361" stroke="#232323" stroke-width="1.5" stroke-linecap="round" stroke-linejoin="round"/>
<path d="M40.3398 278.117C41.951 278.999 43.996 279.257 45.8282 278.807C46.8858 278.548 47.9262 278.061 49.016 278.184C49.6019 278.25 50.1432 278.49 50.7219 278.593C51.985 278.817 53.2586 278.374 54.5072 278.095C55.7564 277.817 57.2523 277.755 58.1589 278.553" stroke="#232323" stroke-width="1.5" stroke-linecap="round" stroke-linejoin="round"/>
<path d="M36.606 283.141C39.0241 284.621 42.2302 284.541 45.1797 284.362C48.1285 284.182 51.3019 284.006 53.823 285.35" stroke="#232323" stroke-width="1.5" stroke-linecap="round" stroke-linejoin="round"/>
<path d="M292.608 339.198C294.441 338.705 296.595 338.674 298.464 339.114C299.722 339.411 300.86 339.911 302.184 340.069C304.06 340.292 305.934 339.794 307.754 339.437C309.573 339.079 311.746 338.892 313.245 339.616" stroke="#232323" stroke-width="1.5" stroke-linecap="round" stroke-linejoin="round"/>
<path d="M296.519 332.037C299.592 333.057 303.12 333.363 306.445 332.898C307.951 332.688 309.411 332.325 310.922 332.132C312.433 331.94 314.05 331.93 315.436 332.399" stroke="#232323" stroke-width="1.5" stroke-linecap="round" stroke-linejoin="round"/>
<path d="M298.869 327.352C299.905 326.988 301.459 326.581 303.322 326.659C305.686 326.757 306.827 327.562 308.562 327.899C310.304 328.237 312.909 328.154 316.582 326.164" stroke="#232323" stroke-width="1.5" stroke-linecap="round" stroke-linejoin="round"/>
<path d="M329.958 268.756C330.845 268.416 331.858 268.332 332.803 268.52C333.589 268.675 334.311 269.008 335.076 269.229C336.29 269.579 337.617 269.638 338.861 269.38C339.467 269.254 340.054 269.056 340.669 268.971C341.284 268.886 341.957 268.93 342.461 269.248" stroke="#232323" stroke-width="1.5" stroke-linecap="round" stroke-linejoin="round"/>
<path d="M326.973 274.508C327.297 275.751 328.747 276.559 330.189 276.778C331.631 276.998 333.105 276.766 334.564 276.669C337.189 276.495 339.852 276.767 342.36 277.464" stroke="#232323" stroke-width="1.5" stroke-linecap="round" stroke-linejoin="round"/>
<path d="M323.314 281.737C325.017 281.679 326.779 281.629 328.361 282.18C329.037 282.415 329.659 282.754 330.332 282.996C331.32 283.353 332.41 283.494 333.475 283.402C335.188 283.255 337.012 282.54 338.538 283.233" stroke="#232323" stroke-width="1.5" stroke-linecap="round" stroke-linejoin="round"/>
<path d="M301.751 321.752C304.694 321.194 307.929 322.095 310.874 321.543C311.889 321.352 312.83 320.994 313.87 320.88C314.868 320.769 315.887 320.89 316.881 321.01C317.756 321.116 318.63 321.222 319.505 321.327" stroke="#232323" stroke-width="1.5"/>
<path d="M304.852 315.961C308.449 316.619 312.075 317.63 315.777 317.296C316.827 317.202 317.85 317 318.902 316.912C320.382 316.79 321.906 316.9 323.308 317.232" stroke="#232323" stroke-width="1.5" stroke-linecap="round" stroke-linejoin="round"/>
<path d="M307.821 310.483C309.73 310.168 311.669 310.942 313.609 310.849C314.602 310.801 315.56 310.528 316.529 310.335C318.892 309.863 321.379 309.868 323.74 310.348" stroke="#232323" stroke-width="1.5" stroke-linecap="round" stroke-linejoin="round"/>
<path d="M311.004 304.447C312.95 304.466 314.872 305.05 316.806 304.873C318.141 304.752 319.394 304.275 320.688 303.965C321.982 303.655 323.426 303.524 324.617 304.063" stroke="#232323" stroke-width="1.5" stroke-linecap="round" stroke-linejoin="round"/>
<path d="M314.625 298.047C315.802 298.804 317.579 299.028 319.231 298.97C320.882 298.912 322.491 298.613 324.133 298.478C325.774 298.344 327.539 298.392 328.938 298.967" stroke="#232323" stroke-width="1.5" stroke-linecap="round" stroke-linejoin="round"/>
<path d="M316.385 293.773C317.526 294.123 318.762 294.237 319.961 294.103C320.865 294.002 321.739 293.764 322.625 293.582C325.173 293.057 327.845 292.991 330.424 293.389" stroke="#232323" stroke-width="1.5" stroke-linecap="round" stroke-linejoin="round"/>
<path d="M320.094 288.105C323.067 288.939 326.303 289.053 329.344 288.431C331.372 288.016 333.563 287.293 335.444 288.073" stroke="#232323" stroke-width="1.5" stroke-linecap="round" stroke-linejoin="round"/>
<path d="M158.437 265.301C160.326 261.85 162.408 247.93 161.56 244.422C169.081 246.36 178.419 248.098 189.206 248.644C197.543 249.066 205.029 248.69 211.421 247.986C210.647 250.673 209.874 253.36 209.1 256.047L213.727 265.532C207.575 267.567 198.586 269.78 187.586 269.927C175.078 270.094 164.971 267.522 158.437 265.301Z" fill="#F08566"/>
<path d="M158.437 265.301C160.326 261.85 162.408 247.93 161.56 244.422C169.081 246.36 178.419 248.098 189.206 248.644C197.543 249.066 205.029 248.69 211.421 247.986C210.647 250.673 209.874 253.36 209.1 256.047L213.727 265.532C207.575 267.567 198.586 269.78 187.586 269.927C175.078 270.094 164.971 267.522 158.437 265.301Z" stroke="#303030" stroke-width="1.5" stroke-linecap="round" stroke-linejoin="round"/>
<path d="M189.154 121.523C187.588 121.372 179.934 120.793 174.406 126.034C173.899 126.515 172.822 127.706 171.4 130.481C169.421 134.341 168.252 138.464 167.234 148.128C166.156 158.367 167.037 162.555 163.568 167.205C162.522 168.608 161.439 169.588 160.698 170.192C164.842 173.284 177.298 181.709 193.664 180.168C198.817 179.683 203.179 178.32 206.59 176.871C206.128 174.806 205.736 172.419 205.549 169.758C205.262 165.653 205.543 162.058 205.983 159.174C206.03 162.646 206.534 167.136 208.325 172.013C208.884 173.535 209.506 174.923 210.147 176.177C213.589 174.24 217.03 172.302 220.471 170.365C219.098 169.43 217.195 167.886 215.613 165.507C214.311 163.547 213.695 161.491 212.577 155.53C209.676 140.061 210.414 137.657 207.719 132.281C206.416 129.683 204.843 126.636 201.386 124.299C196.602 121.064 191.333 121.297 189.154 121.523Z" fill="#444444"/>
<path d="M209.563 318.631C209.563 318.631 239.175 318.863 243.57 316.549C247.966 314.235 246.347 303.594 246.347 303.594L210.026 306.138L209.563 318.631Z" fill="#F08566"/>
<path d="M209.563 318.631C209.563 318.631 239.175 318.863 243.57 316.549C247.966 314.235 246.347 303.594 246.347 303.594L210.026 306.138L209.563 318.631Z" stroke="#303030" stroke-width="1.5" stroke-linecap="round" stroke-linejoin="round"/>
<path d="M160.348 260.172C156.796 265.994 153.893 272.322 150.341 278.144C141.259 275.45 108.053 268.339 97.3188 271.326C96.6951 271.5 87.2041 283.304 86.4918 287.754C85.2838 295.299 107.656 306.574 121.588 311.09C121.588 311.09 154.006 317.731 209.564 318.629C209.718 315.776 209.872 312.922 210.026 310.069C262.627 311.743 294.834 286.282 293.804 274.22C293.73 273.356 282.508 260.872 274.948 261.805C271.269 262.26 220.064 272.819 220.064 272.819C216.343 266.836 215.077 266.639 211.356 260.656C206.321 262.76 197.882 265.549 187.123 265.709C175.37 265.884 165.542 262.336 160.348 260.172Z" fill="#65EAC9"/>
<path d="M152.365 279.938C154.281 281.062 157.638 282.921 162.023 284.738C174.938 290.088 182.505 289.153 197.302 293.875C200.192 294.798 204.706 296.367 210.142 298.85" stroke="#232323" stroke-width="1.5" stroke-linecap="round" stroke-linejoin="round"/>
<path d="M196.261 293.411C202.057 292.54 205.883 290.639 208.32 289.045C209.337 288.379 209.925 287.89 212.831 285.748C216.157 283.297 218.887 281.359 220.668 280.109" stroke="#232323" stroke-width="1.5" stroke-linecap="round" stroke-linejoin="round"/>
<path d="M210.228 298.992C210.007 305.537 209.785 312.083 209.563 318.627" stroke="#232323" stroke-width="1.5" stroke-linecap="round" stroke-linejoin="round"/>
<path d="M182.034 164.555C181.891 169.192 180.899 175.349 176.482 179.129C169.53 185.078 161 179.222 152.712 184.334C152.317 184.577 151.95 184.829 151.586 185.157C144.859 191.197 143.333 199.321 141.434 210.36C138.915 225.004 137.91 232.369 135.072 239.278C131.591 247.752 126.72 253.809 123.216 257.554C127.554 261.101 131.891 264.648 136.229 268.195C137.366 267.894 139.137 267.327 141.087 266.229C151.307 260.468 153.949 247.112 155.43 239.625C157.05 231.434 155.678 226.837 156.702 226.67C157.642 226.516 161.118 247.57 161.118 247.57C167.494 248.5 175.918 249.57 183.769 249.746C194.12 249.977 204.622 249.492 212.572 248.41C216.387 233.17 216.796 226.063 216.735 225.629V225.617C216.762 225.614 214.38 251.888 226.914 263.337C230.502 266.615 234.532 267.964 236.905 268.571C237.583 267.035 238.766 264.836 240.794 262.643C243.093 260.158 245.506 258.728 247.098 257.944C244.708 255.183 241.431 250.884 238.712 245.061C235.129 237.386 234.563 231.897 233.161 220.77C230.639 200.764 229.283 190.685 224.601 186.995C217.278 181.222 208.905 186.408 202.16 179.823C197.838 175.603 197.192 169.216 197.302 164.555H182.034Z" fill="#444444"/>
<path d="M164.979 179.53C175.058 189.5 191.363 191.475 204.636 186.495C209.076 184.829 213.562 182.136 215.286 177.719" stroke="white" stroke-width="1.5" stroke-linecap="round" stroke-linejoin="round"/>
<path d="M136.588 205.548C147.052 201.49 158.727 204.728 169.686 207.149C181.837 209.832 194.688 211.432 206.593 207.81C210.268 206.692 213.79 205.092 217.51 204.134C223.009 202.716 228.775 202.741 234.441 203.119" stroke="white" stroke-width="1.5" stroke-linecap="round" stroke-linejoin="round"/>
<path d="M130.757 244.255C135.731 242.503 141.173 244.509 146.005 246.623C147.732 247.378 149.479 248.168 150.905 249.402C152.605 250.871 153.737 252.871 154.837 254.83" stroke="white" stroke-width="1.5" stroke-linecap="round" stroke-linejoin="round"/>
<path d="M132.764 228.135C138.28 227.582 144.034 228.447 148.831 231.225C153.564 233.965 153.864 234.542 157.267 238.823" stroke="white" stroke-width="1.5" stroke-linecap="round" stroke-linejoin="round"/>
<path d="M217.615 258.333C220.447 252.797 225.711 248.561 231.725 246.979C234.62 246.218 237.634 246.049 240.623 245.885C243.766 245.712 246.91 245.54 250.055 245.367" stroke="white" stroke-width="1.5" stroke-linecap="round" stroke-linejoin="round"/>
<path d="M214.536 244.261C217.228 239.283 222.289 235.878 227.709 234.247C233.128 232.617 238.907 232.597 244.544 233.107" stroke="white" stroke-width="1.5" stroke-linecap="round" stroke-linejoin="round"/>
<path d="M157.33 247.05C165.601 241.701 176.182 242.04 186.018 242.566C196.15 243.109 206.281 243.65 216.413 244.192" stroke="white" stroke-width="1.5" stroke-linecap="round" stroke-linejoin="round"/>
<path d="M157.386 234.92C166.929 236.906 176.811 237.258 186.471 235.954C191.419 235.286 196.318 234.188 201.303 233.918C206.289 233.647 211.479 234.27 215.778 236.81" stroke="white" stroke-width="1.5" stroke-linecap="round" stroke-linejoin="round"/>
<path d="M136.854 213.205C145.85 212.449 154.568 216.024 163.426 217.769C172.305 219.519 181.43 219.432 190.48 219.338C195.044 219.29 199.608 219.243 204.172 219.195C207.165 219.164 210.183 219.131 213.11 218.501C216.031 217.873 218.795 216.665 221.678 215.883C227.942 214.184 234.558 214.539 241.032 214.99" stroke="white" stroke-width="1.5" stroke-linecap="round" stroke-linejoin="round"/>
<path d="M145.408 183.961C154.768 188.292 164.323 192.679 174.564 193.895C179.352 194.463 184.192 194.323 189.012 194.177C194.029 194.025 199.046 193.867 204.063 193.705C207.487 193.594 210.948 193.475 214.247 192.555C220.11 190.921 225.675 186.771 231.653 187.92" stroke="white" stroke-width="1.5" stroke-linecap="round" stroke-linejoin="round"/>
<path d="M73.7866 276.203C73.7866 276.203 75.268 276.647 76.2059 277.953C77.1443 279.259 79.069 283.849 79.069 283.849L88.4123 289.561L90.1616 291.42L79.2383 289.6L74.6337 281.632C74.3513 279.823 74.069 278.013 73.7866 276.203Z" fill="#F08566"/>
<path d="M73.7866 276.203C73.7866 276.203 75.268 276.647 76.2059 277.953C77.1443 279.259 79.069 283.849 79.069 283.849L88.4123 289.561L90.1616 291.42L79.2383 289.6L74.6337 281.632C74.3513 279.823 74.069 278.013 73.7866 276.203Z" stroke="#303030" stroke-width="1.5" stroke-linecap="round" stroke-linejoin="round"/>
<path d="M128.248 254.085C120.573 259.634 112.9 265.183 105.225 270.732C95.5796 270.724 98.8553 269.137 91.097 274.049C86.3687 272.346 79.3026 267.096 76.9067 272.171C81.0669 274.403 85.2271 276.635 89.3872 278.867C89.5315 279.776 89.6757 280.686 89.8199 281.595C92.653 283.443 95.4854 285.29 98.3179 287.138C104.037 284.591 109.853 281.904 115.755 279.069C124.569 274.836 133.013 270.541 141.087 266.23C143.39 262.846 143.387 258.514 141.203 255.589C138.453 251.907 132.627 250.961 128.248 254.085Z" fill="#F08566"/>
<path d="M128.248 254.085C120.573 259.634 112.9 265.183 105.225 270.732C95.5796 270.724 98.8553 269.137 91.097 274.049C86.3687 272.346 79.3026 267.096 76.9067 272.171C81.0669 274.403 85.2271 276.635 89.3872 278.867C89.5315 279.776 89.6757 280.686 89.8199 281.595C92.653 283.443 95.4854 285.29 98.3179 287.138C104.037 284.591 109.853 281.904 115.755 279.069C124.569 274.836 133.013 270.541 141.087 266.23C143.39 262.846 143.387 258.514 141.203 255.589C138.453 251.907 132.627 250.961 128.248 254.085Z" stroke="#303030" stroke-width="1.5" stroke-linecap="round" stroke-linejoin="round"/>
<path d="M96.3711 285.272C92.1073 284.64 87.843 284.009 83.5793 283.376C83.5793 283.376 81.0269 276.94 79.3183 274.469C78.684 273.552 78.0229 273.033 77.2249 272.818C76.5627 272.64 75.9991 272.759 75.6616 272.867L81.345 286.279C81.8679 286.637 82.7016 287.194 83.7453 287.832C88.5982 290.802 91.2892 292.444 93.7046 291.839C94.5661 291.623 95.6337 290.659 97.7695 288.731C98.8772 287.731 99.8607 286.678 100.3 286.219" fill="#F08566"/>
<path d="M96.3711 285.272C92.1073 284.64 87.843 284.009 83.5793 283.376C83.5793 283.376 81.0269 276.94 79.3183 274.469C78.684 273.552 78.0229 273.033 77.2249 272.818C76.5627 272.64 75.9991 272.759 75.6616 272.867L81.345 286.279C81.8679 286.637 82.7016 287.194 83.7453 287.832C88.5982 290.802 91.2892 292.444 93.7046 291.839C94.5661 291.623 95.6337 290.659 97.7695 288.731C98.8772 287.731 99.8607 286.678 100.3 286.219" stroke="#303030" stroke-width="1.5" stroke-linecap="round" stroke-linejoin="round"/>
<path d="M91.4806 289.21C88.6487 287.677 85.8162 286.144 82.9843 284.611L77.8262 272.779C78.2851 272.641 78.7055 272.618 79.0831 272.659C81.5948 272.936 84.0564 276.3 85.5172 280.925C88.9183 282.57 92.3188 284.215 95.7193 285.86" fill="#F08566"/>
<path d="M91.4806 289.21C88.6487 287.677 85.8162 286.144 82.9843 284.611L77.8262 272.779C78.2851 272.641 78.7055 272.618 79.0831 272.659C81.5948 272.936 84.0564 276.3 85.5172 280.925C88.9183 282.57 92.3188 284.215 95.7193 285.86" stroke="#303030" stroke-width="1.5" stroke-linecap="round" stroke-linejoin="round"/>
<path d="M98.7191 277.211C96.7126 278.833 94.7054 280.453 92.6989 282.074C87.9846 281.58 85.9062 280.085 84.887 278.762C84.4537 278.2 83.5744 276.842 82.1559 276.485C81.3489 276.283 80.6433 276.474 80.1777 276.663C81.4882 278.756 82.7986 280.849 84.109 282.941C85.513 284.18 88.3059 286.313 92.1676 287.159C93.7932 287.514 95.2206 287.557 96.355 287.488" fill="#F08566"/>
<path d="M98.7191 277.211C96.7126 278.833 94.7054 280.453 92.6989 282.074C87.9846 281.58 85.9062 280.085 84.887 278.762C84.4537 278.2 83.5744 276.842 82.1559 276.485C81.3489 276.283 80.6433 276.474 80.1777 276.663C81.4882 278.756 82.7986 280.849 84.109 282.941C85.513 284.18 88.3059 286.313 92.1676 287.159C93.7932 287.514 95.2206 287.557 96.355 287.488" stroke="#303030" stroke-width="1.5" stroke-linecap="round" stroke-linejoin="round"/>
<path d="M256.524 275.939C261.007 277.399 271.476 278.55 271.476 278.55L283.246 276.063L289.954 270.742C290.443 270.241 290.947 269.652 291.429 268.963C293.048 266.652 293.662 264.309 293.914 262.708L293.727 258.13C290.907 257.895 290.565 262.291 289.69 264.962L285.021 269.073C287.427 264.552 290.176 260.207 291.447 255.198C287.383 252.889 284.07 263.723 283.882 263.574C283.813 263.557 284.163 261.741 285.68 255.074C281.132 255.462 281.775 259.285 278.929 264.094C279.312 261.897 279.695 259.7 280.078 257.504C279.301 257.524 278.703 257.702 278.222 257.992C275.711 259.506 276.276 261.987 273.977 264.004C272.248 265.52 271.194 264.569 266.618 266.708C265.445 267.257 264.521 267.783 263.928 268.14C257.751 264.672 252.979 261.747 249.817 259.754C246.191 257.469 244.439 256.29 241.719 256.168C237.023 255.957 231.299 259.312 231.158 262.657C230.95 267.626 243.481 271.692 256.524 275.939Z" fill="#F08566"/>
<path d="M256.524 275.939C261.007 277.399 271.476 278.55 271.476 278.55L283.246 276.063L289.954 270.742C290.443 270.241 290.947 269.652 291.429 268.963C293.048 266.652 293.662 264.309 293.914 262.708L293.727 258.13C290.907 257.895 290.565 262.291 289.69 264.962L285.021 269.073C287.427 264.552 290.176 260.207 291.447 255.198C287.383 252.889 284.07 263.723 283.882 263.574C283.813 263.557 284.163 261.741 285.68 255.074C281.132 255.462 281.775 259.285 278.929 264.094C279.312 261.897 279.695 259.7 280.078 257.504C279.301 257.524 278.703 257.702 278.222 257.992C275.711 259.506 276.276 261.987 273.977 264.004C272.248 265.52 271.194 264.569 266.618 266.708C265.445 267.257 264.521 267.783 263.928 268.14C257.751 264.672 252.979 261.747 249.817 259.754C246.191 257.469 244.439 256.29 241.719 256.168C237.023 255.957 231.299 259.312 231.158 262.657C230.95 267.626 243.481 271.692 256.524 275.939Z" stroke="#303030" stroke-width="1.5" stroke-linecap="round" stroke-linejoin="round"/>
<path d="M272.538 270.667C273.585 269.888 274.76 268.904 275.958 267.677C277.189 266.416 278.166 265.184 278.929 264.094" stroke="#232323" stroke-width="1.5" stroke-linecap="round" stroke-linejoin="round"/>
<path d="M277.462 271.086L283.882 263.57" stroke="#232323" stroke-width="1.5" stroke-linecap="round" stroke-linejoin="round"/>
<path d="M281.379 273.32C281.926 272.728 282.479 272.106 283.036 271.453C283.873 270.47 284.643 269.503 285.35 268.562" stroke="#232323" stroke-width="1.5" stroke-linecap="round" stroke-linejoin="round"/>
<path d="M180.719 157.682C179.891 160.998 180.607 171.476 179.779 174.792C180.694 175.576 184.202 178.392 189.495 178.435C194.602 178.477 198.069 175.91 199.038 175.138C198.459 171.611 198.1 164.15 197.521 160.622C192.509 160.719 185.732 157.586 180.719 157.682Z" fill="#F08566"/>
<path d="M180.719 157.682C179.891 160.998 180.607 171.476 179.779 174.792C180.694 175.576 184.202 178.392 189.495 178.435C194.602 178.477 198.069 175.91 199.038 175.138C198.459 171.611 198.1 164.15 197.521 160.622C192.509 160.719 185.732 157.586 180.719 157.682Z" stroke="#303030" stroke-width="1.5" stroke-linecap="round" stroke-linejoin="round"/>
<path d="M180.924 135.086C179.257 136.966 174.764 142.558 174.81 150.454C174.853 158.01 177.703 166.651 184.915 168.839C185.687 169.073 189.656 169.062 192.982 168.674C202.259 167.591 203.019 153.093 203.017 150.789C203 138.556 200.89 136.527 193.496 133.463C186.211 130.445 181.965 134.667 180.924 135.086Z" fill="#F08566"/>
<path d="M180.924 135.086C179.257 136.966 174.764 142.558 174.81 150.454C174.853 158.01 177.703 166.651 184.915 168.839C185.687 169.073 189.656 169.062 192.982 168.674C202.259 167.591 203.019 153.093 203.017 150.789C203 138.556 200.89 136.527 193.496 133.463C186.211 130.445 181.965 134.667 180.924 135.086Z" stroke="#303030" stroke-width="1.5" stroke-linecap="round" stroke-linejoin="round"/>
<path d="M175.943 148.129C173.634 147.154 172.025 147.101 171.823 147.251C170.194 148.464 170.772 152.942 173.326 154.696C174.301 155.365 175.35 155.49 175.972 155.509" fill="#F08566"/>
<path d="M175.943 148.129C173.634 147.154 172.025 147.101 171.823 147.251C170.194 148.464 170.772 152.942 173.326 154.696C174.301 155.365 175.35 155.49 175.972 155.509" stroke="#303030" stroke-width="1.5" stroke-linecap="round" stroke-linejoin="round"/>
<path d="M211.936 124.74C211.936 127.63 209.354 129.972 206.168 129.972C202.983 129.972 200.401 127.63 200.401 124.74C200.401 121.85 202.983 119.508 206.168 119.508C209.354 119.508 211.936 121.85 211.936 124.74Z" fill="#444444"/>
<path d="M178.147 123.99C178.147 126.88 175.565 129.222 172.379 129.222C169.194 129.222 166.612 126.88 166.612 123.99C166.612 121.1 169.194 118.758 172.379 118.758C175.565 118.758 178.147 121.1 178.147 123.99Z" fill="#444444"/>
<path d="M174.273 146.456C177.057 147.57 182.069 147.013 183.74 142.001C184.913 138.482 190.772 138.36 191.244 136.86C191.11 138.583 193.456 138.635 196.02 135.568C196.956 138.266 197.112 144.58 202.466 146.84C202.256 146.751 202.629 146.413 202.71 146.199C202.911 145.529 205.259 137.219 200.185 131.409C194.952 125.417 183.937 124.701 178.039 130.948C174.207 135.006 172.168 140.698 174.273 146.456Z" fill="#444444"/>
<path d="M187.079 131.688C184.167 132.37 182.211 135.133 181.13 137.921C180.561 139.386 180.146 140.932 179.291 142.251C178.436 143.57 177.001 144.657 175.433 144.561" stroke="#232323" stroke-width="1.5" stroke-linecap="round" stroke-linejoin="round"/>
<path d="M211.378 157.477C211.781 160.199 212.187 162.934 213.018 165.557C213.849 168.18 215.134 170.709 217.083 172.65" stroke="#232323" stroke-width="1.5" stroke-linecap="round" stroke-linejoin="round"/>
<path d="M206.927 161.445C207.744 163.475 208.801 165.409 210.068 167.193" stroke="#232323" stroke-width="1.5" stroke-linecap="round" stroke-linejoin="round"/>
<path d="M171.467 156.141C171.14 158.204 171.049 160.31 170.519 162.331C169.99 164.352 168.943 166.344 167.171 167.45" stroke="#232323" stroke-width="1.5" stroke-linecap="round" stroke-linejoin="round"/>
<path d="M157.223 267.617C162.82 270.159 172.986 273.91 186.197 274.037C199.608 274.166 209.973 270.503 215.628 268.029" stroke="#232323" stroke-width="1.5" stroke-linecap="round" stroke-linejoin="round"/>
<path d="M180.113 161.93C179.65 166.953 182.765 175.863 189.152 171.203C191.091 167.223 185.094 158.935 180.61 161.451C180.654 161.498 180.388 162.109 180.113 161.93Z" fill="#F08566"/>
<path d="M161.56 226.672C162.884 227.641 166.274 229.848 171.16 230.142C176.607 230.47 180.566 228.219 181.918 227.366" stroke="#232323" stroke-width="1.5" stroke-linecap="round" stroke-linejoin="round"/>
<path d="M190.13 227.172C191.454 228.141 194.844 230.348 199.73 230.642C205.177 230.97 209.136 228.719 210.488 227.866" stroke="#232323" stroke-width="1.5" stroke-linecap="round" stroke-linejoin="round"/>
<rect x="37.1465" y="113.266" width="106.499" height="7.77398" stroke="#BEBEBE" stroke-width="1.5"/>
<path d="M111.426 113.782H79.3824L79.3184 82.5938H111.362L111.426 113.782Z" fill="white"/>
<path d="M111.426 113.782H79.3824L79.3184 82.5938H111.362L111.426 113.782Z" stroke="black" stroke-width="1.5" stroke-linecap="round" stroke-linejoin="round"/>
<rect x="83.2949" y="86.7656" width="24.3289" height="23.146" fill="white"/>
<rect x="83.2949" y="86.7656" width="24.3289" height="23.146" stroke="black" stroke-width="1.5" stroke-linecap="round" stroke-linejoin="round"/>
<path d="M38.5923 57.8771C36.9867 56.3361 35.4708 54.7016 34.0546 52.9851C28.6898 46.4826 24.6727 38.2146 25.732 29.8514C26.1124 26.8524 27.131 23.8111 26.4153 20.8739C25.7181 18.0097 24.2556 17.2673 24.0908 15.1132C23.9415 13.1673 24.7958 10.2842 29.6722 6.46094C29.93 8.4831 30.5911 11.3512 32.4946 14.1152C33.6057 15.7286 34.1715 15.8995 37.2785 19.138C40.4914 22.4873 42.0975 24.162 43.0543 26.1117C44.514 29.0856 43.6691 29.4911 44.6309 34.1792C45.4329 38.086 47.9658 41.4152 49.1938 45.2095C50.0475 47.8481 50.2497 50.6461 50.4463 53.4123C50.5432 54.7773 50.6356 56.1813 50.2207 57.485C49.6515 59.2722 47.0235 62.3926 44.9801 62.5658C43.0309 62.7312 39.9155 59.1474 38.5923 57.8771Z" fill="#444444"/>
<path d="M66.3567 29.0301C67.4861 28.1501 68.752 27.4005 69.6258 26.2666C71.5444 23.7767 71.0532 20.2458 71.9086 17.2212C72.7919 14.0975 75.2657 11.4694 78.3299 10.3984C76.3378 17.1978 74.882 24.1548 73.9815 31.1831C73.796 32.6311 73.6117 34.1442 72.7941 35.3533C71.7571 36.8876 69.9009 37.6366 68.1088 38.105C66.3445 38.5661 61.2136 39.2617 61.1017 36.4159C61.002 33.8791 64.5629 30.4279 66.3567 29.0301Z" fill="#444444"/>
<path d="M47.6997 31.259C46.6689 27.3806 45.7127 22.961 47.8869 19.5883C48.9533 17.9342 50.6687 16.7502 51.5987 15.016C52.7682 12.8351 52.5126 10.1385 53.4983 7.86853C54.7497 4.98761 57.8289 3.16482 58.8971 0.210938C61.5057 4.08039 64.1611 8.4817 63.4287 13.0902C63.1775 14.6735 62.526 16.21 62.5922 17.8117C62.6891 20.1357 64.2864 22.2592 64.1093 24.5788C63.9984 26.0368 63.192 27.3623 62.9993 28.8119C62.6563 31.3977 64.3003 33.9556 63.8943 36.5319C63.6498 38.079 62.6897 39.4206 61.6065 40.5517C60.2855 41.9306 58.544 43.1564 56.6416 43.0032C54.1204 42.8 51.8532 40.1323 50.2838 38.3563C48.6031 36.4539 48.3329 33.6448 47.6997 31.259Z" fill="#444444"/>
<path d="M64.7393 77.6472L84.5449 72.2891C84.5449 72.2891 85.2633 74.0595 83.397 75.2552C81.5308 76.4514 79.2825 76.7862 79.2825 76.7862C79.2825 76.7862 78.039 78.4608 76.4122 78.6997C74.7855 78.9392 72.3456 78.6518 72.3456 78.6518C72.3456 78.6518 71.3409 80.1833 69.0927 80.1349C66.8444 80.087 64.7393 77.6472 64.7393 77.6472Z" fill="white"/>
<path d="M64.7393 77.6472L84.5449 72.2891C84.5449 72.2891 85.2633 74.0595 83.397 75.2552C81.5308 76.4514 79.2825 76.7862 79.2825 76.7862C79.2825 76.7862 78.039 78.4608 76.4122 78.6997C74.7855 78.9392 72.3456 78.6518 72.3456 78.6518C72.3456 78.6518 71.3409 80.1833 69.0927 80.1349C66.8444 80.087 64.7393 77.6472 64.7393 77.6472Z" stroke="black" stroke-width="1.5" stroke-linecap="round" stroke-linejoin="round"/>
<line x1="61.5596" y1="81.4143" x2="63.7075" y2="77.8982" stroke="black" stroke-width="1.5" stroke-linecap="round" stroke-linejoin="round"/>
<path d="M80.1198 75.1565C80.1198 75.381 79.916 75.5631 79.6648 75.5631C79.4137 75.5631 79.2109 75.381 79.2109 75.1565C79.2109 74.9321 79.4137 74.75 79.6648 74.75C79.916 74.75 80.1198 74.9321 80.1198 75.1565Z" fill="#D9D9D9"/>
<path d="M32.6122 29.7313C32.5459 31.1509 33.4966 32.3862 34.034 33.7021C34.5725 35.0215 34.7001 36.5051 34.3949 37.8968C34.2144 38.72 33.8858 39.5175 33.8418 40.3595C33.682 43.4148 37.1861 45.6847 37.1872 48.7439C37.1872 49.3838 37.0291 50.0114 36.9583 50.6469C36.6699 53.2382 37.8711 55.8178 39.6093 57.7615C41.3474 59.7046 43.5868 61.1174 45.7944 62.5047C46.3591 59.2501 48.878 56.6081 49.5279 53.3696C49.8008 52.0102 49.7295 50.6062 49.5914 49.2262C49.4617 47.9352 49.2734 46.6465 48.9376 45.3929C48.1373 42.4028 46.505 39.6667 44.4116 37.3867C43.5127 36.4071 42.5125 35.4854 41.9004 34.3047C41.2522 33.0545 41.0918 31.6137 40.6273 30.2844C39.8114 27.9498 37.9914 26.0011 35.7521 24.9658C35.4107 24.8076 34.5308 24.3059 34.2222 24.5654C34.0663 24.6957 34.0435 25.8931 33.9543 26.1637C33.5562 27.3734 32.6734 28.4159 32.6122 29.7313Z" fill="white"/>
<path d="M32.6122 29.7313C32.5459 31.1509 33.4966 32.3862 34.034 33.7021C34.5725 35.0215 34.7001 36.5051 34.3949 37.8968C34.2144 38.72 33.8858 39.5175 33.8418 40.3595C33.682 43.4148 37.1861 45.6847 37.1872 48.7439C37.1872 49.3838 37.0291 50.0114 36.9583 50.6469C36.6699 53.2382 37.8711 55.8178 39.6093 57.7615C41.3474 59.7046 43.5868 61.1174 45.7944 62.5047C46.3591 59.2501 48.878 56.6081 49.5279 53.3696C49.8008 52.0102 49.7295 50.6062 49.5914 49.2262C49.4617 47.9352 49.2734 46.6465 48.9376 45.3929C48.1373 42.4028 46.505 39.6667 44.4116 37.3867C43.5127 36.4071 42.5125 35.4854 41.9004 34.3047C41.2522 33.0545 41.0918 31.6137 40.6273 30.2844C39.8114 27.9498 37.9914 26.0011 35.7521 24.9658C35.4107 24.8076 34.5308 24.3059 34.2222 24.5654C34.0663 24.6957 34.0435 25.8931 33.9543 26.1637C33.5562 27.3734 32.6734 28.4159 32.6122 29.7313Z" stroke="black" stroke-width="1.5" stroke-linecap="round" stroke-linejoin="round"/>
<path d="M48.3413 71.1974C46.2857 69.7907 43.7 67.5023 42.7922 64.1051C41.293 58.492 46.0847 56.2404 45.9856 48.605C45.9037 42.2685 42.5511 39.7785 44.2591 34.5524C45.0149 32.2423 46.3693 30.591 47.3873 29.5624C48.0094 29.1163 52.0676 26.3033 56.8933 27.5792C61.6705 28.8429 65.2259 33.5911 65.3612 39.2761C65.0343 41.868 64.5531 43.9927 64.1304 45.5654C63.3107 48.6151 62.6735 49.5362 62.6346 51.5472C62.585 54.0918 63.3034 56.1902 63.9261 57.5753C65.5478 61.8357 64.4005 66.6664 61.0557 69.7027C57.6017 72.8376 52.4809 73.4452 48.3413 71.1974Z" fill="white"/>
<path d="M48.3413 71.1974C46.2857 69.7907 43.7 67.5023 42.7922 64.1051C41.293 58.492 46.0847 56.2404 45.9856 48.605C45.9037 42.2685 42.5511 39.7785 44.2591 34.5524C45.0149 32.2423 46.3693 30.591 47.3873 29.5624C48.0094 29.1163 52.0676 26.3033 56.8933 27.5792C61.6705 28.8429 65.2259 33.5911 65.3612 39.2761C65.0343 41.868 64.5531 43.9927 64.1304 45.5654C63.3107 48.6151 62.6735 49.5362 62.6346 51.5472C62.585 54.0918 63.3034 56.1902 63.9261 57.5753C65.5478 61.8357 64.4005 66.6664 61.0557 69.7027C57.6017 72.8376 52.4809 73.4452 48.3413 71.1974Z" stroke="black" stroke-width="1.5" stroke-linecap="round" stroke-linejoin="round"/>
<line x1="54.3751" y1="73.5761" x2="53.9488" y2="81.9806" stroke="black" stroke-width="1.5" stroke-linecap="round" stroke-linejoin="round"/>
<path d="M63.3519 74.3001C58.9022 73.5109 51.9413 68.7031 53.5925 58.9437C55.6737 51.6241 61.3426 52.0546 62.7772 48.0359C64.2129 44.0172 62.1317 40.2859 65.3607 36.9845C68.5903 33.6836 68.519 33.6836 70.8146 29.6649C73.3419 25.2419 76.8014 26.7133 79.9998 22.3454C80.863 21.167 81.2546 20.2269 82.5839 19.3314C82.5839 19.3314 83.2622 18.8741 86.6015 17.6094C86.6015 17.6094 89.3293 18.0399 88.1809 23.0633C87.032 28.0861 90.4771 34.2578 87.4631 36.8414C84.449 39.4243 83.3018 39.2812 83.5886 44.304C83.8013 48.0248 82.727 51.1218 78.8514 55.9296C74.977 60.7375 76.3069 66.9131 72.9676 70.2095C70.1324 73.008 65.2176 74.3719 63.3519 74.3001Z" fill="white"/>
<path d="M63.3519 74.3001C58.9022 73.5109 51.9413 68.7031 53.5925 58.9437C55.6737 51.6241 61.3426 52.0546 62.7772 48.0359C64.2129 44.0172 62.1317 40.2859 65.3607 36.9845C68.5903 33.6836 68.519 33.6836 70.8146 29.6649C73.3419 25.2419 76.8014 26.7133 79.9998 22.3454C80.863 21.167 81.2546 20.2269 82.5839 19.3314C82.5839 19.3314 83.2622 18.8741 86.6015 17.6094C86.6015 17.6094 89.3293 18.0399 88.1809 23.0633C87.032 28.0861 90.4771 34.2578 87.4631 36.8414C84.449 39.4243 83.3018 39.2812 83.5886 44.304C83.8013 48.0248 82.727 51.1218 78.8514 55.9296C74.977 60.7375 76.3069 66.9131 72.9676 70.2095C70.1324 73.008 65.2176 74.3719 63.3519 74.3001Z" stroke="black" stroke-width="1.5" stroke-linecap="round" stroke-linejoin="round"/>
<line x1="57.7484" y1="81.8725" x2="60.9775" y2="74.4455" stroke="black" stroke-width="1.5" stroke-linecap="round" stroke-linejoin="round"/>
<path d="M48.1383 81.043L18.2859 13.875C18.2859 13.875 15.7024 15.8844 16.2766 19.4726C16.8508 23.0602 17.5686 23.5386 17.2334 25.2611C16.8987 26.9837 14.6498 31.2892 15.8461 34.5421C17.0418 37.7957 20.8695 40.7618 21.922 42.9143C22.9741 45.0667 21.4437 51.8366 23.1656 54.2765C24.8876 56.7163 30.4133 59.1556 31.633 60.7345C32.8532 62.3133 32.279 66.1171 34.7189 68.9874C37.1587 71.8577 43.3304 72.3601 43.3304 72.3601C43.6429 72.3879 43.9559 72.4158 44.2683 72.4436" fill="white"/>
<path d="M48.1383 81.043L18.2859 13.875C18.2859 13.875 15.7024 15.8844 16.2766 19.4726C16.8508 23.0602 17.5686 23.5386 17.2334 25.2611C16.8987 26.9837 14.6498 31.2892 15.8461 34.5421C17.0418 37.7957 20.8695 40.7618 21.922 42.9143C22.9741 45.0667 21.4437 51.8366 23.1656 54.2765C24.8876 56.7163 30.4133 59.1556 31.633 60.7345C32.8532 62.3133 32.279 66.1171 34.7189 68.9874C37.1587 71.8577 43.3304 72.3601 43.3304 72.3601C43.6429 72.3879 43.9559 72.4158 44.2683 72.4436" stroke="black" stroke-width="1.5" stroke-linecap="round" stroke-linejoin="round"/>
<path d="M43.881 82.4749L39.8206 77.6431L24.7448 59.7031C24.7448 59.7031 23.0229 63.8171 24.5533 66.1138C26.0842 68.4099 28.6678 68.7447 29.2898 69.6535C29.9114 70.563 30.5813 75.1553 33.117 76.5426C35.6526 77.9299 38.5708 77.691 38.5708 77.691C38.9674 77.6648 39.3639 77.6392 39.761 77.613" fill="white"/>
<path d="M43.881 82.4749L39.8206 77.6431L24.7448 59.7031C24.7448 59.7031 23.0229 63.8171 24.5533 66.1138C26.0842 68.4099 28.6678 68.7447 29.2898 69.6535C29.9114 70.563 30.5813 75.1553 33.117 76.5426C35.6526 77.9299 38.5708 77.691 38.5708 77.691C38.9674 77.6648 39.3639 77.6392 39.761 77.613" stroke="black" stroke-width="1.5"/>
<line x1="49.2605" y1="71.7315" x2="52.111" y2="82.28" stroke="black" stroke-width="1.5" stroke-linecap="round" stroke-linejoin="round"/>
<path d="M65.3605 111.513C57.3231 111.481 49.2862 111.45 41.2488 111.417C39.8298 101.336 38.4108 91.2537 36.9912 81.1719H69.9049C68.3901 91.286 66.8753 101.4 65.3605 111.513Z" fill="#D2F6A4"/>
<path d="M65.3605 111.513C57.3231 111.481 49.2862 111.45 41.2488 111.417C39.8298 101.336 38.4108 91.2537 36.9912 81.1719H69.9049C68.3901 91.286 66.8753 101.4 65.3605 111.513Z" stroke="black" stroke-width="2" stroke-linejoin="round"/>
<path d="M22.5843 35.5539C21.6548 35.927 20.4468 35.0994 19.8871 33.7044C19.3269 32.3098 19.6271 30.8769 20.5565 30.5038C21.4866 30.1301 22.694 30.9582 23.2542 32.3527C23.8139 33.7472 23.5138 35.1807 22.5843 35.5539Z" fill="#D9D9D9"/>
<path d="M27.2564 43.3293C27.2564 43.468 27.1111 43.5805 26.9329 43.5805C26.7547 43.5805 26.6099 43.468 26.6099 43.3293C26.6099 43.1906 26.7547 43.0781 26.9329 43.0781C27.1111 43.0781 27.2564 43.1906 27.2564 43.3293Z" fill="#D9D9D9"/>
<path d="M47.0827 38.6767C47.2882 41.0681 48.6554 42.9037 50.1357 42.7767C51.6165 42.6492 52.6502 40.607 52.4441 38.2156C52.2386 35.8242 50.8714 33.9886 49.3911 34.1156C47.9103 34.2431 46.8772 36.2853 47.0827 38.6767Z" fill="#D9D9D9"/>
<path d="M60.1588 15.1383C59.9277 16.011 59.2844 16.5975 58.7225 16.4482C58.1606 16.2995 57.8927 15.4714 58.1244 14.5987C58.3555 13.726 58.9987 13.1396 59.5607 13.2888C60.122 13.4375 60.3899 14.2657 60.1588 15.1383Z" fill="white"/>
<path d="M60.1588 15.1383C59.9277 16.011 59.2844 16.5975 58.7225 16.4482C58.1606 16.2995 57.8927 15.4714 58.1244 14.5987C58.3555 13.726 58.9987 13.1396 59.5607 13.2888C60.122 13.4375 60.3899 14.2657 60.1588 15.1383Z" stroke="black" stroke-width="1.5"/>
<path d="M54.3135 21.5119C55.047 22.4971 55.0564 23.7323 54.3335 24.2703C53.6112 24.8083 52.4306 24.4457 51.6971 23.4605C50.9631 22.4748 50.9542 21.2401 51.6765 20.7021C52.3994 20.1642 53.58 20.5267 54.3135 21.5119Z" fill="white"/>
<path d="M54.3135 21.5119C55.047 22.4971 55.0564 23.7323 54.3335 24.2703C53.6112 24.8083 52.4306 24.4457 51.6971 23.4605C50.9631 22.4748 50.9542 21.2401 51.6765 20.7021C52.3994 20.1642 53.58 20.5267 54.3135 21.5119Z" stroke="black" stroke-width="1.5"/>
<path d="M56.1277 8.61243C56.1277 8.69151 56.0525 8.75612 55.96 8.75612C55.8676 8.75612 55.793 8.69151 55.793 8.61243C55.793 8.53335 55.8676 8.46875 55.96 8.46875C56.0525 8.46875 56.1277 8.53335 56.1277 8.61243Z" fill="white"/>
<path d="M56.1277 8.61243C56.1277 8.69151 56.0525 8.75612 55.96 8.75612C55.8676 8.75612 55.793 8.69151 55.793 8.61243C55.793 8.53335 55.8676 8.46875 55.96 8.46875C56.0525 8.46875 56.1277 8.53335 56.1277 8.61243Z" stroke="black" stroke-width="1.5"/>
<path d="M74.3069 22.2985C74.3069 22.7741 74.0819 23.1595 73.8046 23.1595C73.5272 23.1595 73.3022 22.7741 73.3022 22.2985C73.3022 21.8229 73.5272 21.4375 73.8046 21.4375C74.0819 21.4375 74.3069 21.8229 74.3069 22.2985Z" fill="white"/>
<path d="M74.3069 22.2985C74.3069 22.7741 74.0819 23.1595 73.8046 23.1595C73.5272 23.1595 73.3022 22.7741 73.3022 22.2985C73.3022 21.8229 73.5272 21.4375 73.8046 21.4375C74.0819 21.4375 74.3069 21.8229 74.3069 22.2985Z" stroke="black" stroke-width="1.5"/>
<path d="M60.0031 24.5638C60.0031 24.815 59.8315 25.0183 59.6205 25.0183C59.4088 25.0183 59.2373 24.815 59.2373 24.5638C59.2373 24.3126 59.4088 24.1094 59.6205 24.1094C59.8315 24.1094 60.0031 24.3126 60.0031 24.5638Z" fill="white"/>
<path d="M60.0031 24.5638C60.0031 24.815 59.8315 25.0183 59.6205 25.0183C59.4088 25.0183 59.2373 24.815 59.2373 24.5638C59.2373 24.3126 59.4088 24.1094 59.6205 24.1094C59.8315 24.1094 60.0031 24.3126 60.0031 24.5638Z" stroke="black" stroke-width="1.5"/>
<path d="M56.5661 9.35674C56.6535 9.77052 56.5466 10.1431 56.3272 10.1899C56.1072 10.2367 55.8582 9.93871 55.7702 9.52548C55.6828 9.11169 55.7897 8.73912 56.0097 8.69234C56.2291 8.64555 56.4786 8.9435 56.5661 9.35674Z" fill="white"/>
<path d="M56.5661 9.35674C56.6535 9.77052 56.5466 10.1431 56.3272 10.1899C56.1072 10.2367 55.8582 9.93871 55.7702 9.52548C55.6828 9.11169 55.7897 8.73912 56.0097 8.69234C56.2291 8.64555 56.4786 8.9435 56.5661 9.35674Z" stroke="black" stroke-width="1.5"/>
<path d="M34.3112 18.5608C34.784 19.1957 34.7662 20.0093 34.2716 20.378C33.7765 20.7461 32.9924 20.5301 32.519 19.8952C32.0462 19.2603 32.064 18.4466 32.5591 18.078C33.0537 17.7098 33.8384 17.9259 34.3112 18.5608Z" fill="white"/>
<path d="M34.3112 18.5608C34.784 19.1957 34.7662 20.0093 34.2716 20.378C33.7765 20.7461 32.9924 20.5301 32.519 19.8952C32.0462 19.2603 32.064 18.4466 32.5591 18.078C33.0537 17.7098 33.8384 17.9259 34.3112 18.5608Z" stroke="black" stroke-width="1.5"/>
<path d="M28.1412 14.1878C28.1412 14.4122 27.9908 14.5943 27.8059 14.5943C27.621 14.5943 27.4712 14.4122 27.4712 14.1878C27.4712 13.9634 27.621 13.7812 27.8059 13.7812C27.9908 13.7812 28.1412 13.9634 28.1412 14.1878Z" fill="white"/>
<path d="M28.1412 14.1878C28.1412 14.4122 27.9908 14.5943 27.8059 14.5943C27.621 14.5943 27.4712 14.4122 27.4712 14.1878C27.4712 13.9634 27.621 13.7812 27.8059 13.7812C27.9908 13.7812 28.1412 13.9634 28.1412 14.1878Z" stroke="black" stroke-width="1.5"/>
<path d="M31.1072 29.9262C31.1072 30.8908 30.5932 31.6727 29.9588 31.6727C29.3251 31.6727 28.811 30.8908 28.811 29.9262C28.811 28.9616 29.3251 28.1797 29.9588 28.1797C30.5932 28.1797 31.1072 28.9616 31.1072 29.9262Z" fill="white"/>
<path d="M31.1072 29.9262C31.1072 30.8908 30.5932 31.6727 29.9588 31.6727C29.3251 31.6727 28.811 30.8908 28.811 29.9262C28.811 28.9616 29.3251 28.1797 29.9588 28.1797C30.5932 28.1797 31.1072 28.9616 31.1072 29.9262Z" stroke="black" stroke-width="1.5"/>
<path d="M57.5734 63.4143C57.8452 64.943 58.9306 66.0285 59.9982 65.8386C61.0653 65.6487 61.7102 64.2553 61.4379 62.7271C61.1661 61.1983 60.0806 60.1129 59.0136 60.3028C57.946 60.4927 57.3016 61.8856 57.5734 63.4143Z" fill="#D9D9D9"/>
<path d="M75.428 47.2983C74.7358 48.1911 74.6795 49.3054 75.3021 49.7894C75.9248 50.2723 76.9913 49.9414 77.6835 49.0487C78.3758 48.1565 78.432 47.0416 77.8094 46.5582C77.1867 46.0748 76.1202 46.4061 75.428 47.2983Z" fill="#D9D9D9"/>
<path d="M34.0251 73.6344C33.8764 73.8917 33.408 73.8995 32.9792 73.6517C32.5504 73.4044 32.3226 72.9945 32.4713 72.7372C32.62 72.4799 33.0883 72.4721 33.5172 72.72C33.9466 72.9678 34.1738 73.3771 34.0251 73.6344Z" fill="#D9D9D9"/>
<rect x="37.8047" y="110.75" width="30.7134" height="2.15247" fill="#65EAC9"/>
<rect x="37.8047" y="110.75" width="30.7134" height="2.15247" stroke="black" stroke-width="2" stroke-linejoin="round"/>
<rect x="25.8838" y="168.789" width="59.9876" height="12.5551" fill="#BEBEBE"/>
<rect x="31.8125" y="171.008" width="49.3511" height="8.94074" fill="white"/>
<rect x="22.8594" y="151.812" width="59.9876" height="18.2524" fill="#BEBEBE"/>
<rect x="72.6758" y="153.734" width="6.68522" height="14.9454" fill="white"/>
<rect x="25.6621" y="153.594" width="6.68522" height="14.9454" fill="white"/>
<path d="M192.93 147.93C192.41 150.39 192.712 153.018 193.779 155.295C193.855 155.458 193.936 155.646 193.864 155.811C193.803 155.948 193.654 156.02 193.518 156.082C192.939 156.342 192.359 156.603 191.78 156.863" stroke="#232323" stroke-width="1.5" stroke-linecap="round" stroke-linejoin="round"/>
<path d="M187.406 158.328C188.906 159.577 190.108 159.525 192.411 159.483" stroke="#232323" stroke-width="1.5" stroke-linecap="round" stroke-linejoin="round"/>
<path d="M183.29 149.491C184.585 149.293 186.099 149.621 187.394 149.422" stroke="#232323" stroke-width="1.5" stroke-linecap="round" stroke-linejoin="round"/>
<path d="M195.907 149.424C197.202 149.225 198.653 149.631 199.948 149.432" stroke="#232323" stroke-width="1.5" stroke-linecap="round" stroke-linejoin="round"/>
<path d="M176.846 150.355C176.741 150.985 176.993 150.927 177.033 151.569C176.387 151.146 175.248 150.141 175.073 149.422" stroke="#232323" stroke-width="1.5" stroke-linecap="round" stroke-linejoin="round"/>
<path fill-rule="evenodd" clip-rule="evenodd" d="M194.408 145.859C194.559 146.296 194.306 146.611 194.969 146.65C196.216 146.726 199.287 145.997 199.935 145.951C200.442 145.913 200.775 144.916 200.094 144.632C199.522 144.386 194.034 144.793 194.408 145.859Z" fill="#444444"/>
<path fill-rule="evenodd" clip-rule="evenodd" d="M182.512 144.868C182.582 145.325 182.276 145.589 182.922 145.746C184.134 146.046 187.286 145.883 187.932 145.954C188.437 146.007 188.945 145.087 188.326 144.685C187.808 144.341 182.337 143.752 182.512 144.868Z" fill="#444444"/>
</svg>
