<svg width="25" height="26" viewBox="0 0 25 26" fill="none" xmlns="http://www.w3.org/2000/svg">
<path d="M0 12.5C0 5.59644 5.59644 0 12.5 0C19.4036 0 25 5.59644 25 12.5C25 19.4036 19.4036 25 12.5 25C5.59644 25 0 19.4036 0 12.5Z" fill="#D56767"/>
<rect x="10.4688" y="16.2266" width="4.0392" height="2.12715" fill="#ECB79E"/>
<path d="M11.5921 17.8518C12.2374 17.8279 12.8827 17.6367 13.3607 17.3499C13.767 17.1109 14.1016 16.848 14.3406 16.5133C14.3885 16.4417 14.4362 16.37 14.4841 16.2983V16.2266H10.4688V17.804C10.8512 17.8518 11.2336 17.8757 11.5921 17.8518Z" fill="#D1D3D4"/>
<path d="M12.4762 4.5625C9.8949 4.63419 7.93506 5.68585 7.93506 9.34262C7.93506 11.5176 8.12627 12.139 8.77158 14.6246C9.20178 16.3455 11.5201 17.2298 12.4284 17.3015C12.4523 17.3015 12.4762 17.3015 12.4762 17.3015C12.5001 17.3015 12.524 17.3015 12.524 17.3015C13.4083 17.2537 15.7266 16.3455 16.1808 14.6246C16.8022 12.1629 17.0173 11.5176 17.0173 9.34262C17.0412 5.70972 15.0574 4.63419 12.4762 4.5625Z" fill="#ECB79E"/>
<path d="M16.5392 10.6089L16.2524 12.76C17.3519 13.238 17.5431 10.7045 17.5431 10.7045C17.2802 10.0592 16.5392 10.6089 16.5392 10.6089Z" fill="#ECB79E"/>
<path d="M7.31348 10.9686C7.31348 10.9686 7.48078 13.5021 8.60411 13.0241L8.31731 10.873C8.2934 10.8491 7.55249 10.3233 7.31348 10.9686Z" fill="#ECB79E"/>
<path d="M14.5315 18.6172L19.9809 20.0273C19.9809 20.0273 21.8451 20.3142 22.3231 21.9872L23.1357 25.0226H12.5478H12.4522H1.84033L2.65295 21.9872C3.13096 20.3142 4.9952 20.0273 4.9952 20.0273L10.4206 18.6172H14.5315Z" fill="#ECB79E"/>
<path d="M1.84033 25.0225L2.65295 21.9872C3.13096 20.3141 4.9952 20.0273 4.9952 20.0273L10.4206 18.6172H14.5315L19.9809 20.0273C19.9809 20.0273 21.8451 20.3141 22.3231 21.9872L23.1357 25.0225" fill="white"/>
<path d="M12.8346 18.3516H12.5H12.4761H12.1415L11.1377 19.929L12.0459 20.9328H12.4761H12.5H12.9541L13.8385 19.929L12.8346 18.3516Z" fill="#D83633"/>
<path d="M12.978 20.7416C12.4044 20.1202 12.1415 19.1881 12.3088 18.3516H12.1415L11.1377 19.929L12.022 20.9328H12.9302L13.0498 20.8134C13.0258 20.7895 13.0019 20.7655 12.978 20.7416Z" fill="#BCBEC0"/>
<path d="M14.5076 17.3516L12.4761 18.4271L13.8145 20.4347L16.2524 18.9768L14.5076 17.3516Z" fill="#BCBEC0"/>
<path d="M14.5076 17.3516L12.4761 18.4271L13.8384 20.1718L16.109 18.8573L14.5076 17.3516Z" fill="white"/>
<path d="M10.4684 17.2812L12.476 18.3568L11.1615 20.3644L8.72363 18.9065L10.4684 17.2812Z" fill="#BCBEC0"/>
<path d="M10.4685 17.2812L12.5 18.3568L11.1138 20.1015L8.84326 18.787L10.4685 17.2812Z" fill="white"/>
<path d="M8.8671 19.0267L4.9952 20.0305C4.9952 20.0305 3.13096 20.3173 2.65295 21.9904L1.84033 25.0257H23.1357L22.3231 21.9904C21.8451 20.3173 19.9809 20.0305 19.9809 20.0305L15.9178 18.8594L12.4761 24.8584L8.8671 19.0267Z" fill="#002331"/>
<path d="M12.022 20.9375L11.5439 23.0886L12.4761 24.5943L13.3604 23.0646L12.9302 20.9375H12.022Z" fill="#D83633"/>
<path d="M8.86723 19.0234L7.05078 19.5014L8.0785 19.9077L7.43318 20.6248L11.1378 25.0225H12.5957L8.86723 19.0234Z" fill="#001221"/>
<path d="M15.9177 18.5938L17.9492 19.1913L16.9215 19.6454L17.5429 20.3624L13.8383 24.7601H12.4043L15.9177 18.5938Z" fill="#001221"/>
<path d="M8.00686 10.8739L8.41316 13.2879L8.74778 13.503L8.41316 10.1091L8.98678 8.7468L9.13019 7.62347H9.15409C9.5604 6.18939 12.7392 6.35669 12.7392 6.35669C16.4916 6.42841 15.9897 9.0575 15.9897 9.0575L16.5394 10.2286L16.2048 13.6225L16.5394 13.4074L16.9457 10.9934C17.5432 9.65497 17.1847 6.57184 17.1847 6.57184C17.1847 6.57184 16.7306 5.30508 15.7506 5.16171C15.7506 5.16171 15.2965 3.05847 12.2851 3.44083C12.2851 3.44083 9.4887 4.08621 8.58047 2.46094C8.58047 2.46094 8.55657 3.53644 9.13019 3.91885C9.13019 3.91885 8.53267 3.56036 8.43707 3.24966C8.43707 3.24966 8.48487 3.91885 8.84338 4.15787C8.65217 4.03836 7.98296 3.60815 7.74396 2.98676C7.74396 2.98676 7.55275 4.0145 8.34147 4.56418C8.34147 4.56418 7.24204 3.94278 7.28984 3.24966C7.28984 3.24966 6.95524 4.68369 7.93516 5.04218C7.93516 5.04218 7.57665 5.30508 6.71623 4.3013C6.71623 4.3013 6.47722 5.99823 7.69616 6.18939C7.69616 6.18939 7.21815 7.14545 8.00686 10.8739Z" fill="#852A00"/>
<path d="M8.00666 7.52458C8.07836 7.54851 8.31737 7.7158 8.43686 7.78752C8.43686 7.33339 8.29347 6.87926 8.31737 6.40126C8.55637 6.49687 8.81928 6.64027 9.08218 6.71196C8.91488 6.49687 8.81928 6.21004 8.84318 5.92326C9.17779 5.87547 9.4646 6.16225 9.7753 6.13838C9.79921 5.89934 9.7036 5.66032 9.72751 5.42134C10.2294 5.49306 10.7552 5.70817 11.2571 5.80376C11.1615 5.61253 11.0181 5.39741 10.9703 5.18233C11.5917 5.30183 12.2371 5.51695 12.8585 5.61253C12.8107 5.44523 12.6195 5.30183 12.6195 5.08671C13.2887 5.015 14.0296 5.61253 14.6749 5.75593C14.5554 5.68422 14.4359 5.54085 14.3642 5.39741C14.7944 5.58861 15.2724 5.94713 15.6549 6.21004C15.5831 6.16221 15.5353 6.11445 15.4876 6.04274C15.6787 6.18617 15.87 6.32954 16.0373 6.49687C15.8461 6.01884 15.2007 5.85152 15.0812 5.34962C15.1529 5.46913 15.2724 5.58861 15.3919 5.66032C15.2246 5.27791 14.7466 4.91942 14.4359 4.65648C14.2925 4.53697 14.1491 4.3936 13.9818 4.34581C14.1013 4.60869 14.3164 4.82384 14.4598 5.06279C14.173 4.87163 13.8623 4.48918 13.5038 4.41749C13.5516 4.63258 13.7667 4.8477 13.8384 5.06279C13.3843 4.87163 13.0019 4.17848 12.5 4.13072C12.5717 4.2502 12.6673 4.39363 12.739 4.51311C12.4761 4.34581 11.9981 4.0829 11.6874 4.13072C11.6874 4.34581 11.8547 4.58482 11.9742 4.77605C11.6157 4.63261 11.2571 4.27412 10.8269 4.2502C10.9225 4.3697 11.0659 4.44139 11.1615 4.5609C10.8986 4.5609 10.1099 4.13072 9.87091 4.34581C9.7036 4.48918 9.9187 4.65648 9.9187 4.8477C9.75141 4.77605 9.17779 4.39363 8.98658 4.5609C8.81928 4.70433 9.20169 4.99113 9.24949 5.18233C8.96268 5.1345 8.72368 4.91942 8.41297 4.94334C8.46077 5.08671 8.58027 5.18233 8.65197 5.32576C8.46077 5.3018 8.29347 5.18233 8.10226 5.23009C8.07836 5.32576 8.10226 5.44523 8.12617 5.54085C8.05446 5.51695 7.93496 5.46913 7.83936 5.42131C7.88715 5.54085 7.98276 5.66032 8.00666 5.80376C7.98276 5.80376 7.98276 5.80376 7.95886 5.80376C8.03056 5.92323 8.07836 6.06666 8.07836 6.21004C8.03056 6.16221 7.95886 6.16221 7.91106 6.13835C7.88715 6.35347 7.93496 6.61638 7.93496 6.83143C7.91106 6.85536 7.88715 6.83143 7.86326 6.83143C7.91106 6.87926 7.93496 6.92708 7.98276 6.97487C7.95886 6.97487 7.95886 6.97487 7.93496 6.97487C8.03056 7.16606 8.07836 7.50068 7.93496 7.69188C7.95886 7.62016 7.98276 7.54848 8.03056 7.47679" fill="#963209"/>
</svg>
