<svg width="266" height="70" viewBox="0 0 266 70" fill="none" xmlns="http://www.w3.org/2000/svg">
<path d="M22 3C16.9249 3 12.1536 4.97635 8.56497 8.56496C4.97635 12.1536 3 16.9249 3 22V48C3 53.0751 4.97635 57.8464 8.56497 61.435C12.1536 65.0237 16.9249 67 22 67H244C249.075 67 253.846 65.0237 257.435 61.435C261.024 57.8464 263 53.0751 263 48V22C263 16.9249 261.024 12.1536 257.435 8.56496C253.846 4.97635 249.075 3 244 3H22ZM22 0H244C256.15 0 266 9.84973 266 22V48C266 60.1503 256.15 70 244 70H22C9.84973 70 0 60.1503 0 48V22C0 9.84973 9.84973 0 22 0Z" fill="#18231D"/>
</svg>
