<svg width="342" height="254" viewBox="0 0 342 254" fill="none" xmlns="http://www.w3.org/2000/svg">
<path d="M333.192 118.918C332.791 122.494 332.364 126.264 331.894 130.186C329.955 146.353 327.238 164.974 322.219 182.265C312.093 217.136 292.556 246.598 250.96 239.622C214.063 233.436 175.943 228.46 145.351 206.332C125.883 192.254 108.172 185.289 83.9228 181.927C76.187 180.841 61.9515 180.459 47.4399 178.783C41.3667 178.081 -8.22867 160.526 7.45615 136.629C15.4742 124.401 32.2633 116.671 42.9791 106.558C62.1272 88.4827 76.0929 66.5616 94.3187 47.7649C111.101 30.4489 135.658 30.6559 159.731 34.1317C170.17 35.6437 180.535 37.7831 190.115 39.3579C193.641 39.9351 197.054 40.4432 200.336 40.826C236.705 44.9856 314.138 10.3221 338.149 61.235C346.167 78.2311 335.325 99.9891 333.192 118.918Z" fill="#141414"/>
<path fill-rule="evenodd" clip-rule="evenodd" d="M177.857 58.0332C197.804 48.2804 126.153 29.0935 96.1466 81.2995C92.2938 88.0025 46.4238 132.566 12.1117 149.398C-18.4467 164.389 20.7848 180.322 44.915 180.987C58.557 181.362 85.1603 183.799 109.806 155.629C121.449 142.322 112.691 100.52 127.727 76.6806C135.867 63.7745 158.984 67.2616 177.857 58.0332Z" fill="white"/>
<path fill-rule="evenodd" clip-rule="evenodd" d="M273.515 58.0377C248.366 88.704 198.775 80.334 170.179 104.473C164.38 111.135 165.921 126.603 174.156 130.815C186.443 134.211 202.337 133.078 214.375 129.473C223.669 125.494 231.067 116.206 239.244 110.326C251.641 99.4337 265.124 96.2033 279.941 95.6505C293.829 95.1323 305.257 83.7759 305.027 69.8797C304.948 65.1047 303.601 60.829 300.533 58.2328C294.619 54.0036 279.546 53.2043 273.515 58.0377Z" fill="white"/>
<path fill-rule="evenodd" clip-rule="evenodd" d="M331.894 130.188C329.955 146.355 327.238 164.976 322.219 182.267C317.125 182.292 311.798 181.627 307.181 181.057C298.422 179.977 284.318 182.198 281.263 183.114C265.861 187.738 271.984 163.176 290.498 160.183C307.187 159.876 318.436 138.231 331.894 130.188Z" fill="#444444"/>
<path fill-rule="evenodd" clip-rule="evenodd" d="M190.118 39.3621C188.954 39.6012 150.276 52.2444 132.387 60.8378C124.687 64.5206 116.317 68.4267 112.076 76.079C103.531 91.5123 105.715 113.96 100.629 130.908C96.1008 146.022 79.1851 158.138 66.9409 169.253C54.1245 180.886 23.6696 170.411 36.4264 145.277C42.6131 133.088 54.5768 132.857 64.398 122.573C71.1896 115.463 77.7527 105.264 81.8345 96.1763C85.39 88.3007 96.2439 43.2608 159.73 34.1328C170.173 35.6473 180.536 37.7836 190.118 39.3621Z" fill="#838383"/>
<path fill-rule="evenodd" clip-rule="evenodd" d="M76.8872 166.673C76.8872 166.673 132.885 209.872 146.538 205.059C158.205 201.603 179.412 143.877 177.537 123.204C175.346 99.0621 146.175 112.186 146.175 112.186L134.187 167.038C116.104 159.065 91.4917 150.54 84.4554 151.021C72.7552 151.826 76.8872 166.673 76.8872 166.673Z" fill="#F08566"/>
<path d="M76.8872 166.673C76.8872 166.673 132.885 209.872 146.538 205.059C158.205 201.603 179.412 143.877 177.537 123.204C175.346 99.0621 146.175 112.186 146.175 112.186L134.187 167.038C116.104 159.065 91.4917 150.54 84.4554 151.021C72.7552 151.826 76.8872 166.673 76.8872 166.673Z" stroke="#303030" stroke-width="1.5" stroke-linecap="round" stroke-linejoin="round"/>
<path fill-rule="evenodd" clip-rule="evenodd" d="M90.7293 167.141C88.386 170.094 74.936 174.021 74.0294 174.762C73.1215 175.51 60.0203 183.074 60.0203 183.074C60.0203 183.074 59.1332 182.712 58.9506 181.433C58.7674 180.145 60.3673 179.011 60.3673 179.011L50.6075 187.066C50.6075 187.066 48.9123 185.094 49.6476 183.887C50.3836 182.68 51.2224 181.747 51.2224 181.747L46.7459 184.402C46.7459 184.402 44.8374 183.3 45.988 181.457C47.3602 179.26 51.8216 176.991 51.8216 176.991L47.5634 175.735C47.5634 175.735 48.0478 173.281 49.7323 172.854C51.4169 172.42 56.6374 172.847 56.6374 172.847C56.6374 172.847 62.624 168.493 63.7596 166.506C64.8945 164.518 65.6857 163.536 65.6857 163.536C65.6857 163.536 62.8411 164.55 61.8837 164.872C60.9269 165.194 57.4762 167.672 55.5357 168.268C53.5958 168.863 52.257 167.431 52.257 166.336C52.257 165.242 56.5709 162.329 58.157 160.076C59.743 157.814 67.3313 151.795 68.1658 151.071C69.0002 150.338 84.0269 148.469 88.492 151.587" fill="#F08566"/>
<path d="M90.7293 167.141C88.386 170.094 74.936 174.021 74.0294 174.762C73.1215 175.51 60.0203 183.074 60.0203 183.074C60.0203 183.074 59.1332 182.712 58.9506 181.433C58.7674 180.145 60.3673 179.011 60.3673 179.011L50.6075 187.066C50.6075 187.066 48.9123 185.094 49.6476 183.887C50.3836 182.68 51.2224 181.747 51.2224 181.747L46.7459 184.402C46.7459 184.402 44.8374 183.3 45.988 181.457C47.3602 179.26 51.8216 176.991 51.8216 176.991L47.5634 175.735C47.5634 175.735 48.0478 173.281 49.7323 172.854C51.4169 172.42 56.6374 172.847 56.6374 172.847C56.6374 172.847 62.624 168.493 63.7596 166.506C64.8945 164.518 65.6857 163.536 65.6857 163.536C65.6857 163.536 62.8411 164.55 61.8837 164.872C60.9269 165.194 57.4762 167.672 55.5357 168.268C53.5958 168.863 52.257 167.431 52.257 166.336C52.257 165.242 56.5709 162.329 58.157 160.076C59.743 157.814 67.3313 151.795 68.1658 151.071C69.0002 150.338 84.0269 148.469 88.492 151.587" stroke="#303030" stroke-width="1.5" stroke-linecap="round" stroke-linejoin="round"/>
<path d="M59.6938 179.427C61.9776 176.691 64.9407 174.615 67.5494 172.192C68.8506 170.985 70.8094 168.861 70.8094 168.861C70.8094 168.861 73.068 161.176 78.1448 159.172" fill="#F08566"/>
<path d="M59.6938 179.427C61.9776 176.691 64.9407 174.615 67.5494 172.192C68.8506 170.985 70.8094 168.861 70.8094 168.861C70.8094 168.861 73.068 161.176 78.1448 159.172" stroke="#303030" stroke-width="1.5" stroke-linecap="round" stroke-linejoin="round"/>
<path d="M61.1831 177.558C61.1831 177.558 54.6745 177.268 51.8945 176.906L61.1831 177.558Z" fill="#F08566"/>
<path d="M61.1831 177.558C61.1831 177.558 54.6745 177.268 51.8945 176.906" stroke="#303030" stroke-width="1.5" stroke-linecap="round" stroke-linejoin="round"/>
<path d="M56.8369 172.915L64.8286 172.103L70.6791 168.859" fill="#F08566"/>
<path d="M56.8369 172.915L64.8286 172.103L70.6791 168.859" stroke="#303030" stroke-width="1.5" stroke-linecap="round" stroke-linejoin="round"/>
<path d="M51.0581 182.03C52.8443 179.914 54.3199 179.181 56.3188 177.273L51.0581 182.03Z" fill="#F08566"/>
<path d="M51.0581 182.03C52.8443 179.914 54.3199 179.181 56.3188 177.273" stroke="#303030" stroke-width="1.5" stroke-linecap="round" stroke-linejoin="round"/>
<path d="M65.0718 163.995C65.0718 163.995 68.4854 161.525 69.8487 159.602L65.0718 163.995Z" fill="#F08566"/>
<path d="M65.0718 163.995C65.0718 163.995 68.4854 161.525 69.8487 159.602" stroke="#303030" stroke-width="1.5" stroke-linecap="round" stroke-linejoin="round"/>
<path fill-rule="evenodd" clip-rule="evenodd" d="M206.433 11.2354C206.433 16.9541 201.798 21.5893 196.08 21.5893C190.363 21.5893 185.728 16.9541 185.728 11.2354C185.728 5.51799 190.363 0.882812 196.08 0.882812C201.798 0.882812 206.433 5.51799 206.433 11.2354Z" fill="#444444"/>
<path fill-rule="evenodd" clip-rule="evenodd" d="M156.716 194.349L155.815 247.06C155.815 247.06 184.074 255.924 207.472 249.856C219.378 246.774 237.012 253.977 251.894 252.947C262.208 252.237 279.646 246.827 279.646 246.827C279.646 246.827 274.247 231.028 265.608 217.67C256.968 204.321 245.09 193.414 245.09 193.414L156.716 194.349Z" fill="#9BF0B8"/>
<path fill-rule="evenodd" clip-rule="evenodd" d="M130.802 115.597C130.802 115.597 136.867 101.694 144.126 91.9546C156.323 75.5935 177.632 82.225 206.079 72.2695C213.295 69.7418 242.102 69.8629 253.142 74.7283C267.46 81.0386 271.65 91.1064 271.417 100.447C270.657 130.79 251.26 180.073 249.988 182.799C248.714 185.527 266.381 217.686 266.381 217.686C266.381 217.686 255.768 222.88 233.8 222.88C213.968 222.88 187.079 217.332 175.474 217.106C161.27 216.838 151.621 219.815 151.621 219.815L151.022 158.058L153.998 133.23L130.802 115.597Z" fill="#65EAC9"/>
<path fill-rule="evenodd" clip-rule="evenodd" d="M189.555 185.441C189.555 185.441 187.941 216.72 209.352 206.964C219.428 202.376 244.749 157.682 249.674 147.389C255.215 135.815 255.889 126.046 255.889 126.046L224.082 121.562L189.555 185.441Z" fill="#444444"/>
<path fill-rule="evenodd" clip-rule="evenodd" d="M191.241 59.0376C195.114 57.9032 198.605 62.1971 206.192 60.4661C216.699 58.0683 201.971 25.3798 201.971 25.3798C201.971 25.3798 199.563 12.1004 185.108 9.73704C181.68 9.1749 173.899 12.9142 170.686 13.5723C163.253 15.0868 157.858 16.1433 152.914 20.463C150.489 22.5842 148.569 28.306 149.045 31.6996C149.961 38.2182 155.726 42.7197 155.726 42.7197L191.241 59.0376Z" fill="#444444"/>
<path fill-rule="evenodd" clip-rule="evenodd" d="M155.682 31.7014C154.745 35.1471 167.041 64.1038 168.48 65.255C173.433 69.2371 178.29 65.1772 178.29 65.1772L185.498 83.6941L186.322 105.267L215.012 72.2756L195.435 42.8251C195.435 42.8251 198.167 39.5445 194.541 32.9738C191.547 27.555 185.896 33.0001 185.896 33.0001C185.896 33.0001 181.042 31.4417 177.353 29.6323C173.665 27.8317 171.362 23.9531 171.362 23.9531C171.362 23.9531 156.435 28.9396 155.682 31.7014Z" fill="#F08566"/>
<path d="M155.682 31.7014C154.745 35.1471 167.041 64.1038 168.48 65.255C173.433 69.2371 178.29 65.1772 178.29 65.1772L185.498 83.6941L186.322 105.267L215.012 72.2756L195.435 42.8251C195.435 42.8251 198.167 39.5445 194.541 32.9738C191.547 27.555 185.896 33.0001 185.896 33.0001C185.896 33.0001 181.042 31.4417 177.353 29.6323C173.665 27.8317 171.362 23.9531 171.362 23.9531C171.362 23.9531 156.435 28.9396 155.682 31.7014Z" stroke="#303030" stroke-width="1.5" stroke-linecap="round" stroke-linejoin="round"/>
<path d="M249.721 182.312C245.885 187.792 240.134 187.732 233.147 189.23C222.448 191.523 221.497 194.094 210.264 191.904" stroke="#232323" stroke-width="1.5" stroke-linecap="round" stroke-linejoin="round"/>
<path d="M210.908 77.1641L186.968 104.372C186.968 104.372 180.89 119.764 179.267 127.148" stroke="#232323" stroke-width="1.5" stroke-linecap="round" stroke-linejoin="round"/>
<path d="M206.027 109.521C205.17 108.846 202.601 106.812 202.601 106.812C202.601 106.812 215.301 89.5237 217.497 85.3516" stroke="#232323" stroke-width="1.5" stroke-linecap="round" stroke-linejoin="round"/>
<path d="M155.53 108.086C155.646 116.526 153.725 124.75 153.646 133.174" stroke="#232323" stroke-width="1.5" stroke-linecap="round" stroke-linejoin="round"/>
<path fill-rule="evenodd" clip-rule="evenodd" d="M167.038 40.0883C167.208 40.5821 166.922 40.9365 167.671 40.9798C169.078 41.0664 172.544 40.2439 173.275 40.1918C173.847 40.1492 174.224 39.0236 173.455 38.703C172.809 38.4263 166.616 38.885 167.038 40.0883Z" fill="black"/>
<path fill-rule="evenodd" clip-rule="evenodd" d="M161.748 42.3052C161.89 42.7983 162.328 42.9282 161.745 43.3962C160.648 44.279 157.353 45.6291 156.727 46.0012C156.236 46.3048 155.284 45.6122 155.724 44.902C156.093 44.3047 161.397 41.0843 161.748 42.3052Z" fill="black"/>
<path fill-rule="evenodd" clip-rule="evenodd" d="M170.337 42.6409C170.503 43.6021 170.792 43.8354 171.289 43.7489C172.681 43.5067 172.357 41.9915 171.758 41.5762C170.9 40.9701 170.171 41.6797 170.337 42.6409Z" fill="black"/>
<path fill-rule="evenodd" clip-rule="evenodd" d="M162.885 45.4245C163.305 46.2997 163.204 46.663 162.749 46.8794C161.475 47.4855 160.868 46.0738 161.114 45.3818C161.466 44.3943 162.467 44.5505 162.885 45.4245Z" fill="black"/>
<path d="M184.191 81.0781C184.191 81.0781 184.208 87.8521 184.439 90.6051" stroke="#232323" stroke-width="1.5" stroke-linecap="round" stroke-linejoin="round"/>
<path fill-rule="evenodd" clip-rule="evenodd" d="M266.214 217.078L275.706 237.058C275.706 237.058 266.165 230.366 251.472 234.539C239.629 237.898 226.124 232.184 213.942 233.838C201.76 235.491 192.031 218.579 192.031 218.579C192.031 218.579 202.848 220.613 214.41 221.655C223.49 222.746 243.949 222.826 252.022 221.605C260.486 220.315 266.07 217.078 266.214 217.078Z" fill="#444444"/>
<path d="M177.971 65.1819C178.951 64.2037 187.482 53.0625 190.301 49.5391" stroke="#232323" stroke-width="1.5" stroke-linecap="round" stroke-linejoin="round"/>
<path d="M190.525 37.4035C191.677 36.3388 191.125 36.8928 192.182 35.7422" stroke="#232323" stroke-width="1.5" stroke-linecap="round" stroke-linejoin="round"/>
<path d="M191.002 33.8906C192.124 35.0162 192.931 36.3582 193.598 37.7861" stroke="#232323" stroke-width="1.5" stroke-linecap="round" stroke-linejoin="round"/>
<path d="M165.071 42.7891C166.263 46.0264 166.278 50.3899 166.278 50.3899C166.278 50.3899 167.349 50.3466 169.015 49.7575" stroke="#232323" stroke-width="1.5" stroke-linecap="round" stroke-linejoin="round"/>
<path d="M172.196 54.8444C173.206 54.126 173.983 53.1473 174.616 52.0738C175.002 51.4245 177.712 51.262 178.012 50.5781" stroke="#232323" stroke-width="1.5" stroke-linecap="round" stroke-linejoin="round"/>
<path d="M190.903 111.969C190.434 114.159 190.039 116.366 189.723 118.583" stroke="#232323" stroke-width="1.5" stroke-linecap="round" stroke-linejoin="round"/>
<path d="M263.985 93.4141C264.277 97.5172 263.433 101.621 262.973 105.707" stroke="#232323" stroke-width="1.5" stroke-linecap="round" stroke-linejoin="round"/>
<path d="M264.13 113.371C262.547 112.567 262.774 109.526 264.886 109.571C268.644 109.652 262.581 121.91 258.733 126.167" stroke="#232323" stroke-width="1.5" stroke-linecap="round" stroke-linejoin="round"/>
<path d="M243.018 79.1016C242.843 80.9279 242.656 82.7637 242.44 84.59" stroke="#232323" stroke-width="1.5" stroke-linecap="round" stroke-linejoin="round"/>
<path d="M225.957 74.0391C224.035 77.5361 222.492 81.224 220.896 84.8861" stroke="#232323" stroke-width="1.5" stroke-linecap="round" stroke-linejoin="round"/>
<path d="M227.258 79.1016C224.924 82.4688 223.137 86.1917 221.186 89.8011" stroke="#232323" stroke-width="1.5" stroke-linecap="round" stroke-linejoin="round"/>
<path d="M248.3 221.706C245.952 217.17 245.788 214.439 244.539 209.531" stroke="#232323" stroke-width="1.5" stroke-linecap="round" stroke-linejoin="round"/>
<path d="M245.28 220.947C243.566 219.277 243.037 216.732 242.221 214.516" stroke="#232323" stroke-width="1.5" stroke-linecap="round" stroke-linejoin="round"/>
<path d="M246.904 186.703C249.03 191.387 250.836 196.191 253.307 200.71" stroke="#232323" stroke-width="1.5" stroke-linecap="round" stroke-linejoin="round"/>
<path d="M244.697 186.398C245.47 188.441 246.235 190.485 247.057 192.51" stroke="#232323" stroke-width="1.5" stroke-linecap="round" stroke-linejoin="round"/>
<path d="M216.681 223.984C216.602 223.716 216.446 223.448 216.444 223.162C216.412 217.933 216.535 212.713 216.581 207.484" stroke="#232323" stroke-width="1.5" stroke-linecap="round" stroke-linejoin="round"/>
<path d="M208.867 218.895C208.432 216.108 208.904 213.251 209.056 210.438" stroke="#232323" stroke-width="1.5" stroke-linecap="round" stroke-linejoin="round"/>
<path d="M197.669 200.453C197.384 201.873 197.178 203.318 197.047 204.764" stroke="#232323" stroke-width="1.5" stroke-linecap="round" stroke-linejoin="round"/>
<path d="M161.576 217.686C161.069 215.479 162.536 213.567 163.097 211.359" stroke="#232323" stroke-width="1.5" stroke-linecap="round" stroke-linejoin="round"/>
<path d="M164.868 216.538C164.912 216.088 164.956 215.637 164.999 215.188" stroke="#232323" stroke-width="1.5" stroke-linecap="round" stroke-linejoin="round"/>
<path d="M179.577 78.6484C174.086 89.4866 180.817 83.7818 182.362 87.0455C183.033 88.4653 179.969 89.2614 179.456 90.7421C178.345 93.9537 179.317 96.4206 180.906 99.2081" stroke="#232323" stroke-width="1.5" stroke-linecap="round" stroke-linejoin="round"/>
<path d="M197.439 100.184C212.061 93.7171 208.074 89.1722 207.755 88.0555C207.436 86.9387 223.92 79.7105 218.041 71.7891" stroke="#232323" stroke-width="1.5" stroke-linecap="round" stroke-linejoin="round"/>
<path d="M201.652 27.5C201.178 28.8156 200.868 30.1752 200.505 31.5254" stroke="white" stroke-width="1.5" stroke-linecap="round" stroke-linejoin="round"/>
<path d="M208.742 52.5076C207.271 50.8024 205.636 49.1574 204.77 47.0625" stroke="white" stroke-width="1.5" stroke-linecap="round" stroke-linejoin="round"/>
<path d="M170.932 23.7371C170.221 21.9365 171.415 19.4087 171.862 17.7812" stroke="white" stroke-width="1.5" stroke-linecap="round" stroke-linejoin="round"/>
<path d="M172.155 17.1094C171.627 17.317 173.905 20.6328 174.147 20.9528C174.942 21.983 176.567 23.8789 177.588 24.6237C180.012 26.3979 183.841 27.5323 186.569 28.9953" stroke="white" stroke-width="1.5" stroke-linecap="round" stroke-linejoin="round"/>
<path d="M184.748 19.0938C185.375 20.0286 186.259 20.7557 187.066 21.5349" stroke="white" stroke-width="1.5" stroke-linecap="round" stroke-linejoin="round"/>
<path fill-rule="evenodd" clip-rule="evenodd" d="M126.069 232.119C118.485 231.907 108.808 231.931 107.209 230.732C105.318 229.305 103.947 225.273 103.947 225.273L102.395 224.224C102.395 224.224 100.138 217.583 99.4698 214.069C98.801 210.555 98.6436 208.161 98.6436 208.161C98.6436 208.161 100.301 206.976 101.392 207.642C102.139 208.106 102.3 208.912 102.3 208.912C102.3 208.912 103.309 204.424 103.516 204.063C103.72 203.71 104.598 203.585 105.21 203.786C105.823 203.987 106.591 204.446 106.591 204.446C106.591 204.446 108.549 204.048 109.012 205.417C109.476 206.785 109.248 210.116 109.248 210.116C109.248 210.116 113.825 206.686 115.726 205.629C117.627 204.571 172.663 183.232 194.459 172.455C205.72 152.113 220.16 119.812 220.16 119.812L255.89 126.048C256.874 128.384 231.663 182.536 220.523 197.793C206.477 208.207 148.55 213.35 148.55 213.35L135.357 223.018" fill="#F08566"/>
<path d="M126.069 232.119C118.485 231.907 108.808 231.931 107.209 230.732C105.318 229.305 103.947 225.273 103.947 225.273L102.395 224.224C102.395 224.224 100.138 217.583 99.4698 214.069C98.801 210.555 98.6436 208.161 98.6436 208.161C98.6436 208.161 100.301 206.976 101.392 207.642C102.139 208.106 102.3 208.912 102.3 208.912C102.3 208.912 103.309 204.424 103.516 204.063C103.72 203.71 104.598 203.585 105.21 203.786C105.823 203.987 106.591 204.446 106.591 204.446C106.591 204.446 108.549 204.048 109.012 205.417C109.476 206.785 109.248 210.116 109.248 210.116C109.248 210.116 113.825 206.686 115.726 205.629C117.627 204.571 172.663 183.232 194.459 172.455C205.72 152.113 220.16 119.812 220.16 119.812L255.89 126.048C256.874 128.384 231.663 182.536 220.523 197.793C206.477 208.207 148.55 213.35 148.55 213.35L135.357 223.018" stroke="#303030" stroke-width="1.5" stroke-linecap="round" stroke-linejoin="round"/>
<path d="M138.653 205.664C135.194 204.724 132.68 206.614 126.974 208.421C119.284 210.851 110.645 212.48 110.645 212.48C110.645 212.48 109.37 216.6 111.977 217.184C113.596 217.549 120.447 215.83 124.513 216.647C126.998 217.148 131.965 218.422 131.965 218.422" fill="#F08566"/>
<path d="M138.653 205.664C135.194 204.724 132.68 206.614 126.974 208.421C119.284 210.851 110.645 212.48 110.645 212.48C110.645 212.48 109.37 216.6 111.977 217.184C113.596 217.549 120.447 215.83 124.513 216.647C126.998 217.148 131.965 218.422 131.965 218.422" stroke="#303030" stroke-width="1.5" stroke-linecap="round" stroke-linejoin="round"/>
<path d="M125.328 216.953C121.747 219.364 118.107 223.496 116.329 224.538C114.863 225.406 110.882 224.437 110.882 224.437C110.882 224.437 110.348 221.108 108.894 218.379" fill="#F08566"/>
<path d="M125.328 216.953C121.747 219.364 118.107 223.496 116.329 224.538C114.863 225.406 110.882 224.437 110.882 224.437C110.882 224.437 110.348 221.108 108.894 218.379" stroke="#303030" stroke-width="1.5" stroke-linecap="round" stroke-linejoin="round"/>
<path d="M105.825 204.25C107.34 206.148 107.409 212.517 107.409 212.517L105.825 204.25Z" fill="#F08566"/>
<path d="M105.825 204.25C107.34 206.148 107.409 212.517 107.409 212.517" stroke="#303030" stroke-width="1.5" stroke-linecap="round" stroke-linejoin="round"/>
<path d="M101.847 207.906C102.135 207.968 103.932 212.119 104.31 213.571L101.847 207.906Z" fill="#F08566"/>
<path d="M101.847 207.906C102.135 207.968 103.932 212.119 104.31 213.571" stroke="#303030" stroke-width="1.5" stroke-linecap="round" stroke-linejoin="round"/>
<path d="M104.461 213.529C99.0959 212.26 102.961 221.878 103.556 224.776L104.461 213.529Z" fill="#F08566"/>
<path d="M104.461 213.529C99.0959 212.26 102.961 221.878 103.556 224.776" stroke="#303030" stroke-width="1.5" stroke-linecap="round" stroke-linejoin="round"/>
<path fill-rule="evenodd" clip-rule="evenodd" d="M233.678 62.2719C230.915 63.2738 228.495 57.5727 228.222 55.2902C227.541 49.6186 232.9 47.2044 237.842 46.5626C242.692 45.932 245.685 47.7866 244.609 53.5304C243.372 60.1318 238.686 61.1532 233.678 62.2719Z" fill="#444444"/>
<path fill-rule="evenodd" clip-rule="evenodd" d="M73.3428 123.735C66.4998 126.955 59.1386 128.969 52.1024 131.675C46.1559 133.961 39.5244 141.703 40.0476 148.701C40.9172 160.339 55.314 157.228 63.1878 153.574C73.7355 148.678 76.0951 141.606 83.1665 133.109C98.4981 114.689 98.456 109.479 93.3384 110.466C90.1249 111.086 77.545 121.758 73.3428 123.735Z" fill="#444444"/>
<path fill-rule="evenodd" clip-rule="evenodd" d="M48.2144 140.069C56.8435 136.129 60.8676 121.779 60.8174 113C60.8174 113 60.4598 135.482 72.3941 139.982C63.5999 145.805 60.5633 152.518 61.3783 162.624C60.6668 151.804 57.4063 142.76 48.2144 140.069Z" fill="white"/>
<path d="M48.2144 140.069C56.8435 136.129 60.8676 121.779 60.8174 113C60.8174 113 60.4598 135.482 72.3941 139.982C63.5999 145.805 60.5633 152.518 61.3783 162.624C60.6668 151.804 57.4063 142.76 48.2144 140.069Z" stroke="black" stroke-width="1.5" stroke-linecap="round" stroke-linejoin="round"/>
</svg>
