<svg width="63" height="63" viewBox="0 0 63 63" fill="none" xmlns="http://www.w3.org/2000/svg">
<g filter="url(#filter0_d_2_4941)">
<path d="M10 26C10 16.6112 17.6112 9 27 9H32C41.3888 9 49 16.6112 49 26V31C49 40.3888 41.3888 48 32 48H27C17.6112 48 10 40.3888 10 31V26Z" fill="#07AB64"/>
</g>
<path d="M35.4279 40.211H22.7605L20.5674 29.1875H36.6001L35.4279 40.211Z" fill="#560F00"/>
<path d="M26.8982 48.0006C22.5012 48.0006 18.4936 46.3308 15.4756 43.5913C16.2961 41.4097 18.5372 41.0247 18.5372 41.0247L25.8731 38.8125H31.8851L39.221 41.0247C39.221 41.0247 41.7923 41.4666 42.4349 44.0847L42.4869 44.3006C39.5819 46.6166 35.9016 48.0006 31.8977 48.0006H26.8982Z" fill="#ECB79E"/>
<rect x="26.0127" y="35.6406" width="6.08791" height="3.4287" fill="#ECB79E"/>
<path d="M27.7143 38.2973C28.6974 38.2604 29.6428 37.9655 30.399 37.4862C31.004 37.1175 31.4956 36.6383 31.8737 36.1221C31.9493 36.0115 32.025 35.9009 32.1006 35.7903V35.6797H26.0127V38.2604C26.5799 38.2604 27.1471 38.2973 27.7143 38.2973Z" fill="#DFA68B"/>
<path d="M36.6003 26.3102C36.6003 20.8169 33.2349 17.6462 29.0377 17.6094H28.9998H28.962C24.7648 17.6462 21.3994 20.8169 21.3994 26.3102C21.3994 33.4625 26.6554 37.6286 28.9998 37.6286C31.3443 37.5917 36.6003 33.4257 36.6003 26.3102Z" fill="#ECB79E"/>
<path d="M35.8442 28.3439L35.4282 31.5883C37.1298 32.3256 37.3945 28.4914 37.3945 28.4914C36.9786 27.5328 35.8442 28.3439 35.8442 28.3439Z" fill="#ECB79E"/>
<path d="M20.7944 28.4914C20.7944 28.4914 21.0591 32.3256 22.7607 31.5883L22.307 28.3439C22.307 28.3439 21.1726 27.5328 20.7944 28.4914Z" fill="#ECB79E"/>
<path d="M25.3698 19.9385C25.3698 19.9385 26.6555 23.8096 32.819 25.8373C32.819 25.8373 37.5078 26.3903 38.1129 28.2706C38.1129 28.2706 39.5876 22.0399 36.5625 18.7956C36.5625 18.7956 31.7224 12.9705 25.332 17.5789C25.3698 17.6158 24.2355 18.0582 25.3698 19.9385Z" fill="#852A00"/>
<path d="M25.2942 17.8672C25.2942 17.8672 18.0719 19.2682 21.4373 28.0058C21.4373 28.0058 21.891 21.554 26.2773 21.4802L25.2942 17.8672Z" fill="#852A00"/>
<path d="M24.1978 40.216C24.1978 40.216 18.299 39.2574 19.0552 30.8885C19.0552 30.8885 19.2821 21.3397 22.3828 19.8281L22.9122 23.4412C22.8744 23.4412 20.5678 30.4092 24.1978 40.216Z" fill="#852A00"/>
<path d="M34.6719 40.216C34.6719 40.216 40.5707 39.2574 39.8145 30.8885C39.8145 30.8885 39.5876 21.3397 36.4869 19.8281L35.4281 23.1093C35.4281 23.1093 37.3566 34.7227 34.6719 40.216Z" fill="#852A00"/>
<path d="M26.315 17.5012C26.0503 18.128 26.3906 19.0497 26.4663 19.7502C26.7688 19.6396 26.8066 19.2709 27.0713 19.0865C27.2982 19.529 27.4494 20.0082 27.6763 20.4506C28.0544 21.1511 28.8107 22.4046 29.4913 22.8471C29.6804 22.589 29.6048 22.2572 29.6426 21.9254C30.0963 22.5152 30.6635 23.1789 31.2307 23.6581C31.1929 23.4738 31.2685 23.2526 31.2685 23.0683C31.987 23.4369 32.4786 24.4324 33.2726 24.6904C33.2348 24.5061 33.3483 24.3218 33.3861 24.1743C33.8777 24.5061 34.3692 25.096 34.8986 25.3172C35.1633 25.4278 35.7305 25.3909 35.9574 25.649C35.9574 25.1697 35.8439 24.4324 35.4658 24.1743C35.4658 24.2849 35.3902 24.4324 35.3902 24.5061C35.2389 24.2849 35.0499 23.99 34.8608 23.8056C34.8608 23.8793 34.8608 23.99 34.823 24.0637C34.7852 23.99 34.5961 23.8056 34.5583 23.695C34.5583 23.7687 34.4827 23.8793 34.4827 23.99C34.218 23.7319 34.0667 23.2157 33.6508 23.1789C33.6508 23.2895 33.5373 23.5844 33.5373 23.6581C33.4617 23.2526 33.197 22.7365 32.7433 22.6996C32.7433 22.8102 32.6298 22.9945 32.592 23.0683C32.5542 22.8471 32.403 22.6996 32.3273 22.5152C32.2517 22.5521 32.2139 22.589 32.1761 22.6259C31.9114 22.1466 31.987 21.483 31.6845 21.0405C31.5711 21.2249 31.5332 21.483 31.5332 21.7042C31.4954 21.483 31.382 21.2617 31.2685 21.1143C31.2307 21.188 31.0795 21.3723 31.0417 21.4461C30.8904 21.1511 30.5879 20.2663 30.3989 21.0405C30.2854 20.8931 30.2098 20.635 30.1342 20.4507C30.0963 20.5981 29.8695 20.8193 29.7938 20.9299C29.6804 20.5981 29.4535 19.9714 29.1132 20.4507C29.0754 20.1557 28.962 19.8976 28.7729 19.7133C28.7729 19.8976 28.7351 20.1926 28.6973 20.3032C28.6973 19.9345 28.5838 19.529 28.3191 19.234C28.2813 19.3815 28.2057 19.5658 28.2435 19.7502C28.2813 19.3815 28.2057 19.0497 28.0166 18.7547C27.9788 18.7547 27.9788 18.8653 27.9788 18.8653C27.941 18.3123 27.6385 18.0543 27.3738 17.6856C27.2982 17.6856 27.2226 17.7224 27.1469 17.7224C27.0713 17.575 26.9579 17.5012 26.8822 17.3906C26.8822 17.575 26.7688 17.7224 26.7688 17.9068C26.6932 17.6118 26.5419 17.4644 26.315 17.575" fill="#98330A"/>
<path d="M25.1051 19.2734C24.9539 19.5684 25.2186 20.232 25.4076 20.5269C25.3698 20.2689 25.1807 20.0845 24.916 20.0845C24.916 20.232 24.8782 20.4532 24.916 20.6007C24.8026 20.3426 24.6892 20.3795 24.5757 20.3057C24.5001 20.4901 24.5001 20.7482 24.5001 20.9694C24.3489 20.8956 24.0842 20.8588 23.9329 20.785C23.8573 21.0062 23.8951 21.3012 23.7817 21.5224C23.6682 21.4118 23.5926 21.4118 23.517 21.338C23.5926 21.7067 23.2901 21.7436 23.2145 21.9279C23.101 22.2229 22.9498 22.5547 22.8363 22.8865C22.7607 22.7021 22.5717 22.5178 22.496 22.3335C22.4204 22.6653 22.3448 23.1077 22.3826 23.4764C22.3448 23.4395 22.3069 23.4395 22.2691 23.4395C22.2313 23.6976 22.1557 23.9188 22.1179 24.1769C22.0801 24.0294 22.0044 23.8819 21.9666 23.7344C21.9288 24.0294 21.891 24.3243 21.891 24.5824C21.8154 24.5087 21.7019 24.5087 21.6263 24.4718C21.5885 24.7299 21.5507 24.9511 21.5507 25.2092C21.5507 25.246 21.5507 25.246 21.5507 25.2092C21.5507 25.1723 21.5507 25.1354 21.4751 25.1354C21.4751 25.3198 21.3616 25.541 21.3238 25.6884C21.1347 25.3566 20.9835 24.9879 20.87 24.6193C20.8322 24.6193 20.8322 24.6193 20.8322 24.6561C20.7944 24.4349 20.8322 24.2137 20.8322 23.9925C20.9079 23.9925 20.9457 24.0294 21.0213 24.0294C21.0969 23.8082 21.1347 23.5501 21.0969 23.3289C21.0969 23.4395 21.1347 23.587 21.1347 23.6238C21.0969 23.4395 21.2104 23.2552 21.2482 23.1077C21.3238 23.1446 21.5507 23.1077 21.6263 23.1446C21.5885 22.8127 21.7019 22.4809 21.7776 22.1491C21.8154 22.186 21.9288 22.2966 21.9666 22.3335C22.0044 22.2229 22.0422 22.1491 22.0422 22.0017C22.0801 22.0017 22.1557 22.0754 22.1557 22.0385C22.1935 21.8173 22.2691 21.5961 22.3826 21.4118C22.4582 21.5224 22.6473 21.6698 22.7229 21.7436C22.7985 21.4855 22.7985 21.2274 22.912 20.9694C22.9498 21.0062 22.9498 21.08 22.9876 21.1537C23.0632 20.9325 23.1388 20.6007 23.3279 20.3426C23.4035 20.3426 23.4413 20.3795 23.517 20.3795C23.5548 20.1951 23.7438 20.0845 23.8195 19.9739C23.8951 20.0477 24.0463 20.0845 24.122 20.1214C24.1598 19.9739 24.3489 19.8265 24.3867 19.6421C24.4623 19.6421 24.4623 19.679 24.5001 19.679C24.5379 19.4946 24.6514 19.4946 24.8026 19.4209" fill="#98330A"/>
<path d="M27.0135 48C24.5437 48 22.1967 47.4731 20.0791 46.5259C20.2739 45.4996 20.619 44.7105 20.619 44.7105L20.0898 40.6182L21.7908 40.1016C21.7908 40.1016 23.0769 45.669 29.0511 46.5537C35.0253 45.669 36.3114 40.1016 36.3114 40.1016L38.0124 40.6182L37.4832 44.7105C37.4832 44.7105 37.9112 45.689 38.083 46.8842C36.1977 47.6051 34.1516 48 32.013 48H27.0135Z" fill="#F7941E"/>
<defs>
<filter id="filter0_d_2_4941" x="0" y="0" width="63" height="63" filterUnits="userSpaceOnUse" color-interpolation-filters="sRGB">
<feFlood flood-opacity="0" result="BackgroundImageFix"/>
<feColorMatrix in="SourceAlpha" type="matrix" values="0 0 0 0 0 0 0 0 0 0 0 0 0 0 0 0 0 0 127 0" result="hardAlpha"/>
<feOffset dx="2" dy="3"/>
<feGaussianBlur stdDeviation="6"/>
<feComposite in2="hardAlpha" operator="out"/>
<feColorMatrix type="matrix" values="0 0 0 0 0.0470588 0 0 0 0 0.682353 0 0 0 0 0.403922 0 0 0 0.301961 0"/>
<feBlend mode="normal" in2="BackgroundImageFix" result="effect1_dropShadow_2_4941"/>
<feBlend mode="normal" in="SourceGraphic" in2="effect1_dropShadow_2_4941" result="shape"/>
</filter>
</defs>
</svg>
