<svg width="316" height="477" viewBox="0 0 316 477" fill="none" xmlns="http://www.w3.org/2000/svg">
<line x1="197.381" y1="333.191" x2="196.785" y2="474.713" stroke="#232323" stroke-width="1.5" stroke-linecap="round" stroke-linejoin="round"/>
<line x1="0.993164" y1="474.656" x2="260.679" y2="474.656" stroke="#232323" stroke-width="1.5" stroke-linecap="round" stroke-linejoin="round"/>
<line x1="128.248" y1="151.094" x2="128.248" y2="207.546" stroke="#232323" stroke-width="1.5" stroke-linecap="round" stroke-linejoin="round"/>
<path d="M280.851 212.187H126.044V205.875H280.851" fill="#141414"/>
<path d="M280.851 218.578H134.239V212.266H280.851" fill="#141414"/>
<line x1="166.835" y1="202.004" x2="167.026" y2="164.643" stroke="#232323" stroke-width="1.5" stroke-linecap="round" stroke-linejoin="round"/>
<path d="M167.248 206.758C165.123 206.758 163.4 208.48 163.4 210.606V213.998C163.4 214.492 163.368 215.574 163.368 215.574C163.368 215.574 156.896 218.333 153.464 222.194C151.653 224.229 151.672 228.301 151.793 228.666C152.35 228.692 175.955 228.845 182.325 228.769C182.498 228.371 182.818 225.119 181.256 223.269C177.952 219.338 171.115 215.561 171.115 215.561C171.115 215.561 171.102 214.517 171.102 213.998V210.606C171.102 208.48 169.373 206.758 167.248 206.758Z" fill="white"/>
<path d="M167.248 206.758C165.123 206.758 163.4 208.48 163.4 210.606V213.998C163.4 214.492 163.368 215.574 163.368 215.574C163.368 215.574 156.896 218.333 153.464 222.194C151.653 224.229 151.672 228.301 151.793 228.666C152.35 228.692 175.955 228.845 182.325 228.769C182.498 228.371 182.818 225.119 181.256 223.269C177.952 219.338 171.115 215.561 171.115 215.561C171.115 215.561 171.102 214.517 171.102 213.998V210.606C171.102 208.48 169.373 206.758 167.248 206.758Z" stroke="#BEBEBE" stroke-width="0.5" stroke-linecap="round" stroke-linejoin="round"/>
<path d="M167.299 206.859C165.174 206.859 163.439 208.575 163.439 210.701H171.141C171.141 208.575 169.425 206.859 167.299 206.859Z" fill="#BEBEBE"/>
<path d="M167.299 206.859C165.174 206.859 163.439 208.575 163.439 210.701H171.141C171.141 208.575 169.425 206.859 167.299 206.859Z" stroke="#BEBEBE" stroke-width="0.5" stroke-linecap="round" stroke-linejoin="round"/>
<path d="M167.658 197.134C165.84 197.262 166.096 205.002 166.096 207.128H169.105C169.105 205.002 169.342 197.013 167.658 197.134Z" fill="#BEBEBE"/>
<path d="M167.658 197.134C165.84 197.262 166.096 205.002 166.096 207.128H169.105C169.105 205.002 169.342 197.013 167.658 197.134Z" stroke="#BEBEBE" stroke-width="0.5" stroke-linecap="round" stroke-linejoin="round"/>
<path d="M152.338 227.062H181.5C182.204 227.062 182.774 227.505 182.774 228.055C182.774 228.606 182.204 229.054 181.5 229.054H152.338C151.634 229.054 151.058 228.606 151.058 228.055C151.058 227.505 151.634 227.062 152.338 227.062Z" fill="white"/>
<path d="M152.338 227.062H181.5C182.204 227.062 182.774 227.505 182.774 228.055C182.774 228.606 182.204 229.054 181.5 229.054H152.338C151.634 229.054 151.058 228.606 151.058 228.055C151.058 227.505 151.634 227.062 152.338 227.062Z" stroke="#BEBEBE" stroke-width="0.5" stroke-linecap="round" stroke-linejoin="round"/>
<path d="M201.742 343.945C182.72 421.67 147.081 479.731 122.142 473.627C97.2021 467.523 92.4049 399.566 111.427 321.841C130.45 244.116 166.088 186.055 191.028 192.159C215.968 198.263 220.765 266.22 201.742 343.945Z" fill="#444444"/>
<path d="M194.375 342.14C175.353 419.866 139.715 477.926 114.775 471.823C89.8348 465.719 85.0377 397.762 104.06 320.037C123.082 242.312 158.721 184.251 183.661 190.354C208.601 196.458 213.398 264.415 194.375 342.14Z" fill="#00887F"/>
<path d="M166.179 443.47C168.268 445.503 167.126 449.037 166.48 459.4C166.216 463.624 166.15 467.133 166.14 469.561L158.597 469.255C157.511 460.708 156.426 452.16 155.34 443.612C162.693 441.028 165.234 442.55 166.179 443.47Z" fill="white"/>
<path d="M166.179 443.47C168.268 445.503 167.126 449.037 166.48 459.4C166.216 463.624 166.15 467.133 166.14 469.561L158.597 469.255C157.511 460.708 156.426 452.16 155.34 443.612C162.693 441.028 165.234 442.55 166.179 443.47Z" stroke="black" stroke-width="2" stroke-linecap="round" stroke-linejoin="round"/>
<path d="M191.545 438.177C192.332 439.909 196.723 469.265 196.723 469.265L187.517 472.311L180.607 445.611C180.607 445.611 190.76 436.452 191.545 438.177Z" fill="white"/>
<path d="M191.545 438.177C192.332 439.909 196.723 469.265 196.723 469.265L187.517 472.311L180.607 445.611C180.607 445.611 190.76 436.452 191.545 438.177Z" stroke="black" stroke-width="2" stroke-linecap="round" stroke-linejoin="round"/>
<path d="M167.674 465.547L168.257 474.286L162.002 474.683L160.755 474.089L158.262 474.921L145.407 475.736C145.407 475.736 141.303 474.296 142.113 472.959C142.922 471.618 148.641 470.38 148.641 470.38L157.235 465.367L160.4 468.101L167.674 465.547Z" fill="#444444"/>
<path d="M144.858 472.992L151.522 473.137L168.07 471.484" stroke="#F5F3EC" stroke-width="1.5" stroke-linecap="round" stroke-linejoin="round"/>
<path d="M196.243 464.164L198.495 472.311L181.452 476.251L171.298 475.887C170.437 472.22 177.171 472.054 177.171 472.054L184.987 465.897L188.501 468.165L196.243 464.164Z" fill="#444444"/>
<path d="M171.298 474.689L180.407 474.381L198.495 469.977" stroke="#F5F3EC" stroke-width="1.5" stroke-linecap="round" stroke-linejoin="round"/>
<path d="M186.828 470.138C186.953 470.686 186.874 471.322 186.468 471.712C186.294 471.879 186.058 471.993 185.817 471.976C185.536 471.956 185.294 471.762 185.128 471.534C184.802 471.087 184.713 470.516 184.633 469.969C184.422 468.526 184.231 466.962 184.939 465.688C184.528 466.346 184.173 467.042 183.882 467.762C183.563 468.551 183.313 469.385 182.8 470.063C182.287 470.742 181.421 471.242 180.597 471.032C180.343 470.968 180.091 470.821 179.989 470.581C179.939 470.465 179.928 470.336 179.929 470.21C179.935 469.506 180.285 468.849 180.697 468.278C181.356 467.367 183.143 465.226 184.457 465.815C185.065 466.087 185.359 466.897 185.616 467.454C186.011 468.314 186.615 469.211 186.828 470.138Z" stroke="white" stroke-width="1.5" stroke-linecap="round" stroke-linejoin="round"/>
<path d="M159.66 468.729C159.822 469.268 159.786 469.907 159.406 470.323C159.244 470.501 159.015 470.631 158.774 470.63C158.492 470.629 158.237 470.451 158.057 470.235C157.703 469.811 157.575 469.247 157.459 468.707C157.152 467.281 156.857 465.733 157.479 464.414C157.112 465.099 156.805 465.816 156.563 466.554C156.297 467.363 156.103 468.212 155.636 468.922C155.169 469.634 154.339 470.191 153.502 470.036C153.245 469.989 152.984 469.86 152.865 469.626C152.808 469.513 152.789 469.386 152.782 469.26C152.74 468.557 153.046 467.879 153.42 467.281C154.016 466.328 155.657 464.074 157.007 464.573C157.631 464.804 157.979 465.593 158.272 466.131C158.724 466.964 159.386 467.818 159.66 468.729Z" stroke="white" stroke-width="1.5" stroke-linecap="round" stroke-linejoin="round"/>
<path d="M188.665 365.641C188.665 365.641 186.87 402.173 187.688 407.596C188.507 413.021 193.982 445.822 193.982 445.822L198.495 445.723C198.495 445.723 192.79 406.707 191.682 405.731C190.573 404.756 191.682 371.791 191.682 371.791L188.665 365.641Z" fill="#444444"/>
<path d="M155.186 343.195C154.873 343.825 154.408 344.587 153.72 345.345C152.207 347.011 150.454 347.734 149.485 348.048" stroke="white" stroke-width="1.5" stroke-linecap="round" stroke-linejoin="round"/>
<path d="M209.182 369.184C209.182 369.184 211.8 377.467 212.761 377.905C213.722 378.337 213.687 377.567 214.096 376.244C214.939 377.16 215.329 377.273 215.707 377.169C216.345 376.995 215.943 376.394 216.023 375.692C216.447 375.763 217.071 376.874 217.437 375.448C217.81 374.031 217.58 371.825 217.507 370.006C217.482 369.386 217.484 368.765 217.467 368.144C217.36 364.236 217.643 360.499 217.781 356.901C217.957 352.273 218.045 349.959 217.847 348.533C216.978 342.266 213.881 336.844 214.23 336.684C214.25 336.674 214.278 336.683 214.284 336.697C214.402 336.968 206.19 340.807 206.19 340.807C206.19 340.807 207.809 353.483 207.281 361.699C207.173 363.297 205.993 364.992 205.713 367.606C205.377 370.777 206.305 374.605 207.439 376.349C207.901 377.06 208.65 376.221 208.682 374.541C208.696 373.665 208.063 371.377 208.063 371.377L209.182 369.184Z" fill="white"/>
<path d="M209.182 369.184C209.182 369.184 211.8 377.467 212.761 377.905C213.722 378.337 213.687 377.567 214.096 376.244C214.939 377.16 215.329 377.273 215.707 377.169C216.345 376.995 215.943 376.394 216.023 375.692C216.447 375.763 217.071 376.874 217.437 375.448C217.81 374.031 217.58 371.825 217.507 370.006C217.482 369.386 217.484 368.765 217.467 368.144C217.36 364.236 217.643 360.499 217.781 356.901C217.957 352.273 218.045 349.959 217.847 348.533C216.978 342.266 213.881 336.844 214.23 336.684C214.25 336.674 214.278 336.683 214.284 336.697C214.402 336.968 206.19 340.807 206.19 340.807C206.19 340.807 207.809 353.483 207.281 361.699C207.173 363.297 205.993 364.992 205.713 367.606C205.377 370.777 206.305 374.605 207.439 376.349C207.901 377.06 208.65 376.221 208.682 374.541C208.696 373.665 208.063 371.377 208.063 371.377L209.182 369.184Z" stroke="black" stroke-width="2" stroke-linecap="round" stroke-linejoin="round"/>
<path d="M213.982 376.18C213.35 374.688 212.565 372.495 212.379 370.766L213.982 376.18Z" fill="white"/>
<path d="M213.982 376.18C213.35 374.688 212.565 372.495 212.379 370.766" stroke="black" stroke-width="2" stroke-linecap="round" stroke-linejoin="round"/>
<path d="M216.008 375.764C216.052 375.801 215.654 374.468 215.561 374.134C215.165 372.721 214.959 371.228 214.543 369.844" fill="white"/>
<path d="M216.008 375.764C216.052 375.801 215.654 374.468 215.561 374.134C215.165 372.721 214.959 371.228 214.543 369.844" stroke="black" stroke-width="2" stroke-linecap="round" stroke-linejoin="round"/>
<path d="M221.646 342.845C222.028 341.551 219.968 340.395 219.894 337.76C219.868 336.865 220.099 336.739 219.97 335.782C219.936 335.526 219.611 333.287 218.308 332.601C217.469 332.159 216.578 332.548 216.137 332.757C214.051 333.742 211.385 337.003 208.912 338.37C205.532 340.234 201.995 339.372 199.937 341.499C198.918 342.551 198.464 343.316 198.496 344.17C198.554 345.696 199.997 347.409 201.516 348.075C205.948 350.016 209.707 342.45 214.989 343.865C215.399 343.975 216.836 344.412 218.627 344.2C219.748 344.067 221.34 343.879 221.646 342.845Z" fill="#00E654"/>
<path d="M221.646 342.845C222.028 341.551 219.968 340.395 219.894 337.76C219.868 336.865 220.099 336.739 219.97 335.782C219.936 335.526 219.611 333.287 218.308 332.601C217.469 332.159 216.578 332.548 216.137 332.757C214.051 333.742 211.385 337.003 208.912 338.37C205.532 340.234 201.995 339.372 199.937 341.499C198.918 342.551 198.464 343.316 198.496 344.17C198.554 345.696 199.997 347.409 201.516 348.075C205.948 350.016 209.707 342.45 214.989 343.865C215.399 343.975 216.836 344.412 218.627 344.2C219.748 344.067 221.34 343.879 221.646 342.845Z" stroke="black" stroke-width="0.5" stroke-linejoin="round"/>
<path d="M217.181 339.57C215.656 340.607 213.871 341.256 212.038 341.443" stroke="#232323" stroke-width="1.5" stroke-linecap="round" stroke-linejoin="round"/>
<ellipse cx="370.106" cy="142.599" rx="144.887" ry="46.4903" transform="rotate(-76.2478 370.106 142.599)" stroke="#232323" stroke-width="1.5" stroke-linecap="round" stroke-linejoin="round"/>
<line x1="205.872" y1="196.773" x2="312.284" y2="196.773" stroke="#232323" stroke-width="1.5" stroke-linecap="round" stroke-linejoin="round"/>
<path d="M259.351 157.43C259.99 163.239 256.027 167.446 252.923 167.446C249.819 167.446 245.856 163.239 246.495 157.43H259.351Z" fill="#2D2D2D"/>
<path d="M259.351 157.43C259.99 163.239 256.027 167.446 252.923 167.446C249.819 167.446 245.856 163.239 246.495 157.43H259.351Z" stroke="#1E1E1E" stroke-width="2"/>
<rect x="252.467" y="167.047" width="1.44626" height="2.30332" fill="#2D2D2D"/>
<rect x="252.467" y="167.047" width="1.44626" height="2.30332" stroke="#1E1E1E" stroke-width="2"/>
<line x1="254.244" y1="169.43" x2="254.244" y2="208.532" stroke="#1E1E1E" stroke-width="2"/>
<rect x="252.32" y="203.492" width="1.88828" height="2.02898" fill="#2D2D2D"/>
<rect x="252.32" y="203.492" width="1.88828" height="2.02898" stroke="#1E1E1E" stroke-width="2"/>
<rect x="250.553" y="205.516" width="5.26245" height="4.1781" fill="#2D2D2D"/>
<rect x="250.553" y="205.516" width="5.26245" height="4.1781" stroke="#1E1E1E" stroke-width="2"/>
<path d="M253.284 209.5C244.831 209.5 237.979 216.353 237.979 224.806C237.979 230.392 240.973 235.279 245.443 237.951H261.125C265.596 235.279 268.59 230.392 268.59 224.806C268.59 216.353 261.737 209.5 253.284 209.5Z" fill="#2D2D2D"/>
<path d="M253.284 209.5C244.831 209.5 237.979 216.353 237.979 224.806C237.979 230.392 240.973 235.279 245.443 237.951H261.125C265.596 235.279 268.59 230.392 268.59 224.806C268.59 216.353 261.737 209.5 253.284 209.5Z" stroke="#1E1E1E" stroke-width="2"/>
<path d="M261.465 237.339C261.465 237.996 257.792 238.529 253.263 238.529C248.733 238.529 245.061 237.996 245.061 237.339C245.061 236.681 248.733 236.148 253.263 236.148C257.792 236.148 261.465 236.681 261.465 237.339Z" fill="#2D2D2D"/>
<ellipse cx="253.263" cy="237.339" rx="8.20205" ry="1.19009" stroke="#1E1E1E" stroke-width="2"/>
<path d="M105.223 300.704C106.15 298.013 107.407 294.2 108.538 290.154C109.082 288.205 109.161 287.423 109.133 286.344C109.09 284.705 108.681 284.001 107.996 280.932C107.996 280.932 107.565 279.153 107.294 277.24C106.974 274.976 106.793 272.843 106.707 270.869C106.681 270.757 106.489 270.01 105.784 269.687C105.476 269.545 105.186 269.539 105.013 269.551C104.854 272.719 104.762 275.213 104.711 276.759C104.653 278.481 104.41 281.13 103.759 283.685C103.595 284.332 103.405 284.898 103.174 285.565C102.563 287.331 101.287 290.692 98.6997 295.852C100.874 297.469 103.049 299.087 105.223 300.704Z" fill="#F08566"/>
<path d="M105.223 300.704C106.15 298.013 107.407 294.2 108.538 290.154C109.082 288.205 109.161 287.423 109.133 286.344C109.09 284.705 108.681 284.001 107.996 280.932C107.996 280.932 107.565 279.153 107.294 277.24C106.974 274.976 106.793 272.843 106.707 270.869C106.681 270.757 106.489 270.01 105.784 269.687C105.476 269.545 105.186 269.539 105.013 269.551C104.854 272.719 104.762 275.213 104.711 276.759C104.653 278.481 104.41 281.13 103.759 283.685C103.595 284.332 103.405 284.898 103.174 285.565C102.563 287.331 101.287 290.692 98.6997 295.852C100.874 297.469 103.049 299.087 105.223 300.704Z" stroke="#303030" stroke-width="1.5" stroke-linecap="round" stroke-linejoin="round"/>
<path d="M108.856 288.941C108.82 287.438 108.473 286.344 108.108 285.57C107.397 284.063 106.717 283.979 106.389 282.661C106.018 281.169 106.698 280.5 106.244 279.308C105.857 278.291 104.965 277.733 104.277 277.422C104.373 279.226 104.301 281.811 103.494 284.797C103.006 286.603 102.364 288.126 101.757 289.332" fill="#F08566"/>
<path d="M108.856 288.941C108.82 287.438 108.473 286.344 108.108 285.57C107.397 284.063 106.717 283.979 106.389 282.661C106.018 281.169 106.698 280.5 106.244 279.308C105.857 278.291 104.965 277.733 104.277 277.422C104.373 279.226 104.301 281.811 103.494 284.797C103.006 286.603 102.364 288.126 101.757 289.332" stroke="#303030" stroke-width="1.5" stroke-linecap="round" stroke-linejoin="round"/>
<path d="M76.6831 325.223C77.713 326.974 80.3591 330.885 85.3361 332.921C87.0356 333.616 88.6245 333.937 89.9393 334.077C90.5007 333.728 91.3881 333.141 92.3876 332.308C97.5289 328.023 99.5798 322.274 100.625 319.233C101.553 316.535 101.579 315.724 103.101 311.028C103.502 309.792 104.007 308.377 104.698 306.662C104.698 306.662 104.822 306.354 107.432 300.027L97.2606 293.571C96.5312 295.158 95.4208 297.584 94.0737 300.58C92.7253 303.578 92.24 304.699 91.314 306.711C90.5035 308.471 89.3143 311.003 87.7889 314.068C87.0245 309.577 85.923 305.988 85.03 303.492C83.1897 298.347 81.9661 295.067 78.7451 292.915C77.5295 292.103 76.2998 291.71 73.8409 290.923C73.8409 290.923 71.6484 290.221 64.7207 288.969C68.7079 301.054 72.6954 313.138 76.6831 325.223Z" fill="#65EAC9"/>
<path d="M64.7184 455.361C64.7184 455.361 65.9383 462.278 65.6336 464.313C65.4613 465.464 64.3294 468.211 64.6168 471.943C64.6308 472.122 64.6448 472.27 64.6551 472.369C66.5718 472.412 69.5118 472.48 73.1454 472.567C76.2723 472.641 77.0329 472.666 78.182 472.68C80.6274 472.709 83.9377 472.722 87.9142 472.656C87.6574 472.021 87.3431 471.606 87.1348 471.367C86.3146 470.424 85.2909 470.076 81.3791 469.017C79.8266 468.596 79.904 468.629 79.8443 468.605C76.07 467.102 74.8703 461.863 74.6546 460.922C74.0234 458.165 74.0784 454.852 74.0784 454.852L64.7184 455.361Z" fill="white"/>
<path d="M64.7184 455.361C64.7184 455.361 65.9383 462.278 65.6336 464.313C65.4613 465.464 64.3294 468.211 64.6168 471.943C64.6308 472.122 64.6448 472.27 64.6551 472.369C66.5718 472.412 69.5118 472.48 73.1454 472.567C76.2723 472.641 77.0329 472.666 78.182 472.68C80.6274 472.709 83.9377 472.722 87.9142 472.656C87.6574 472.021 87.3431 471.606 87.1348 471.367C86.3146 470.424 85.2909 470.076 81.3791 469.017C79.8266 468.596 79.904 468.629 79.8443 468.605C76.07 467.102 74.8703 461.863 74.6546 460.922C74.0234 458.165 74.0784 454.852 74.0784 454.852L64.7184 455.361Z" stroke="black" stroke-width="2" stroke-linejoin="round"/>
<path d="M63.6885 471.836C63.6885 471.989 63.6372 475.396 63.6372 475.396L71.0688 475.448L72.0494 473.007L75.043 475.245L88.8232 475.193L88.7721 472.65L63.6885 471.836Z" fill="#444444"/>
<path d="M41.6244 455.29C44.4276 455.222 47.2312 455.154 50.0342 455.086L49.2885 465.125C49.2885 465.125 51.9337 471.229 50.7809 472.653C50.0725 473.528 49.268 474.137 48.8455 474.377C48.5177 474.563 46.1701 475.841 43.5235 474.823C42.9604 474.606 41.5253 474.054 40.7423 472.653C39.0412 469.608 41.5569 464.582 41.5569 464.582C41.5793 461.484 41.6021 458.387 41.6244 455.29Z" fill="white"/>
<path d="M41.6244 455.29C44.4276 455.222 47.2312 455.154 50.0342 455.086L49.2885 465.125C49.2885 465.125 51.9337 471.229 50.7809 472.653C50.0725 473.528 49.268 474.137 48.8455 474.377C48.5177 474.563 46.1701 475.841 43.5235 474.823C42.9604 474.606 41.5253 474.054 40.7423 472.653C39.0412 469.608 41.5569 464.582 41.5569 464.582C41.5793 461.484 41.6021 458.387 41.6244 455.29Z" stroke="black" stroke-width="2" stroke-linejoin="round"/>
<path d="M39.2432 471.719C39.2684 472.936 39.2931 474.153 39.3182 475.371C39.3182 475.371 43.7944 476.364 47.2534 476.155C50.7122 475.947 51.5265 475.319 51.5265 475.319C51.5828 474.192 51.6387 473.064 51.6951 471.937C49.9973 472.107 48.0372 472.22 45.8653 472.198C43.3561 472.174 41.1264 471.974 39.2432 471.719Z" fill="#444444"/>
<path d="M73.2651 327.287C73.6983 328.901 74.3663 331.346 75.2261 334.313C76.4954 338.691 77.4926 341.826 77.6627 342.373C80.6464 351.95 80.4946 368.078 80.4946 368.078C79.4951 382.692 78.7825 414.436 77.6627 457.176C75.5242 457.506 72.2958 457.733 68.5131 456.958C65.903 456.424 63.7742 455.564 62.1962 454.779C61.7336 447.278 61.2977 439.726 60.8891 432.124C60.409 423.2 59.9739 414.341 59.5817 405.547L53.2642 454.562C53.2642 454.562 47.6003 459.572 43.8967 458.919C40.1937 458.265 36.9258 455.651 36.9258 455.651C37.0981 402.896 38.8672 364.058 40.0988 353.592C41.5133 341.567 44.9998 331.535 44.9998 331.535C45.8843 328.99 46.6971 327 47.1242 325.98C50.1998 325.112 54.9197 324.167 60.6848 324.509C66.0687 324.829 70.3875 326.154 73.2651 327.287Z" fill="white"/>
<path d="M68.5677 358C68.5677 358 64.4837 360.941 63.6667 365.025C62.8497 369.11 60.0723 401.133 60.0723 401.133" fill="white"/>
<path d="M68.5674 358C68.5674 358 64.4835 360.941 63.6665 365.025C62.8495 369.11 59.5266 411.064 58.6279 420.091" stroke="black" stroke-width="2" stroke-linejoin="round"/>
<line x1="43.0361" y1="459.961" x2="48.299" y2="459.961" stroke="black" stroke-width="2" stroke-linejoin="round"/>
<line x1="42.9517" y1="462.703" x2="48.2146" y2="462.703" stroke="black" stroke-width="2" stroke-linejoin="round"/>
<line x1="69.6681" y1="460.025" x2="74.1387" y2="459.402" stroke="black" stroke-width="2" stroke-linejoin="round"/>
<line x1="70.319" y1="462.971" x2="74.7896" y2="462.347" stroke="black" stroke-width="2" stroke-linejoin="round"/>
<path d="M47.708 344.799C49.594 343.423 52.5722 341.333 56.0069 339.285C57.6675 338.294 59.3843 337.344 61.7515 336.606C62.554 336.356 63.2327 336.192 63.6995 336.09C62.7581 336.055 61.9923 336.105 61.4706 336.156C59.7694 336.324 58.4081 336.731 56.8243 337.212C56.1556 337.415 55.6463 337.589 55.4228 337.666C52.6519 338.619 49.5506 340.008 47.795 340.82C47.7555 341.344 47.7257 341.889 47.708 342.452C47.6819 343.272 47.6847 344.056 47.708 344.799Z" fill="#444444"/>
<path d="M68.3948 262.747C61.733 260.861 51.2007 261.779 49.9355 271.671C47.0993 274.481 46.7054 278.659 48.656 281.331C50.7349 284.178 54.5417 284.038 54.8487 284.022C55.3304 284.263 57.2367 285.147 59.6197 284.54C62.1211 283.903 63.3894 282.072 63.6703 281.643C58.9192 280.655 59.5872 273.966 59.1209 271.32C59.2234 271.64 67.1711 271.178 67.7818 270.008C67.7663 270.669 71.4079 270.711 71.631 270.708C71.2062 275.165 70.781 279.622 70.3562 284.079C70.5234 284.092 74.0056 284.299 75.8938 281.61C77.4636 279.376 77.2381 276.129 75.2181 273.857C77.1618 270.001 72.3782 263.24 68.3948 262.747Z" fill="#444444"/>
<path d="M59.1211 265.836C59.1211 265.836 56.264 268.169 56.4969 269.977C56.7298 271.785 59.1211 271.318 59.1211 271.318" fill="#444444"/>
<path d="M69.269 266.828C69.3213 266.977 69.6412 267.942 69.0944 268.927C68.5126 269.976 67.4282 270.186 67.2861 270.211" fill="#444444"/>
<path d="M71.6313 270.709C71.6313 270.709 72.7684 270.562 73.235 269.863C73.7018 269.163 73.4103 267.297 73.4103 267.297" fill="#444444"/>
<path d="M55.388 277.273C55.1575 277.644 54.8817 278.196 54.7466 278.906C54.4499 280.467 55.0354 281.725 55.2715 282.173" fill="#444444"/>
<path d="M56.9988 288.268C57.1451 286.227 57.2917 284.185 57.438 282.145C57.2681 282.103 55.7439 281.706 55.1543 280.241C54.7798 279.31 54.7873 277.96 55.6257 277.159C55.7621 277.029 56.2881 276.554 57.0813 276.554C57.0813 276.554 57.562 276.583 58.937 277.553C57.4413 272.047 59.7298 267.226 62.9577 266.158C66.1119 265.114 69.8229 267.485 71.3311 270.155C72.4145 272.071 72.2851 274.018 72.069 277.268C71.9134 279.606 71.4401 281.082 70.8556 282.906C70.0674 285.365 69.5248 285.932 68.9999 286.26C67.6025 287.134 65.8614 286.604 65.2889 286.403C65.4873 287.421 65.6858 288.439 65.8843 289.457C62.9223 289.06 59.9608 288.664 56.9988 288.268Z" fill="#F08566"/>
<path d="M56.9988 288.268C57.1451 286.227 57.2917 284.185 57.438 282.145C57.2681 282.103 55.7439 281.706 55.1543 280.241C54.7798 279.31 54.7873 277.96 55.6257 277.159C55.7621 277.029 56.2881 276.554 57.0813 276.554C57.0813 276.554 57.562 276.583 58.937 277.553C57.4413 272.047 59.7298 267.226 62.9577 266.158C66.1119 265.114 69.8229 267.485 71.3311 270.155C72.4145 272.071 72.2851 274.018 72.069 277.268C71.9134 279.606 71.4401 281.082 70.8556 282.906C70.0674 285.365 69.5248 285.932 68.9999 286.26C67.6025 287.134 65.8614 286.604 65.2889 286.403C65.4873 287.421 65.6858 288.439 65.8843 289.457C62.9223 289.06 59.9608 288.664 56.9988 288.268Z" stroke="#303030" stroke-width="1.5" stroke-linecap="round" stroke-linejoin="round"/>
<path d="M67.6798 275.234C67.5837 276.063 67.7682 276.538 67.9652 276.822C68.079 276.986 68.2434 277.153 68.2861 277.447C68.329 277.736 68.2363 278.032 68.0902 278.232C67.792 278.637 67.1599 278.788 66.5376 278.571" stroke="#070707" stroke-width="1.5" stroke-linecap="round" stroke-linejoin="round"/>
<path d="M63.3857 279.719C63.4891 279.97 63.7416 280.478 64.2897 280.86C65.301 281.566 66.4566 281.243 66.6211 281.193" stroke="#070707" stroke-width="1.5" stroke-linecap="round" stroke-linejoin="round"/>
<path d="M56.7402 273.148C57.8106 273.606 59.0781 273.416 60.1046 272.867C61.1307 272.317 61.9478 271.446 62.6576 270.523C62.965 270.124 63.3372 269.668 63.8411 269.679C64.1779 269.687 64.4672 269.907 64.7802 270.031C65.8188 270.444 66.9945 269.781 68.0985 269.96C68.7635 270.067 69.3393 270.469 69.9717 270.702C70.6039 270.934 71.4214 270.946 71.8378 270.416C72.1876 269.97 72.1093 269.328 71.9425 268.786C70.9136 265.445 67.1338 263.411 63.66 263.797C62.9021 263.881 62.1479 264.064 61.4702 264.413C60.316 265.008 59.4576 266.036 58.6322 267.038C57.7174 268.148 56.7905 269.276 56.2148 270.594" fill="#444444"/>
<path d="M61.9585 273.853C62.3437 273.603 62.9822 273.258 63.8389 273.076C64.6125 272.911 65.2725 272.942 65.7081 272.997" stroke="#070707" stroke-width="1.5" stroke-linecap="round" stroke-linejoin="round"/>
<path d="M68.1167 272.78C68.4844 272.616 69.1084 272.393 69.9086 272.376C70.5421 272.363 71.0604 272.483 71.407 272.593" stroke="#070707" stroke-width="1.5" stroke-linecap="round" stroke-linejoin="round"/>
<path d="M65.541 275.742C65.2485 275.742 64.9836 275.539 64.9178 275.241L64.84 274.883C64.765 274.537 64.982 274.195 65.3273 274.121C65.664 274.033 66.0129 274.259 66.0893 274.605L66.1666 274.964C66.2421 275.31 66.0245 275.652 65.6794 275.726C65.6329 275.738 65.5877 275.742 65.541 275.742Z" fill="#1C1C1C"/>
<path d="M71.0304 275.047C70.7378 275.047 70.4728 274.844 70.4072 274.545L70.3294 274.187C70.254 273.841 70.4715 273.499 70.8166 273.425C71.1534 273.337 71.5022 273.564 71.5787 273.91L71.6559 274.268C71.7315 274.615 71.514 274.956 71.1688 275.03C71.1222 275.042 71.0771 275.047 71.0304 275.047Z" fill="#1C1C1C"/>
<path d="M63.2783 274.925C64.1624 274.747 65.0469 274.569 65.9309 274.391" stroke="#070707" stroke-width="1.5" stroke-linecap="round" stroke-linejoin="round"/>
<path d="M68.7686 274.23C69.6526 274.052 70.5371 273.873 71.4212 273.695" stroke="#070707" stroke-width="1.5" stroke-linecap="round" stroke-linejoin="round"/>
<path d="M57.7102 280.906L55.4702 285.062L59.9501 285.209L57.7102 280.906Z" stroke="#232323" stroke-width="1.5" stroke-linecap="round" stroke-linejoin="round"/>
<path d="M72.3934 282.18L70.1533 286.335L74.6333 286.482L72.3934 282.18Z" stroke="#232323" stroke-width="1.5" stroke-linecap="round" stroke-linejoin="round"/>
<path d="M59.8319 267.898C58.8273 268.514 58.2594 269.77 58.4607 270.931C58.592 271.689 59.0154 272.46 58.7522 273.182" stroke="#232323" stroke-width="1.5" stroke-linecap="round" stroke-linejoin="round"/>
<path d="M46.8162 367.762C47.3095 371.232 46.9714 374.398 43.7067 377.304C43.5837 377.246 43.4188 377.144 43.3107 376.964C42.9008 376.284 44.4077 373.832 44.4077 373.832C44.5404 373.233 44.6527 372.485 44.6638 371.624C44.6723 370.945 44.6163 370.34 44.5372 369.829C44.5368 369.828 44.4497 372.402 43.3173 375.26C43.0984 375.812 41.3446 378.224 41.3446 378.224C41.129 378.199 40.9986 378.123 40.9147 378.042C40.4695 377.61 40.7373 376.429 41.5827 375.098C41.7681 373.935 41.9529 372.771 42.1384 371.607C41.954 372.592 41.5636 374.042 40.6712 375.605C39.6884 377.327 38.5052 378.469 37.699 379.136C37.4852 378.886 37.2849 378.559 37.2373 378.157C37.2373 378.156 37.1497 377.42 38.7582 375.267C38.9212 374.864 39.0782 374.422 39.2183 373.941C39.509 372.946 39.6557 372.029 39.7247 371.243C39.3356 372.628 38.4865 374.541 38.4865 374.541C38.2244 374.971 37.8712 375.472 37.4022 375.986C36.8661 376.574 36.3295 377.012 35.8792 377.331C35.7612 377.217 35.6066 377.033 35.5325 376.775C35.3728 376.217 35.697 375.687 36.058 375.097C36.2317 374.812 36.5019 374.424 36.9057 374.016C37.0758 373.157 37.2462 372.298 37.4162 371.439C37.2388 369.784 37.1228 367.978 37.1116 366.038C37.0939 362.872 37.3593 360.022 37.7394 357.562C40.1406 356.999 42.5418 356.437 44.9429 355.875C44.9261 357.15 45.0379 358.393 45.2163 359.604" fill="#F08566"/>
<path d="M46.8162 367.762C47.3095 371.232 46.9714 374.398 43.7067 377.304C43.5837 377.246 43.4188 377.144 43.3107 376.964C42.9008 376.284 44.4077 373.832 44.4077 373.832C44.5404 373.233 44.6527 372.485 44.6638 371.624C44.6723 370.945 44.6163 370.34 44.5372 369.829C44.5368 369.828 44.4497 372.402 43.3173 375.26C43.0984 375.812 41.3446 378.224 41.3446 378.224C41.129 378.199 40.9986 378.123 40.9147 378.042C40.4695 377.61 40.7373 376.429 41.5827 375.098C41.7681 373.935 41.9529 372.771 42.1384 371.607C41.954 372.592 41.5636 374.042 40.6712 375.605C39.6884 377.327 38.5052 378.469 37.699 379.136C37.4852 378.886 37.2849 378.559 37.2373 378.157C37.2373 378.156 37.1497 377.42 38.7582 375.267C38.9212 374.864 39.0782 374.422 39.2183 373.941C39.509 372.946 39.6557 372.029 39.7247 371.243C39.3356 372.628 38.4865 374.541 38.4865 374.541C38.2244 374.971 37.8712 375.472 37.4022 375.986C36.8661 376.574 36.3295 377.012 35.8792 377.331C35.7612 377.217 35.6066 377.033 35.5325 376.775C35.3728 376.217 35.697 375.687 36.058 375.097C36.2317 374.812 36.5019 374.424 36.9057 374.016C37.0758 373.157 37.2462 372.298 37.4162 371.439C37.2388 369.784 37.1228 367.978 37.1116 366.038C37.0939 362.872 37.3593 360.022 37.7394 357.562C40.1406 356.999 42.5418 356.437 44.9429 355.875C44.9261 357.15 45.0379 358.393 45.2163 359.604" stroke="#303030" stroke-width="1.5" stroke-linecap="round" stroke-linejoin="round"/>
<path d="M44.5649 358.742C44.9866 359.253 47.1594 361.847 47.7304 362.861C48.4748 364.183 48.9174 365.268 49.2573 366.535C49.5568 367.652 49.8563 368.768 50.1559 369.884C50.1559 369.884 49.4441 370.72 48.5233 369.745C47.5306 368.696 47.5242 367.365 47.0485 367.342C46.9866 367.339 46.8869 367.357 46.7579 367.491C46.8245 367.921 46.892 368.353 46.9587 368.784" fill="#F08566"/>
<path d="M44.5649 358.742C44.9866 359.253 47.1594 361.847 47.7304 362.861C48.4748 364.183 48.9174 365.268 49.2573 366.535C49.5568 367.652 49.8563 368.768 50.1559 369.884C50.1559 369.884 49.4441 370.72 48.5233 369.745C47.5306 368.696 47.5242 367.365 47.0485 367.342C46.9866 367.339 46.8869 367.357 46.7579 367.491C46.8245 367.921 46.892 368.353 46.9587 368.784" stroke="#303030" stroke-width="1.5" stroke-linecap="round" stroke-linejoin="round"/>
<path d="M71.4008 271.099C71.7469 270.869 71.8083 270.387 71.772 269.973C71.7017 269.168 71.3845 268.385 70.8745 267.758" stroke="#232323" stroke-width="1.5" stroke-linecap="round" stroke-linejoin="round"/>
<path d="M66.6166 265.719C66.6729 267.47 65.5406 269.198 63.9121 269.844" stroke="#232323" stroke-width="1.5" stroke-linecap="round" stroke-linejoin="round"/>
<path d="M55.053 287.547C34.7945 293.113 33.1578 305.01 33.155 325.599C32.9248 331.902 32.6454 338.285 32.3132 344.746C31.9923 350.988 31.6299 357.152 31.2295 363.238C31.9589 362.696 33.079 361.996 34.5635 361.571C36.646 360.975 38.1203 361.301 40.0715 361.329C41.6915 361.353 43.9874 361.177 46.8062 360.249C47.048 357.075 47.2562 353.824 47.4239 350.501C47.5934 347.147 47.715 343.863 47.7937 340.653C52.7674 338.137 62.208 335.644 69.1836 335.78C69.1836 335.78 75.434 339.313 76.2487 338.905C77.0638 338.497 78.8444 327.21 78.8444 327.21C82.1655 313.944 83.1121 312.182 81.1637 304.203C79.287 296.52 79.1915 293.52 79.8185 293.681C81.0933 291.922 60.0733 287.69 55.053 287.547Z" fill="#65EAC9"/>
<path d="M64.9713 311.595C64.9713 311.595 67.8237 309.15 67.9601 302.357C68.0966 295.563 67.8977 289.499 67.8977 289.499L55.0532 287.547C55.0532 287.547 60.8909 301.032 65.1049 311.97" fill="#444444"/>
<path d="M45.3452 304.781C47.9923 321.042 48.4455 327.757 48.1637 330.465C48.105 331.032 47.6946 334.494 47.8111 339.161C47.827 339.791 47.8488 340.31 47.8651 340.654" stroke="#232323" stroke-width="1.5" stroke-linecap="round" stroke-linejoin="round"/>
<path d="M49.3462 291.492C49.3462 291.492 52.4707 302.09 55.1886 307.933C57.9059 313.775 59.9443 318.937 61.167 323.829C62.3896 328.72 62.3896 331.845 62.3896 331.845" stroke="#232323" stroke-width="1.5" stroke-linecap="round" stroke-linejoin="round"/>
<path d="M72.4439 294.07C72.4439 294.07 72.3085 311.869 71.2213 314.45C70.134 317.031 69.7266 318.39 69.7266 318.39" stroke="#232323" stroke-width="1.5" stroke-linecap="round" stroke-linejoin="round"/>
<path d="M80.1887 305.078C80.1887 305.078 79.9167 317.578 79.3731 319.887C78.8295 322.197 76.9277 326.409 76.9277 326.409" stroke="#232323" stroke-width="1.5" stroke-linecap="round" stroke-linejoin="round"/>
<line x1="88.9932" y1="313.349" x2="89.4324" y2="318.625" stroke="#232323" stroke-width="1.5" stroke-linecap="round" stroke-linejoin="round"/>
<path d="M60.5381 300.375C62.7529 306.123 69.0853 322.763 69.3192 324.776C69.9982 330.618 68.9116 334.965 68.9116 334.965" stroke="#232323" stroke-width="1.5" stroke-linecap="round" stroke-linejoin="round"/>
<path d="M111.408 301.064C110.481 298.373 109.224 294.56 108.093 290.513C107.549 288.564 107.47 287.782 107.498 286.703C107.541 285.065 107.95 284.36 108.635 281.292C108.635 281.292 109.066 279.513 109.337 277.599C109.658 275.336 109.838 273.203 109.924 271.228C109.95 271.117 110.142 270.37 110.847 270.046C111.155 269.905 111.445 269.898 111.618 269.91C111.777 273.079 111.869 275.572 111.92 277.118C111.978 278.84 112.221 281.49 112.872 284.045C113.036 284.691 113.226 285.257 113.457 285.924C114.068 287.69 115.344 291.052 117.931 296.211C115.757 297.829 113.582 299.446 111.408 301.064Z" fill="#F08566"/>
<path d="M111.408 301.064C110.481 298.373 109.224 294.56 108.093 290.513C107.549 288.564 107.47 287.782 107.498 286.703C107.541 285.065 107.95 284.36 108.635 281.292C108.635 281.292 109.066 279.513 109.337 277.599C109.658 275.336 109.838 273.203 109.924 271.228C109.95 271.117 110.142 270.37 110.847 270.046C111.155 269.905 111.445 269.898 111.618 269.91C111.777 273.079 111.869 275.572 111.92 277.118C111.978 278.84 112.221 281.49 112.872 284.045C113.036 284.691 113.226 285.257 113.457 285.924C114.068 287.69 115.344 291.052 117.931 296.211C115.757 297.829 113.582 299.446 111.408 301.064Z" stroke="#303030" stroke-width="1.5" stroke-linecap="round" stroke-linejoin="round"/>
<path d="M107.775 289.301C107.811 287.798 108.159 286.703 108.523 285.929C109.234 284.422 109.915 284.338 110.242 283.02C110.613 281.528 109.933 280.859 110.387 279.667C110.774 278.651 111.667 278.093 112.355 277.781C112.258 279.586 112.33 282.171 113.138 285.156C113.626 286.963 114.267 288.485 114.875 289.691" fill="#F08566"/>
<path d="M107.775 289.301C107.811 287.798 108.159 286.703 108.523 285.929C109.234 284.422 109.915 284.338 110.242 283.02C110.613 281.528 109.933 280.859 110.387 279.667C110.774 278.651 111.667 278.093 112.355 277.781C112.258 279.586 112.33 282.171 113.138 285.156C113.626 286.963 114.267 288.485 114.875 289.691" stroke="#303030" stroke-width="1.5" stroke-linecap="round" stroke-linejoin="round"/>
<path d="M139.949 325.583C138.919 327.333 136.273 331.244 131.296 333.281C129.596 333.976 128.007 334.296 126.692 334.436C126.131 334.087 125.244 333.501 124.244 332.668C119.103 328.383 117.052 322.634 116.007 319.593C115.079 316.894 115.053 316.083 113.531 311.388C113.13 310.151 112.625 308.737 111.934 307.022C111.934 307.022 111.81 306.713 109.199 300.386L119.371 293.931C120.101 295.517 121.211 297.944 122.558 300.939C123.906 303.938 124.392 305.059 125.318 307.07C126.128 308.831 127.317 311.362 128.843 314.427C129.607 309.936 130.709 306.347 131.602 303.851C133.442 298.706 134.121 295.39 137.342 293.238C138.558 292.426 140.332 292.069 142.791 291.282C142.791 291.282 144.983 290.581 151.911 289.328C147.924 301.413 143.936 313.498 139.949 325.583Z" fill="#65EAC9"/>
<path d="M143.367 327.638C142.933 329.253 142.266 331.697 141.406 334.664C140.137 339.043 139.14 342.178 138.969 342.724C135.988 352.292 136.137 368.395 136.137 368.43C136.137 383.392 137.244 413.698 139.522 460.205C142.674 457.456 146.362 453.72 149.868 448.825C152.206 445.56 154.002 442.424 155.386 439.628C155.437 438.609 155.692 433.494 155.743 432.475C156.184 423.616 156.619 414.757 157.05 405.899C157.315 414.438 158.247 423.168 159.984 432.04C160.06 432.424 160.136 432.808 160.214 433.19C163.756 426.789 167.325 419.813 170.791 412.267C173.945 405.403 176.684 398.786 179.067 392.495C179.087 391.056 179.292 370.915 176.533 353.943C174.683 342.567 171.632 331.888 171.632 331.888L171.632 331.887C170.747 329.342 169.935 327.352 169.507 326.332C166.432 325.464 161.712 324.519 155.947 324.861C150.563 325.18 146.244 326.506 143.367 327.638Z" fill="white"/>
<path d="M148.063 358.359C148.063 358.359 152.147 361.3 152.964 365.385C153.781 369.469 156.559 401.492 156.559 401.492" fill="white"/>
<path d="M148.063 358.359C148.063 358.359 152.147 361.3 152.964 365.385C153.755 369.335 158.778 420.315 158.778 420.315C158.778 420.315 160.822 433.061 160.871 433.524" stroke="black" stroke-width="2" stroke-linejoin="round"/>
<path d="M168.924 345.158C167.038 343.782 164.059 341.693 160.625 339.644C158.964 338.654 157.247 337.703 154.881 336.965C154.078 336.715 153.399 336.552 152.933 336.449C153.874 336.414 154.639 336.464 155.161 336.516C156.862 336.683 158.224 337.09 159.808 337.572C160.476 337.775 160.986 337.948 161.209 338.025C163.98 338.979 168.475 340.232 170.231 341.044C170.27 341.569 171.673 343.323 171.692 343.886C171.717 344.706 168.947 344.415 168.924 345.158Z" fill="#444444"/>
<path d="M148.237 263.106C154.898 261.221 165.431 262.138 166.696 272.03C169.532 274.84 169.926 279.018 167.975 281.69C165.897 284.537 162.09 284.397 161.783 284.381C161.301 284.622 159.395 285.506 157.012 284.899C154.51 284.262 153.242 282.431 152.961 282.003C157.712 281.014 157.044 274.325 157.51 271.68C157.408 271.999 149.46 271.538 148.85 270.367C148.865 271.029 145.223 271.071 145 271.067C145.425 275.524 145.85 279.981 146.275 284.438C146.108 284.451 142.626 284.658 140.737 281.97C139.168 279.735 139.393 276.489 141.413 274.216C139.47 270.36 144.253 263.6 148.237 263.106Z" fill="#444444"/>
<path d="M157.511 266.195C157.511 266.195 160.368 268.528 160.135 270.336C159.902 272.144 157.511 271.678 157.511 271.678" fill="#444444"/>
<path d="M147.363 267.188C147.31 267.337 146.99 268.302 147.538 269.287C148.119 270.335 149.203 270.545 149.345 270.571" fill="#444444"/>
<path d="M145.001 271.068C145.001 271.068 143.864 270.922 143.397 270.222C142.93 269.523 143.222 267.656 143.222 267.656" fill="#444444"/>
<path d="M161.243 277.625C161.474 277.996 161.749 278.547 161.885 279.258C162.181 280.818 161.596 282.077 161.36 282.524" fill="#444444"/>
<path d="M159.632 288.627C159.486 286.586 159.339 284.545 159.193 282.504C159.363 282.463 160.887 282.065 161.477 280.6C161.851 279.669 161.844 278.319 161.006 277.518C160.869 277.388 160.343 276.913 159.55 276.913C159.55 276.913 159.069 276.943 157.694 277.912C159.19 272.406 156.902 267.585 153.674 266.517C150.519 265.474 146.808 267.844 145.3 270.514C144.217 272.431 144.346 274.378 144.562 277.627C144.718 279.966 145.191 281.441 145.776 283.265C146.564 285.724 147.107 286.292 147.631 286.62C149.029 287.494 150.77 286.963 151.342 286.762C151.144 287.78 150.946 288.798 150.747 289.816C153.709 289.42 156.67 289.023 159.632 288.627Z" fill="#F08566"/>
<path d="M159.632 288.627C159.486 286.586 159.339 284.545 159.193 282.504C159.363 282.463 160.887 282.065 161.477 280.6C161.851 279.669 161.844 278.319 161.006 277.518C160.869 277.388 160.343 276.913 159.55 276.913C159.55 276.913 159.069 276.943 157.694 277.912C159.19 272.406 156.902 267.585 153.674 266.517C150.519 265.474 146.808 267.844 145.3 270.514C144.217 272.431 144.346 274.378 144.562 277.627C144.718 279.966 145.191 281.441 145.776 283.265C146.564 285.724 147.107 286.292 147.631 286.62C149.029 287.494 150.77 286.963 151.342 286.762C151.144 287.78 150.946 288.798 150.747 289.816C153.709 289.42 156.67 289.023 159.632 288.627Z" stroke="#303030" stroke-width="1.5" stroke-linecap="round" stroke-linejoin="round"/>
<path d="M148.951 275.594C149.047 276.422 148.863 276.898 148.666 277.182C148.552 277.345 148.388 277.513 148.345 277.806C148.302 278.095 148.395 278.392 148.541 278.591C148.839 278.996 149.471 279.147 150.094 278.93" stroke="#070707" stroke-width="1.5" stroke-linecap="round" stroke-linejoin="round"/>
<path d="M153.246 280.078C153.142 280.329 152.89 280.837 152.341 281.22C151.33 281.926 150.175 281.602 150.01 281.553" stroke="#070707" stroke-width="1.5" stroke-linecap="round" stroke-linejoin="round"/>
<path d="M159.891 273.507C158.821 273.965 157.553 273.775 156.527 273.226C155.5 272.677 154.684 271.805 153.974 270.883C153.666 270.483 153.294 270.028 152.79 270.039C152.454 270.046 152.164 270.266 151.851 270.39C150.812 270.803 149.636 270.141 148.533 270.319C147.868 270.426 147.292 270.828 146.66 271.061C146.027 271.293 145.21 271.305 144.794 270.775C144.444 270.329 144.522 269.687 144.689 269.145C145.718 265.805 149.498 263.77 152.971 264.156C153.729 264.24 154.483 264.424 155.161 264.773C156.315 265.367 157.174 266.396 157.999 267.397C158.914 268.507 159.841 269.636 160.417 270.954" fill="#444444"/>
<path d="M154.673 274.212C154.288 273.963 153.65 273.617 152.793 273.435C152.019 273.27 151.359 273.302 150.923 273.357" stroke="#070707" stroke-width="1.5" stroke-linecap="round" stroke-linejoin="round"/>
<path d="M148.515 273.14C148.147 272.975 147.523 272.753 146.723 272.735C146.09 272.722 145.571 272.842 145.225 272.952" stroke="#070707" stroke-width="1.5" stroke-linecap="round" stroke-linejoin="round"/>
<path d="M151.091 276.102C151.383 276.102 151.648 275.899 151.714 275.6L151.792 275.242C151.867 274.896 151.65 274.554 151.304 274.48C150.968 274.392 150.619 274.619 150.542 274.965L150.465 275.323C150.39 275.67 150.607 276.011 150.952 276.085C150.999 276.097 151.044 276.102 151.091 276.102Z" fill="#1C1C1C"/>
<path d="M145.6 275.406C145.893 275.406 146.158 275.203 146.224 274.905L146.301 274.547C146.377 274.201 146.159 273.859 145.814 273.785C145.477 273.697 145.128 273.923 145.052 274.27L144.975 274.628C144.899 274.974 145.117 275.316 145.462 275.39C145.509 275.402 145.554 275.406 145.6 275.406Z" fill="#1C1C1C"/>
<path d="M153.353 275.284C152.469 275.106 151.584 274.928 150.7 274.75" stroke="#070707" stroke-width="1.5" stroke-linecap="round" stroke-linejoin="round"/>
<path d="M147.863 274.589C146.979 274.411 146.094 274.233 145.21 274.055" stroke="#070707" stroke-width="1.5" stroke-linecap="round" stroke-linejoin="round"/>
<path d="M158.921 281.266L161.161 285.421L156.681 285.568L158.921 281.266Z" stroke="#232323" stroke-width="1.5" stroke-linecap="round" stroke-linejoin="round"/>
<path d="M144.238 282.539L146.478 286.694L141.998 286.842L144.238 282.539Z" stroke="#232323" stroke-width="1.5" stroke-linecap="round" stroke-linejoin="round"/>
<path d="M156.8 268.258C157.805 268.874 158.372 270.13 158.171 271.291C158.04 272.048 157.616 272.819 157.88 273.542" stroke="#232323" stroke-width="1.5" stroke-linecap="round" stroke-linejoin="round"/>
<path d="M169.816 368.122C169.323 371.592 169.66 374.758 172.925 377.663C173.048 377.605 173.213 377.504 173.321 377.324C173.731 376.643 172.224 374.192 172.224 374.192C172.091 373.592 171.979 372.844 171.968 371.983C171.96 371.304 172.015 370.699 172.095 370.188C172.095 370.188 172.182 372.761 173.315 375.619C173.534 376.171 175.287 378.584 175.287 378.584C175.503 378.558 175.633 378.482 175.717 378.401C176.162 377.969 175.895 376.789 175.049 375.458C174.864 374.294 174.679 373.13 174.493 371.966C174.678 372.951 175.068 374.401 175.961 375.965C176.943 377.687 178.127 378.829 178.933 379.495C179.147 379.246 179.347 378.918 179.395 378.516C179.395 378.516 179.482 377.779 177.874 375.627C177.711 375.224 177.554 374.782 177.413 374.301C177.123 373.305 176.976 372.388 176.907 371.602C177.296 372.988 178.145 374.901 178.145 374.901C178.407 375.331 178.761 375.831 179.23 376.346C179.766 376.934 180.302 377.372 180.753 377.69C180.871 377.576 181.025 377.392 181.099 377.134C181.259 376.576 180.935 376.046 180.574 375.456C180.4 375.171 180.13 374.784 179.726 374.375C179.556 373.516 179.386 372.657 179.216 371.799C179.393 370.144 179.509 368.337 179.52 366.398C179.538 363.231 179.272 360.381 178.892 357.921C176.491 357.359 174.09 356.797 171.689 356.234C171.706 357.51 171.594 358.752 171.416 359.963" fill="#F08566"/>
<path d="M169.816 368.122C169.323 371.592 169.66 374.758 172.925 377.663C173.048 377.605 173.213 377.504 173.321 377.324C173.731 376.643 172.224 374.192 172.224 374.192C172.091 373.592 171.979 372.844 171.968 371.983C171.96 371.304 172.015 370.699 172.095 370.188C172.095 370.188 172.182 372.761 173.315 375.619C173.534 376.171 175.287 378.584 175.287 378.584C175.503 378.558 175.633 378.482 175.717 378.401C176.162 377.969 175.895 376.789 175.049 375.458C174.864 374.294 174.679 373.13 174.493 371.966C174.678 372.951 175.068 374.401 175.961 375.965C176.943 377.687 178.127 378.829 178.933 379.495C179.147 379.246 179.347 378.918 179.395 378.516C179.395 378.516 179.482 377.779 177.874 375.627C177.711 375.224 177.554 374.782 177.413 374.301C177.123 373.305 176.976 372.388 176.907 371.602C177.296 372.988 178.145 374.901 178.145 374.901C178.407 375.331 178.761 375.831 179.23 376.346C179.766 376.934 180.302 377.372 180.753 377.69C180.871 377.576 181.025 377.392 181.099 377.134C181.259 376.576 180.935 376.046 180.574 375.456C180.4 375.171 180.13 374.784 179.726 374.375C179.556 373.516 179.386 372.657 179.216 371.799C179.393 370.144 179.509 368.337 179.52 366.398C179.538 363.231 179.272 360.381 178.892 357.921C176.491 357.359 174.09 356.797 171.689 356.234C171.706 357.51 171.594 358.752 171.416 359.963" stroke="#303030" stroke-width="1.5" stroke-linecap="round" stroke-linejoin="round"/>
<path d="M171.735 359.352C171.313 359.863 169.473 362.2 168.901 363.215C168.157 364.536 167.714 365.622 167.374 366.889C167.075 368.005 166.775 369.122 166.476 370.238C166.476 370.238 167.187 371.074 168.109 370.099C169.101 369.049 169.107 367.719 169.583 367.696C169.645 367.692 169.745 367.711 169.874 367.844C169.807 368.275 169.74 368.706 169.673 369.137" fill="#F08566"/>
<path d="M171.735 359.352C171.313 359.863 169.473 362.2 168.901 363.215C168.157 364.536 167.714 365.622 167.374 366.889C167.075 368.005 166.775 369.122 166.476 370.238C166.476 370.238 167.187 371.074 168.109 370.099C169.101 369.049 169.107 367.719 169.583 367.696C169.645 367.692 169.745 367.711 169.874 367.844C169.807 368.275 169.74 368.706 169.673 369.137" stroke="#303030" stroke-width="1.5" stroke-linecap="round" stroke-linejoin="round"/>
<path d="M145.23 271.458C144.884 271.229 144.823 270.747 144.859 270.332C144.93 269.527 145.247 268.745 145.757 268.117" stroke="#232323" stroke-width="1.5" stroke-linecap="round" stroke-linejoin="round"/>
<path d="M150.015 266.078C149.958 267.829 151.091 269.557 152.719 270.204" stroke="#232323" stroke-width="1.5" stroke-linecap="round" stroke-linejoin="round"/>
<path d="M161.579 287.906C181.837 293.472 183.473 305.369 183.477 325.959C185.137 341.762 184.28 350.298 182.721 361.56C179.195 361.914 172.221 361.03 168.466 360.327C168.56 352.615 168.159 349.122 169.119 341.831C167.558 341.041 165.274 339.435 162.79 338.65C158.179 337.19 152.233 336.046 147.448 336.139C147.448 336.139 141.198 339.672 140.383 339.264C139.568 338.856 137.938 336.003 137.938 336.003C134.616 322.738 128.304 318.076 133.825 302.471C135.333 297.406 136.088 294.873 136.813 294.041C135.538 292.282 156.558 288.05 161.579 287.906Z" fill="#65EAC9"/>
<path d="M151.66 311.955C151.66 311.955 148.808 309.509 148.671 302.716C148.535 295.922 148.807 288.857 148.807 288.857L161.578 287.906C161.578 287.906 155.741 301.392 151.527 312.329" fill="#444444"/>
<path d="M171.286 305.133C168.639 321.394 168.186 328.108 168.467 330.817C168.526 331.383 168.936 334.846 168.82 339.513C168.804 340.143 168.782 340.662 168.766 341.006" stroke="#232323" stroke-width="1.5" stroke-linecap="round" stroke-linejoin="round"/>
<path d="M167.285 291.852C167.285 291.852 164.161 302.45 161.443 308.292C158.725 314.134 156.687 319.296 155.464 324.188C154.242 329.08 154.242 332.204 154.242 332.204" stroke="#232323" stroke-width="1.5" stroke-linecap="round" stroke-linejoin="round"/>
<path d="M144.188 294.43C144.188 294.43 144.323 312.228 145.41 314.809C146.497 317.391 146.905 318.75 146.905 318.75" stroke="#232323" stroke-width="1.5" stroke-linecap="round" stroke-linejoin="round"/>
<path d="M136.442 305.438C136.442 305.438 136.714 317.937 137.258 320.247C137.802 322.557 139.703 326.769 139.703 326.769" stroke="#232323" stroke-width="1.5" stroke-linecap="round" stroke-linejoin="round"/>
<line x1="129.449" y1="315.3" x2="128.754" y2="319.188" stroke="#232323" stroke-width="1.5" stroke-linecap="round" stroke-linejoin="round"/>
<path d="M35.5112 364.863C36.0062 364.881 36.4292 364.86 36.7491 364.833C36.9821 363.799 37.3742 362.152 36.9266 361.164C32.0327 362.174 30.8467 362.881 30.8705 363.369C30.9045 364.067 33.4472 364.789 35.5112 364.863Z" fill="#444444"/>
<path d="M151.527 312.331C151.527 312.331 156.563 299.772 156.789 299.084C156.89 298.777 152.138 310.475 151.527 312.331ZM151.527 312.331C150.473 315.533 147.546 323.126 147.312 325.137C146.633 330.979 147.72 335.326 147.72 335.326" stroke="#232323" stroke-width="1.5" stroke-linecap="round" stroke-linejoin="round"/>
</svg>
