<svg width="37" height="39" viewBox="0 0 37 39" fill="none" xmlns="http://www.w3.org/2000/svg">
<path d="M23.2718 16.2804C23.2718 17.3977 22.8769 18.4227 21.9128 19.5612C21.3681 20.2594 20.0772 20.9202 18.632 20.9202C16.0695 20.9202 13.9922 18.8429 13.9922 16.2804C13.9922 13.7179 16.0695 11.6406 18.632 11.6406C21.1945 11.6406 23.2718 13.7179 23.2718 16.2804Z" fill="white" stroke="#F5F5F5" stroke-width="1.5"/>
<path d="M3.17916 11.9678C6.81191 -4.00155 30.4709 -3.98311 34.0852 11.9862C36.2058 21.3539 28.3787 30.909 23.2707 35.8142C19.5642 39.3916 16.7002 39.3916 12.9752 35.8142C7.88567 30.909 1.05852 21.3355 3.17916 11.9678Z" fill="#0CAE67"/>
<path d="M31.5256 15.8695C31.5256 18.9684 30.4303 21.8115 27.7562 24.9696C26.2454 26.9062 22.6648 28.739 18.6561 28.739C11.5485 28.739 5.78662 22.9771 5.78662 15.8695C5.78662 8.76187 11.5485 3 18.6561 3C25.7638 3 31.5256 8.76187 31.5256 15.8695Z" fill="#051A0F"/>
<path fill-rule="evenodd" clip-rule="evenodd" d="M26.1472 16.9387C26.1472 17.3117 26.1472 17.6474 26.1472 18.0204C26.1472 18.0577 26.11 18.095 26.11 18.1323C26.0727 18.4306 26.0727 18.729 25.9981 19.0274C25.9608 19.4004 25.8862 19.7361 25.6624 20.0718C25.3267 20.6312 24.6554 20.8177 24.0959 20.4821C23.8721 20.3328 23.6111 20.1837 23.4245 19.9971C22.8277 19.5123 22.3056 18.9155 21.7834 18.3187C21.5596 18.0577 21.2986 17.9458 20.9628 17.9458C19.3963 17.9458 17.8671 17.9458 16.3006 17.9458C15.9649 17.9458 15.7038 18.0577 15.48 18.3187C15.2189 18.6171 14.9579 18.8782 14.6967 19.1766C14.2492 19.6242 13.8016 20.0718 13.2422 20.4075C13.0929 20.5193 12.9065 20.5939 12.72 20.5939C12.1233 20.6685 11.6384 20.3701 11.4146 19.8107C11.3027 19.4749 11.2281 19.1393 11.1908 18.8037C11.1535 18.5426 11.1162 18.2814 11.1162 18.0204C11.1162 17.6474 11.1162 17.2744 11.1162 16.9014C11.1162 16.8641 11.1535 16.7895 11.1535 16.7523C11.1908 15.9317 11.34 15.1112 11.601 14.3278C11.8994 13.4327 12.3097 12.5376 12.9065 11.7916C13.5779 11.0084 14.3983 10.598 15.48 10.6727C16.1887 10.7473 16.8228 11.0084 17.3822 11.4186C17.6433 11.6051 17.979 11.717 18.3147 11.717C18.5011 11.717 18.6877 11.717 18.9115 11.717C19.2471 11.717 19.5455 11.6051 19.8439 11.4186C20.0304 11.3067 20.2168 11.1949 20.4406 11.083C21.1493 10.7473 21.858 10.5608 22.6413 10.7473C23.4618 10.8964 24.0586 11.4186 24.5434 12.0527C25.4013 13.2462 25.8489 14.6262 26.0727 16.0809C26.11 16.3793 26.11 16.6403 26.1472 16.9387ZM14.8087 14.0668C14.5103 14.0668 14.2119 14.0668 13.9135 14.0668C13.8016 14.0668 13.7644 14.1041 13.727 14.216C13.6524 14.477 13.6524 14.7008 13.727 14.9619C13.7644 15.0738 13.8389 15.1484 13.9881 15.1484C14.1746 15.1484 14.3985 15.1484 14.5849 15.1484C14.6595 15.1484 14.7341 15.1484 14.7713 15.1484C14.7713 15.4468 14.7713 15.7452 14.7713 16.0063C14.7713 16.1181 14.8087 16.1555 14.8833 16.1928C15.1443 16.3046 15.3681 16.3046 15.6292 16.2301C15.7411 16.1928 15.8157 16.1181 15.8157 15.9689C15.8157 15.7079 15.8157 15.4096 15.8157 15.1484C16.1514 15.1484 16.4125 15.1484 16.7108 15.1484C16.7481 15.1484 16.8228 15.1112 16.8601 15.0738C16.972 14.8127 17.0465 14.5889 16.9347 14.2906C16.8601 14.1414 16.7854 14.0668 16.599 14.0668C16.3379 14.1041 16.1141 14.0668 15.8531 14.0668C15.8531 13.7684 15.8531 13.47 15.8531 13.1716C15.8531 13.1343 15.8157 13.0597 15.7784 13.0224C15.5173 12.9105 15.219 12.9105 14.9579 12.9851C14.8833 13.0224 14.8087 13.0597 14.846 13.1716C14.8087 13.4327 14.8087 13.7311 14.8087 14.0668ZM24.3942 14.4025C24.3942 13.9549 24.0213 13.5819 23.5737 13.5819C23.1261 13.5819 22.7531 13.9549 22.7531 14.4025C22.7531 14.8501 23.1261 15.223 23.5737 15.223C24.0213 15.1857 24.3942 14.8501 24.3942 14.4025ZM22.3802 13.1716C22.3802 12.7241 22.0072 12.3511 21.5596 12.3511C21.112 12.3511 20.739 12.7241 20.739 13.1716C20.739 13.6192 21.112 13.9922 21.5596 13.9922C22.0072 13.9922 22.3802 13.6192 22.3802 13.1716ZM21.5596 16.2301C22.0072 16.2301 22.3802 15.8944 22.3802 15.4468C22.3802 14.9992 22.0445 14.6262 21.5969 14.6262C21.1493 14.6262 20.7763 14.9619 20.7763 15.4468C20.739 15.8571 21.112 16.2301 21.5596 16.2301Z" fill="url(#paint0_linear_2_5039)" stroke="black"/>
<defs>
<linearGradient id="paint0_linear_2_5039" x1="14.874" y1="13.1604" x2="14.874" y2="13.1604" gradientUnits="userSpaceOnUse">
<stop stop-color="#19F97E"/>
<stop offset="1" stop-color="#0A9F62"/>
</linearGradient>
</defs>
</svg>
