<svg width="36" height="39" viewBox="0 0 36 39" fill="none" xmlns="http://www.w3.org/2000/svg">
<path d="M22.4851 16.2804C22.4851 17.3977 22.0903 18.4227 21.1262 19.5612C20.5815 20.2594 19.2906 20.9202 17.8454 20.9202C15.2829 20.9202 13.2056 18.8429 13.2056 16.2804C13.2056 13.7179 15.2829 11.6406 17.8454 11.6406C20.4078 11.6406 22.4851 13.7179 22.4851 16.2804Z" fill="white" stroke="#F5F5F5" stroke-width="1.5"/>
<path d="M2.39205 11.9678C6.0248 -4.00155 29.6838 -3.98311 33.2981 11.9862C35.4187 21.3539 27.5916 30.909 22.4836 35.8142C18.7771 39.3916 15.9131 39.3916 12.1881 35.8142C7.09857 30.909 0.271411 21.3355 2.39205 11.9678Z" fill="#0CAE67"/>
<path d="M30.739 15.8695C30.739 18.9684 29.6437 21.8115 26.9696 24.9696C25.4588 26.9062 21.8782 28.739 17.8695 28.739C10.7619 28.739 5 22.9771 5 15.8695C5 8.76187 10.7619 3 17.8695 3C24.9771 3 30.739 8.76187 30.739 15.8695Z" fill="#051A0F"/>
<path fill-rule="evenodd" clip-rule="evenodd" d="M24.3536 8.79688C24.6963 8.96271 24.748 9.14697 24.571 9.49713C24.5342 9.57086 24.549 9.67773 24.5599 9.76617C24.5784 9.93933 24.6263 10.1089 24.6336 10.2822C24.6521 10.6912 24.4162 10.9271 24.0108 10.905C23.8266 10.8939 23.6459 10.8498 23.4654 10.8239C23.2332 10.787 23.1925 10.8276 23.2332 11.0598C23.2626 11.2183 23.2958 11.3768 23.3141 11.5352C23.3694 11.9665 23.1226 12.2465 22.6914 12.2281C22.4997 12.2208 22.3118 12.1691 22.12 12.1433C21.9064 12.1139 21.8805 12.1433 21.9137 12.3497C21.9395 12.5009 21.969 12.6483 21.9948 12.7993C22.0722 13.3117 21.7663 13.6213 21.2504 13.5402C21.0809 13.5144 20.915 13.4775 20.7491 13.4517C20.6127 13.4333 20.576 13.4628 20.5906 13.5992C20.6054 13.7392 20.6385 13.8792 20.657 14.0193C20.668 14.0967 20.679 14.1741 20.679 14.2515C20.6864 14.6642 20.4247 14.9075 20.012 14.8633C19.8536 14.8485 19.6951 14.8154 19.5365 14.7822C19.4148 14.7564 19.308 14.7601 19.1974 14.8375C19.0242 14.9554 18.7885 14.9075 18.663 14.749C18.5303 14.5831 18.5414 14.3473 18.6925 14.1962C18.8952 13.9935 19.1496 13.9346 19.4259 13.9456C19.5439 13.9493 19.6618 13.9714 19.7983 13.9861C19.7466 13.5955 19.6912 13.1974 20.0083 12.8804C20.3216 12.5635 20.7159 12.6114 21.1214 12.6667C21.0661 12.265 21.0144 11.867 21.3351 11.5537C21.6484 11.2441 22.039 11.2919 22.4407 11.3473C22.3781 10.9456 22.3338 10.5512 22.6508 10.2379C22.9642 9.92462 23.351 9.96521 23.7602 10.0315C23.7492 9.94678 23.7381 9.86932 23.7308 9.79565C23.7012 9.56348 23.7123 9.33496 23.8191 9.12115C23.8929 8.97375 24.0071 8.86322 24.1581 8.79688C24.2247 8.79688 24.2872 8.79688 24.3536 8.79688Z" fill="url(#paint0_linear_2_4993)"/>
<path fill-rule="evenodd" clip-rule="evenodd" d="M11.1407 22.9494C10.8238 22.7908 10.7575 22.6251 10.8828 22.2933C11.196 21.4531 11.513 20.6165 11.8262 19.776C11.841 19.7356 11.8594 19.695 11.8889 19.625C12.2907 20.5685 12.8435 21.3829 13.5696 22.0942C13.5143 22.1201 13.4737 22.1385 13.4331 22.1534C12.7587 22.4075 12.0806 22.6619 11.4061 22.9161C11.3803 22.9272 11.3582 22.9419 11.3361 22.9529C11.2698 22.9494 11.2034 22.9494 11.1407 22.9494Z" fill="url(#paint1_linear_2_4993)"/>
<path fill-rule="evenodd" clip-rule="evenodd" d="M15.0731 12.8828C15.5817 13.3914 16.0756 13.8853 16.5657 14.3865C16.5989 14.4196 16.6063 14.4933 16.6063 14.5487C16.5142 16.3325 16.9896 17.9505 18.0363 19.3989C18.2279 19.6679 18.4528 19.9148 18.6665 20.1802C18.6444 20.1912 18.615 20.2097 18.5818 20.2207C18.1063 20.4013 17.6272 20.5782 17.1518 20.7625C17.067 20.7957 17.0117 20.7809 16.9417 20.7257C15.5965 19.6089 14.793 18.1863 14.5498 16.4578C14.3802 15.2489 14.5535 14.0843 15.0326 12.9602C15.04 12.9418 15.051 12.9234 15.0731 12.8828Z" fill="url(#paint2_linear_2_4993)"/>
<path fill-rule="evenodd" clip-rule="evenodd" d="M13.6799 14.8438C13.5178 17.3388 14.3286 19.4175 16.1235 21.1239C16.0903 21.1423 16.0608 21.1608 16.0313 21.1718C15.5375 21.3561 15.0399 21.5404 14.5497 21.7284C14.4687 21.7578 14.4171 21.7468 14.3544 21.6914C13.3814 20.818 12.7143 19.7529 12.3753 18.485C12.3605 18.4261 12.3568 18.3561 12.379 18.3008C12.7955 17.1766 13.2156 16.0526 13.6394 14.9322C13.6431 14.9138 13.6578 14.8953 13.6799 14.8438Z" fill="url(#paint3_linear_2_4993)"/>
<path fill-rule="evenodd" clip-rule="evenodd" d="M17.4248 15.25C17.48 15.3016 17.5169 15.3311 17.5464 15.3642C18.6484 16.4662 19.7466 17.5645 20.8486 18.6665C20.9592 18.7734 21.0403 18.8914 21.0256 19.0535C21.0071 19.223 20.9187 19.3483 20.7565 19.4073C20.3806 19.551 20.001 19.6948 19.6177 19.8311C19.5809 19.8459 19.5109 19.8237 19.4777 19.7943C18.6705 19.0277 18.0919 18.1174 17.7454 17.0596C17.5574 16.481 17.4506 15.8913 17.4248 15.25Z" fill="url(#paint4_linear_2_4993)"/>
<g filter="url(#filter0_d_2_4993)">
<path fill-rule="evenodd" clip-rule="evenodd" d="M24.2759 15.4853C24.0733 15.4521 23.8999 15.4116 23.7268 15.4043C22.7096 15.3416 21.8767 15.7581 21.1505 16.4288C21.099 16.4767 21.0511 16.5284 20.9994 16.5688C20.8299 16.7015 20.5904 16.6831 20.4465 16.5357C20.2955 16.3808 20.2808 16.1266 20.4356 15.9718C21.4712 14.9472 22.6764 14.3833 24.169 14.6265C24.2464 14.6376 24.3237 14.6598 24.3976 14.6855C24.5891 14.7519 24.6997 14.951 24.6666 15.1462C24.6297 15.349 24.4529 15.489 24.2759 15.4853Z" fill="url(#paint5_linear_2_4993)"/>
</g>
<path fill-rule="evenodd" clip-rule="evenodd" d="M19.2305 10.2495C19.1825 11.3883 18.7181 12.3319 17.9626 13.1537C17.9147 13.2053 17.8668 13.2532 17.8188 13.3011C17.6456 13.467 17.4024 13.4744 17.2365 13.3159C17.0707 13.1574 17.0633 12.8957 17.2328 12.7225C17.5203 12.4277 17.7783 12.1107 17.97 11.7459C18.3312 11.064 18.4786 10.3527 18.2906 9.58979C18.239 9.37968 18.3717 9.16227 18.5745 9.10334C18.7919 9.04066 19.0278 9.15119 19.0793 9.37232C19.1456 9.65983 19.1825 9.95469 19.2305 10.2495Z" fill="url(#paint6_linear_2_4993)"/>
<path fill-rule="evenodd" clip-rule="evenodd" d="M23.4983 17.4133C23.502 17.6454 23.3252 17.8298 23.0966 17.8336C22.868 17.8409 22.6729 17.6491 22.6729 17.4206C22.6729 17.1958 22.857 17.0079 23.0854 17.0079C23.314 17.0041 23.4946 17.1847 23.4983 17.4133Z" fill="url(#paint7_linear_2_4993)"/>
<path fill-rule="evenodd" clip-rule="evenodd" d="M17.0521 10.979C17.0485 11.2075 16.8569 11.3917 16.632 11.3881C16.4036 11.3844 16.2229 11.1965 16.2266 10.9679C16.2303 10.7394 16.4146 10.5625 16.6468 10.5625C16.8753 10.5662 17.0559 10.7505 17.0521 10.979Z" fill="url(#paint8_linear_2_4993)"/>
<path fill-rule="evenodd" clip-rule="evenodd" d="M20.7456 10.7944C20.5172 10.7944 20.3328 10.6175 20.3292 10.3852C20.3256 10.1567 20.5099 9.97247 20.7383 9.9688C20.9668 9.96511 21.1511 10.1494 21.1511 10.3778C21.1548 10.61 20.9778 10.7907 20.7456 10.7944Z" fill="url(#paint9_linear_2_4993)"/>
<path fill-rule="evenodd" clip-rule="evenodd" d="M24.0844 13.3076C24.088 13.5361 23.9038 13.7203 23.6752 13.724C23.4467 13.7277 23.2588 13.5434 23.2588 13.3149C23.2552 13.0864 23.4429 12.9022 23.6678 12.8984C23.8964 12.8984 24.0844 13.0828 24.0844 13.3076Z" fill="url(#paint10_linear_2_4993)"/>
<defs>
<filter id="filter0_d_2_4993" x="17.3262" y="14.5703" width="10.3462" height="8.08594" filterUnits="userSpaceOnUse" color-interpolation-filters="sRGB">
<feFlood flood-opacity="0" result="BackgroundImageFix"/>
<feColorMatrix in="SourceAlpha" type="matrix" values="0 0 0 0 0 0 0 0 0 0 0 0 0 0 0 0 0 0 127 0" result="hardAlpha"/>
<feOffset dy="3"/>
<feGaussianBlur stdDeviation="1.5"/>
<feComposite in2="hardAlpha" operator="out"/>
<feColorMatrix type="matrix" values="0 0 0 0 0 0 0 0 0 0 0 0 0 0 0 0 0 0 0.160784 0"/>
<feBlend mode="normal" in2="BackgroundImageFix" result="effect1_dropShadow_2_4993"/>
<feBlend mode="normal" in="SourceGraphic" in2="effect1_dropShadow_2_4993" result="shape"/>
</filter>
<linearGradient id="paint0_linear_2_4993" x1="20.0957" y1="10.3234" x2="20.0957" y2="10.3234" gradientUnits="userSpaceOnUse">
<stop stop-color="#19F97E"/>
<stop offset="1" stop-color="#0A9F62"/>
</linearGradient>
<linearGradient id="paint1_linear_2_4993" x1="11.5098" y1="20.457" x2="11.5098" y2="20.457" gradientUnits="userSpaceOnUse">
<stop stop-color="#19F97E"/>
<stop offset="1" stop-color="#0A9F62"/>
</linearGradient>
<linearGradient id="paint2_linear_2_4993" x1="15.5314" y1="14.8571" x2="15.5314" y2="14.8571" gradientUnits="userSpaceOnUse">
<stop stop-color="#19F97E"/>
<stop offset="1" stop-color="#0A9F62"/>
</linearGradient>
<linearGradient id="paint3_linear_2_4993" x1="13.3033" y1="16.5689" x2="13.3033" y2="16.5689" gradientUnits="userSpaceOnUse">
<stop stop-color="#19F97E"/>
<stop offset="1" stop-color="#0A9F62"/>
</linearGradient>
<linearGradient id="paint4_linear_2_4993" x1="18.3254" y1="16.3965" x2="18.3254" y2="16.3965" gradientUnits="userSpaceOnUse">
<stop stop-color="#19F97E"/>
<stop offset="1" stop-color="#0A9F62"/>
</linearGradient>
<linearGradient id="paint5_linear_2_4993" x1="21.4127" y1="15.0923" x2="21.4127" y2="15.0923" gradientUnits="userSpaceOnUse">
<stop stop-color="#19F97E"/>
<stop offset="1" stop-color="#0A9F62"/>
</linearGradient>
<linearGradient id="paint6_linear_2_4993" x1="17.6393" y1="10.172" x2="17.6393" y2="10.172" gradientUnits="userSpaceOnUse">
<stop stop-color="#19F97E"/>
<stop offset="1" stop-color="#0A9F62"/>
</linearGradient>
<linearGradient id="paint7_linear_2_4993" x1="22.8792" y1="17.2143" x2="22.8792" y2="17.2143" gradientUnits="userSpaceOnUse">
<stop stop-color="#19F97E"/>
<stop offset="1" stop-color="#0A9F62"/>
</linearGradient>
<linearGradient id="paint8_linear_2_4993" x1="16.433" y1="10.7689" x2="16.433" y2="10.7689" gradientUnits="userSpaceOnUse">
<stop stop-color="#19F97E"/>
<stop offset="1" stop-color="#0A9F62"/>
</linearGradient>
<linearGradient id="paint9_linear_2_4993" x1="20.5346" y1="10.1752" x2="20.5346" y2="10.1752" gradientUnits="userSpaceOnUse">
<stop stop-color="#19F97E"/>
<stop offset="1" stop-color="#0A9F62"/>
</linearGradient>
<linearGradient id="paint10_linear_2_4993" x1="23.4652" y1="13.1048" x2="23.4652" y2="13.1048" gradientUnits="userSpaceOnUse">
<stop stop-color="#19F97E"/>
<stop offset="1" stop-color="#0A9F62"/>
</linearGradient>
</defs>
</svg>
