<svg width="36" height="39" viewBox="0 0 36 39" fill="none" xmlns="http://www.w3.org/2000/svg">
<path d="M22.7947 16.7648C22.7947 17.882 22.3998 18.907 21.4357 20.0456C20.8911 20.7438 19.6002 21.4046 18.1549 21.4046C15.5924 21.4046 13.5151 19.3273 13.5151 16.7648C13.5151 14.2023 15.5924 12.125 18.1549 12.125C20.7174 12.125 22.7947 14.2023 22.7947 16.7648Z" fill="white" stroke="#F5F5F5" stroke-width="1.5"/>
<path d="M2.70162 12.4522C6.33437 -3.51718 29.9934 -3.49874 33.6077 12.4706C35.7283 21.8383 27.9012 31.3934 22.7932 36.2985C19.0867 39.876 16.2226 39.876 12.4977 36.2985C7.40814 31.3934 0.580982 21.8199 2.70162 12.4522Z" fill="#0CAE67"/>
<path d="M31.0486 16.3539C31.0486 19.4528 29.9533 22.2959 27.2792 25.454C25.7684 27.3906 22.1878 29.2234 18.1791 29.2234C11.0714 29.2234 5.30957 23.4615 5.30957 16.3539C5.30957 9.24625 11.0714 3.48438 18.1791 3.48438C25.2867 3.48438 31.0486 9.24625 31.0486 16.3539Z" fill="#051A0F"/>
<path fill-rule="evenodd" clip-rule="evenodd" d="M10.9697 20.4781C10.9697 18.3152 10.9697 16.1522 10.9697 13.9931C10.9774 13.974 10.9926 13.951 10.9964 13.932C11.1338 13.127 11.767 12.5434 12.5834 12.5015C13.0717 12.4747 13.5638 12.49 14.0559 12.49C14.1588 12.49 14.2161 12.4557 14.2695 12.3718C14.4984 12.0132 14.7387 11.6622 14.9714 11.3074C15.33 10.7581 15.845 10.4911 16.4935 10.4872C17.6036 10.4834 18.7099 10.4834 19.82 10.4872C20.4685 10.4911 20.9835 10.7581 21.342 11.3074C21.5786 11.666 21.8189 12.0246 22.0516 12.3832C22.1012 12.4594 22.1508 12.49 22.2424 12.49C22.6811 12.4862 23.1235 12.4862 23.5623 12.49C24.2375 12.4938 24.7715 12.7646 25.1072 13.356C25.2179 13.5505 25.2637 13.7794 25.3399 13.9931C25.3399 16.156 25.3399 18.319 25.3399 20.4781C25.2903 20.6421 25.2598 20.8177 25.1873 20.9703C24.8593 21.6607 24.2947 21.9926 23.5394 21.9926C19.9459 21.9926 16.3562 21.9926 12.7627 21.9926C12.7054 21.9926 12.652 21.9926 12.5948 21.9888C11.8509 21.943 11.2406 21.4585 11.0346 20.7604C11.0155 20.6689 10.9964 20.5736 10.9697 20.4781ZM18.1644 12.8486C16.0357 12.8371 14.2924 14.569 14.2848 16.7015C14.2771 18.8302 16.009 20.5811 18.1529 20.5811C20.3121 20.5811 22.0211 18.8607 22.0326 16.7282C22.044 14.5996 20.3044 12.8562 18.1644 12.8486ZM23.0702 13.9015C23.0702 13.8976 23.0702 13.8976 23.0702 13.9015C22.9519 13.9015 22.8375 13.8938 22.7192 13.9015C22.4445 13.9205 22.2462 14.1266 22.2347 14.3898C22.2232 14.6377 22.3987 14.8704 22.662 14.8971C22.9252 14.9238 23.196 14.9238 23.4593 14.8971C23.7187 14.8743 23.8941 14.6377 23.8788 14.386C23.8636 14.1227 23.6691 13.9167 23.4059 13.9015C23.2953 13.8938 23.1845 13.9015 23.0702 13.9015Z" fill="url(#paint0_linear_2_5030)"/>
<path fill-rule="evenodd" clip-rule="evenodd" d="M18.1378 18.8628C16.9323 18.8362 15.9748 17.8672 16.0015 16.6999C16.0282 15.5097 17.02 14.5369 18.1798 14.5712C19.389 14.6055 20.3427 15.5707 20.3159 16.738C20.2894 17.9282 19.3089 18.8896 18.1378 18.8628Z" fill="url(#paint1_linear_2_5030)"/>
<defs>
<linearGradient id="paint0_linear_2_5030" x1="14.5623" y1="13.3614" x2="14.5623" y2="13.3614" gradientUnits="userSpaceOnUse">
<stop stop-color="#19F97E"/>
<stop offset="1" stop-color="#0A9F62"/>
</linearGradient>
<linearGradient id="paint1_linear_2_5030" x1="17.0799" y1="15.6436" x2="17.0799" y2="15.6436" gradientUnits="userSpaceOnUse">
<stop stop-color="#19F97E"/>
<stop offset="1" stop-color="#0A9F62"/>
</linearGradient>
</defs>
</svg>
