<svg width="36" height="39" viewBox="0 0 36 39" fill="none" xmlns="http://www.w3.org/2000/svg">
<path d="M22.6399 16.2804C22.6399 17.3977 22.245 18.4227 21.281 19.5612C20.7363 20.2594 19.4454 20.9202 18.0001 20.9202C15.4377 20.9202 13.3604 18.8429 13.3604 16.2804C13.3604 13.7179 15.4377 11.6406 18.0001 11.6406C20.5626 11.6406 22.6399 13.7179 22.6399 16.2804Z" fill="white" stroke="#F5F5F5" stroke-width="1.5"/>
<path d="M2.54733 11.9678C6.18008 -4.00155 29.8391 -3.98311 33.4534 11.9862C35.574 21.3539 27.7469 30.909 22.6389 35.8142C18.9324 39.3916 16.0683 39.3916 12.3434 35.8142C7.25384 30.909 0.426685 21.3355 2.54733 11.9678Z" fill="#07AB64"/>
<path d="M30.739 15.8695C30.739 18.9684 29.6437 21.8115 26.9696 24.9696C25.4588 26.9062 21.8782 28.739 17.8695 28.739C10.7619 28.739 5 22.9771 5 15.8695C5 8.76187 10.7619 3 17.8695 3C24.9771 3 30.739 8.76187 30.739 15.8695Z" fill="#051A0F"/>
<path fill-rule="evenodd" clip-rule="evenodd" d="M11.021 15.7225C11.0674 15.3693 11.1066 15.0126 11.1602 14.6595C11.1851 14.4883 11.2279 14.3206 11.2779 14.1565C11.2921 14.1101 11.3456 14.0638 11.392 14.0388C11.977 13.7249 12.6084 13.5429 13.2541 13.411C13.9104 13.2755 14.5704 13.1577 15.2267 13.015C16.1257 12.8188 16.9319 12.4121 17.681 11.8842C17.7487 11.8378 17.813 11.7879 17.8914 11.7344C18.1768 11.9662 18.4586 12.1981 18.7511 12.4371C18.4301 12.6726 18.1233 12.8937 17.8201 13.1255C16.5644 14.078 15.4016 15.1303 14.3777 16.3289C13.6465 17.185 12.9973 18.0947 12.5656 19.1434C12.4764 19.3574 12.4086 19.5786 12.3337 19.7962C12.3159 19.8462 12.3016 19.8961 12.2767 19.9781C12.1625 19.7962 12.0626 19.6464 11.9699 19.4859C11.5382 18.7439 11.26 17.9484 11.1209 17.1065C11.0852 16.8925 11.0745 16.6749 11.0496 16.4573C11.0424 16.3967 11.0353 16.3325 11.0281 16.2718C11.021 16.0863 11.021 15.9044 11.021 15.7225Z" fill="url(#paint0_linear_2_5012)"/>
<path fill-rule="evenodd" clip-rule="evenodd" d="M17.7773 22.9758C18.5264 21.1779 18.8903 19.2731 19.3612 17.3967C19.5146 16.7903 19.6894 16.191 19.8891 15.5988C20.0389 15.1529 20.2922 14.8391 20.5918 14.625C20.6739 14.7784 20.7559 14.9247 20.8309 15.078C21.3838 16.1839 21.737 17.3575 21.9759 18.5703C22.1507 19.4586 22.2506 20.3539 22.3005 21.2564C22.3112 21.424 22.2649 21.5204 22.1257 21.6238C21.2303 22.2767 20.2351 22.694 19.1435 22.8794C18.8725 22.9259 18.5942 22.9437 18.3195 22.9758C18.1412 22.9758 17.9593 22.9758 17.7773 22.9758Z" fill="url(#paint1_linear_2_5012)"/>
<path fill-rule="evenodd" clip-rule="evenodd" d="M24.9722 16.4366C24.9365 16.7006 24.9115 16.9681 24.8616 17.2285C24.6119 18.609 23.9983 19.8076 23.0316 20.8243C23.0209 20.8349 23.003 20.8456 22.978 20.8635C22.7961 18.5662 22.3431 16.3581 21.2124 14.2928C21.4763 14.2428 21.7295 14.1929 21.9792 14.1465C22.4752 14.0573 22.8853 14.2571 23.2706 14.5317C23.8093 14.917 24.2444 15.4163 24.669 15.9158C24.7687 16.0335 24.8687 16.1512 24.9686 16.269C24.9722 16.3296 24.9722 16.3831 24.9722 16.4366Z" fill="url(#paint2_linear_2_5012)"/>
<path fill-rule="evenodd" clip-rule="evenodd" d="M18.405 9.02344C18.4872 9.03769 18.5728 9.05197 18.6691 9.06619C18.6833 9.37302 18.7368 9.69406 18.6298 9.99011C18.5692 10.1613 18.4265 10.3076 18.3016 10.4467C18.1732 10.593 18.0198 10.7178 17.8949 10.8355C17.1138 10.3718 16.3468 9.91519 15.5513 9.44077C15.9651 9.33731 16.3718 9.22672 16.782 9.13757C17.0461 9.08047 17.3171 9.06265 17.5881 9.02698C17.8593 9.02344 18.1304 9.02344 18.405 9.02344Z" fill="url(#paint3_linear_2_5012)"/>
<path fill-rule="evenodd" clip-rule="evenodd" d="M19.2968 12.9297C19.6107 13.2935 19.9175 13.6503 20.1779 13.9534C20.0174 14.1425 19.8783 14.303 19.7463 14.4671C19.3147 14.9986 19.0899 15.6264 18.9258 16.2757C18.5727 17.6633 18.2445 19.0581 17.8878 20.4457C17.6845 21.2412 17.4383 22.0224 17.0994 22.7751C17.0531 22.875 17.0067 22.9071 16.8961 22.8893C15.3337 22.6181 14.0031 21.9154 12.9116 20.7632C12.8794 20.7275 12.8617 20.6598 12.8687 20.6098C12.9686 19.8393 13.2825 19.1472 13.6749 18.4873C14.424 17.2281 15.4086 16.1615 16.4787 15.1699C17.3349 14.3743 18.2481 13.6503 19.2112 12.9868C19.2255 12.9724 19.2469 12.9618 19.2968 12.9297Z" fill="url(#paint4_linear_2_5012)"/>
<path fill-rule="evenodd" clip-rule="evenodd" d="M11.6455 13.1363C12.0628 12.2195 12.6301 11.424 13.3898 10.782C13.7679 10.4609 14.196 10.1969 14.6062 9.91514C14.649 9.88654 14.7311 9.88297 14.7775 9.90439C15.6443 10.2826 16.4648 10.7463 17.2424 11.2813C17.2531 11.2885 17.2674 11.2921 17.278 11.2992C17.2816 11.3135 17.2816 11.3277 17.2853 11.342C16.9249 11.5453 16.5682 11.7594 16.2008 11.9485C15.6229 12.2481 14.9879 12.3659 14.353 12.4834C13.4577 12.6511 12.5587 12.8117 11.7026 13.1363C11.6883 13.1399 11.674 13.1363 11.6455 13.1363Z" fill="url(#paint5_linear_2_5012)"/>
<path fill-rule="evenodd" clip-rule="evenodd" d="M24.8937 15.0985C24.8082 15.0021 24.7225 14.9094 24.637 14.8167C24.1875 14.3459 23.713 13.9071 23.1137 13.6217C22.6179 13.3862 22.1043 13.3827 21.5834 13.4968C21.3622 13.5432 21.1447 13.611 20.9271 13.6645C20.8878 13.6752 20.8237 13.6645 20.8022 13.636C20.499 13.2686 20.2029 12.8976 19.9033 12.5266C20.6238 12.0628 21.3837 11.6491 22.2612 11.4957C22.5466 11.4457 22.832 11.3958 23.1208 11.3529C23.1601 11.3458 23.2208 11.3672 23.2457 11.3994C24.1661 12.4588 24.7225 13.6823 24.908 15.0735C24.908 15.0842 24.9045 15.0878 24.8937 15.0985Z" fill="url(#paint6_linear_2_5012)"/>
<path fill-rule="evenodd" clip-rule="evenodd" d="M19.3573 12.0493C19.047 11.7888 18.7508 11.5356 18.4263 11.2645C19.1361 10.7401 19.5285 10.0765 19.3537 9.15625C20.5773 9.40948 21.6225 9.92673 22.5821 10.7436C21.362 10.8863 20.3276 11.4036 19.3573 12.0493Z" fill="url(#paint7_linear_2_5012)"/>
<defs>
<linearGradient id="paint0_linear_2_5012" x1="12.9535" y1="13.7953" x2="12.9535" y2="13.7953" gradientUnits="userSpaceOnUse">
<stop stop-color="#19F97E"/>
<stop offset="1" stop-color="#0A9F62"/>
</linearGradient>
<linearGradient id="paint1_linear_2_5012" x1="18.9085" y1="16.7127" x2="18.9085" y2="16.7127" gradientUnits="userSpaceOnUse">
<stop stop-color="#19F97E"/>
<stop offset="1" stop-color="#0A9F62"/>
</linearGradient>
<linearGradient id="paint2_linear_2_5012" x1="22.1523" y1="15.8096" x2="22.1523" y2="15.8096" gradientUnits="userSpaceOnUse">
<stop stop-color="#19F97E"/>
<stop offset="1" stop-color="#0A9F62"/>
</linearGradient>
<linearGradient id="paint3_linear_2_5012" x1="16.3372" y1="9.47646" x2="16.3372" y2="9.47646" gradientUnits="userSpaceOnUse">
<stop stop-color="#19F97E"/>
<stop offset="1" stop-color="#0A9F62"/>
</linearGradient>
<linearGradient id="paint4_linear_2_5012" x1="14.6949" y1="15.4207" x2="14.6949" y2="15.4207" gradientUnits="userSpaceOnUse">
<stop stop-color="#19F97E"/>
<stop offset="1" stop-color="#0A9F62"/>
</linearGradient>
<linearGradient id="paint5_linear_2_5012" x1="13.0555" y1="10.7024" x2="13.0555" y2="10.7024" gradientUnits="userSpaceOnUse">
<stop stop-color="#19F97E"/>
<stop offset="1" stop-color="#0A9F62"/>
</linearGradient>
<linearGradient id="paint6_linear_2_5012" x1="21.1545" y1="12.2883" x2="21.1545" y2="12.2883" gradientUnits="userSpaceOnUse">
<stop stop-color="#19F97E"/>
<stop offset="1" stop-color="#0A9F62"/>
</linearGradient>
<linearGradient id="paint7_linear_2_5012" x1="19.4652" y1="9.8795" x2="19.4652" y2="9.8795" gradientUnits="userSpaceOnUse">
<stop stop-color="#19F97E"/>
<stop offset="1" stop-color="#0A9F62"/>
</linearGradient>
</defs>
</svg>
